<svg width="717" height="344" version="1.1" id="svg232" sodipodi:docname="default.svg" inkscape:version="1.4 (e7c3feb100, 2024-10-09)" xmlns:inkscape="http://www.inkscape.org/namespaces/inkscape" xmlns:sodipodi="http://sodipodi.sourceforge.net/DTD/sodipodi-0.dtd" xmlns="http://www.w3.org/2000/svg" xmlns:svg="http://www.w3.org/2000/svg" xmlns:s="https://github.com/nturley/netlistsvg"><style>  svg {
    stroke:#000;
    fill:none;
  }
  text {
    fill:#000;
    fill-opacity:1.0;
    stroke:none;
    font-size:10px;
    font-weight: bold;
    font-family: "Courier New", monospace;
  }
  line {
      stroke-linecap: round;
  }
  .nodelabel {
    text-anchor: middle;
  }
  .inputPortLabel {
    text-anchor: end;
  }
  .splitjoinBody {
    fill:#000;
  }
  .invert {
    fill:#ff9999;
    fill-opacity:1.0;
  }
  .combinational {
    fill:#afecef;
    fill-opacity:1.0;
  }
  .state {
    fill:#def1b2;
    fill-opacity:1.0;
  }
  .hierarchical {
    fill:#ffd8b2;
    fill-opacity:1.0;
  }
  .io {
    fill:#fcffb2;
    fill-opacity:1.0;
  }</style><g s:type="add" class="hierarchical" transform="translate(231,79)" s:width="25" s:height="25" id="cell_$add$REF.v:25$3"><s:alias val="$add"/><circle r="12.5" cx="12.5" cy="12.5" class="cell_$add$REF.v:25$3" id="circle55"/><line x1="7.5" x2="17.5" y1="12.5" y2="12.5" class="cell_$add$REF.v:25$3" id="line55"/><line x1="12.5" x2="12.5" y1="7.5" y2="17.5" class="cell_$add$REF.v:25$3" id="line56"/><g s:x="2" s:y="5" s:pid="A" id="g56"/><g s:x="2" s:y="20" s:pid="B" id="g57"/><g s:x="26" s:y="12.5" s:pid="Y" id="g58"/></g><g s:type="eq" class="" transform="translate(303.6666666666667,200)" s:width="25" s:height="25" id="cell_$eq$REF.v:31$4" style="fill:#ffd8b2;fill-opacity:1"><s:alias val="$eq"/><s:alias val="$eqx"/><circle r="12.5" cx="12.5" cy="12.5" class="cell_$eq$REF.v:31$4" id="circle69" style="fill:#ffd8b2;fill-opacity:1"/><line x1="7.5" x2="17.5" y1="10" y2="10" class="cell_$eq$REF.v:31$4" id="line69" style="fill:#ffd8b2;fill-opacity:1"/><line x1="7.5" x2="17.5" y1="15" y2="15" class="cell_$eq$REF.v:31$4" id="line70" style="fill:#ffd8b2;fill-opacity:1"/><g s:x="2" s:y="5" s:pid="A" id="g70" style="fill:#ffd8b2;fill-opacity:1"/><g s:x="2" s:y="20" s:pid="B" id="g71" style="fill:#ffd8b2;fill-opacity:1"/><g s:x="25" s:y="12.5" s:pid="Y" id="g72" style="fill:#ffd8b2;fill-opacity:1"/></g><g s:type="and" class="combinational" transform="translate(376,207.5)" s:width="30" s:height="25" id="cell_$logic_and$REF.v:32$5"><s:alias val="$and"/><s:alias val="$logic_and"/><s:alias val="$_AND_"/><s:alias val="$reduce_and"/><path d="M0,0 L0,25 L15,25 A15 12.5 0 0 0 15,0 Z" class="cell_$logic_and$REF.v:32$5" id="path13"/><g s:x="0" s:y="5" s:pid="A" id="g14"/><g s:x="0" s:y="20" s:pid="B" id="g15"/><g s:x="30" s:y="12.5" s:pid="Y" id="g16"/></g><g s:type="dff-bus" class="state" transform="translate(83,128)" s:width="34" s:height="44" id="cell_$procdff$14"><s:alias val="$dff-bus"/><s:alias val="$_DFF_-bus"/><s:alias val="$_DFF_P_-bus"/><s:alias val="adff-bus"/><s:alias val="$adff-bus"/><s:alias val="$_DFF_-bus"/><s:alias val="$_DFF_P_-bus"/><s:alias val="sdff-bus"/><s:alias val="$sdff-bus"/><s:alias val="$_DFF_-bus"/><s:alias val="$_DFF_P_-bus"/><rect width="30" height="40" x="0" y="0" stroke="none" transform="translate(4,4)" style="filter:brightness(0.7);" class="cell_$procdff$14" id="rect162"/><path d="M32,4 L34,4 L34,44 L4,44 L4,42" class="cell_$procdff$14" id="path162"/><rect width="30" height="40" x="0" y="0" stroke="none" transform="translate(2,2)" style="filter:brightness(0.7)" class="cell_$procdff$14" id="rect163"/><path d="M30,2 L32,2 L32,42 L2,42 L2,40" class="cell_$procdff$14" style="" id="path163"/><rect width="30" height="40" x="0" y="0" class="cell_$procdff$14" id="rect164"/><path d="M0,35 L5,30 L0,25 Z" class="cell_$procdff$14" style="fill:#ffffff;" id="path164"/><g s:x="35" s:y="10" s:pid="Q" id="g164"/><g s:x="-1" s:y="30" s:pid="CLK" id="g165"/><g s:x="-1" s:y="30" s:pid="C" id="g166"/><g s:x="-1" s:y="10" s:pid="D" id="g167"/><g s:x="17" s:y="44" s:pid="ARST" id="g168"/><g s:x="17" s:y="44" s:pid="SRST" id="g169"/></g><g s:type="mux-bus" class="combinational" transform="translate(670.5,261)" s:width="24" s:height="40" id="cell_$procmux$12"><s:alias val="$pmux-bus"/><s:alias val="$mux-bus"/><s:alias val="$_MUX_-bus"/><path d="M8,2 L8,0 L24,8 L24,32 L8,40 L8,38" style="filter:brightness(0.7)" class="cell_$procmux$12" id="path6"/><path d="M4,2 L4,0 L22,9 L22,31 L4,40 L4,38" style="filter:brightness(0.7)" class="cell_$procmux$12" id="path7"/><path d="M0,0 L20,10 L20,30 L0,40 Z" class="cell_$procmux$12" id="path8"/><text x="5" y="32" class="nodelabel cell_$procmux$178" s:attribute="" id="text8">1</text><text x="5" y="13" class="nodelabel cell_$procmux$178" s:attribute="" id="text9">0</text><g s:x="-1" s:y="10" s:pid="A" id="g9"/><g s:x="-1" s:y="30" s:pid="B" id="g10"/><g s:x="12" s:y="38" s:pid="S" id="g11"/><g s:x="24.5" s:y="20" s:pid="Y" id="g12"/></g><g s:type="mux-bus" class="combinational" transform="translate(378.3333333333333,139)" s:width="24" s:height="40" id="cell_$procmux$7"><s:alias val="$pmux-bus"/><s:alias val="$mux-bus"/><s:alias val="$_MUX_-bus"/><path d="M8,2 L8,0 L24,8 L24,32 L8,40 L8,38" style="filter:brightness(0.7)" class="cell_$procmux$7" id="path6"/><path d="M4,2 L4,0 L22,9 L22,31 L4,40 L4,38" style="filter:brightness(0.7)" class="cell_$procmux$7" id="path7"/><path d="M0,0 L20,10 L20,30 L0,40 Z" class="cell_$procmux$7" id="path8"/><text x="5" y="32" class="nodelabel cell_$procmux$178" s:attribute="" id="text8">1</text><text x="5" y="13" class="nodelabel cell_$procmux$178" s:attribute="" id="text9">0</text><g s:x="-1" s:y="10" s:pid="A" id="g9"/><g s:x="-1" s:y="30" s:pid="B" id="g10"/><g s:x="12" s:y="38" s:pid="S" id="g11"/><g s:x="24.5" s:y="20" s:pid="Y" id="g12"/></g><g s:type="mux-bus" class="combinational" transform="translate(535,129)" s:width="24" s:height="40" id="cell_$procmux$9"><s:alias val="$pmux-bus"/><s:alias val="$mux-bus"/><s:alias val="$_MUX_-bus"/><path d="M8,2 L8,0 L24,8 L24,32 L8,40 L8,38" style="filter:brightness(0.7)" class="cell_$procmux$9" id="path6"/><path d="M4,2 L4,0 L22,9 L22,31 L4,40 L4,38" style="filter:brightness(0.7)" class="cell_$procmux$9" id="path7"/><path d="M0,0 L20,10 L20,30 L0,40 Z" class="cell_$procmux$9" id="path8"/><text x="5" y="32" class="nodelabel cell_$procmux$178" s:attribute="" id="text8">1</text><text x="5" y="13" class="nodelabel cell_$procmux$178" s:attribute="" id="text9">0</text><g s:x="-1" s:y="10" s:pid="A" id="g9"/><g s:x="-1" s:y="30" s:pid="B" id="g10"/><g s:x="12" s:y="38" s:pid="S" id="g11"/><g s:x="24.5" s:y="20" s:pid="Y" id="g12"/></g><g s:type="inputExt" class="io" transform="translate(12,148)" s:width="30" s:height="20" id="cell_clk"><text x="15" y="-4" class="nodelabel cell_clk" s:attribute="ref" id="text141">clk</text><s:alias val="$_inputExt_"/><path d="M0,0 L0,20 L15,20 L30,10 L15,0 Z" class="cell_clk" id="path141"/><g s:x="30" s:y="10" s:pid="Y" id="g142"/></g><g s:type="inputExt" class="io" transform="translate(599.5,312)" s:width="30" s:height="20" id="cell_reset"><text x="15" y="-4" class="nodelabel cell_reset" s:attribute="ref" id="text141">reset</text><s:alias val="$_inputExt_"/><path d="M0,0 L0,20 L15,20 L30,10 L15,0 Z" class="cell_reset" id="path141"/><g s:x="30" s:y="10" s:pid="Y" id="g142"/></g><g s:type="inputExt" class="io" transform="translate(300,260)" s:width="30" s:height="20" id="cell_enable"><text x="15" y="-4" class="nodelabel cell_enable" s:attribute="ref" id="text141">enable</text><s:alias val="$_inputExt_"/><path d="M0,0 L0,20 L15,20 L30,10 L15,0 Z" class="cell_enable" id="path141"/><g s:x="30" s:y="10" s:pid="Y" id="g142"/></g><g s:type="outputExt" class="io" transform="translate(229,261)" s:width="30" s:height="20" id="cell_count"><text x="15" y="-4" class="nodelabel cell_count" s:attribute="ref" id="text145">count</text><s:alias val="$_outputExt_"/><path d="M30,0 L30,20 L15,20 L0,10 L15,0 Z" class="cell_count" id="path145"/><g s:x="0" s:y="10" s:pid="A" id="g146"/></g><g s:type="outputExt" class="io" transform="translate(446,210)" s:width="30" s:height="20" id="cell_rollover"><text x="15" y="-4" class="nodelabel cell_rollover" s:attribute="ref" id="text145">rollover</text><s:alias val="$_outputExt_"/><path d="M30,0 L30,20 L15,20 L0,10 L15,0 Z" class="cell_rollover" id="path145"/><g s:x="0" s:y="10" s:pid="A" id="g146"/></g><g s:type="constant" class="io" transform="translate(158,89)" s:width="30" s:height="20" id="cell_1"><text x="15" y="-4" class="nodelabel cell_1" s:attribute="ref" id="text143">1</text><s:alias val="$_constant_"/><rect width="30" height="20" class="cell_1" id="rect143"/><g s:x="31" s:y="10" s:pid="Y" id="g144"/></g><g s:type="constant" class="io" transform="translate(158,210)" s:width="30" s:height="20" id="cell_1001"><text x="15" y="-4" class="nodelabel cell_1001" s:attribute="ref" id="text143">0x9</text><s:alias val="$_constant_"/><rect width="30" height="20" class="cell_1001" id="rect143"/><g s:x="31" s:y="10" s:pid="Y" id="g144"/></g><g s:type="constant" class="io" transform="translate(229,159)" s:width="30" s:height="20" id="cell_0000"><text x="15" y="-4" class="nodelabel cell_0000" s:attribute="ref" id="text143">0x0</text><s:alias val="$_constant_"/><rect width="30" height="20" class="cell_0000" id="rect143"/><g s:x="31" s:y="10" s:pid="Y" id="g144"/></g><line x1="118" x2="128" y1="138" y2="138" class="net_5,6,7,8 width_4" style="stroke-width: 2"/><line x1="128" x2="128" y1="138" y2="48" class="net_5,6,7,8 width_4" style="stroke-width: 2"/><line x1="128" x2="199" y1="48" y2="48" class="net_5,6,7,8 width_4" style="stroke-width: 2"/><line x1="199" x2="199" y1="48" y2="84" class="net_5,6,7,8 width_4" style="stroke-width: 2"/><circle cx="128" cy="138" r="3" style="fill:#000" class="net_5,6,7,8 width_4"/><circle cx="128" cy="48" r="3" style="fill:#000" class="net_5,6,7,8 width_4"/><line x1="199" x2="233" y1="84" y2="84" class="net_5,6,7,8 width_4" style="stroke-width: 2"/><line x1="118" x2="280" y1="138" y2="138" class="net_5,6,7,8 width_4" style="stroke-width: 2"/><line x1="280" x2="280" y1="138" y2="205" class="net_5,6,7,8 width_4" style="stroke-width: 2"/><line x1="280" x2="305.6666666666667" y1="205" y2="205" class="net_5,6,7,8 width_4" style="stroke-width: 2"/><line x1="118" x2="128" y1="138" y2="138" class="net_5,6,7,8 width_4" style="stroke-width: 2"/><line x1="128" x2="128" y1="138" y2="33" class="net_5,6,7,8 width_4" style="stroke-width: 2"/><line x1="128" x2="504" y1="33" y2="33" class="net_5,6,7,8 width_4" style="stroke-width: 2"/><line x1="504" x2="504" y1="33" y2="139" class="net_5,6,7,8 width_4" style="stroke-width: 2"/><line x1="504" x2="534" y1="139" y2="139" class="net_5,6,7,8 width_4" style="stroke-width: 2"/><line x1="118" x2="128" y1="138" y2="138" class="net_5,6,7,8 width_4" style="stroke-width: 2"/><line x1="128" x2="128" y1="138" y2="271" class="net_5,6,7,8 width_4" style="stroke-width: 2"/><line x1="128" x2="229" y1="271" y2="271" class="net_5,6,7,8 width_4" style="stroke-width: 2"/><line x1="189" x2="233" y1="99" y2="99" class="net_27 width_1" style="stroke-width: 1"/><line x1="189" x2="305.6666666666667" y1="220" y2="220" class="net_28,29,30,31 width_4" style="stroke-width: 2"/><line x1="328.6666666666667" x2="376" y1="212.5" y2="212.5" class="net_14 width_1" style="stroke-width: 1"/><line x1="328.6666666666667" x2="346" y1="212.5" y2="212.5" class="net_14 width_1" style="stroke-width: 1"/><line x1="346" x2="346" y1="212.5" y2="197.5" class="net_14 width_1" style="stroke-width: 1"/><line x1="346" x2="390.3333333333333" y1="197.5" y2="197.5" class="net_14 width_1" style="stroke-width: 1"/><circle cx="346" cy="212.5" r="2" style="fill:#000" class="net_14 width_1"/><line x1="390.3333333333333" x2="390.3333333333333" y1="197.5" y2="177" class="net_14 width_1" style="stroke-width: 1"/><line x1="330" x2="346" y1="270" y2="270" class="net_4 width_1" style="stroke-width: 1"/><line x1="346" x2="346" y1="270" y2="227.5" class="net_4 width_1" style="stroke-width: 1"/><circle cx="346" cy="270" r="2" style="fill:#000" class="net_4 width_1"/><line x1="346" x2="376" y1="227.5" y2="227.5" class="net_4 width_1" style="stroke-width: 1"/><line x1="330" x2="547" y1="270" y2="270" class="net_4 width_1" style="stroke-width: 1"/><line x1="547" x2="547" y1="270" y2="167" class="net_4 width_1" style="stroke-width: 1"/><line x1="42" x2="82" y1="158" y2="158" class="net_2 width_1" style="stroke-width: 1"/><line x1="695" x2="705" y1="281" y2="281" class="net_15,16,17,18 width_4" style="stroke-width: 2"/><line x1="705" x2="705" y1="281" y2="16" class="net_15,16,17,18 width_4" style="stroke-width: 2"/><line x1="705" x2="52" y1="16" y2="16" class="net_15,16,17,18 width_4" style="stroke-width: 2"/><line x1="52" x2="52" y1="16" y2="138" class="net_15,16,17,18 width_4" style="stroke-width: 2"/><line x1="52" x2="82" y1="138" y2="138" class="net_15,16,17,18 width_4" style="stroke-width: 2"/><line x1="559.5" x2="639.5" y1="149" y2="149" class="net_19,20,21,22 width_4" style="stroke-width: 2"/><line x1="639.5" x2="639.5" y1="149" y2="271" class="net_19,20,21,22 width_4" style="stroke-width: 2"/><line x1="639.5" x2="669.5" y1="271" y2="271" class="net_19,20,21,22 width_4" style="stroke-width: 2"/><line x1="260" x2="270" y1="169" y2="169" class="net_32,33,34,35 width_4" style="stroke-width: 2"/><line x1="270" x2="270" y1="169" y2="291" class="net_32,33,34,35 width_4" style="stroke-width: 2"/><circle cx="270" cy="169" r="3" style="fill:#000" class="net_32,33,34,35 width_4"/><line x1="270" x2="669.5" y1="291" y2="291" class="net_32,33,34,35 width_4" style="stroke-width: 2"/><line x1="260" x2="377.3333333333333" y1="169" y2="169" class="net_32,33,34,35 width_4" style="stroke-width: 2"/><line x1="629.5" x2="682.5" y1="322" y2="322" class="net_3 width_1" style="stroke-width: 1"/><line x1="682.5" x2="682.5" y1="322" y2="299" class="net_3 width_1" style="stroke-width: 1"/><line x1="257" x2="346" y1="91.5" y2="91.5" class="net_10,11,12,13 width_4" style="stroke-width: 2"/><line x1="346" x2="346" y1="91.5" y2="149" class="net_10,11,12,13 width_4" style="stroke-width: 2"/><line x1="346" x2="377.3333333333333" y1="149" y2="149" class="net_10,11,12,13 width_4" style="stroke-width: 2"/><line x1="402.8333333333333" x2="534" y1="159" y2="159" class="net_23,24,25,26 width_4" style="stroke-width: 2"/><line x1="406" x2="446" y1="220" y2="220" class="net_9 width_1" style="stroke-width: 1"/><rect x="172.5" y="266" width="16" height="9" class="net_5,6,7,8 width_4 busLabel_4" style="fill: white; stroke: none"/><text x="171.5" y="274" class="net_5,6,7,8 width_4 busLabel_4">/4/</text><rect x="172.5" y="266" width="16" height="9" class="net_5,6,7,8 width_4 busLabel_4" style="fill: white; stroke: none"/><text x="171.5" y="274" class="net_5,6,7,8 width_4 busLabel_4">/4/</text><rect x="172.5" y="266" width="16" height="9" class="net_5,6,7,8 width_4 busLabel_4" style="fill: white; stroke: none"/><text x="171.5" y="274" class="net_5,6,7,8 width_4 busLabel_4">/4/</text><rect x="172.5" y="266" width="16" height="9" class="net_5,6,7,8 width_4 busLabel_4" style="fill: white; stroke: none"/><text x="171.5" y="274" class="net_5,6,7,8 width_4 busLabel_4">/4/</text><rect x="243.5" y="215" width="16" height="9" class="net_28,29,30,31 width_4 busLabel_4" style="fill: white; stroke: none"/><text x="242.5" y="223" class="net_28,29,30,31 width_4 busLabel_4">/4/</text><rect x="390" y="11" width="16" height="9" class="net_15,16,17,18 width_4 busLabel_4" style="fill: white; stroke: none"/><text x="389" y="19" class="net_15,16,17,18 width_4 busLabel_4">/4/</text><rect x="613.5" y="144" width="16" height="9" class="net_19,20,21,22 width_4 busLabel_4" style="fill: white; stroke: none"/><text x="612.5" y="152" class="net_19,20,21,22 width_4 busLabel_4">/4/</text><rect x="317" y="164" width="16" height="9" class="net_32,33,34,35 width_4 busLabel_4" style="fill: white; stroke: none"/><text x="316" y="172" class="net_32,33,34,35 width_4 busLabel_4">/4/</text><rect x="317" y="164" width="16" height="9" class="net_32,33,34,35 width_4 busLabel_4" style="fill: white; stroke: none"/><text x="316" y="172" class="net_32,33,34,35 width_4 busLabel_4">/4/</text><rect x="317" y="86.5" width="16" height="9" class="net_10,11,12,13 width_4 busLabel_4" style="fill: white; stroke: none"/><text x="316" y="94.5" class="net_10,11,12,13 width_4 busLabel_4">/4/</text><rect x="469" y="154" width="16" height="9" class="net_23,24,25,26 width_4 busLabel_4" style="fill: white; stroke: none"/><text x="468" y="162" class="net_23,24,25,26 width_4 busLabel_4">/4/</text></svg>