<svg xmlns="http://www.w3.org/2000/svg" xmlns:xlink="http://www.w3.org/1999/xlink" xmlns:s="https://github.com/nturley/netlistsvg" width="667" height="260.5"><style>  svg {
    stroke:#000;
    fill:none;
  }
  text {
    fill:#000;
    fill-opacity:1.0;
    stroke:none;
    font-size:10px;
    font-weight: bold;
    font-family: "Courier New", monospace;
  }
  line {
      stroke-linecap: round;
  }
  .nodelabel {
    text-anchor: middle;
  }
  .inputPortLabel {
    text-anchor: end;
  }
  .splitjoinBody {
    fill:#000;
  }
  .invert {
    fill:#ff9999;
    fill-opacity:1.0;
  }
  .combinational {
    fill:#afecef;
    fill-opacity:1.0;
  }
  .state {
    fill:#def1b2;
    fill-opacity:1.0;
  }
  .hierarchical {
    fill:#ffd8b2;
    fill-opacity:1.0;
  }
  .io {
    fill:#fcffb2;
    fill-opacity:1.0;
  }</style><g s:type="add" class="hierarchical" transform="translate(216,48)" s:width="25" s:height="25" id="cell_$add$REF.v:25$3"><s:alias val="$add"/><circle r="12.5" cx="12.5" cy="12.5" class="cell_$add$REF.v:25$3"/><line x1="7.5" x2="17.5" y1="12.5" y2="12.5" class="cell_$add$REF.v:25$3"/><line x1="12.5" x2="12.5" y1="7.5" y2="17.5" class="cell_$add$REF.v:25$3"/><g s:x="2" s:y="5" s:pid="A"/><g s:x="2" s:y="20" s:pid="B"/><g s:x="26" s:y="12.5" s:pid="Y"/></g><g s:type="eq" class="" transform="translate(280,136)" s:width="25" s:height="25" id="cell_$eq$REF.v:31$4"><s:alias val="$eq"/><s:alias val="$eqx"/><circle r="12.5" cx="12.5" cy="12.5" class="cell_$eq$REF.v:31$4"/><line x1="7.5" x2="17.5" y1="10" y2="10" class="cell_$eq$REF.v:31$4"/><line x1="7.5" x2="17.5" y1="15" y2="15" class="cell_$eq$REF.v:31$4"/><g s:x="2" s:y="5" s:pid="A"/><g s:x="2" s:y="20" s:pid="B"/><g s:x="25" s:y="12.5" s:pid="Y"/></g><g s:type="and" class="combinational" transform="translate(532,181)" s:width="30" s:height="25" id="cell_$logic_and$REF.v:32$5"><s:alias val="$and"/><s:alias val="$logic_and"/><s:alias val="$_AND_"/><s:alias val="$reduce_and"/><path d="M0,0 L0,25 L15,25 A15 12.5 0 0 0 15,0 Z" class="cell_$logic_and$REF.v:32$5"/><g s:x="0" s:y="5" s:pid="A"/><g s:x="0" s:y="20" s:pid="B"/><g s:x="30" s:y="12.5" s:pid="Y"/></g><g s:type="dff-bus" class="state" transform="translate(78,27)" s:width="34" s:height="44" id="cell_$procdff$14"><s:alias val="$dff-bus"/><s:alias val="$_DFF_-bus"/><s:alias val="$_DFF_P_-bus"/><s:alias val="adff-bus"/><s:alias val="$adff-bus"/><s:alias val="$_DFF_-bus"/><s:alias val="$_DFF_P_-bus"/><s:alias val="sdff-bus"/><s:alias val="$sdff-bus"/><s:alias val="$_DFF_-bus"/><s:alias val="$_DFF_P_-bus"/><rect width="30" height="40" x="0" y="0" stroke="none" transform="translate(4,4)" style="filter:brightness(0.7);" class="cell_$procdff$14"/><path d="M32,4 L34,4 L34,44 L4,44 L4,42" class="cell_$procdff$14"/><rect width="30" height="40" x="0" y="0" stroke="none" transform="translate(2,2)" style="filter:brightness(0.7)" class="cell_$procdff$14"/><path d="M30,2 L32,2 L32,42 L2,42 L2,40" class="cell_$procdff$14" style=""/><rect width="30" height="40" x="0" y="0" class="cell_$procdff$14"/><path d="M0,35 L5,30 L0,25 Z" class="cell_$procdff$14" style="fill:#ffffff;"/><g s:x="35" s:y="10" s:pid="Q"/><g s:x="-1" s:y="30" s:pid="CLK"/><g s:x="-1" s:y="30" s:pid="C"/><g s:x="-1" s:y="10" s:pid="D"/><g s:x="17" s:y="44" s:pid="ARST"/><g s:x="17" s:y="44" s:pid="SRST"/></g><g s:type="mux-bus" class="combinational" transform="translate(598,37)" s:width="24" s:height="40" id="cell_$procmux$12"><s:alias val="$pmux-bus"/><s:alias val="$mux-bus"/><s:alias val="$_MUX_-bus"/><path d="M8,2 L8,0 L24,8 L24,32 L8,40 L8,38" style="filter:brightness(0.7)" class="cell_$procmux$12"/><path d="M4,2 L4,0 L22,9 L22,31 L4,40 L4,38" style="filter:brightness(0.7)" class="cell_$procmux$12"/><path d="M0,0 L20,10 L20,30 L0,40 Z" class="cell_$procmux$12"/><text x="5" y="32" class="nodelabel cell_$procmux$178" s:attribute="">1</text><text x="5" y="13" class="nodelabel cell_$procmux$178" s:attribute="">0</text><g s:x="-1" s:y="10" s:pid="A"/><g s:x="-1" s:y="30" s:pid="B"/><g s:x="12" s:y="38" s:pid="S"/><g s:x="24.5" s:y="20" s:pid="Y"/></g><g s:type="mux-bus" class="combinational" transform="translate(341,50.5)" s:width="24" s:height="40" id="cell_$procmux$7"><s:alias val="$pmux-bus"/><s:alias val="$mux-bus"/><s:alias val="$_MUX_-bus"/><path d="M8,2 L8,0 L24,8 L24,32 L8,40 L8,38" style="filter:brightness(0.7)" class="cell_$procmux$7"/><path d="M4,2 L4,0 L22,9 L22,31 L4,40 L4,38" style="filter:brightness(0.7)" class="cell_$procmux$7"/><path d="M0,0 L20,10 L20,30 L0,40 Z" class="cell_$procmux$7"/><text x="5" y="32" class="nodelabel cell_$procmux$178" s:attribute="">1</text><text x="5" y="13" class="nodelabel cell_$procmux$178" s:attribute="">0</text><g s:x="-1" s:y="10" s:pid="A"/><g s:x="-1" s:y="30" s:pid="B"/><g s:x="12" s:y="38" s:pid="S"/><g s:x="24.5" s:y="20" s:pid="Y"/></g><g s:type="mux-bus" class="combinational" transform="translate(472.5,27)" s:width="24" s:height="40" id="cell_$procmux$9"><s:alias val="$pmux-bus"/><s:alias val="$mux-bus"/><s:alias val="$_MUX_-bus"/><path d="M8,2 L8,0 L24,8 L24,32 L8,40 L8,38" style="filter:brightness(0.7)" class="cell_$procmux$9"/><path d="M4,2 L4,0 L22,9 L22,31 L4,40 L4,38" style="filter:brightness(0.7)" class="cell_$procmux$9"/><path d="M0,0 L20,10 L20,30 L0,40 Z" class="cell_$procmux$9"/><text x="5" y="32" class="nodelabel cell_$procmux$178" s:attribute="">1</text><text x="5" y="13" class="nodelabel cell_$procmux$178" s:attribute="">0</text><g s:x="-1" s:y="10" s:pid="A"/><g s:x="-1" s:y="30" s:pid="B"/><g s:x="12" s:y="38" s:pid="S"/><g s:x="24.5" s:y="20" s:pid="Y"/></g><g s:type="inputExt" class="io" transform="translate(12,47)" s:width="30" s:height="20" id="cell_clk"><text x="15" y="-4" class="nodelabel cell_clk" s:attribute="ref">clk</text><s:alias val="$_inputExt_"/><path d="M0,0 L0,20 L15,20 L30,10 L15,0 Z" class="cell_clk"/><g s:x="30" s:y="10" s:pid="Y"/></g><g s:type="inputExt" class="io" transform="translate(532,146)" s:width="30" s:height="20" id="cell_reset"><text x="15" y="-4" class="nodelabel cell_reset" s:attribute="ref">reset</text><s:alias val="$_inputExt_"/><path d="M0,0 L0,20 L15,20 L30,10 L15,0 Z" class="cell_reset"/><g s:x="30" s:y="10" s:pid="Y"/></g><g s:type="inputExt" class="io" transform="translate(400.5,156)" s:width="30" s:height="20" id="cell_enable"><text x="15" y="-4" class="nodelabel cell_enable" s:attribute="ref">enable</text><s:alias val="$_inputExt_"/><path d="M0,0 L0,20 L15,20 L30,10 L15,0 Z" class="cell_enable"/><g s:x="30" s:y="10" s:pid="Y"/></g><g s:type="outputExt" class="io" transform="translate(598,228.5)" s:width="30" s:height="20" id="cell_count"><text x="15" y="-4" class="nodelabel cell_count" s:attribute="ref">count</text><s:alias val="$_outputExt_"/><path d="M30,0 L30,20 L15,20 L0,10 L15,0 Z" class="cell_count"/><g s:x="0" s:y="10" s:pid="A"/></g><g s:type="outputExt" class="io" transform="translate(597,183.5)" s:width="30" s:height="20" id="cell_rollover"><text x="15" y="-4" class="nodelabel cell_rollover" s:attribute="ref">rollover</text><s:alias val="$_outputExt_"/><path d="M30,0 L30,20 L15,20 L0,10 L15,0 Z" class="cell_rollover"/><g s:x="0" s:y="10" s:pid="A"/></g><g s:type="constant" class="io" transform="translate(148,84)" s:width="30" s:height="20" id="cell_1"><text x="15" y="-4" class="nodelabel cell_1" s:attribute="ref">1</text><s:alias val="$_constant_"/><rect width="30" height="20" class="cell_1"/><g s:x="31" s:y="10" s:pid="Y"/></g><g s:type="constant" class="io" transform="translate(148,172)" s:width="30" s:height="20" id="cell_1001"><text x="15" y="-4" class="nodelabel cell_1001" s:attribute="ref">0x9</text><s:alias val="$_constant_"/><rect width="30" height="20" class="cell_1001"/><g s:x="31" s:y="10" s:pid="Y"/></g><g s:type="constant" class="io" transform="translate(214,98)" s:width="30" s:height="20" id="cell_0000"><text x="15" y="-4" class="nodelabel cell_0000" s:attribute="ref">0x0</text><s:alias val="$_constant_"/><rect width="30" height="20" class="cell_0000"/><g s:x="31" s:y="10" s:pid="Y"/></g><line x1="113" x2="123" y1="37" y2="37" class="net_5,6,7,8 width_4" style="stroke-width: 2"/><line x1="123" x2="123" y1="37" y2="53" class="net_5,6,7,8 width_4" style="stroke-width: 2"/><circle cx="123" cy="37" r="3" style="fill:#000" class="net_5,6,7,8 width_4"/><circle cx="123" cy="53" r="3" style="fill:#000" class="net_5,6,7,8 width_4"/><line x1="123" x2="218" y1="53" y2="53" class="net_5,6,7,8 width_4" style="stroke-width: 2"/><line x1="113" x2="123" y1="37" y2="37" class="net_5,6,7,8 width_4" style="stroke-width: 2"/><line x1="123" x2="123" y1="37" y2="141" class="net_5,6,7,8 width_4" style="stroke-width: 2"/><circle cx="123" cy="141" r="3" style="fill:#000" class="net_5,6,7,8 width_4"/><line x1="123" x2="282" y1="141" y2="141" class="net_5,6,7,8 width_4" style="stroke-width: 2"/><line x1="113" x2="471.5" y1="37" y2="37" class="net_5,6,7,8 width_4" style="stroke-width: 2"/><line x1="113" x2="123" y1="37" y2="37" class="net_5,6,7,8 width_4" style="stroke-width: 2"/><line x1="123" x2="123" y1="37" y2="238.5" class="net_5,6,7,8 width_4" style="stroke-width: 2"/><line x1="123" x2="598" y1="238.5" y2="238.5" class="net_5,6,7,8 width_4" style="stroke-width: 2"/><line x1="179" x2="189" y1="94" y2="94" class="net_27 width_1" style="stroke-width: 1"/><line x1="189" x2="189" y1="94" y2="68" class="net_27 width_1" style="stroke-width: 1"/><line x1="189" x2="218" y1="68" y2="68" class="net_27 width_1" style="stroke-width: 1"/><line x1="179" x2="255" y1="182" y2="182" class="net_28,29,30,31 width_4" style="stroke-width: 2"/><line x1="255" x2="255" y1="182" y2="156" class="net_28,29,30,31 width_4" style="stroke-width: 2"/><line x1="255" x2="282" y1="156" y2="156" class="net_28,29,30,31 width_4" style="stroke-width: 2"/><line x1="430.5" x2="446.5" y1="166" y2="166" class="net_4 width_1" style="stroke-width: 1"/><line x1="446.5" x2="446.5" y1="166" y2="186" class="net_4 width_1" style="stroke-width: 1"/><circle cx="446.5" cy="166" r="2" style="fill:#000" class="net_4 width_1"/><line x1="446.5" x2="532" y1="186" y2="186" class="net_4 width_1" style="stroke-width: 1"/><line x1="430.5" x2="484.5" y1="166" y2="166" class="net_4 width_1" style="stroke-width: 1"/><line x1="484.5" x2="484.5" y1="166" y2="65" class="net_4 width_1" style="stroke-width: 1"/><line x1="305" x2="315" y1="148.5" y2="148.5" class="net_14 width_1" style="stroke-width: 1"/><line x1="315" x2="315" y1="148.5" y2="197" class="net_14 width_1" style="stroke-width: 1"/><line x1="315" x2="507" y1="197" y2="197" class="net_14 width_1" style="stroke-width: 1"/><line x1="507" x2="507" y1="197" y2="201" class="net_14 width_1" style="stroke-width: 1"/><circle cx="315" cy="148.5" r="2" style="fill:#000" class="net_14 width_1"/><line x1="507" x2="532" y1="201" y2="201" class="net_14 width_1" style="stroke-width: 1"/><line x1="305" x2="353" y1="148.5" y2="148.5" class="net_14 width_1" style="stroke-width: 1"/><line x1="353" x2="353" y1="148.5" y2="88.5" class="net_14 width_1" style="stroke-width: 1"/><line x1="42" x2="77" y1="57" y2="57" class="net_2 width_1" style="stroke-width: 1"/><line x1="622.5" x2="655" y1="57" y2="57" class="net_15,16,17,18 width_4" style="stroke-width: 2"/><line x1="655" x2="655" y1="57" y2="16" class="net_15,16,17,18 width_4" style="stroke-width: 2"/><line x1="655" x2="52" y1="16" y2="16" class="net_15,16,17,18 width_4" style="stroke-width: 2"/><line x1="52" x2="52" y1="16" y2="37" class="net_15,16,17,18 width_4" style="stroke-width: 2"/><line x1="52" x2="77" y1="37" y2="37" class="net_15,16,17,18 width_4" style="stroke-width: 2"/><line x1="497" x2="597" y1="47" y2="47" class="net_19,20,21,22 width_4" style="stroke-width: 2"/><line x1="245" x2="255" y1="108" y2="108" class="net_32,33,34,35 width_4" style="stroke-width: 2"/><line x1="255" x2="255" y1="108" y2="125" class="net_32,33,34,35 width_4" style="stroke-width: 2"/><line x1="255" x2="572" y1="125" y2="125" class="net_32,33,34,35 width_4" style="stroke-width: 2"/><line x1="572" x2="572" y1="125" y2="67" class="net_32,33,34,35 width_4" style="stroke-width: 2"/><circle cx="255" cy="108" r="3" style="fill:#000" class="net_32,33,34,35 width_4"/><line x1="572" x2="597" y1="67" y2="67" class="net_32,33,34,35 width_4" style="stroke-width: 2"/><line x1="245" x2="315" y1="108" y2="108" class="net_32,33,34,35 width_4" style="stroke-width: 2"/><line x1="315" x2="315" y1="108" y2="80.5" class="net_32,33,34,35 width_4" style="stroke-width: 2"/><line x1="315" x2="340" y1="80.5" y2="80.5" class="net_32,33,34,35 width_4" style="stroke-width: 2"/><line x1="562" x2="610" y1="156" y2="156" class="net_3 width_1" style="stroke-width: 1"/><line x1="610" x2="610" y1="156" y2="75" class="net_3 width_1" style="stroke-width: 1"/><line x1="242" x2="340" y1="60.5" y2="60.5" class="net_10,11,12,13 width_4" style="stroke-width: 2"/><line x1="365.5" x2="446.5" y1="70.5" y2="70.5" class="net_23,24,25,26 width_4" style="stroke-width: 2"/><line x1="446.5" x2="446.5" y1="70.5" y2="57" class="net_23,24,25,26 width_4" style="stroke-width: 2"/><line x1="446.5" x2="471.5" y1="57" y2="57" class="net_23,24,25,26 width_4" style="stroke-width: 2"/><line x1="562" x2="597" y1="193.5" y2="193.5" class="net_9 width_1" style="stroke-width: 1"/><rect x="351.75" y="233.5" width="16" height="9" class="net_5,6,7,8 width_4 busLabel_4" style="fill: white; stroke: none"/><text x="350.75" y="241.5" class="net_5,6,7,8 width_4 busLabel_4">/4/</text><rect x="351.75" y="233.5" width="16" height="9" class="net_5,6,7,8 width_4 busLabel_4" style="fill: white; stroke: none"/><text x="350.75" y="241.5" class="net_5,6,7,8 width_4 busLabel_4">/4/</text><rect x="351.75" y="233.5" width="16" height="9" class="net_5,6,7,8 width_4 busLabel_4" style="fill: white; stroke: none"/><text x="350.75" y="241.5" class="net_5,6,7,8 width_4 busLabel_4">/4/</text><rect x="351.75" y="233.5" width="16" height="9" class="net_5,6,7,8 width_4 busLabel_4" style="fill: white; stroke: none"/><text x="350.75" y="241.5" class="net_5,6,7,8 width_4 busLabel_4">/4/</text><rect x="228.5" y="177" width="16" height="9" class="net_28,29,30,31 width_4 busLabel_4" style="fill: white; stroke: none"/><text x="227.5" y="185" class="net_28,29,30,31 width_4 busLabel_4">/4/</text><rect x="351.75" y="11" width="16" height="9" class="net_15,16,17,18 width_4 busLabel_4" style="fill: white; stroke: none"/><text x="350.75" y="19" class="net_15,16,17,18 width_4 busLabel_4">/4/</text><rect x="546" y="42" width="16" height="9" class="net_19,20,21,22 width_4 busLabel_4" style="fill: white; stroke: none"/><text x="545" y="50" class="net_19,20,21,22 width_4 busLabel_4">/4/</text><rect x="291.5" y="103" width="16" height="9" class="net_32,33,34,35 width_4 busLabel_4" style="fill: white; stroke: none"/><text x="290.5" y="111" class="net_32,33,34,35 width_4 busLabel_4">/4/</text><rect x="291.5" y="103" width="16" height="9" class="net_32,33,34,35 width_4 busLabel_4" style="fill: white; stroke: none"/><text x="290.5" y="111" class="net_32,33,34,35 width_4 busLabel_4">/4/</text><rect x="291.5" y="55.5" width="16" height="9" class="net_10,11,12,13 width_4 busLabel_4" style="fill: white; stroke: none"/><text x="290.5" y="63.5" class="net_10,11,12,13 width_4 busLabel_4">/4/</text><rect x="417.5" y="65.5" width="16" height="9" class="net_23,24,25,26 width_4 busLabel_4" style="fill: white; stroke: none"/><text x="416.5" y="73.5" class="net_23,24,25,26 width_4 busLabel_4">/4/</text></svg>