<svg xmlns="http://www.w3.org/2000/svg" xmlns:xlink="http://www.w3.org/1999/xlink" xmlns:s="https://github.com/nturley/netlistsvg" width="694.5" height="297.5"><style>  svg {
    stroke:#000;
    fill:none;
  }
  text {
    fill:#000;
    fill-opacity:1.0;
    stroke:none;
    font-size:10px;
    font-weight: bold;
    font-family: "Courier New", monospace;
  }
  line {
      stroke-linecap: round;
  }
  .nodelabel {
    text-anchor: middle;
  }
  .inputPortLabel {
    text-anchor: end;
  }
  .splitjoinBody {
    fill:#000;
  }
  .invert {
    fill:#ff9999;
    fill-opacity:1.0;
  }
  .combinational {
    fill:#afecef;
    fill-opacity:1.0;
  }
  .state {
    fill:#def1b2;
    fill-opacity:1.0;
  }
  .hierarchical {
    fill:#ffd8b2;
    fill-opacity:1.0;
  }
  .io {
    fill:#fcffb2;
    fill-opacity:1.0;
  }</style><g s:type="add" class="hierarchical" transform="translate(229,101)" s:width="25" s:height="25" id="cell_$add$REF.v:27$3"><s:alias val="$add"/><circle r="12.5" cx="12.5" cy="12.5" class="cell_$add$REF.v:27$3"/><line x1="7.5" x2="17.5" y1="12.5" y2="12.5" class="cell_$add$REF.v:27$3"/><line x1="12.5" x2="12.5" y1="7.5" y2="17.5" class="cell_$add$REF.v:27$3"/><g s:x="2" s:y="5" s:pid="A"/><g s:x="2" s:y="20" s:pid="B"/><g s:x="26" s:y="12.5" s:pid="Y"/></g><g s:type="lt" class="hierarchical" transform="translate(295,234.5)" s:width="25" s:height="25" id="cell_$lt$REF.v:26$2"><s:alias val="$lt"/><circle r="12.5" cx="12.5" cy="12.5" class="cell_$lt$REF.v:26$2"/><line x1="6" x2="17" y1="12" y2="7" class="cell_$lt$REF.v:26$2"/><line x1="6" x2="17" y1="12" y2="17" class="cell_$lt$REF.v:26$2"/><g s:x="2" s:y="5" s:pid="A"/><g s:x="2" s:y="20" s:pid="B"/><g s:x="25" s:y="12.5" s:pid="Y"/></g><g s:type="dff-bus" class="state" transform="translate(83,55)" s:width="34" s:height="44" id="cell_$procdff$16"><s:alias val="$dff-bus"/><s:alias val="$_DFF_-bus"/><s:alias val="$_DFF_P_-bus"/><s:alias val="adff-bus"/><s:alias val="$adff-bus"/><s:alias val="$_DFF_-bus"/><s:alias val="$_DFF_P_-bus"/><s:alias val="sdff-bus"/><s:alias val="$sdff-bus"/><s:alias val="$_DFF_-bus"/><s:alias val="$_DFF_P_-bus"/><rect width="30" height="40" x="0" y="0" stroke="none" transform="translate(4,4)" style="filter:brightness(0.7);" class="cell_$procdff$16"/><path d="M32,4 L34,4 L34,44 L4,44 L4,42" class="cell_$procdff$16"/><rect width="30" height="40" x="0" y="0" stroke="none" transform="translate(2,2)" style="filter:brightness(0.7)" class="cell_$procdff$16"/><path d="M30,2 L32,2 L32,42 L2,42 L2,40" class="cell_$procdff$16" style=""/><rect width="30" height="40" x="0" y="0" class="cell_$procdff$16"/><path d="M0,35 L5,30 L0,25 Z" class="cell_$procdff$16" style="fill:#ffffff;"/><g s:x="35" s:y="10" s:pid="Q"/><g s:x="-1" s:y="30" s:pid="CLK"/><g s:x="-1" s:y="30" s:pid="C"/><g s:x="-1" s:y="10" s:pid="D"/><g s:x="17" s:y="44" s:pid="ARST"/><g s:x="17" s:y="44" s:pid="SRST"/></g><g s:type="mux-bus" class="combinational" transform="translate(504.1666666666667,73.5)" s:width="24" s:height="40" id="cell_$procmux$11"><s:alias val="$pmux-bus"/><s:alias val="$mux-bus"/><s:alias val="$_MUX_-bus"/><path d="M8,2 L8,0 L24,8 L24,32 L8,40 L8,38" style="filter:brightness(0.7)" class="cell_$procmux$11"/><path d="M4,2 L4,0 L22,9 L22,31 L4,40 L4,38" style="filter:brightness(0.7)" class="cell_$procmux$11"/><path d="M0,0 L20,10 L20,30 L0,40 Z" class="cell_$procmux$11"/><text x="5" y="32" class="nodelabel cell_$procmux$178" s:attribute="">1</text><text x="5" y="13" class="nodelabel cell_$procmux$178" s:attribute="">0</text><g s:x="-1" s:y="10" s:pid="A"/><g s:x="-1" s:y="30" s:pid="B"/><g s:x="12" s:y="38" s:pid="S"/><g s:x="24.5" s:y="20" s:pid="Y"/></g><g s:type="mux-bus" class="combinational" transform="translate(643.5,159.5)" s:width="24" s:height="40" id="cell_$procmux$14"><s:alias val="$pmux-bus"/><s:alias val="$mux-bus"/><s:alias val="$_MUX_-bus"/><path d="M8,2 L8,0 L24,8 L24,32 L8,40 L8,38" style="filter:brightness(0.7)" class="cell_$procmux$14"/><path d="M4,2 L4,0 L22,9 L22,31 L4,40 L4,38" style="filter:brightness(0.7)" class="cell_$procmux$14"/><path d="M0,0 L20,10 L20,30 L0,40 Z" class="cell_$procmux$14"/><text x="5" y="32" class="nodelabel cell_$procmux$178" s:attribute="">1</text><text x="5" y="13" class="nodelabel cell_$procmux$178" s:attribute="">0</text><g s:x="-1" s:y="10" s:pid="A"/><g s:x="-1" s:y="30" s:pid="B"/><g s:x="12" s:y="38" s:pid="S"/><g s:x="24.5" s:y="20" s:pid="Y"/></g><g s:type="mux-bus" class="combinational" transform="translate(361,83.5)" s:width="24" s:height="40" id="cell_$procmux$9"><s:alias val="$pmux-bus"/><s:alias val="$mux-bus"/><s:alias val="$_MUX_-bus"/><path d="M8,2 L8,0 L24,8 L24,32 L8,40 L8,38" style="filter:brightness(0.7)" class="cell_$procmux$9"/><path d="M4,2 L4,0 L22,9 L22,31 L4,40 L4,38" style="filter:brightness(0.7)" class="cell_$procmux$9"/><path d="M0,0 L20,10 L20,30 L0,40 Z" class="cell_$procmux$9"/><text x="5" y="32" class="nodelabel cell_$procmux$178" s:attribute="">1</text><text x="5" y="13" class="nodelabel cell_$procmux$178" s:attribute="">0</text><g s:x="-1" s:y="10" s:pid="A"/><g s:x="-1" s:y="30" s:pid="B"/><g s:x="12" s:y="38" s:pid="S"/><g s:x="24.5" s:y="20" s:pid="Y"/></g><g s:type="inputExt" class="io" transform="translate(12,75)" s:width="30" s:height="20" id="cell_clk"><text x="15" y="-4" class="nodelabel cell_clk" s:attribute="ref">clk</text><s:alias val="$_inputExt_"/><path d="M0,0 L0,20 L15,20 L30,10 L15,0 Z" class="cell_clk"/><g s:x="30" s:y="10" s:pid="Y"/></g><g s:type="inputExt" class="io" transform="translate(572.5,235.5)" s:width="30" s:height="20" id="cell_reset"><text x="15" y="-4" class="nodelabel cell_reset" s:attribute="ref">reset</text><s:alias val="$_inputExt_"/><path d="M0,0 L0,20 L15,20 L30,10 L15,0 Z" class="cell_reset"/><g s:x="30" s:y="10" s:pid="Y"/></g><g s:type="inputExt" class="io" transform="translate(425.5,149.5)" s:width="30" s:height="20" id="cell_enable"><text x="15" y="-4" class="nodelabel cell_enable" s:attribute="ref">enable</text><s:alias val="$_inputExt_"/><path d="M0,0 L0,20 L15,20 L30,10 L15,0 Z" class="cell_enable"/><g s:x="30" s:y="10" s:pid="Y"/></g><g s:type="outputExt" class="io" transform="translate(642.5,265.5)" s:width="30" s:height="20" id="cell_count"><text x="15" y="-4" class="nodelabel cell_count" s:attribute="ref">count</text><s:alias val="$_outputExt_"/><path d="M30,0 L30,20 L15,20 L0,10 L15,0 Z" class="cell_count"/><g s:x="0" s:y="10" s:pid="A"/></g><g s:type="constant" class="io" transform="translate(158,111)" s:width="30" s:height="20" id="cell_1"><text x="15" y="-4" class="nodelabel cell_1" s:attribute="ref">1</text><s:alias val="$_constant_"/><rect width="30" height="20" class="cell_1"/><g s:x="31" s:y="10" s:pid="Y"/></g><g s:type="constant" class="io" transform="translate(158,244.5)" s:width="30" s:height="20" id="cell_101010"><text x="15" y="-4" class="nodelabel cell_101010" s:attribute="ref">0x2a</text><s:alias val="$_constant_"/><rect width="30" height="20" class="cell_101010"/><g s:x="31" s:y="10" s:pid="Y"/></g><g s:type="constant" class="io" transform="translate(501.5,179.5)" s:width="30" s:height="20" id="cell_0000000000000000"><text x="15" y="-4" class="nodelabel cell_0000000000000000" s:attribute="ref">0x0</text><s:alias val="$_constant_"/><rect width="30" height="20" class="cell_0000000000000000"/><g s:x="31" s:y="10" s:pid="Y"/></g><line x1="118" x2="199" y1="65" y2="65" class="net_5,6,7,8,9,10,11,12,13,14,15,16,17,18,19,20 width_16" style="stroke-width: 2"/><line x1="199" x2="199" y1="65" y2="106" class="net_5,6,7,8,9,10,11,12,13,14,15,16,17,18,19,20 width_16" style="stroke-width: 2"/><line x1="199" x2="231" y1="106" y2="106" class="net_5,6,7,8,9,10,11,12,13,14,15,16,17,18,19,20 width_16" style="stroke-width: 2"/><line x1="118" x2="128" y1="65" y2="65" class="net_5,6,7,8,9,10,11,12,13,14,15,16,17,18,19,20 width_16" style="stroke-width: 2"/><line x1="128" x2="128" y1="65" y2="198.5" class="net_5,6,7,8,9,10,11,12,13,14,15,16,17,18,19,20 width_16" style="stroke-width: 2"/><line x1="128" x2="265" y1="198.5" y2="198.5" class="net_5,6,7,8,9,10,11,12,13,14,15,16,17,18,19,20 width_16" style="stroke-width: 2"/><line x1="265" x2="265" y1="198.5" y2="239.5" class="net_5,6,7,8,9,10,11,12,13,14,15,16,17,18,19,20 width_16" style="stroke-width: 2"/><circle cx="128" cy="65" r="3" style="fill:#000" class="net_5,6,7,8,9,10,11,12,13,14,15,16,17,18,19,20 width_16"/><circle cx="128" cy="198.5" r="3" style="fill:#000" class="net_5,6,7,8,9,10,11,12,13,14,15,16,17,18,19,20 width_16"/><line x1="265" x2="297" y1="239.5" y2="239.5" class="net_5,6,7,8,9,10,11,12,13,14,15,16,17,18,19,20 width_16" style="stroke-width: 2"/><line x1="118" x2="128" y1="65" y2="65" class="net_5,6,7,8,9,10,11,12,13,14,15,16,17,18,19,20 width_16" style="stroke-width: 2"/><line x1="128" x2="128" y1="65" y2="50" class="net_5,6,7,8,9,10,11,12,13,14,15,16,17,18,19,20 width_16" style="stroke-width: 2"/><line x1="128" x2="199" y1="50" y2="50" class="net_5,6,7,8,9,10,11,12,13,14,15,16,17,18,19,20 width_16" style="stroke-width: 2"/><line x1="199" x2="199" y1="50" y2="33" class="net_5,6,7,8,9,10,11,12,13,14,15,16,17,18,19,20 width_16" style="stroke-width: 2"/><line x1="199" x2="471.5" y1="33" y2="33" class="net_5,6,7,8,9,10,11,12,13,14,15,16,17,18,19,20 width_16" style="stroke-width: 2"/><line x1="471.5" x2="471.5" y1="33" y2="83.5" class="net_5,6,7,8,9,10,11,12,13,14,15,16,17,18,19,20 width_16" style="stroke-width: 2"/><circle cx="199" cy="50" r="3" style="fill:#000" class="net_5,6,7,8,9,10,11,12,13,14,15,16,17,18,19,20 width_16"/><line x1="471.5" x2="503.1666666666667" y1="83.5" y2="83.5" class="net_5,6,7,8,9,10,11,12,13,14,15,16,17,18,19,20 width_16" style="stroke-width: 2"/><line x1="118" x2="128" y1="65" y2="65" class="net_5,6,7,8,9,10,11,12,13,14,15,16,17,18,19,20 width_16" style="stroke-width: 2"/><line x1="128" x2="128" y1="65" y2="50" class="net_5,6,7,8,9,10,11,12,13,14,15,16,17,18,19,20 width_16" style="stroke-width: 2"/><line x1="128" x2="330" y1="50" y2="50" class="net_5,6,7,8,9,10,11,12,13,14,15,16,17,18,19,20 width_16" style="stroke-width: 2"/><line x1="330" x2="330" y1="50" y2="93.5" class="net_5,6,7,8,9,10,11,12,13,14,15,16,17,18,19,20 width_16" style="stroke-width: 2"/><line x1="330" x2="360" y1="93.5" y2="93.5" class="net_5,6,7,8,9,10,11,12,13,14,15,16,17,18,19,20 width_16" style="stroke-width: 2"/><line x1="118" x2="128" y1="65" y2="65" class="net_5,6,7,8,9,10,11,12,13,14,15,16,17,18,19,20 width_16" style="stroke-width: 2"/><line x1="128" x2="128" y1="65" y2="275.5" class="net_5,6,7,8,9,10,11,12,13,14,15,16,17,18,19,20 width_16" style="stroke-width: 2"/><line x1="128" x2="642.5" y1="275.5" y2="275.5" class="net_5,6,7,8,9,10,11,12,13,14,15,16,17,18,19,20 width_16" style="stroke-width: 2"/><line x1="189" x2="231" y1="121" y2="121" class="net_86 width_1" style="stroke-width: 1"/><line x1="189" x2="297" y1="254.5" y2="254.5" class="net_87,88,89,90,91,92 width_6" style="stroke-width: 2"/><line x1="42" x2="82" y1="85" y2="85" class="net_2 width_1" style="stroke-width: 1"/><line x1="668" x2="682.5" y1="179.5" y2="179.5" class="net_38,39,40,41,42,43,44,45,46,47,48,49,50,51,52,53 width_16" style="stroke-width: 2"/><line x1="682.5" x2="682.5" y1="179.5" y2="16" class="net_38,39,40,41,42,43,44,45,46,47,48,49,50,51,52,53 width_16" style="stroke-width: 2"/><line x1="682.5" x2="52" y1="16" y2="16" class="net_38,39,40,41,42,43,44,45,46,47,48,49,50,51,52,53 width_16" style="stroke-width: 2"/><line x1="52" x2="52" y1="16" y2="65" class="net_38,39,40,41,42,43,44,45,46,47,48,49,50,51,52,53 width_16" style="stroke-width: 2"/><line x1="52" x2="82" y1="65" y2="65" class="net_38,39,40,41,42,43,44,45,46,47,48,49,50,51,52,53 width_16" style="stroke-width: 2"/><line x1="385.5" x2="503.1666666666667" y1="103.5" y2="103.5" class="net_54,55,56,57,58,59,60,61,62,63,64,65,66,67,68,69 width_16" style="stroke-width: 2"/><line x1="455.5" x2="516.1666666666667" y1="159.5" y2="159.5" class="net_4 width_1" style="stroke-width: 1"/><line x1="516.1666666666667" x2="516.1666666666667" y1="159.5" y2="111.5" class="net_4 width_1" style="stroke-width: 1"/><line x1="528.6666666666667" x2="612.5" y1="93.5" y2="93.5" class="net_70,71,72,73,74,75,76,77,78,79,80,81,82,83,84,85 width_16" style="stroke-width: 2"/><line x1="612.5" x2="612.5" y1="93.5" y2="169.5" class="net_70,71,72,73,74,75,76,77,78,79,80,81,82,83,84,85 width_16" style="stroke-width: 2"/><line x1="612.5" x2="642.5" y1="169.5" y2="169.5" class="net_70,71,72,73,74,75,76,77,78,79,80,81,82,83,84,85 width_16" style="stroke-width: 2"/><line x1="532.5" x2="642.5" y1="189.5" y2="189.5" class="net_93,94,95,96,97,98,99,100,101,102,103,104,105,106,107,108 width_16" style="stroke-width: 2"/><line x1="602.5" x2="655.5" y1="245.5" y2="245.5" class="net_3 width_1" style="stroke-width: 1"/><line x1="655.5" x2="655.5" y1="245.5" y2="197.5" class="net_3 width_1" style="stroke-width: 1"/><line x1="255" x2="360" y1="113.5" y2="113.5" class="net_21,22,23,24,25,26,27,28,29,30,31,32,33,34,35,36 width_16" style="stroke-width: 2"/><line x1="320" x2="373" y1="247" y2="247" class="net_37 width_1" style="stroke-width: 1"/><line x1="373" x2="373" y1="247" y2="121.5" class="net_37 width_1" style="stroke-width: 1"/><rect x="371.75" y="270.5" width="22" height="9" class="net_5,6,7,8,9,10,11,12,13,14,15,16,17,18,19,20 width_16 busLabel_16" style="fill: white; stroke: none"/><text x="370.75" y="278.5" class="net_5,6,7,8,9,10,11,12,13,14,15,16,17,18,19,20 width_16 busLabel_16">/16/</text><rect x="371.75" y="270.5" width="22" height="9" class="net_5,6,7,8,9,10,11,12,13,14,15,16,17,18,19,20 width_16 busLabel_16" style="fill: white; stroke: none"/><text x="370.75" y="278.5" class="net_5,6,7,8,9,10,11,12,13,14,15,16,17,18,19,20 width_16 busLabel_16">/16/</text><rect x="371.75" y="270.5" width="22" height="9" class="net_5,6,7,8,9,10,11,12,13,14,15,16,17,18,19,20 width_16 busLabel_16" style="fill: white; stroke: none"/><text x="370.75" y="278.5" class="net_5,6,7,8,9,10,11,12,13,14,15,16,17,18,19,20 width_16 busLabel_16">/16/</text><rect x="371.75" y="270.5" width="22" height="9" class="net_5,6,7,8,9,10,11,12,13,14,15,16,17,18,19,20 width_16 busLabel_16" style="fill: white; stroke: none"/><text x="370.75" y="278.5" class="net_5,6,7,8,9,10,11,12,13,14,15,16,17,18,19,20 width_16 busLabel_16">/16/</text><rect x="371.75" y="270.5" width="22" height="9" class="net_5,6,7,8,9,10,11,12,13,14,15,16,17,18,19,20 width_16 busLabel_16" style="fill: white; stroke: none"/><text x="370.75" y="278.5" class="net_5,6,7,8,9,10,11,12,13,14,15,16,17,18,19,20 width_16 busLabel_16">/16/</text><rect x="241" y="249.5" width="16" height="9" class="net_87,88,89,90,91,92 width_6 busLabel_6" style="fill: white; stroke: none"/><text x="240" y="257.5" class="net_87,88,89,90,91,92 width_6 busLabel_6">/6/</text><rect x="371.75" y="11" width="22" height="9" class="net_38,39,40,41,42,43,44,45,46,47,48,49,50,51,52,53 width_16 busLabel_16" style="fill: white; stroke: none"/><text x="370.75" y="19" class="net_38,39,40,41,42,43,44,45,46,47,48,49,50,51,52,53 width_16 busLabel_16">/16/</text><rect x="442.5" y="98.5" width="22" height="9" class="net_54,55,56,57,58,59,60,61,62,63,64,65,66,67,68,69 width_16 busLabel_16" style="fill: white; stroke: none"/><text x="441.5" y="106.5" class="net_54,55,56,57,58,59,60,61,62,63,64,65,66,67,68,69 width_16 busLabel_16">/16/</text><rect x="586.5" y="88.5" width="22" height="9" class="net_70,71,72,73,74,75,76,77,78,79,80,81,82,83,84,85 width_16 busLabel_16" style="fill: white; stroke: none"/><text x="585.5" y="96.5" class="net_70,71,72,73,74,75,76,77,78,79,80,81,82,83,84,85 width_16 busLabel_16">/16/</text><rect x="586.5" y="184.5" width="22" height="9" class="net_93,94,95,96,97,98,99,100,101,102,103,104,105,106,107,108 width_16 busLabel_16" style="fill: white; stroke: none"/><text x="585.5" y="192.5" class="net_93,94,95,96,97,98,99,100,101,102,103,104,105,106,107,108 width_16 busLabel_16">/16/</text><rect x="306.5" y="108.5" width="22" height="9" class="net_21,22,23,24,25,26,27,28,29,30,31,32,33,34,35,36 width_16 busLabel_16" style="fill: white; stroke: none"/><text x="305.5" y="116.5" class="net_21,22,23,24,25,26,27,28,29,30,31,32,33,34,35,36 width_16 busLabel_16">/16/</text></svg>