<?xml version="1.0" encoding="UTF-8" standalone="no"?>
<!DOCTYPE svg PUBLIC "-//W3C//DTD SVG 1.1//EN"
 "http://www.w3.org/Graphics/SVG/1.1/DTD/svg11.dtd">
<!-- Generated by graphviz version 12.2.1 (0)
 -->
<!-- Pages: 1 -->
<svg width="742pt" height="1903pt"
 viewBox="0.00 0.00 742.00 1903.00" xmlns="http://www.w3.org/2000/svg" xmlns:xlink="http://www.w3.org/1999/xlink">
<g id="graph0" class="graph" transform="scale(1 1) rotate(0) translate(4 1899)">
<polygon fill="white" stroke="none" points="-4,4 -4,-1899 738,-1899 738,4 -4,4"/>
<!-- _reset -->
<!-- 0 -->
<g id="node2" class="node">
<title>0</title>
<ellipse fill="#a2cd5a" stroke="black" cx="428" cy="-1730.5" rx="72" ry="72"/>
<ellipse fill="none" stroke="black" cx="428" cy="-1730.5" rx="76" ry="76"/>
<text text-anchor="middle" x="428" y="-1741.95" font-family="Times,serif" font-size="14.00">DISARMED</text>
<text text-anchor="middle" x="428" y="-1725.45" font-family="Times,serif" font-size="14.00">alarm = 1&#39;b0</text>
<text text-anchor="middle" x="428" y="-1708.95" font-family="Times,serif" font-size="14.00">armed = 1&#39;b0</text>
</g>
<!-- _reset&#45;&gt;0 -->
<g id="edge1" class="edge">
<title>_reset&#45;&gt;0</title>
<path fill="none" stroke="black" d="M428,-1858.57C428,-1848.25 428,-1834.31 428,-1819.43"/>
<polygon fill="black" stroke="black" points="428,-1819.68 424,-1813.68 428,-1807.68 432,-1813.68 428,-1819.68"/>
<text text-anchor="middle" x="444.5" y="-1827.7" font-family="Times,serif" font-size="14.00"> &#160;reset</text>
</g>
<!-- 0&#45;&gt;0 -->
<g id="edge2" class="edge">
<title>0&#45;&gt;0</title>
<path fill="none" stroke="black" d="M502.08,-1748.16C513.91,-1745.57 522,-1739.69 522,-1730.5 522,-1724.47 518.51,-1719.86 512.78,-1716.68"/>
<polygon fill="black" stroke="black" points="514.1,-1713.44 503.51,-1713.36 511.74,-1720.03 514.1,-1713.44"/>
</g>
<!-- 7 -->
<g id="node9" class="node">
<title>7</title>
<ellipse fill="#a2cd5a" stroke="black" cx="341" cy="-1530" rx="72" ry="72"/>
<text text-anchor="middle" x="341" y="-1524.95" font-family="Times,serif" font-size="14.00">ARM0</text>
</g>
<!-- 0&#45;&gt;7 -->
<g id="edge3" class="edge">
<title>0&#45;&gt;7</title>
<path fill="none" stroke="black" d="M381.72,-1669.72C374.94,-1659.06 368.62,-1647.76 363.75,-1636.5 360.44,-1628.85 357.59,-1620.67 355.14,-1612.38"/>
<polygon fill="black" stroke="black" points="358.57,-1611.63 352.56,-1602.9 351.82,-1613.47 358.57,-1611.63"/>
<text text-anchor="start" x="363.75" y="-1623.2" font-family="Times,serif" font-size="14.00"> &#160;command = 2&#39;b01</text>
</g>
<!-- 1 -->
<g id="node3" class="node">
<title>1</title>
<ellipse fill="#a2cd5a" stroke="black" cx="354" cy="-694.5" rx="72" ry="72"/>
<text text-anchor="middle" x="354" y="-697.7" font-family="Times,serif" font-size="14.00">ALARM</text>
<text text-anchor="middle" x="354" y="-681.2" font-family="Times,serif" font-size="14.00">alarm = 1&#39;b1</text>
</g>
<!-- 1&#45;&gt;1 -->
<g id="edge4" class="edge">
<title>1&#45;&gt;1</title>
<path fill="none" stroke="black" d="M424.19,-711.62C435.91,-709.23 444,-703.52 444,-694.5 444,-688.58 440.52,-684.09 434.81,-681.02"/>
<polygon fill="black" stroke="black" points="436.21,-677.8 425.62,-677.87 433.94,-684.43 436.21,-677.8"/>
</g>
<!-- 9 -->
<g id="node11" class="node">
<title>9</title>
<ellipse fill="#a2cd5a" stroke="black" cx="267" cy="-498" rx="72" ry="72"/>
<text text-anchor="middle" x="267" y="-492.95" font-family="Times,serif" font-size="14.00">DISARM0</text>
</g>
<!-- 1&#45;&gt;9 -->
<g id="edge5" class="edge">
<title>1&#45;&gt;9</title>
<path fill="none" stroke="black" d="M324.79,-628.19C317.07,-610.94 308.68,-592.18 300.75,-574.44"/>
<polygon fill="black" stroke="black" points="304.03,-573.22 296.75,-565.52 297.64,-576.07 304.03,-573.22"/>
<text text-anchor="start" x="313.11" y="-591.2" font-family="Times,serif" font-size="14.00"> &#160;command = 2&#39;b10</text>
</g>
<!-- 2 -->
<g id="node4" class="node">
<title>2</title>
<ellipse fill="#a2cd5a" stroke="black" cx="353" cy="-891" rx="72" ry="72"/>
<text text-anchor="middle" x="353" y="-894.2" font-family="Times,serif" font-size="14.00">ARMED</text>
<text text-anchor="middle" x="353" y="-877.7" font-family="Times,serif" font-size="14.00">armed = 1&#39;b1</text>
</g>
<!-- 2&#45;&gt;1 -->
<g id="edge6" class="edge">
<title>2&#45;&gt;1</title>
<path fill="none" stroke="black" d="M353.37,-818.68C353.43,-805.47 353.51,-791.56 353.58,-778.05"/>
<polygon fill="black" stroke="black" points="357.07,-778.34 353.63,-768.33 350.07,-778.31 357.07,-778.34"/>
<text text-anchor="start" x="353.53" y="-787.7" font-family="Times,serif" font-size="14.00"> &#160;trigger = 1&#39;b1</text>
</g>
<!-- 2&#45;&gt;2 -->
<g id="edge7" class="edge">
<title>2&#45;&gt;2</title>
<path fill="none" stroke="black" d="M423.19,-908.12C434.91,-905.73 443,-900.02 443,-891 443,-885.08 439.52,-880.59 433.81,-877.52"/>
<polygon fill="black" stroke="black" points="435.21,-874.3 424.62,-874.37 432.94,-880.93 435.21,-874.3"/>
</g>
<!-- 2&#45;&gt;9 -->
<g id="edge8" class="edge">
<title>2&#45;&gt;9</title>
<path fill="none" stroke="black" d="M283.59,-870.34C233.79,-852.2 170.26,-819.82 139.5,-766.5 107.52,-711.06 114.54,-681.43 139.5,-622.5 152.02,-592.93 175.48,-566.97 198.89,-546.58"/>
<polygon fill="black" stroke="black" points="200.95,-549.43 206.33,-540.3 196.43,-544.07 200.95,-549.43"/>
<text text-anchor="start" x="139.5" y="-697.7" font-family="Times,serif" font-size="14.00"> &#160;trigger = 1&#39;b0</text>
<text text-anchor="start" x="139.5" y="-681.2" font-family="Times,serif" font-size="14.00"> &#160;&amp;&amp; command = 2&#39;b10</text>
</g>
<!-- 3 -->
<g id="node5" class="node">
<title>3</title>
<ellipse fill="#a2cd5a" stroke="black" cx="72" cy="-72" rx="72" ry="72"/>
<text text-anchor="middle" x="72" y="-66.95" font-family="Times,serif" font-size="14.00">DISARM2B</text>
</g>
<!-- 3&#45;&gt;2 -->
<g id="edge9" class="edge">
<title>3&#45;&gt;2</title>
<path fill="none" stroke="black" d="M55.6,-142.43C47.31,-183.38 39,-236.36 39,-284 39,-695.5 39,-695.5 39,-695.5 39,-804.57 177.61,-854.56 270.64,-875.84"/>
<polygon fill="black" stroke="black" points="269.75,-879.22 280.27,-877.96 271.26,-872.39 269.75,-879.22"/>
<text text-anchor="start" x="39" y="-492.95" font-family="Times,serif" font-size="14.00"> &#160;input_digit = 1&#39;b1</text>
</g>
<!-- 3&#45;&gt;3 -->
<g id="edge10" class="edge">
<title>3&#45;&gt;3</title>
<path fill="none" stroke="black" d="M141.81,-90.64C153.74,-88.09 162,-81.88 162,-72 162,-65.52 158.44,-60.61 152.62,-57.29"/>
<polygon fill="black" stroke="black" points="153.83,-54 143.23,-53.88 151.44,-60.58 153.83,-54"/>
</g>
<!-- 4 -->
<g id="node6" class="node">
<title>4</title>
<ellipse fill="#a2cd5a" stroke="black" cx="341" cy="-1317" rx="72" ry="72"/>
<text text-anchor="middle" x="341" y="-1311.95" font-family="Times,serif" font-size="14.00">ARM1</text>
</g>
<!-- 4&#45;&gt;4 -->
<g id="edge11" class="edge">
<title>4&#45;&gt;4</title>
<path fill="none" stroke="black" d="M410.81,-1335.64C422.74,-1333.09 431,-1326.88 431,-1317 431,-1310.52 427.44,-1305.61 421.62,-1302.29"/>
<polygon fill="black" stroke="black" points="422.83,-1299 412.23,-1298.88 420.44,-1305.58 422.83,-1299"/>
</g>
<!-- 5 -->
<g id="node7" class="node">
<title>5</title>
<ellipse fill="#a2cd5a" stroke="black" cx="85" cy="-1104" rx="72" ry="72"/>
<text text-anchor="middle" x="85" y="-1098.95" font-family="Times,serif" font-size="14.00">ARM2B</text>
</g>
<!-- 4&#45;&gt;5 -->
<g id="edge12" class="edge">
<title>4&#45;&gt;5</title>
<path fill="none" stroke="black" d="M287.52,-1268.23C277.63,-1260.14 267.19,-1252.08 257,-1245 243.6,-1235.69 238.07,-1236.76 225,-1227 208.13,-1214.4 206.63,-1208.11 191,-1194 177.71,-1182 163.17,-1169.44 149.24,-1157.67"/>
<polygon fill="black" stroke="black" points="151.73,-1155.18 141.82,-1151.43 147.22,-1160.54 151.73,-1155.18"/>
<text text-anchor="start" x="225" y="-1213.7" font-family="Times,serif" font-size="14.00"> &#160;input_digit = 1&#39;b1</text>
<text text-anchor="start" x="225" y="-1197.2" font-family="Times,serif" font-size="14.00"> &#160;&amp;&amp; digit = 4&#39;b0010</text>
</g>
<!-- 10 -->
<g id="node12" class="node">
<title>10</title>
<ellipse fill="#a2cd5a" stroke="black" cx="353" cy="-1104" rx="72" ry="72"/>
<text text-anchor="middle" x="353" y="-1098.95" font-family="Times,serif" font-size="14.00">ARM2</text>
</g>
<!-- 4&#45;&gt;10 -->
<g id="edge13" class="edge">
<title>4&#45;&gt;10</title>
<path fill="none" stroke="black" d="M345.05,-1244.86C346.09,-1226.44 347.23,-1206.46 348.31,-1187.52"/>
<polygon fill="black" stroke="black" points="351.79,-1187.88 348.87,-1177.7 344.8,-1187.49 351.79,-1187.88"/>
<text text-anchor="start" x="347.72" y="-1213.7" font-family="Times,serif" font-size="14.00"> &#160;input_digit = 1&#39;b1</text>
<text text-anchor="start" x="347.72" y="-1197.2" font-family="Times,serif" font-size="14.00"> &#160;&amp;&amp; digit = 4&#39;b0010</text>
</g>
<!-- 5&#45;&gt;0 -->
<g id="edge14" class="edge">
<title>5&#45;&gt;0</title>
<path fill="none" stroke="black" d="M67.29,-1173.96C52.94,-1245.51 41.97,-1358.19 89,-1440 152.2,-1549.93 273.36,-1637.73 352.4,-1686.7"/>
<polygon fill="black" stroke="black" points="350.18,-1689.44 360.53,-1691.68 353.84,-1683.47 350.18,-1689.44"/>
<text text-anchor="start" x="89" y="-1418.45" font-family="Times,serif" font-size="14.00"> &#160;input_digit = 1&#39;b1</text>
</g>
<!-- 5&#45;&gt;5 -->
<g id="edge15" class="edge">
<title>5&#45;&gt;5</title>
<path fill="none" stroke="black" d="M154.81,-1122.64C166.74,-1120.09 175,-1113.88 175,-1104 175,-1097.52 171.44,-1092.61 165.62,-1089.29"/>
<polygon fill="black" stroke="black" points="166.83,-1086 156.23,-1085.88 164.44,-1092.58 166.83,-1086"/>
</g>
<!-- 6 -->
<g id="node8" class="node">
<title>6</title>
<ellipse fill="#a2cd5a" stroke="black" cx="319" cy="-285" rx="72" ry="72"/>
<text text-anchor="middle" x="319" y="-279.95" font-family="Times,serif" font-size="14.00">DISARM1</text>
</g>
<!-- 6&#45;&gt;3 -->
<g id="edge16" class="edge">
<title>6&#45;&gt;3</title>
<path fill="none" stroke="black" d="M266.7,-235.39C257.4,-227.56 247.62,-219.81 238,-213 224.68,-203.57 218.59,-205.38 206,-195 191.16,-182.76 191.64,-175.57 178,-162 165.23,-149.3 150.86,-136.41 136.91,-124.52"/>
<polygon fill="black" stroke="black" points="139.35,-122.01 129.45,-118.24 134.84,-127.36 139.35,-122.01"/>
<text text-anchor="start" x="206" y="-181.7" font-family="Times,serif" font-size="14.00"> &#160;input_digit = 1&#39;b1</text>
<text text-anchor="start" x="206" y="-165.2" font-family="Times,serif" font-size="14.00"> &#160;&amp;&amp; digit = 4&#39;b0010</text>
</g>
<!-- 6&#45;&gt;6 -->
<g id="edge17" class="edge">
<title>6&#45;&gt;6</title>
<path fill="none" stroke="black" d="M388.81,-303.64C400.74,-301.09 409,-294.88 409,-285 409,-278.52 405.44,-273.61 399.62,-270.29"/>
<polygon fill="black" stroke="black" points="400.83,-267 390.23,-266.88 398.44,-273.58 400.83,-267"/>
</g>
<!-- 12 -->
<g id="node14" class="node">
<title>12</title>
<ellipse fill="#a2cd5a" stroke="black" cx="472" cy="-72" rx="72" ry="72"/>
<text text-anchor="middle" x="472" y="-66.95" font-family="Times,serif" font-size="14.00">DISARM2</text>
</g>
<!-- 6&#45;&gt;12 -->
<g id="edge18" class="edge">
<title>6&#45;&gt;12</title>
<path fill="none" stroke="black" d="M322.23,-212.68C325.53,-195.07 331.27,-176.98 341,-162 354.9,-140.61 375.93,-123.03 397.11,-109.31"/>
<polygon fill="black" stroke="black" points="398.88,-112.33 405.53,-104.08 395.19,-106.38 398.88,-112.33"/>
<text text-anchor="start" x="341" y="-181.7" font-family="Times,serif" font-size="14.00"> &#160;input_digit = 1&#39;b1</text>
<text text-anchor="start" x="341" y="-165.2" font-family="Times,serif" font-size="14.00"> &#160;&amp;&amp; digit = 4&#39;b0010</text>
</g>
<!-- 7&#45;&gt;4 -->
<g id="edge19" class="edge">
<title>7&#45;&gt;4</title>
<path fill="none" stroke="black" d="M341,-1457.57C341,-1439.26 341,-1419.43 341,-1400.61"/>
<polygon fill="black" stroke="black" points="344.5,-1400.87 341,-1390.87 337.5,-1400.87 344.5,-1400.87"/>
<text text-anchor="start" x="341" y="-1426.7" font-family="Times,serif" font-size="14.00"> &#160;input_digit = 1&#39;b1</text>
<text text-anchor="start" x="341" y="-1410.2" font-family="Times,serif" font-size="14.00"> &#160;&amp;&amp; digit = 4&#39;b0001</text>
</g>
<!-- 7&#45;&gt;7 -->
<g id="edge20" class="edge">
<title>7&#45;&gt;7</title>
<path fill="none" stroke="black" d="M411.19,-1547.12C422.91,-1544.73 431,-1539.02 431,-1530 431,-1524.08 427.52,-1519.59 421.81,-1516.52"/>
<polygon fill="black" stroke="black" points="423.21,-1513.3 412.62,-1513.37 420.94,-1519.93 423.21,-1513.3"/>
</g>
<!-- 8 -->
<g id="node10" class="node">
<title>8</title>
<ellipse fill="#a2cd5a" stroke="black" cx="158" cy="-1317" rx="72" ry="72"/>
<text text-anchor="middle" x="158" y="-1311.95" font-family="Times,serif" font-size="14.00">ARM1B</text>
</g>
<!-- 7&#45;&gt;8 -->
<g id="edge21" class="edge">
<title>7&#45;&gt;8</title>
<path fill="none" stroke="black" d="M279.44,-1492.07C258.8,-1477.64 236.78,-1459.79 220,-1440 208.42,-1426.35 198.28,-1410.16 189.75,-1394.11"/>
<polygon fill="black" stroke="black" points="193.01,-1392.81 185.33,-1385.51 186.78,-1396 193.01,-1392.81"/>
<text text-anchor="start" x="220" y="-1426.7" font-family="Times,serif" font-size="14.00"> &#160;input_digit = 1&#39;b1</text>
<text text-anchor="start" x="220" y="-1410.2" font-family="Times,serif" font-size="14.00"> &#160;&amp;&amp; digit = 4&#39;b0001</text>
</g>
<!-- 8&#45;&gt;5 -->
<g id="edge22" class="edge">
<title>8&#45;&gt;5</title>
<path fill="none" stroke="black" d="M107.73,-1265.52C98.85,-1253.76 90.9,-1240.66 86,-1227 81.53,-1214.54 79.19,-1200.89 78.19,-1187.38"/>
<polygon fill="black" stroke="black" points="81.7,-1187.42 77.73,-1177.6 74.71,-1187.75 81.7,-1187.42"/>
<text text-anchor="start" x="86" y="-1205.45" font-family="Times,serif" font-size="14.00"> &#160;input_digit = 1&#39;b1</text>
</g>
<!-- 8&#45;&gt;8 -->
<g id="edge23" class="edge">
<title>8&#45;&gt;8</title>
<path fill="none" stroke="black" d="M227.81,-1335.64C239.74,-1333.09 248,-1326.88 248,-1317 248,-1310.52 244.44,-1305.61 238.62,-1302.29"/>
<polygon fill="black" stroke="black" points="239.83,-1299 229.23,-1298.88 237.44,-1305.58 239.83,-1299"/>
</g>
<!-- 9&#45;&gt;6 -->
<g id="edge24" class="edge">
<title>9&#45;&gt;6</title>
<path fill="none" stroke="black" d="M284.1,-427.62C288.92,-408.06 294.2,-386.62 299.17,-366.46"/>
<polygon fill="black" stroke="black" points="302.53,-367.44 301.53,-356.89 295.74,-365.76 302.53,-367.44"/>
<text text-anchor="start" x="296.11" y="-394.7" font-family="Times,serif" font-size="14.00"> &#160;input_digit = 1&#39;b1</text>
<text text-anchor="start" x="296.11" y="-378.2" font-family="Times,serif" font-size="14.00"> &#160;&amp;&amp; digit = 4&#39;b0001</text>
</g>
<!-- 9&#45;&gt;9 -->
<g id="edge25" class="edge">
<title>9&#45;&gt;9</title>
<path fill="none" stroke="black" d="M337.19,-515.12C348.91,-512.73 357,-507.02 357,-498 357,-492.08 353.52,-487.59 347.81,-484.52"/>
<polygon fill="black" stroke="black" points="349.21,-481.3 338.62,-481.37 346.94,-487.93 349.21,-481.3"/>
</g>
<!-- 11 -->
<g id="node13" class="node">
<title>11</title>
<ellipse fill="#a2cd5a" stroke="black" cx="139" cy="-285" rx="72" ry="72"/>
<text text-anchor="middle" x="139" y="-279.95" font-family="Times,serif" font-size="14.00">DISARM1B</text>
</g>
<!-- 9&#45;&gt;11 -->
<g id="edge26" class="edge">
<title>9&#45;&gt;11</title>
<path fill="none" stroke="black" d="M209.15,-454.77C194.17,-441.32 179.35,-425.38 169,-408 161.62,-395.61 156.05,-381.47 151.84,-367.33"/>
<polygon fill="black" stroke="black" points="155.31,-366.72 149.29,-357.99 148.55,-368.56 155.31,-366.72"/>
<text text-anchor="start" x="169" y="-394.7" font-family="Times,serif" font-size="14.00"> &#160;input_digit = 1&#39;b1</text>
<text text-anchor="start" x="169" y="-378.2" font-family="Times,serif" font-size="14.00"> &#160;&amp;&amp; digit = 4&#39;b0001</text>
</g>
<!-- 10&#45;&gt;0 -->
<g id="edge27" class="edge">
<title>10&#45;&gt;0</title>
<path fill="none" stroke="black" d="M416.85,-1138.32C437.35,-1152.52 457.66,-1171.15 469,-1194 511.07,-1278.81 470.78,-1525.33 471,-1620 471.02,-1627.33 472.58,-1629.34 471,-1636.5 469.87,-1641.66 468.42,-1646.87 466.74,-1652.05"/>
<polygon fill="black" stroke="black" points="463.54,-1650.61 463.51,-1661.2 470.14,-1652.94 463.54,-1650.61"/>
<text text-anchor="start" x="485.47" y="-1426.7" font-family="Times,serif" font-size="14.00"> &#160;input_digit = 1&#39;b1</text>
<text text-anchor="start" x="485.47" y="-1410.2" font-family="Times,serif" font-size="14.00"> &#160;&amp;&amp; digit = 4&#39;b0100</text>
</g>
<!-- 10&#45;&gt;2 -->
<g id="edge28" class="edge">
<title>10&#45;&gt;2</title>
<path fill="none" stroke="black" d="M353,-1031.57C353,-1013.26 353,-993.43 353,-974.61"/>
<polygon fill="black" stroke="black" points="356.5,-974.87 353,-964.87 349.5,-974.87 356.5,-974.87"/>
<text text-anchor="start" x="353" y="-1000.7" font-family="Times,serif" font-size="14.00"> &#160;input_digit = 1&#39;b1</text>
<text text-anchor="start" x="353" y="-984.2" font-family="Times,serif" font-size="14.00"> &#160;&amp;&amp; digit = 4&#39;b0100</text>
</g>
<!-- 10&#45;&gt;10 -->
<g id="edge29" class="edge">
<title>10&#45;&gt;10</title>
<path fill="none" stroke="black" d="M422.81,-1122.64C434.74,-1120.09 443,-1113.88 443,-1104 443,-1097.52 439.44,-1092.61 433.62,-1089.29"/>
<polygon fill="black" stroke="black" points="434.83,-1086 424.23,-1085.88 432.44,-1092.58 434.83,-1086"/>
</g>
<!-- 11&#45;&gt;3 -->
<g id="edge30" class="edge">
<title>11&#45;&gt;3</title>
<path fill="none" stroke="black" d="M91.22,-230.57C83.76,-219.5 77.15,-207.4 73,-195 68.8,-182.45 66.59,-168.75 65.65,-155.22"/>
<polygon fill="black" stroke="black" points="69.15,-155.27 65.21,-145.43 62.16,-155.58 69.15,-155.27"/>
<text text-anchor="start" x="73" y="-173.45" font-family="Times,serif" font-size="14.00"> &#160;input_digit = 1&#39;b1</text>
</g>
<!-- 11&#45;&gt;11 -->
<g id="edge31" class="edge">
<title>11&#45;&gt;11</title>
<path fill="none" stroke="black" d="M208.81,-303.64C220.74,-301.09 229,-294.88 229,-285 229,-278.52 225.44,-273.61 219.62,-270.29"/>
<polygon fill="black" stroke="black" points="220.83,-267 210.23,-266.88 218.44,-273.58 220.83,-267"/>
</g>
<!-- 12&#45;&gt;0 -->
<g id="edge32" class="edge">
<title>12&#45;&gt;0</title>
<path fill="none" stroke="black" d="M527.23,-118.46C568.21,-157.57 617,-217.99 617,-284 617,-1531 617,-1531 617,-1531 617,-1599.54 557.17,-1653.79 504.84,-1688.13"/>
<polygon fill="black" stroke="black" points="502.98,-1685.16 496.44,-1693.5 506.75,-1691.06 502.98,-1685.16"/>
<text text-anchor="start" x="617" y="-894.2" font-family="Times,serif" font-size="14.00"> &#160;input_digit = 1&#39;b1</text>
<text text-anchor="start" x="617" y="-877.7" font-family="Times,serif" font-size="14.00"> &#160;&amp;&amp; digit = 4&#39;b0100</text>
</g>
<!-- 12&#45;&gt;2 -->
<g id="edge33" class="edge">
<title>12&#45;&gt;2</title>
<path fill="none" stroke="black" d="M472,-144.3C472,-185.18 472,-237.48 472,-284 472,-695.5 472,-695.5 472,-695.5 472,-744.63 465.8,-759.82 439,-801 431.68,-812.26 422.8,-823.32 413.57,-833.62"/>
<polygon fill="black" stroke="black" points="411,-831.24 406.79,-840.96 416.14,-835.99 411,-831.24"/>
<text text-anchor="start" x="472" y="-501.2" font-family="Times,serif" font-size="14.00"> &#160;input_digit = 1&#39;b1</text>
<text text-anchor="start" x="472" y="-484.7" font-family="Times,serif" font-size="14.00"> &#160;&amp;&amp; digit = 4&#39;b0100</text>
</g>
<!-- 12&#45;&gt;12 -->
<g id="edge34" class="edge">
<title>12&#45;&gt;12</title>
<path fill="none" stroke="black" d="M541.81,-90.64C553.74,-88.09 562,-81.88 562,-72 562,-65.52 558.44,-60.61 552.62,-57.29"/>
<polygon fill="black" stroke="black" points="553.83,-54 543.23,-53.88 551.44,-60.58 553.83,-54"/>
</g>
</g>
</svg>
