<?xml version="1.0" encoding="UTF-8" standalone="no"?>
<!DOCTYPE svg PUBLIC "-//W3C//DTD SVG 1.1//EN"
 "http://www.w3.org/Graphics/SVG/1.1/DTD/svg11.dtd">
<!-- Generated by graphviz version 12.2.1 (0)
 -->
<!-- Pages: 1 -->
<svg width="707pt" height="1903pt"
 viewBox="0.00 0.00 707.25 1903.00" xmlns="http://www.w3.org/2000/svg" xmlns:xlink="http://www.w3.org/1999/xlink">
<g id="graph0" class="graph" transform="scale(1 1) rotate(0) translate(4 1899)">
<polygon fill="white" stroke="none" points="-4,4 -4,-1899 703.25,-1899 703.25,4 -4,4"/>
<!-- _reset -->
<!-- 0 -->
<g id="node2" class="node">
<title>0</title>
<ellipse fill="#a2cd5a" stroke="black" cx="402" cy="-1730.5" rx="72" ry="72"/>
<ellipse fill="none" stroke="black" cx="402" cy="-1730.5" rx="76" ry="76"/>
<text text-anchor="middle" x="402" y="-1741.95" font-family="Times,serif" font-size="14.00">DISARMED</text>
<text text-anchor="middle" x="402" y="-1725.45" font-family="Times,serif" font-size="14.00">alarm = 1&#39;0</text>
<text text-anchor="middle" x="402" y="-1708.95" font-family="Times,serif" font-size="14.00">armed = 1&#39;0</text>
</g>
<!-- _reset&#45;&gt;0 -->
<g id="edge1" class="edge">
<title>_reset&#45;&gt;0</title>
<path fill="none" stroke="black" d="M402,-1858.57C402,-1848.25 402,-1834.31 402,-1819.43"/>
<polygon fill="black" stroke="black" points="402,-1819.68 398,-1813.68 402,-1807.68 406,-1813.68 402,-1819.68"/>
<text text-anchor="middle" x="418.5" y="-1827.7" font-family="Times,serif" font-size="14.00"> &#160;reset</text>
</g>
<!-- 0&#45;&gt;0 -->
<g id="edge2" class="edge">
<title>0&#45;&gt;0</title>
<path fill="none" stroke="black" d="M476.08,-1748.16C487.91,-1745.57 496,-1739.69 496,-1730.5 496,-1724.47 492.51,-1719.86 486.78,-1716.68"/>
<polygon fill="black" stroke="black" points="488.1,-1713.44 477.51,-1713.36 485.74,-1720.03 488.1,-1713.44"/>
</g>
<!-- 7 -->
<g id="node9" class="node">
<title>7</title>
<ellipse fill="#a2cd5a" stroke="black" cx="328" cy="-1530" rx="72" ry="72"/>
<text text-anchor="middle" x="328" y="-1524.95" font-family="Times,serif" font-size="14.00">ARM0</text>
</g>
<!-- 0&#45;&gt;7 -->
<g id="edge3" class="edge">
<title>0&#45;&gt;7</title>
<path fill="none" stroke="black" d="M360.3,-1666.49C355.06,-1656.73 350.23,-1646.55 346.5,-1636.5 343.69,-1628.95 341.31,-1620.94 339.28,-1612.83"/>
<polygon fill="black" stroke="black" points="342.72,-1612.19 337.07,-1603.23 335.9,-1613.76 342.72,-1612.19"/>
<text text-anchor="start" x="346.5" y="-1623.2" font-family="Times,serif" font-size="14.00"> &#160;command = 2&#39;01</text>
</g>
<!-- 1 -->
<g id="node3" class="node">
<title>1</title>
<ellipse fill="#a2cd5a" stroke="black" cx="333" cy="-694.5" rx="72" ry="72"/>
<text text-anchor="middle" x="333" y="-697.7" font-family="Times,serif" font-size="14.00">ALARM</text>
<text text-anchor="middle" x="333" y="-681.2" font-family="Times,serif" font-size="14.00">alarm = 1&#39;1</text>
</g>
<!-- 1&#45;&gt;1 -->
<g id="edge4" class="edge">
<title>1&#45;&gt;1</title>
<path fill="none" stroke="black" d="M403.19,-711.62C414.91,-709.23 423,-703.52 423,-694.5 423,-688.58 419.52,-684.09 413.81,-681.02"/>
<polygon fill="black" stroke="black" points="415.21,-677.8 404.62,-677.87 412.94,-684.43 415.21,-677.8"/>
</g>
<!-- 9 -->
<g id="node11" class="node">
<title>9</title>
<ellipse fill="#a2cd5a" stroke="black" cx="262" cy="-498" rx="72" ry="72"/>
<text text-anchor="middle" x="262" y="-492.95" font-family="Times,serif" font-size="14.00">DISARM0</text>
</g>
<!-- 1&#45;&gt;9 -->
<g id="edge5" class="edge">
<title>1&#45;&gt;9</title>
<path fill="none" stroke="black" d="M308.47,-626.29C302.65,-610.35 296.39,-593.21 290.41,-576.84"/>
<polygon fill="black" stroke="black" points="293.77,-575.83 287.05,-567.63 287.19,-578.23 293.77,-575.83"/>
<text text-anchor="start" x="299.63" y="-591.2" font-family="Times,serif" font-size="14.00"> &#160;command = 2&#39;10</text>
</g>
<!-- 2 -->
<g id="node4" class="node">
<title>2</title>
<ellipse fill="#a2cd5a" stroke="black" cx="333" cy="-891" rx="72" ry="72"/>
<text text-anchor="middle" x="333" y="-894.2" font-family="Times,serif" font-size="14.00">ARMED</text>
<text text-anchor="middle" x="333" y="-877.7" font-family="Times,serif" font-size="14.00">armed = 1&#39;1</text>
</g>
<!-- 2&#45;&gt;1 -->
<g id="edge6" class="edge">
<title>2&#45;&gt;1</title>
<path fill="none" stroke="black" d="M333,-818.68C333,-805.47 333,-791.56 333,-778.05"/>
<polygon fill="black" stroke="black" points="336.5,-778.33 333,-768.33 329.5,-778.33 336.5,-778.33"/>
<text text-anchor="start" x="333" y="-787.7" font-family="Times,serif" font-size="14.00"> &#160;trigger = 1&#39;1</text>
</g>
<!-- 2&#45;&gt;2 -->
<g id="edge7" class="edge">
<title>2&#45;&gt;2</title>
<path fill="none" stroke="black" d="M403.19,-908.12C414.91,-905.73 423,-900.02 423,-891 423,-885.08 419.52,-880.59 413.81,-877.52"/>
<polygon fill="black" stroke="black" points="415.21,-874.3 404.62,-874.37 412.94,-880.93 415.21,-874.3"/>
</g>
<!-- 2&#45;&gt;9 -->
<g id="edge8" class="edge">
<title>2&#45;&gt;9</title>
<path fill="none" stroke="black" d="M263.88,-869.25C215.62,-850.74 154.76,-818.38 125.25,-766.5 93.6,-710.87 99.26,-680.99 125.25,-622.5 139.25,-590.99 165.71,-564.12 191.65,-543.57"/>
<polygon fill="black" stroke="black" points="193.77,-546.35 199.58,-537.48 189.51,-540.79 193.77,-546.35"/>
<text text-anchor="start" x="125.25" y="-697.7" font-family="Times,serif" font-size="14.00"> &#160;trigger = 1&#39;0</text>
<text text-anchor="start" x="125.25" y="-681.2" font-family="Times,serif" font-size="14.00"> &#160;&amp;&amp; command = 2&#39;10</text>
</g>
<!-- 3 -->
<g id="node5" class="node">
<title>3</title>
<ellipse fill="#a2cd5a" stroke="black" cx="72" cy="-72" rx="72" ry="72"/>
<text text-anchor="middle" x="72" y="-66.95" font-family="Times,serif" font-size="14.00">DISARM2B</text>
</g>
<!-- 3&#45;&gt;2 -->
<g id="edge9" class="edge">
<title>3&#45;&gt;2</title>
<path fill="none" stroke="black" d="M55.6,-142.43C47.31,-183.38 39,-236.36 39,-284 39,-695.5 39,-695.5 39,-695.5 39,-797.77 164.27,-849.4 251.27,-872.92"/>
<polygon fill="black" stroke="black" points="250.18,-876.26 260.74,-875.41 251.95,-869.49 250.18,-876.26"/>
<text text-anchor="start" x="39" y="-492.95" font-family="Times,serif" font-size="14.00"> &#160;input_digit = 1&#39;1</text>
</g>
<!-- 3&#45;&gt;3 -->
<g id="edge10" class="edge">
<title>3&#45;&gt;3</title>
<path fill="none" stroke="black" d="M141.81,-90.64C153.74,-88.09 162,-81.88 162,-72 162,-65.52 158.44,-60.61 152.62,-57.29"/>
<polygon fill="black" stroke="black" points="153.83,-54 143.23,-53.88 151.44,-60.58 153.83,-54"/>
</g>
<!-- 4 -->
<g id="node6" class="node">
<title>4</title>
<ellipse fill="#a2cd5a" stroke="black" cx="329" cy="-1317" rx="72" ry="72"/>
<text text-anchor="middle" x="329" y="-1311.95" font-family="Times,serif" font-size="14.00">ARM1</text>
</g>
<!-- 4&#45;&gt;4 -->
<g id="edge11" class="edge">
<title>4&#45;&gt;4</title>
<path fill="none" stroke="black" d="M398.81,-1335.64C410.74,-1333.09 419,-1326.88 419,-1317 419,-1310.52 415.44,-1305.61 409.62,-1302.29"/>
<polygon fill="black" stroke="black" points="410.83,-1299 400.23,-1298.88 408.44,-1305.58 410.83,-1299"/>
</g>
<!-- 5 -->
<g id="node7" class="node">
<title>5</title>
<ellipse fill="#a2cd5a" stroke="black" cx="82" cy="-1104" rx="72" ry="72"/>
<text text-anchor="middle" x="82" y="-1098.95" font-family="Times,serif" font-size="14.00">ARM2B</text>
</g>
<!-- 4&#45;&gt;5 -->
<g id="edge12" class="edge">
<title>4&#45;&gt;5</title>
<path fill="none" stroke="black" d="M276.55,-1267.59C267.28,-1259.74 257.53,-1251.92 248,-1245 235.34,-1235.81 230.35,-1236.27 217.75,-1227 217.48,-1226.8 179.39,-1192.57 143.64,-1160.42"/>
<polygon fill="black" stroke="black" points="146,-1157.84 136.23,-1153.76 141.32,-1163.05 146,-1157.84"/>
<text text-anchor="start" x="217.75" y="-1213.7" font-family="Times,serif" font-size="14.00"> &#160;input_digit = 1&#39;1</text>
<text text-anchor="start" x="217.75" y="-1197.2" font-family="Times,serif" font-size="14.00"> &#160;&amp;&amp; digit = 4&#39;0010</text>
</g>
<!-- 10 -->
<g id="node12" class="node">
<title>10</title>
<ellipse fill="#a2cd5a" stroke="black" cx="336" cy="-1104" rx="72" ry="72"/>
<text text-anchor="middle" x="336" y="-1098.95" font-family="Times,serif" font-size="14.00">ARM2</text>
</g>
<!-- 4&#45;&gt;10 -->
<g id="edge13" class="edge">
<title>4&#45;&gt;10</title>
<path fill="none" stroke="black" d="M331.37,-1244.57C331.98,-1226.26 332.64,-1206.43 333.26,-1187.61"/>
<polygon fill="black" stroke="black" points="336.75,-1187.98 333.58,-1177.87 329.75,-1187.75 336.75,-1187.98"/>
<text text-anchor="start" x="332.92" y="-1213.7" font-family="Times,serif" font-size="14.00"> &#160;input_digit = 1&#39;1</text>
<text text-anchor="start" x="332.92" y="-1197.2" font-family="Times,serif" font-size="14.00"> &#160;&amp;&amp; digit = 4&#39;0010</text>
</g>
<!-- 5&#45;&gt;0 -->
<g id="edge14" class="edge">
<title>5&#45;&gt;0</title>
<path fill="none" stroke="black" d="M63.61,-1173.91C48.49,-1246.47 37.16,-1360.92 89.75,-1440 155.17,-1538.38 260.61,-1626.76 330.6,-1679.28"/>
<polygon fill="black" stroke="black" points="328.48,-1682.06 338.59,-1685.23 332.66,-1676.45 328.48,-1682.06"/>
<text text-anchor="start" x="89.75" y="-1418.45" font-family="Times,serif" font-size="14.00"> &#160;input_digit = 1&#39;1</text>
</g>
<!-- 5&#45;&gt;5 -->
<g id="edge15" class="edge">
<title>5&#45;&gt;5</title>
<path fill="none" stroke="black" d="M151.81,-1122.64C163.74,-1120.09 172,-1113.88 172,-1104 172,-1097.52 168.44,-1092.61 162.62,-1089.29"/>
<polygon fill="black" stroke="black" points="163.83,-1086 153.23,-1085.88 161.44,-1092.58 163.83,-1086"/>
</g>
<!-- 6 -->
<g id="node8" class="node">
<title>6</title>
<ellipse fill="#a2cd5a" stroke="black" cx="319" cy="-285" rx="72" ry="72"/>
<text text-anchor="middle" x="319" y="-279.95" font-family="Times,serif" font-size="14.00">DISARM1</text>
</g>
<!-- 6&#45;&gt;3 -->
<g id="edge16" class="edge">
<title>6&#45;&gt;3</title>
<path fill="none" stroke="black" d="M266.99,-234.96C257.66,-227.19 247.79,-219.56 238,-213 223.06,-202.99 216.17,-205.75 201.75,-195 185.68,-183.02 185.3,-176.05 171,-162 159.41,-150.62 146.73,-138.78 134.42,-127.59"/>
<polygon fill="black" stroke="black" points="136.86,-125.08 127.1,-120.97 132.17,-130.27 136.86,-125.08"/>
<text text-anchor="start" x="201.75" y="-181.7" font-family="Times,serif" font-size="14.00"> &#160;input_digit = 1&#39;1</text>
<text text-anchor="start" x="201.75" y="-165.2" font-family="Times,serif" font-size="14.00"> &#160;&amp;&amp; digit = 4&#39;0010</text>
</g>
<!-- 6&#45;&gt;6 -->
<g id="edge17" class="edge">
<title>6&#45;&gt;6</title>
<path fill="none" stroke="black" d="M388.81,-303.64C400.74,-301.09 409,-294.88 409,-285 409,-278.52 405.44,-273.61 399.62,-270.29"/>
<polygon fill="black" stroke="black" points="400.83,-267 390.23,-266.88 398.44,-273.58 400.83,-267"/>
</g>
<!-- 12 -->
<g id="node14" class="node">
<title>12</title>
<ellipse fill="#a2cd5a" stroke="black" cx="451" cy="-72" rx="72" ry="72"/>
<text text-anchor="middle" x="451" y="-66.95" font-family="Times,serif" font-size="14.00">DISARM2</text>
</g>
<!-- 6&#45;&gt;12 -->
<g id="edge18" class="edge">
<title>6&#45;&gt;12</title>
<path fill="none" stroke="black" d="M313.15,-212.94C314.44,-195.43 318.26,-177.31 326.75,-162 338.31,-141.16 357.04,-123.99 376.5,-110.48"/>
<polygon fill="black" stroke="black" points="378.42,-113.41 384.82,-104.97 374.55,-107.57 378.42,-113.41"/>
<text text-anchor="start" x="326.75" y="-181.7" font-family="Times,serif" font-size="14.00"> &#160;input_digit = 1&#39;1</text>
<text text-anchor="start" x="326.75" y="-165.2" font-family="Times,serif" font-size="14.00"> &#160;&amp;&amp; digit = 4&#39;0010</text>
</g>
<!-- 7&#45;&gt;4 -->
<g id="edge19" class="edge">
<title>7&#45;&gt;4</title>
<path fill="none" stroke="black" d="M328.34,-1457.57C328.43,-1439.26 328.52,-1419.43 328.61,-1400.61"/>
<polygon fill="black" stroke="black" points="332.11,-1400.89 328.65,-1390.87 325.11,-1400.86 332.11,-1400.89"/>
<text text-anchor="start" x="328.56" y="-1426.7" font-family="Times,serif" font-size="14.00"> &#160;input_digit = 1&#39;1</text>
<text text-anchor="start" x="328.56" y="-1410.2" font-family="Times,serif" font-size="14.00"> &#160;&amp;&amp; digit = 4&#39;0001</text>
</g>
<!-- 7&#45;&gt;7 -->
<g id="edge20" class="edge">
<title>7&#45;&gt;7</title>
<path fill="none" stroke="black" d="M398.19,-1547.12C409.91,-1544.73 418,-1539.02 418,-1530 418,-1524.08 414.52,-1519.59 408.81,-1516.52"/>
<polygon fill="black" stroke="black" points="410.21,-1513.3 399.62,-1513.37 407.94,-1519.93 410.21,-1513.3"/>
</g>
<!-- 8 -->
<g id="node10" class="node">
<title>8</title>
<ellipse fill="#a2cd5a" stroke="black" cx="149" cy="-1317" rx="72" ry="72"/>
<text text-anchor="middle" x="149" y="-1311.95" font-family="Times,serif" font-size="14.00">ARM1B</text>
</g>
<!-- 7&#45;&gt;8 -->
<g id="edge21" class="edge">
<title>7&#45;&gt;8</title>
<path fill="none" stroke="black" d="M268.09,-1489.82C249.22,-1475.62 229.27,-1458.49 213.75,-1440 202.07,-1426.09 191.63,-1409.72 182.72,-1393.57"/>
<polygon fill="black" stroke="black" points="185.89,-1392.07 178.08,-1384.91 179.71,-1395.37 185.89,-1392.07"/>
<text text-anchor="start" x="213.75" y="-1426.7" font-family="Times,serif" font-size="14.00"> &#160;input_digit = 1&#39;1</text>
<text text-anchor="start" x="213.75" y="-1410.2" font-family="Times,serif" font-size="14.00"> &#160;&amp;&amp; digit = 4&#39;0001</text>
</g>
<!-- 8&#45;&gt;5 -->
<g id="edge22" class="edge">
<title>8&#45;&gt;5</title>
<path fill="none" stroke="black" d="M101.35,-1263.09C93.73,-1251.88 86.97,-1239.6 82.75,-1227 78.55,-1214.45 76.35,-1200.75 75.44,-1187.22"/>
<polygon fill="black" stroke="black" points="78.94,-1187.27 75.01,-1177.43 71.95,-1187.57 78.94,-1187.27"/>
<text text-anchor="start" x="82.75" y="-1205.45" font-family="Times,serif" font-size="14.00"> &#160;input_digit = 1&#39;1</text>
</g>
<!-- 8&#45;&gt;8 -->
<g id="edge23" class="edge">
<title>8&#45;&gt;8</title>
<path fill="none" stroke="black" d="M218.81,-1335.64C230.74,-1333.09 239,-1326.88 239,-1317 239,-1310.52 235.44,-1305.61 229.62,-1302.29"/>
<polygon fill="black" stroke="black" points="230.83,-1299 220.23,-1298.88 228.44,-1305.58 230.83,-1299"/>
</g>
<!-- 9&#45;&gt;6 -->
<g id="edge24" class="edge">
<title>9&#45;&gt;6</title>
<path fill="none" stroke="black" d="M280.59,-428.2C285.98,-408.22 291.92,-386.24 297.48,-365.65"/>
<polygon fill="black" stroke="black" points="300.82,-366.73 300.05,-356.17 294.06,-364.91 300.82,-366.73"/>
<text text-anchor="start" x="293.91" y="-394.7" font-family="Times,serif" font-size="14.00"> &#160;input_digit = 1&#39;1</text>
<text text-anchor="start" x="293.91" y="-378.2" font-family="Times,serif" font-size="14.00"> &#160;&amp;&amp; digit = 4&#39;0001</text>
</g>
<!-- 9&#45;&gt;9 -->
<g id="edge25" class="edge">
<title>9&#45;&gt;9</title>
<path fill="none" stroke="black" d="M332.19,-515.12C343.91,-512.73 352,-507.02 352,-498 352,-492.08 348.52,-487.59 342.81,-484.52"/>
<polygon fill="black" stroke="black" points="344.21,-481.3 333.62,-481.37 341.94,-487.93 344.21,-481.3"/>
</g>
<!-- 11 -->
<g id="node13" class="node">
<title>11</title>
<ellipse fill="#a2cd5a" stroke="black" cx="139" cy="-285" rx="72" ry="72"/>
<text text-anchor="middle" x="139" y="-279.95" font-family="Times,serif" font-size="14.00">DISARM1B</text>
</g>
<!-- 9&#45;&gt;11 -->
<g id="edge26" class="edge">
<title>9&#45;&gt;11</title>
<path fill="none" stroke="black" d="M206.89,-451.02C194.2,-438.2 181.8,-423.5 172.75,-408 165.42,-395.45 159.63,-381.24 155.07,-367.06"/>
<polygon fill="black" stroke="black" points="158.48,-366.27 152.25,-357.71 151.78,-368.29 158.48,-366.27"/>
<text text-anchor="start" x="172.75" y="-394.7" font-family="Times,serif" font-size="14.00"> &#160;input_digit = 1&#39;1</text>
<text text-anchor="start" x="172.75" y="-378.2" font-family="Times,serif" font-size="14.00"> &#160;&amp;&amp; digit = 4&#39;0001</text>
</g>
<!-- 10&#45;&gt;0 -->
<g id="edge27" class="edge">
<title>10&#45;&gt;0</title>
<path fill="none" stroke="black" d="M398.69,-1139.92C417.8,-1154.02 436.53,-1172.18 447,-1194 468.27,-1238.33 457.99,-1588.58 447,-1636.5 445.75,-1641.93 444.15,-1647.42 442.29,-1652.86"/>
<polygon fill="black" stroke="black" points="439.15,-1651.24 438.95,-1661.84 445.72,-1653.68 439.15,-1651.24"/>
<text text-anchor="start" x="459.15" y="-1426.7" font-family="Times,serif" font-size="14.00"> &#160;input_digit = 1&#39;1</text>
<text text-anchor="start" x="459.15" y="-1410.2" font-family="Times,serif" font-size="14.00"> &#160;&amp;&amp; digit = 4&#39;0100</text>
</g>
<!-- 10&#45;&gt;2 -->
<g id="edge28" class="edge">
<title>10&#45;&gt;2</title>
<path fill="none" stroke="black" d="M334.98,-1031.57C334.72,-1013.26 334.44,-993.43 334.17,-974.61"/>
<polygon fill="black" stroke="black" points="337.68,-974.82 334.04,-964.87 330.68,-974.92 337.68,-974.82"/>
<text text-anchor="start" x="334.68" y="-1000.7" font-family="Times,serif" font-size="14.00"> &#160;input_digit = 1&#39;1</text>
<text text-anchor="start" x="334.68" y="-984.2" font-family="Times,serif" font-size="14.00"> &#160;&amp;&amp; digit = 4&#39;0100</text>
</g>
<!-- 10&#45;&gt;10 -->
<g id="edge29" class="edge">
<title>10&#45;&gt;10</title>
<path fill="none" stroke="black" d="M405.81,-1122.64C417.74,-1120.09 426,-1113.88 426,-1104 426,-1097.52 422.44,-1092.61 416.62,-1089.29"/>
<polygon fill="black" stroke="black" points="417.83,-1086 407.23,-1085.88 415.44,-1092.58 417.83,-1086"/>
</g>
<!-- 11&#45;&gt;3 -->
<g id="edge30" class="edge">
<title>11&#45;&gt;3</title>
<path fill="none" stroke="black" d="M91.35,-231.09C83.73,-219.88 76.97,-207.6 72.75,-195 68.55,-182.45 66.35,-168.75 65.44,-155.22"/>
<polygon fill="black" stroke="black" points="68.94,-155.27 65.01,-145.43 61.95,-155.57 68.94,-155.27"/>
<text text-anchor="start" x="72.75" y="-173.45" font-family="Times,serif" font-size="14.00"> &#160;input_digit = 1&#39;1</text>
</g>
<!-- 11&#45;&gt;11 -->
<g id="edge31" class="edge">
<title>11&#45;&gt;11</title>
<path fill="none" stroke="black" d="M208.81,-303.64C220.74,-301.09 229,-294.88 229,-285 229,-278.52 225.44,-273.61 219.62,-270.29"/>
<polygon fill="black" stroke="black" points="220.83,-267 210.23,-266.88 218.44,-273.58 220.83,-267"/>
</g>
<!-- 12&#45;&gt;0 -->
<g id="edge32" class="edge">
<title>12&#45;&gt;0</title>
<path fill="none" stroke="black" d="M504.75,-120.19C543.5,-159.64 589,-219.66 589,-284 589,-1531 589,-1531 589,-1531 589,-1598.97 530.19,-1653.13 478.53,-1687.6"/>
<polygon fill="black" stroke="black" points="476.73,-1684.59 470.25,-1692.98 480.54,-1690.46 476.73,-1684.59"/>
<text text-anchor="start" x="589" y="-894.2" font-family="Times,serif" font-size="14.00"> &#160;input_digit = 1&#39;1</text>
<text text-anchor="start" x="589" y="-877.7" font-family="Times,serif" font-size="14.00"> &#160;&amp;&amp; digit = 4&#39;0100</text>
</g>
<!-- 12&#45;&gt;2 -->
<g id="edge33" class="edge">
<title>12&#45;&gt;2</title>
<path fill="none" stroke="black" d="M451,-144.3C451,-185.18 451,-237.48 451,-284 451,-695.5 451,-695.5 451,-695.5 451,-746.51 420.97,-795.55 391.21,-831.63"/>
<polygon fill="black" stroke="black" points="388.84,-829.01 385.05,-838.9 394.18,-833.53 388.84,-829.01"/>
<text text-anchor="start" x="451" y="-501.2" font-family="Times,serif" font-size="14.00"> &#160;input_digit = 1&#39;1</text>
<text text-anchor="start" x="451" y="-484.7" font-family="Times,serif" font-size="14.00"> &#160;&amp;&amp; digit = 4&#39;0100</text>
</g>
<!-- 12&#45;&gt;12 -->
<g id="edge34" class="edge">
<title>12&#45;&gt;12</title>
<path fill="none" stroke="black" d="M520.81,-90.64C532.74,-88.09 541,-81.88 541,-72 541,-65.52 537.44,-60.61 531.62,-57.29"/>
<polygon fill="black" stroke="black" points="532.83,-54 522.23,-53.88 530.44,-60.58 532.83,-54"/>
</g>
</g>
</svg>
