<?xml version="1.0" encoding="UTF-8" standalone="no"?>
<!DOCTYPE svg PUBLIC "-//W3C//DTD SVG 1.1//EN"
 "http://www.w3.org/Graphics/SVG/1.1/DTD/svg11.dtd">
<!-- Generated by graphviz version 12.1.1 (0)
 -->
<!-- Pages: 1 -->
<svg width="704pt" height="1418pt"
 viewBox="0.00 0.00 704.12 1417.54" xmlns="http://www.w3.org/2000/svg" xmlns:xlink="http://www.w3.org/1999/xlink">
<g id="graph0" class="graph" transform="scale(1 1) rotate(0) translate(4 1413.54)">
<polygon fill="white" stroke="none" points="-4,4 -4,-1413.54 700.12,-1413.54 700.12,4 -4,4"/>
<!-- _reset -->
<!-- 0 -->
<g id="node2" class="node">
<title>0</title>
<ellipse fill="#a2cd5a" stroke="black" cx="385.62" cy="-1261.56" rx="55.47" ry="55.47"/>
<ellipse fill="none" stroke="black" cx="385.62" cy="-1261.56" rx="59.47" ry="59.47"/>
<text text-anchor="middle" x="385.62" y="-1273.01" font-family="Times,serif" font-size="14.00">DISARMED</text>
<text text-anchor="middle" x="385.62" y="-1256.51" font-family="Times,serif" font-size="14.00">alarm = 1&#39;0</text>
<text text-anchor="middle" x="385.62" y="-1240.01" font-family="Times,serif" font-size="14.00">armed = 1&#39;0</text>
</g>
<!-- _reset&#45;&gt;0 -->
<g id="edge1" class="edge">
<title>_reset&#45;&gt;0</title>
<path fill="none" stroke="black" d="M385.62,-1373.28C385.62,-1362.88 385.62,-1348.87 385.62,-1334.31"/>
<polygon fill="black" stroke="black" points="385.62,-1334.36 381.62,-1328.36 385.62,-1322.36 389.62,-1328.36 385.62,-1334.36"/>
<text text-anchor="middle" x="402.12" y="-1342.24" font-family="Times,serif" font-size="14.00"> &#160;reset</text>
</g>
<!-- 0&#45;&gt;0 -->
<g id="edge2" class="edge">
<title>0&#45;&gt;0</title>
<path fill="none" stroke="black" d="M443.39,-1276.97C454.89,-1275.24 463.09,-1270.1 463.09,-1261.56 463.09,-1256.09 459.72,-1252.02 454.28,-1249.34"/>
<polygon fill="black" stroke="black" points="455.42,-1246.03 444.84,-1246.58 453.46,-1252.75 455.42,-1246.03"/>
</g>
<!-- 7 -->
<g id="node9" class="node">
<title>7</title>
<ellipse fill="#a2cd5a" stroke="black" cx="290.62" cy="-1119.4" rx="30.19" ry="30.19"/>
<text text-anchor="middle" x="290.62" y="-1114.35" font-family="Times,serif" font-size="14.00">ARM0</text>
</g>
<!-- 0&#45;&gt;7 -->
<g id="edge3" class="edge">
<title>0&#45;&gt;7</title>
<path fill="none" stroke="black" d="M343.6,-1218.97C334.04,-1208.18 324.47,-1196.18 316.87,-1184.09 311.98,-1176.33 307.67,-1167.51 304.03,-1158.96"/>
<polygon fill="black" stroke="black" points="307.31,-1157.75 300.34,-1149.78 300.82,-1160.36 307.31,-1157.75"/>
<text text-anchor="start" x="316.87" y="-1170.79" font-family="Times,serif" font-size="14.00"> &#160;command == 2&#39;01</text>
</g>
<!-- 1 -->
<g id="node3" class="node">
<title>1</title>
<ellipse fill="#a2cd5a" stroke="black" cx="326.62" cy="-531.88" rx="49.64" ry="49.64"/>
<text text-anchor="middle" x="326.62" y="-535.08" font-family="Times,serif" font-size="14.00">ALARM</text>
<text text-anchor="middle" x="326.62" y="-518.58" font-family="Times,serif" font-size="14.00">alarm = 1&#39;1</text>
</g>
<!-- 1&#45;&gt;1 -->
<g id="edge4" class="edge">
<title>1&#45;&gt;1</title>
<path fill="none" stroke="black" d="M374.64,-545.83C385.93,-544.68 394.25,-540.03 394.25,-531.88 394.25,-526.78 391,-523.06 385.81,-520.7"/>
<polygon fill="black" stroke="black" points="386.66,-517.3 376.11,-518.29 384.98,-524.1 386.66,-517.3"/>
</g>
<!-- 9 -->
<g id="node11" class="node">
<title>9</title>
<ellipse fill="#a2cd5a" stroke="black" cx="197.62" cy="-385.1" rx="44.64" ry="44.64"/>
<text text-anchor="middle" x="197.62" y="-380.05" font-family="Times,serif" font-size="14.00">DISARM0</text>
</g>
<!-- 1&#45;&gt;9 -->
<g id="edge5" class="edge">
<title>1&#45;&gt;9</title>
<path fill="none" stroke="black" d="M294.06,-494.35C275.96,-474.02 253.36,-448.66 234.59,-427.6"/>
<polygon fill="black" stroke="black" points="237.34,-425.43 228.08,-420.29 232.12,-430.08 237.34,-425.43"/>
<text text-anchor="start" x="265.98" y="-450.94" font-family="Times,serif" font-size="14.00"> &#160;command == 2&#39;10</text>
</g>
<!-- 2 -->
<g id="node4" class="node">
<title>2</title>
<ellipse fill="#a2cd5a" stroke="black" cx="308.62" cy="-685.78" rx="51.76" ry="51.76"/>
<text text-anchor="middle" x="308.62" y="-688.98" font-family="Times,serif" font-size="14.00">ARMED</text>
<text text-anchor="middle" x="308.62" y="-672.48" font-family="Times,serif" font-size="14.00">armed = 1&#39;1</text>
</g>
<!-- 2&#45;&gt;1 -->
<g id="edge6" class="edge">
<title>2&#45;&gt;1</title>
<path fill="none" stroke="black" d="M314.61,-634.2C316.18,-620.91 317.9,-606.46 319.52,-592.74"/>
<polygon fill="black" stroke="black" points="322.98,-593.28 320.68,-582.94 316.03,-592.46 322.98,-593.28"/>
<text text-anchor="start" x="318.69" y="-602.72" font-family="Times,serif" font-size="14.00"> &#160;trigger</text>
</g>
<!-- 2&#45;&gt;2 -->
<g id="edge7" class="edge">
<title>2&#45;&gt;2</title>
<path fill="none" stroke="black" d="M358.78,-700.05C370.1,-698.76 378.38,-694.01 378.38,-685.78 378.38,-680.51 374.98,-676.66 369.56,-674.24"/>
<polygon fill="black" stroke="black" points="370.8,-670.94 360.25,-671.88 369.08,-677.73 370.8,-670.94"/>
</g>
<!-- 2&#45;&gt;9 -->
<g id="edge8" class="edge">
<title>2&#45;&gt;9</title>
<path fill="none" stroke="black" d="M258.74,-670.78C216.78,-656.07 159.46,-628.4 132.62,-581.52 110.69,-543.23 119.69,-524.43 132.62,-482.24 138.54,-462.92 149.8,-443.97 161.3,-428.08"/>
<polygon fill="black" stroke="black" points="163.94,-430.4 167.16,-420.31 158.35,-426.19 163.94,-430.4"/>
<text text-anchor="start" x="132.62" y="-535.08" font-family="Times,serif" font-size="14.00"> &#160;!trigger</text>
<text text-anchor="start" x="132.62" y="-518.58" font-family="Times,serif" font-size="14.00"> &#160;&amp;&amp; command == 2&#39;10</text>
</g>
<!-- 3 -->
<g id="node5" class="node">
<title>3</title>
<ellipse fill="#a2cd5a" stroke="black" cx="50.62" cy="-50.62" rx="50.62" ry="50.62"/>
<text text-anchor="middle" x="50.62" y="-45.57" font-family="Times,serif" font-size="14.00">DISARM2B</text>
</g>
<!-- 3&#45;&gt;2 -->
<g id="edge9" class="edge">
<title>3&#45;&gt;2</title>
<path fill="none" stroke="black" d="M36.14,-99.35C27.28,-132.77 17.62,-178.63 17.62,-219.85 17.62,-532.88 17.62,-532.88 17.62,-532.88 17.62,-634.87 159.83,-668.5 245.42,-679.5"/>
<polygon fill="black" stroke="black" points="244.74,-682.94 255.09,-680.67 245.58,-675.99 244.74,-682.94"/>
<text text-anchor="start" x="17.62" y="-380.05" font-family="Times,serif" font-size="14.00"> &#160;digit_enterd</text>
</g>
<!-- 3&#45;&gt;3 -->
<g id="edge10" class="edge">
<title>3&#45;&gt;3</title>
<path fill="none" stroke="black" d="M99.03,-66.29C110.63,-65.07 119.23,-59.84 119.23,-50.62 119.23,-44.71 115.7,-40.44 110.11,-37.81"/>
<polygon fill="black" stroke="black" points="111.05,-34.44 100.49,-35.32 109.29,-41.21 111.05,-34.44"/>
</g>
<!-- 4 -->
<g id="node6" class="node">
<title>4</title>
<ellipse fill="#a2cd5a" stroke="black" cx="290.62" cy="-984.04" rx="30.19" ry="30.19"/>
<text text-anchor="middle" x="290.62" y="-978.99" font-family="Times,serif" font-size="14.00">ARM1</text>
</g>
<!-- 4&#45;&gt;4 -->
<g id="edge11" class="edge">
<title>4&#45;&gt;4</title>
<path fill="none" stroke="black" d="M317.86,-997.18C329.2,-998.08 338.81,-993.7 338.81,-984.04 338.81,-977.85 334.86,-973.83 329.05,-971.98"/>
<polygon fill="black" stroke="black" points="329.66,-968.52 319.37,-971.05 328.99,-975.49 329.66,-968.52"/>
</g>
<!-- 5 -->
<g id="node7" class="node">
<title>5</title>
<ellipse fill="#a2cd5a" stroke="black" cx="63.62" cy="-842.71" rx="36.17" ry="36.17"/>
<text text-anchor="middle" x="63.62" y="-837.66" font-family="Times,serif" font-size="14.00">ARM2B</text>
</g>
<!-- 4&#45;&gt;5 -->
<g id="edge12" class="edge">
<title>4&#45;&gt;5</title>
<path fill="none" stroke="black" d="M261.93,-973.73C236.61,-964.74 199.37,-949.6 170.62,-929.87 153.51,-918.14 153.42,-910.3 137.62,-896.87 126.78,-887.67 114.44,-878.38 102.98,-870.2"/>
<polygon fill="black" stroke="black" points="105.05,-867.37 94.85,-864.48 101.02,-873.09 105.05,-867.37"/>
<text text-anchor="start" x="170.62" y="-916.57" font-family="Times,serif" font-size="14.00"> &#160;digit_enterd</text>
<text text-anchor="start" x="170.62" y="-900.07" font-family="Times,serif" font-size="14.00"> &#160;&amp;&amp; !digit == 4&#39;0010</text>
</g>
<!-- 10 -->
<g id="node12" class="node">
<title>10</title>
<ellipse fill="#a2cd5a" stroke="black" cx="308.62" cy="-842.71" rx="30.19" ry="30.19"/>
<text text-anchor="middle" x="308.62" y="-837.66" font-family="Times,serif" font-size="14.00">ARM2</text>
</g>
<!-- 4&#45;&gt;10 -->
<g id="edge13" class="edge">
<title>4&#45;&gt;10</title>
<path fill="none" stroke="black" d="M294.39,-953.83C297.01,-933.58 300.52,-906.35 303.41,-884.04"/>
<polygon fill="black" stroke="black" points="306.84,-884.74 304.65,-874.38 299.9,-883.85 306.84,-884.74"/>
<text text-anchor="start" x="301.23" y="-916.57" font-family="Times,serif" font-size="14.00"> &#160;digit_enterd</text>
<text text-anchor="start" x="301.23" y="-900.07" font-family="Times,serif" font-size="14.00"> &#160;&amp;&amp; digit == 4&#39;0010</text>
</g>
<!-- 5&#45;&gt;0 -->
<g id="edge14" class="edge">
<title>5&#45;&gt;0</title>
<path fill="none" stroke="black" d="M53.05,-877.47C40.45,-924.62 25.33,-1011.14 61.87,-1071.21 118.74,-1164.73 240.51,-1217.07 317.43,-1242"/>
<polygon fill="black" stroke="black" points="315.94,-1245.2 326.53,-1244.88 318.05,-1238.52 315.94,-1245.2"/>
<text text-anchor="start" x="61.87" y="-1049.66" font-family="Times,serif" font-size="14.00"> &#160;digit_enterd</text>
</g>
<!-- 5&#45;&gt;5 -->
<g id="edge15" class="edge">
<title>5&#45;&gt;5</title>
<path fill="none" stroke="black" d="M97.74,-855.96C108.9,-855.89 117.78,-851.47 117.78,-842.71 117.78,-837.23 114.31,-833.45 108.98,-831.37"/>
<polygon fill="black" stroke="black" points="109.67,-827.93 99.23,-829.71 108.5,-834.84 109.67,-827.93"/>
</g>
<!-- 6 -->
<g id="node8" class="node">
<title>6</title>
<ellipse fill="#a2cd5a" stroke="black" cx="242.62" cy="-220.85" rx="44.64" ry="44.64"/>
<text text-anchor="middle" x="242.62" y="-215.8" font-family="Times,serif" font-size="14.00">DISARM1</text>
</g>
<!-- 6&#45;&gt;3 -->
<g id="edge16" class="edge">
<title>6&#45;&gt;3</title>
<path fill="none" stroke="black" d="M207.25,-193.44C196.83,-185.82 185.34,-177.59 174.62,-170.23 162.41,-161.87 157.16,-162.61 146.62,-152.23 134.05,-139.87 136.1,-132.61 124.62,-119.23 116.38,-109.63 106.85,-100.03 97.43,-91.2"/>
<polygon fill="black" stroke="black" points="100.06,-88.87 90.33,-84.69 95.33,-94.03 100.06,-88.87"/>
<text text-anchor="start" x="146.62" y="-138.93" font-family="Times,serif" font-size="14.00"> &#160;digit_enterd</text>
<text text-anchor="start" x="146.62" y="-122.43" font-family="Times,serif" font-size="14.00"> &#160;&amp;&amp; !digit == 4&#39;0010</text>
</g>
<!-- 6&#45;&gt;6 -->
<g id="edge17" class="edge">
<title>6&#45;&gt;6</title>
<path fill="none" stroke="black" d="M284.77,-236.71C296.38,-235.94 305.25,-230.66 305.25,-220.85 305.25,-214.56 301.61,-210.14 295.94,-207.56"/>
<polygon fill="black" stroke="black" points="296.78,-204.16 286.25,-205.33 295.2,-210.99 296.78,-204.16"/>
</g>
<!-- 12 -->
<g id="node14" class="node">
<title>12</title>
<ellipse fill="#a2cd5a" stroke="black" cx="426.62" cy="-50.62" rx="44.64" ry="44.64"/>
<text text-anchor="middle" x="426.62" y="-45.57" font-family="Times,serif" font-size="14.00">DISARM2</text>
</g>
<!-- 6&#45;&gt;12 -->
<g id="edge18" class="edge">
<title>6&#45;&gt;12</title>
<path fill="none" stroke="black" d="M260.22,-179.41C271.14,-155.66 284.81,-128.52 294.12,-119.23 316.28,-97.1 347.18,-80.76 373.57,-69.69"/>
<polygon fill="black" stroke="black" points="374.81,-72.96 382.78,-65.98 372.2,-66.47 374.81,-72.96"/>
<text text-anchor="start" x="294.12" y="-138.93" font-family="Times,serif" font-size="14.00"> &#160;digit_enterd</text>
<text text-anchor="start" x="294.12" y="-122.43" font-family="Times,serif" font-size="14.00"> &#160;&amp;&amp; digit == 4&#39;0010</text>
</g>
<!-- 7&#45;&gt;4 -->
<g id="edge19" class="edge">
<title>7&#45;&gt;4</title>
<path fill="none" stroke="black" d="M290.62,-1088.81C290.62,-1070.33 290.62,-1046.29 290.62,-1026"/>
<polygon fill="black" stroke="black" points="294.12,-1026.07 290.62,-1016.07 287.12,-1026.07 294.12,-1026.07"/>
<text text-anchor="start" x="290.62" y="-1057.91" font-family="Times,serif" font-size="14.00"> &#160;digit_enterd</text>
<text text-anchor="start" x="290.62" y="-1041.41" font-family="Times,serif" font-size="14.00"> &#160;&amp;&amp; digit == 4&#39;0100</text>
</g>
<!-- 7&#45;&gt;7 -->
<g id="edge20" class="edge">
<title>7&#45;&gt;7</title>
<path fill="none" stroke="black" d="M319.31,-1129.96C330,-1130.31 338.81,-1126.79 338.81,-1119.4 338.81,-1114.9 335.54,-1111.84 330.56,-1110.21"/>
<polygon fill="black" stroke="black" points="331.16,-1106.75 320.81,-1109.02 330.32,-1113.7 331.16,-1106.75"/>
</g>
<!-- 8 -->
<g id="node10" class="node">
<title>8</title>
<ellipse fill="#a2cd5a" stroke="black" cx="116.62" cy="-984.04" rx="36.17" ry="36.17"/>
<text text-anchor="middle" x="116.62" y="-978.99" font-family="Times,serif" font-size="14.00">ARM1B</text>
</g>
<!-- 7&#45;&gt;8 -->
<g id="edge21" class="edge">
<title>7&#45;&gt;8</title>
<path fill="none" stroke="black" d="M260.59,-1113.48C232.71,-1107.58 191.45,-1095.31 163.62,-1071.21 150.53,-1059.88 140.43,-1043.98 133.01,-1028.92"/>
<polygon fill="black" stroke="black" points="136.29,-1027.68 128.93,-1020.06 129.93,-1030.61 136.29,-1027.68"/>
<text text-anchor="start" x="163.62" y="-1057.91" font-family="Times,serif" font-size="14.00"> &#160;digit_enterd</text>
<text text-anchor="start" x="163.62" y="-1041.41" font-family="Times,serif" font-size="14.00"> &#160;&amp;&amp; !digit == 4&#39;0100</text>
</g>
<!-- 8&#45;&gt;5 -->
<g id="edge22" class="edge">
<title>8&#45;&gt;5</title>
<path fill="none" stroke="black" d="M88.16,-961.39C78.96,-952.7 69.85,-941.89 64.87,-929.87 59.77,-917.58 58.06,-903.43 58,-890.19"/>
<polygon fill="black" stroke="black" points="61.5,-890.48 58.29,-880.38 54.5,-890.27 61.5,-890.48"/>
<text text-anchor="start" x="64.87" y="-908.32" font-family="Times,serif" font-size="14.00"> &#160;digit_enterd</text>
</g>
<!-- 8&#45;&gt;8 -->
<g id="edge23" class="edge">
<title>8&#45;&gt;8</title>
<path fill="none" stroke="black" d="M150.74,-997.29C161.9,-997.22 170.78,-992.81 170.78,-984.04 170.78,-978.57 167.31,-974.79 161.98,-972.71"/>
<polygon fill="black" stroke="black" points="162.67,-969.27 152.23,-971.05 161.5,-976.17 162.67,-969.27"/>
</g>
<!-- 9&#45;&gt;6 -->
<g id="edge24" class="edge">
<title>9&#45;&gt;6</title>
<path fill="none" stroke="black" d="M213.78,-343.26C216.24,-336.38 218.62,-329.26 220.62,-322.46 225.04,-307.42 229.02,-290.87 232.33,-275.62"/>
<polygon fill="black" stroke="black" points="235.67,-276.77 234.31,-266.26 228.82,-275.32 235.67,-276.77"/>
<text text-anchor="start" x="229.18" y="-309.16" font-family="Times,serif" font-size="14.00"> &#160;digit_enterd</text>
<text text-anchor="start" x="229.18" y="-292.66" font-family="Times,serif" font-size="14.00"> &#160;&amp;&amp; digit == 4&#39;0100</text>
</g>
<!-- 9&#45;&gt;9 -->
<g id="edge25" class="edge">
<title>9&#45;&gt;9</title>
<path fill="none" stroke="black" d="M240.65,-398.26C251.83,-397.45 260.25,-393.06 260.25,-385.1 260.25,-380.13 256.96,-376.55 251.76,-374.37"/>
<polygon fill="black" stroke="black" points="252.65,-370.98 242.13,-372.27 251.16,-377.82 252.65,-370.98"/>
</g>
<!-- 11 -->
<g id="node13" class="node">
<title>11</title>
<ellipse fill="#a2cd5a" stroke="black" cx="96.62" cy="-220.85" rx="50.62" ry="50.62"/>
<text text-anchor="middle" x="96.62" y="-215.8" font-family="Times,serif" font-size="14.00">DISARM1B</text>
</g>
<!-- 9&#45;&gt;11 -->
<g id="edge26" class="edge">
<title>9&#45;&gt;11</title>
<path fill="none" stroke="black" d="M155.06,-370.56C132.51,-360.97 106.81,-345.62 93.62,-322.46 86.65,-310.24 84.36,-295.76 84.5,-281.65"/>
<polygon fill="black" stroke="black" points="87.98,-282.14 85.01,-271.97 80.99,-281.77 87.98,-282.14"/>
<text text-anchor="start" x="93.62" y="-309.16" font-family="Times,serif" font-size="14.00"> &#160;digit_enterd</text>
<text text-anchor="start" x="93.62" y="-292.66" font-family="Times,serif" font-size="14.00"> &#160;&amp;&amp; !digit == 4&#39;0100</text>
</g>
<!-- 10&#45;&gt;0 -->
<g id="edge27" class="edge">
<title>10&#45;&gt;0</title>
<path fill="none" stroke="black" d="M338.52,-848.39C365.89,-854.43 404.91,-867.85 423.62,-896.87 445.36,-930.61 426.95,-1178.66 425.62,-1184.09 424.34,-1189.28 422.65,-1194.5 420.68,-1199.65"/>
<polygon fill="black" stroke="black" points="417.53,-1198.11 416.87,-1208.68 423.98,-1200.83 417.53,-1198.11"/>
<text text-anchor="start" x="433.62" y="-1057.91" font-family="Times,serif" font-size="14.00"> &#160;digit_enterd</text>
<text text-anchor="start" x="433.62" y="-1041.41" font-family="Times,serif" font-size="14.00"> &#160;&amp;&amp; !digit == 4&#39;0001</text>
</g>
<!-- 10&#45;&gt;2 -->
<g id="edge28" class="edge">
<title>10&#45;&gt;2</title>
<path fill="none" stroke="black" d="M308.62,-812.2C308.62,-794.41 308.62,-771.07 308.62,-749.34"/>
<polygon fill="black" stroke="black" points="312.12,-749.34 308.62,-739.34 305.12,-749.34 312.12,-749.34"/>
<text text-anchor="start" x="308.62" y="-775.24" font-family="Times,serif" font-size="14.00"> &#160;digit_enterd</text>
<text text-anchor="start" x="308.62" y="-758.74" font-family="Times,serif" font-size="14.00"> &#160;&amp;&amp; digit == 4&#39;0001</text>
</g>
<!-- 10&#45;&gt;10 -->
<g id="edge29" class="edge">
<title>10&#45;&gt;10</title>
<path fill="none" stroke="black" d="M335.86,-855.84C347.2,-856.75 356.81,-852.37 356.81,-842.71 356.81,-836.52 352.86,-832.5 347.05,-830.64"/>
<polygon fill="black" stroke="black" points="347.66,-827.19 337.37,-829.72 346.99,-834.15 347.66,-827.19"/>
</g>
<!-- 11&#45;&gt;3 -->
<g id="edge30" class="edge">
<title>11&#45;&gt;3</title>
<path fill="none" stroke="black" d="M65.34,-180.65C59.83,-171.77 54.89,-162.05 51.87,-152.23 48.03,-139.77 46.33,-126.02 45.83,-112.8"/>
<polygon fill="black" stroke="black" points="49.34,-112.83 45.71,-102.87 42.34,-112.91 49.34,-112.83"/>
<text text-anchor="start" x="51.87" y="-130.68" font-family="Times,serif" font-size="14.00"> &#160;digit_enterd</text>
</g>
<!-- 11&#45;&gt;11 -->
<g id="edge31" class="edge">
<title>11&#45;&gt;11</title>
<path fill="none" stroke="black" d="M145.03,-236.53C156.63,-235.3 165.23,-230.07 165.23,-220.85 165.23,-214.94 161.7,-210.67 156.11,-208.04"/>
<polygon fill="black" stroke="black" points="157.05,-204.67 146.49,-205.55 155.29,-211.44 157.05,-204.67"/>
</g>
<!-- 12&#45;&gt;0 -->
<g id="edge32" class="edge">
<title>12&#45;&gt;0</title>
<path fill="none" stroke="black" d="M465.5,-72.74C510.24,-100.22 577.62,-152.74 577.62,-219.85 577.62,-1120.4 577.62,-1120.4 577.62,-1120.4 577.62,-1183.47 509.2,-1221.19 454.05,-1241.34"/>
<polygon fill="black" stroke="black" points="452.93,-1238.03 444.65,-1244.64 455.25,-1244.64 452.93,-1238.03"/>
<text text-anchor="start" x="577.62" y="-688.98" font-family="Times,serif" font-size="14.00"> &#160;digit_enterd</text>
<text text-anchor="start" x="577.62" y="-672.48" font-family="Times,serif" font-size="14.00"> &#160;&amp;&amp; digit == 4&#39;0001</text>
</g>
<!-- 12&#45;&gt;2 -->
<g id="edge33" class="edge">
<title>12&#45;&gt;2</title>
<path fill="none" stroke="black" d="M426.62,-95.54C426.62,-129.48 426.62,-177.64 426.62,-219.85 426.62,-532.88 426.62,-532.88 426.62,-532.88 426.62,-579.63 391.33,-620.67 359.35,-648.27"/>
<polygon fill="black" stroke="black" points="357.48,-645.27 352.05,-654.37 361.96,-650.65 357.48,-645.27"/>
<text text-anchor="start" x="426.62" y="-388.3" font-family="Times,serif" font-size="14.00"> &#160;digit_enterd</text>
<text text-anchor="start" x="426.62" y="-371.8" font-family="Times,serif" font-size="14.00"> &#160;&amp;&amp; !digit == 4&#39;0001</text>
</g>
<!-- 12&#45;&gt;12 -->
<g id="edge34" class="edge">
<title>12&#45;&gt;12</title>
<path fill="none" stroke="black" d="M468.77,-66.48C480.38,-65.71 489.25,-60.42 489.25,-50.62 489.25,-44.33 485.61,-39.9 479.94,-37.33"/>
<polygon fill="black" stroke="black" points="480.78,-33.93 470.25,-35.09 479.2,-40.75 480.78,-33.93"/>
</g>
</g>
</svg>
