<?xml version="1.0" encoding="UTF-8" standalone="no"?>
<!DOCTYPE svg PUBLIC "-//W3C//DTD SVG 1.1//EN"
 "http://www.w3.org/Graphics/SVG/1.1/DTD/svg11.dtd">
<!-- Generated by graphviz version 12.1.1 (0)
 -->
<!-- Pages: 1 -->
<svg width="726pt" height="1903pt"
 viewBox="0.00 0.00 725.50 1903.00" xmlns="http://www.w3.org/2000/svg" xmlns:xlink="http://www.w3.org/1999/xlink">
<g id="graph0" class="graph" transform="scale(1 1) rotate(0) translate(4 1899)">
<polygon fill="white" stroke="none" points="-4,4 -4,-1899 721.5,-1899 721.5,4 -4,4"/>
<!-- _reset -->
<!-- 0 -->
<g id="node2" class="node">
<title>0</title>
<ellipse fill="#a2cd5a" stroke="black" cx="399" cy="-1730.5" rx="72" ry="72"/>
<ellipse fill="none" stroke="black" cx="399" cy="-1730.5" rx="76" ry="76"/>
<text text-anchor="middle" x="399" y="-1741.95" font-family="Times,serif" font-size="14.00">DISARMED</text>
<text text-anchor="middle" x="399" y="-1725.45" font-family="Times,serif" font-size="14.00">alarm = 1&#39;0</text>
<text text-anchor="middle" x="399" y="-1708.95" font-family="Times,serif" font-size="14.00">armed = 1&#39;0</text>
</g>
<!-- _reset&#45;&gt;0 -->
<g id="edge1" class="edge">
<title>_reset&#45;&gt;0</title>
<path fill="none" stroke="black" d="M399,-1858.57C399,-1848.25 399,-1834.31 399,-1819.43"/>
<polygon fill="black" stroke="black" points="399,-1819.68 395,-1813.68 399,-1807.68 403,-1813.68 399,-1819.68"/>
<text text-anchor="middle" x="415.5" y="-1827.7" font-family="Times,serif" font-size="14.00"> &#160;reset</text>
</g>
<!-- 0&#45;&gt;0 -->
<g id="edge2" class="edge">
<title>0&#45;&gt;0</title>
<path fill="none" stroke="black" d="M473.08,-1748.16C484.91,-1745.57 493,-1739.69 493,-1730.5 493,-1724.47 489.51,-1719.86 483.78,-1716.68"/>
<polygon fill="black" stroke="black" points="485.1,-1713.44 474.51,-1713.36 482.74,-1720.03 485.1,-1713.44"/>
</g>
<!-- 7 -->
<g id="node9" class="node">
<title>7</title>
<ellipse fill="#a2cd5a" stroke="black" cx="319" cy="-1530" rx="72" ry="72"/>
<text text-anchor="middle" x="319" y="-1524.95" font-family="Times,serif" font-size="14.00">ARM0</text>
</g>
<!-- 0&#45;&gt;7 -->
<g id="edge3" class="edge">
<title>0&#45;&gt;7</title>
<path fill="none" stroke="black" d="M354.39,-1668.59C348.25,-1658.25 342.57,-1647.34 338.25,-1636.5 335.26,-1629.01 332.73,-1621.03 330.6,-1612.95"/>
<polygon fill="black" stroke="black" points="334.03,-1612.26 328.27,-1603.37 327.23,-1613.91 334.03,-1612.26"/>
<text text-anchor="start" x="338.25" y="-1623.2" font-family="Times,serif" font-size="14.00"> &#160;command == 2&#39;01</text>
</g>
<!-- 1 -->
<g id="node3" class="node">
<title>1</title>
<ellipse fill="#a2cd5a" stroke="black" cx="329" cy="-694.5" rx="72" ry="72"/>
<text text-anchor="middle" x="329" y="-697.7" font-family="Times,serif" font-size="14.00">ALARM</text>
<text text-anchor="middle" x="329" y="-681.2" font-family="Times,serif" font-size="14.00">alarm = 1&#39;1</text>
</g>
<!-- 1&#45;&gt;1 -->
<g id="edge4" class="edge">
<title>1&#45;&gt;1</title>
<path fill="none" stroke="black" d="M399.19,-711.62C410.91,-709.23 419,-703.52 419,-694.5 419,-688.58 415.52,-684.09 409.81,-681.02"/>
<polygon fill="black" stroke="black" points="411.21,-677.8 400.62,-677.87 408.94,-684.43 411.21,-677.8"/>
</g>
<!-- 9 -->
<g id="node11" class="node">
<title>9</title>
<ellipse fill="#a2cd5a" stroke="black" cx="248" cy="-498" rx="72" ry="72"/>
<text text-anchor="middle" x="248" y="-492.95" font-family="Times,serif" font-size="14.00">DISARM0</text>
</g>
<!-- 1&#45;&gt;9 -->
<g id="edge5" class="edge">
<title>1&#45;&gt;9</title>
<path fill="none" stroke="black" d="M301.58,-627.65C294.58,-610.86 287.01,-592.67 279.81,-575.4"/>
<polygon fill="black" stroke="black" points="283.05,-574.06 275.98,-566.18 276.59,-576.76 283.05,-574.06"/>
<text text-anchor="start" x="290.93" y="-591.2" font-family="Times,serif" font-size="14.00"> &#160;command == 2&#39;10</text>
</g>
<!-- 2 -->
<g id="node4" class="node">
<title>2</title>
<ellipse fill="#a2cd5a" stroke="black" cx="327" cy="-891" rx="72" ry="72"/>
<text text-anchor="middle" x="327" y="-894.2" font-family="Times,serif" font-size="14.00">ARMED</text>
<text text-anchor="middle" x="327" y="-877.7" font-family="Times,serif" font-size="14.00">armed = 1&#39;1</text>
</g>
<!-- 2&#45;&gt;1 -->
<g id="edge6" class="edge">
<title>2&#45;&gt;1</title>
<path fill="none" stroke="black" d="M327.73,-818.68C327.87,-805.47 328.01,-791.56 328.15,-778.05"/>
<polygon fill="black" stroke="black" points="331.65,-778.36 328.25,-768.33 324.65,-778.29 331.65,-778.36"/>
<text text-anchor="start" x="328.06" y="-787.7" font-family="Times,serif" font-size="14.00"> &#160;trigger</text>
</g>
<!-- 2&#45;&gt;2 -->
<g id="edge7" class="edge">
<title>2&#45;&gt;2</title>
<path fill="none" stroke="black" d="M397.19,-908.12C408.91,-905.73 417,-900.02 417,-891 417,-885.08 413.52,-880.59 407.81,-877.52"/>
<polygon fill="black" stroke="black" points="409.21,-874.3 398.62,-874.37 406.94,-880.93 409.21,-874.3"/>
</g>
<!-- 2&#45;&gt;9 -->
<g id="edge8" class="edge">
<title>2&#45;&gt;9</title>
<path fill="none" stroke="black" d="M257.7,-870.48C207.74,-852.38 143.89,-819.99 113,-766.5 80.99,-711.08 87.2,-681.07 113,-622.5 126.75,-591.3 152.7,-564.55 178.21,-544"/>
<polygon fill="black" stroke="black" points="180.26,-546.84 186,-537.93 175.96,-541.32 180.26,-546.84"/>
<text text-anchor="start" x="113" y="-697.7" font-family="Times,serif" font-size="14.00"> &#160;!trigger</text>
<text text-anchor="start" x="113" y="-681.2" font-family="Times,serif" font-size="14.00"> &#160;&amp;&amp; command == 2&#39;10</text>
</g>
<!-- 3 -->
<g id="node5" class="node">
<title>3</title>
<ellipse fill="#a2cd5a" stroke="black" cx="72" cy="-72" rx="72" ry="72"/>
<text text-anchor="middle" x="72" y="-66.95" font-family="Times,serif" font-size="14.00">DISARM2B</text>
</g>
<!-- 3&#45;&gt;2 -->
<g id="edge9" class="edge">
<title>3&#45;&gt;2</title>
<path fill="none" stroke="black" d="M53.22,-141.81C43.65,-182.78 34,-235.98 34,-284 34,-695.5 34,-695.5 34,-695.5 34,-797.53 158.84,-849.23 245.54,-872.84"/>
<polygon fill="black" stroke="black" points="244.42,-876.16 254.98,-875.33 246.21,-869.39 244.42,-876.16"/>
<text text-anchor="start" x="34" y="-492.95" font-family="Times,serif" font-size="14.00"> &#160;digit_enterd</text>
</g>
<!-- 3&#45;&gt;3 -->
<g id="edge10" class="edge">
<title>3&#45;&gt;3</title>
<path fill="none" stroke="black" d="M141.81,-90.64C153.74,-88.09 162,-81.88 162,-72 162,-65.52 158.44,-60.61 152.62,-57.29"/>
<polygon fill="black" stroke="black" points="153.83,-54 143.23,-53.88 151.44,-60.58 153.83,-54"/>
</g>
<!-- 4 -->
<g id="node6" class="node">
<title>4</title>
<ellipse fill="#a2cd5a" stroke="black" cx="327" cy="-1317" rx="72" ry="72"/>
<text text-anchor="middle" x="327" y="-1311.95" font-family="Times,serif" font-size="14.00">ARM1</text>
</g>
<!-- 4&#45;&gt;4 -->
<g id="edge11" class="edge">
<title>4&#45;&gt;4</title>
<path fill="none" stroke="black" d="M396.81,-1335.64C408.74,-1333.09 417,-1326.88 417,-1317 417,-1310.52 413.44,-1305.61 407.62,-1302.29"/>
<polygon fill="black" stroke="black" points="408.83,-1299 398.23,-1298.88 406.44,-1305.58 408.83,-1299"/>
</g>
<!-- 5 -->
<g id="node7" class="node">
<title>5</title>
<ellipse fill="#a2cd5a" stroke="black" cx="85" cy="-1104" rx="72" ry="72"/>
<text text-anchor="middle" x="85" y="-1098.95" font-family="Times,serif" font-size="14.00">ARM2B</text>
</g>
<!-- 4&#45;&gt;5 -->
<g id="edge12" class="edge">
<title>4&#45;&gt;5</title>
<path fill="none" stroke="black" d="M275.47,-1266.22C266.08,-1258.53 256.07,-1251.12 246,-1245 227.24,-1233.59 218.19,-1239.29 200,-1227 176.89,-1211.39 154.97,-1190.38 136.58,-1170.19"/>
<polygon fill="black" stroke="black" points="139.2,-1167.87 129.94,-1162.74 133.98,-1172.53 139.2,-1167.87"/>
<text text-anchor="start" x="200" y="-1213.7" font-family="Times,serif" font-size="14.00"> &#160;digit_enterd</text>
<text text-anchor="start" x="200" y="-1197.2" font-family="Times,serif" font-size="14.00"> &#160;&amp;&amp; !digit == 4&#39;0010</text>
</g>
<!-- 10 -->
<g id="node12" class="node">
<title>10</title>
<ellipse fill="#a2cd5a" stroke="black" cx="327" cy="-1104" rx="72" ry="72"/>
<text text-anchor="middle" x="327" y="-1098.95" font-family="Times,serif" font-size="14.00">ARM2</text>
</g>
<!-- 4&#45;&gt;10 -->
<g id="edge13" class="edge">
<title>4&#45;&gt;10</title>
<path fill="none" stroke="black" d="M327,-1244.57C327,-1226.26 327,-1206.43 327,-1187.61"/>
<polygon fill="black" stroke="black" points="330.5,-1187.87 327,-1177.87 323.5,-1187.87 330.5,-1187.87"/>
<text text-anchor="start" x="327" y="-1213.7" font-family="Times,serif" font-size="14.00"> &#160;digit_enterd</text>
<text text-anchor="start" x="327" y="-1197.2" font-family="Times,serif" font-size="14.00"> &#160;&amp;&amp; digit == 4&#39;0010</text>
</g>
<!-- 5&#45;&gt;0 -->
<g id="edge14" class="edge">
<title>5&#45;&gt;0</title>
<path fill="none" stroke="black" d="M67.32,-1174.13C55.45,-1232.54 45.38,-1317.8 66,-1389 105.02,-1523.73 238.55,-1629.42 324.2,-1685.39"/>
<polygon fill="black" stroke="black" points="322.06,-1688.17 332.36,-1690.66 325.85,-1682.29 322.06,-1688.17"/>
<text text-anchor="start" x="85.28" y="-1418.45" font-family="Times,serif" font-size="14.00"> &#160;digit_enterd</text>
</g>
<!-- 5&#45;&gt;5 -->
<g id="edge15" class="edge">
<title>5&#45;&gt;5</title>
<path fill="none" stroke="black" d="M154.81,-1122.64C166.74,-1120.09 175,-1113.88 175,-1104 175,-1097.52 171.44,-1092.61 165.62,-1089.29"/>
<polygon fill="black" stroke="black" points="166.83,-1086 156.23,-1085.88 164.44,-1092.58 166.83,-1086"/>
</g>
<!-- 6 -->
<g id="node8" class="node">
<title>6</title>
<ellipse fill="#a2cd5a" stroke="black" cx="314" cy="-285" rx="72" ry="72"/>
<text text-anchor="middle" x="314" y="-279.95" font-family="Times,serif" font-size="14.00">DISARM1</text>
</g>
<!-- 6&#45;&gt;3 -->
<g id="edge16" class="edge">
<title>6&#45;&gt;3</title>
<path fill="none" stroke="black" d="M262.76,-233.73C253.34,-226.1 243.24,-218.83 233,-213 210.65,-200.26 199.43,-209.22 178,-195 171.09,-190.42 147.96,-164.05 125.07,-137"/>
<polygon fill="black" stroke="black" points="127.76,-134.77 118.64,-129.38 122.41,-139.28 127.76,-134.77"/>
<text text-anchor="start" x="178" y="-181.7" font-family="Times,serif" font-size="14.00"> &#160;digit_enterd</text>
<text text-anchor="start" x="178" y="-165.2" font-family="Times,serif" font-size="14.00"> &#160;&amp;&amp; !digit == 4&#39;0010</text>
</g>
<!-- 6&#45;&gt;6 -->
<g id="edge17" class="edge">
<title>6&#45;&gt;6</title>
<path fill="none" stroke="black" d="M383.81,-303.64C395.74,-301.09 404,-294.88 404,-285 404,-278.52 400.44,-273.61 394.62,-270.29"/>
<polygon fill="black" stroke="black" points="395.83,-267 385.23,-266.88 393.44,-273.58 395.83,-267"/>
</g>
<!-- 12 -->
<g id="node14" class="node">
<title>12</title>
<ellipse fill="#a2cd5a" stroke="black" cx="448" cy="-72" rx="72" ry="72"/>
<text text-anchor="middle" x="448" y="-66.95" font-family="Times,serif" font-size="14.00">DISARM2</text>
</g>
<!-- 6&#45;&gt;12 -->
<g id="edge18" class="edge">
<title>6&#45;&gt;12</title>
<path fill="none" stroke="black" d="M303.67,-213.34C304.04,-195.73 307.14,-177.46 315.5,-162 328.07,-138.75 349.67,-120.47 371.83,-106.68"/>
<polygon fill="black" stroke="black" points="373.54,-109.74 380.37,-101.63 369.98,-103.71 373.54,-109.74"/>
<text text-anchor="start" x="315.5" y="-181.7" font-family="Times,serif" font-size="14.00"> &#160;digit_enterd</text>
<text text-anchor="start" x="315.5" y="-165.2" font-family="Times,serif" font-size="14.00"> &#160;&amp;&amp; digit == 4&#39;0010</text>
</g>
<!-- 7&#45;&gt;4 -->
<g id="edge19" class="edge">
<title>7&#45;&gt;4</title>
<path fill="none" stroke="black" d="M319.15,-1457.7C319.39,-1441.05 319.8,-1423.4 320.5,-1407 320.59,-1404.79 320.7,-1402.56 320.81,-1400.3"/>
<polygon fill="black" stroke="black" points="324.3,-1400.59 321.35,-1390.41 317.31,-1400.21 324.3,-1400.59"/>
<text text-anchor="start" x="320.5" y="-1426.7" font-family="Times,serif" font-size="14.00"> &#160;digit_enterd</text>
<text text-anchor="start" x="320.5" y="-1410.2" font-family="Times,serif" font-size="14.00"> &#160;&amp;&amp; digit == 4&#39;0001</text>
</g>
<!-- 7&#45;&gt;7 -->
<g id="edge20" class="edge">
<title>7&#45;&gt;7</title>
<path fill="none" stroke="black" d="M389.19,-1547.12C400.91,-1544.73 409,-1539.02 409,-1530 409,-1524.08 405.52,-1519.59 399.81,-1516.52"/>
<polygon fill="black" stroke="black" points="401.21,-1513.3 390.62,-1513.37 398.94,-1519.93 401.21,-1513.3"/>
</g>
<!-- 8 -->
<g id="node10" class="node">
<title>8</title>
<ellipse fill="#a2cd5a" stroke="black" cx="147" cy="-1317" rx="72" ry="72"/>
<text text-anchor="middle" x="147" y="-1311.95" font-family="Times,serif" font-size="14.00">ARM1B</text>
</g>
<!-- 7&#45;&gt;8 -->
<g id="edge21" class="edge">
<title>7&#45;&gt;8</title>
<path fill="none" stroke="black" d="M255.86,-1495.01C233.57,-1480.49 209.87,-1461.82 193,-1440 183.21,-1427.34 175.32,-1412.37 169.03,-1397.33"/>
<polygon fill="black" stroke="black" points="172.41,-1396.36 165.48,-1388.35 165.9,-1398.93 172.41,-1396.36"/>
<text text-anchor="start" x="193" y="-1426.7" font-family="Times,serif" font-size="14.00"> &#160;digit_enterd</text>
<text text-anchor="start" x="193" y="-1410.2" font-family="Times,serif" font-size="14.00"> &#160;&amp;&amp; !digit == 4&#39;0001</text>
</g>
<!-- 8&#45;&gt;5 -->
<g id="edge22" class="edge">
<title>8&#45;&gt;5</title>
<path fill="none" stroke="black" d="M102.1,-1260.67C95.61,-1250.05 89.9,-1238.6 86.25,-1227 82.3,-1214.45 80.2,-1200.81 79.28,-1187.34"/>
<polygon fill="black" stroke="black" points="82.78,-1187.44 78.83,-1177.61 75.79,-1187.76 82.78,-1187.44"/>
<text text-anchor="start" x="86.25" y="-1205.45" font-family="Times,serif" font-size="14.00"> &#160;digit_enterd</text>
</g>
<!-- 8&#45;&gt;8 -->
<g id="edge23" class="edge">
<title>8&#45;&gt;8</title>
<path fill="none" stroke="black" d="M216.81,-1335.64C228.74,-1333.09 237,-1326.88 237,-1317 237,-1310.52 233.44,-1305.61 227.62,-1302.29"/>
<polygon fill="black" stroke="black" points="228.83,-1299 218.23,-1298.88 226.44,-1305.58 228.83,-1299"/>
</g>
<!-- 9&#45;&gt;6 -->
<g id="edge24" class="edge">
<title>9&#45;&gt;6</title>
<path fill="none" stroke="black" d="M269.34,-428.79C275.72,-408.38 282.77,-385.84 289.35,-364.82"/>
<polygon fill="black" stroke="black" points="292.64,-366.01 292.28,-355.42 285.96,-363.92 292.64,-366.01"/>
<text text-anchor="start" x="284.95" y="-394.7" font-family="Times,serif" font-size="14.00"> &#160;digit_enterd</text>
<text text-anchor="start" x="284.95" y="-378.2" font-family="Times,serif" font-size="14.00"> &#160;&amp;&amp; digit == 4&#39;0001</text>
</g>
<!-- 9&#45;&gt;9 -->
<g id="edge25" class="edge">
<title>9&#45;&gt;9</title>
<path fill="none" stroke="black" d="M318.19,-515.12C329.91,-512.73 338,-507.02 338,-498 338,-492.08 334.52,-487.59 328.81,-484.52"/>
<polygon fill="black" stroke="black" points="330.21,-481.3 319.62,-481.37 327.94,-487.93 330.21,-481.3"/>
</g>
<!-- 11 -->
<g id="node13" class="node">
<title>11</title>
<ellipse fill="#a2cd5a" stroke="black" cx="134" cy="-285" rx="72" ry="72"/>
<text text-anchor="middle" x="134" y="-279.95" font-family="Times,serif" font-size="14.00">DISARM1B</text>
</g>
<!-- 9&#45;&gt;11 -->
<g id="edge26" class="edge">
<title>9&#45;&gt;11</title>
<path fill="none" stroke="black" d="M189.15,-455.7C174.05,-442.22 159.43,-426.02 150,-408 143.63,-395.83 139.45,-382.07 136.77,-368.3"/>
<polygon fill="black" stroke="black" points="140.28,-368.05 135.17,-358.77 133.37,-369.21 140.28,-368.05"/>
<text text-anchor="start" x="150" y="-394.7" font-family="Times,serif" font-size="14.00"> &#160;digit_enterd</text>
<text text-anchor="start" x="150" y="-378.2" font-family="Times,serif" font-size="14.00"> &#160;&amp;&amp; !digit == 4&#39;0001</text>
</g>
<!-- 10&#45;&gt;0 -->
<g id="edge27" class="edge">
<title>10&#45;&gt;0</title>
<path fill="none" stroke="black" d="M391.48,-1136.8C413.22,-1151.07 434.99,-1170.14 447,-1194 469.11,-1237.92 458.6,-1588.72 447,-1636.5 445.58,-1642.35 443.72,-1648.24 441.57,-1654.07"/>
<polygon fill="black" stroke="black" points="438.44,-1652.47 437.96,-1663.06 444.93,-1655.08 438.44,-1652.47"/>
<text text-anchor="start" x="459.7" y="-1426.7" font-family="Times,serif" font-size="14.00"> &#160;digit_enterd</text>
<text text-anchor="start" x="459.7" y="-1410.2" font-family="Times,serif" font-size="14.00"> &#160;&amp;&amp; !digit == 4&#39;0100</text>
</g>
<!-- 10&#45;&gt;2 -->
<g id="edge28" class="edge">
<title>10&#45;&gt;2</title>
<path fill="none" stroke="black" d="M327,-1031.57C327,-1013.26 327,-993.43 327,-974.61"/>
<polygon fill="black" stroke="black" points="330.5,-974.87 327,-964.87 323.5,-974.87 330.5,-974.87"/>
<text text-anchor="start" x="327" y="-1000.7" font-family="Times,serif" font-size="14.00"> &#160;digit_enterd</text>
<text text-anchor="start" x="327" y="-984.2" font-family="Times,serif" font-size="14.00"> &#160;&amp;&amp; digit == 4&#39;0100</text>
</g>
<!-- 10&#45;&gt;10 -->
<g id="edge29" class="edge">
<title>10&#45;&gt;10</title>
<path fill="none" stroke="black" d="M396.81,-1122.64C408.74,-1120.09 417,-1113.88 417,-1104 417,-1097.52 413.44,-1092.61 407.62,-1089.29"/>
<polygon fill="black" stroke="black" points="408.83,-1086 398.23,-1085.88 406.44,-1092.58 408.83,-1086"/>
</g>
<!-- 11&#45;&gt;3 -->
<g id="edge30" class="edge">
<title>11&#45;&gt;3</title>
<path fill="none" stroke="black" d="M89.1,-228.67C82.61,-218.05 76.9,-206.6 73.25,-195 69.3,-182.45 67.2,-168.81 66.28,-155.34"/>
<polygon fill="black" stroke="black" points="69.78,-155.44 65.83,-145.61 62.79,-155.76 69.78,-155.44"/>
<text text-anchor="start" x="73.25" y="-173.45" font-family="Times,serif" font-size="14.00"> &#160;digit_enterd</text>
</g>
<!-- 11&#45;&gt;11 -->
<g id="edge31" class="edge">
<title>11&#45;&gt;11</title>
<path fill="none" stroke="black" d="M203.81,-303.64C215.74,-301.09 224,-294.88 224,-285 224,-278.52 220.44,-273.61 214.62,-270.29"/>
<polygon fill="black" stroke="black" points="215.83,-267 205.23,-266.88 213.44,-273.58 215.83,-267"/>
</g>
<!-- 12&#45;&gt;0 -->
<g id="edge32" class="edge">
<title>12&#45;&gt;0</title>
<path fill="none" stroke="black" d="M504.66,-117.2C547.5,-156.01 599,-216.66 599,-284 599,-1531 599,-1531 599,-1531 599,-1602.8 533.27,-1657.51 477.17,-1691.13"/>
<polygon fill="black" stroke="black" points="475.72,-1687.93 468.86,-1695.99 479.26,-1693.97 475.72,-1687.93"/>
<text text-anchor="start" x="599" y="-894.2" font-family="Times,serif" font-size="14.00"> &#160;digit_enterd</text>
<text text-anchor="start" x="599" y="-877.7" font-family="Times,serif" font-size="14.00"> &#160;&amp;&amp; digit == 4&#39;0100</text>
</g>
<!-- 12&#45;&gt;2 -->
<g id="edge33" class="edge">
<title>12&#45;&gt;2</title>
<path fill="none" stroke="black" d="M448,-144.3C448,-185.18 448,-237.48 448,-284 448,-695.5 448,-695.5 448,-695.5 448,-747.04 416.98,-796.25 386.36,-832.28"/>
<polygon fill="black" stroke="black" points="383.96,-829.71 380.01,-839.54 389.23,-834.31 383.96,-829.71"/>
<text text-anchor="start" x="448" y="-501.2" font-family="Times,serif" font-size="14.00"> &#160;digit_enterd</text>
<text text-anchor="start" x="448" y="-484.7" font-family="Times,serif" font-size="14.00"> &#160;&amp;&amp; !digit == 4&#39;0100</text>
</g>
<!-- 12&#45;&gt;12 -->
<g id="edge34" class="edge">
<title>12&#45;&gt;12</title>
<path fill="none" stroke="black" d="M517.81,-90.64C529.74,-88.09 538,-81.88 538,-72 538,-65.52 534.44,-60.61 528.62,-57.29"/>
<polygon fill="black" stroke="black" points="529.83,-54 519.23,-53.88 527.44,-60.58 529.83,-54"/>
</g>
</g>
</svg>
