<?xml version="1.0" encoding="UTF-8" standalone="no"?>
<!DOCTYPE svg PUBLIC "-//W3C//DTD SVG 1.1//EN"
 "http://www.w3.org/Graphics/SVG/1.1/DTD/svg11.dtd">
<!-- Generated by graphviz version 12.2.1 (0)
 -->
<!-- Pages: 1 -->
<svg width="770pt" height="1903pt"
 viewBox="0.00 0.00 770.00 1903.00" xmlns="http://www.w3.org/2000/svg" xmlns:xlink="http://www.w3.org/1999/xlink">
<g id="graph0" class="graph" transform="scale(1 1) rotate(0) translate(4 1899)">
<polygon fill="white" stroke="none" points="-4,4 -4,-1899 766,-1899 766,4 -4,4"/>
<!-- _reset -->
<!-- 0 -->
<g id="node2" class="node">
<title>0</title>
<ellipse fill="#a2cd5a" stroke="black" cx="446" cy="-1730.5" rx="72" ry="72"/>
<ellipse fill="none" stroke="black" cx="446" cy="-1730.5" rx="76" ry="76"/>
<text text-anchor="middle" x="446" y="-1741.95" font-family="Times,serif" font-size="14.00">DISARMED</text>
<text text-anchor="middle" x="446" y="-1725.45" font-family="Times,serif" font-size="14.00">alarm = 1&#39;b0</text>
<text text-anchor="middle" x="446" y="-1708.95" font-family="Times,serif" font-size="14.00">armed = 1&#39;b0</text>
</g>
<!-- _reset&#45;&gt;0 -->
<g id="edge1" class="edge">
<title>_reset&#45;&gt;0</title>
<path fill="none" stroke="black" d="M446,-1858.57C446,-1848.25 446,-1834.31 446,-1819.43"/>
<polygon fill="black" stroke="black" points="446,-1819.68 442,-1813.68 446,-1807.68 450,-1813.68 446,-1819.68"/>
<text text-anchor="middle" x="462.5" y="-1827.7" font-family="Times,serif" font-size="14.00"> &#160;reset</text>
</g>
<!-- 0&#45;&gt;0 -->
<g id="edge2" class="edge">
<title>0&#45;&gt;0</title>
<path fill="none" stroke="black" d="M520.08,-1748.16C531.91,-1745.57 540,-1739.69 540,-1730.5 540,-1724.47 536.51,-1719.86 530.78,-1716.68"/>
<polygon fill="black" stroke="black" points="532.1,-1713.44 521.51,-1713.36 529.74,-1720.03 532.1,-1713.44"/>
</g>
<!-- 7 -->
<g id="node9" class="node">
<title>7</title>
<ellipse fill="#a2cd5a" stroke="black" cx="352" cy="-1530" rx="72" ry="72"/>
<text text-anchor="middle" x="352" y="-1524.95" font-family="Times,serif" font-size="14.00">ARM0</text>
</g>
<!-- 0&#45;&gt;7 -->
<g id="edge3" class="edge">
<title>0&#45;&gt;7</title>
<path fill="none" stroke="black" d="M397.9,-1671.15C390.36,-1660.1 383.25,-1648.3 377.75,-1636.5 374.18,-1628.84 371.07,-1620.62 368.36,-1612.28"/>
<polygon fill="black" stroke="black" points="371.72,-1611.29 365.48,-1602.73 365.02,-1613.31 371.72,-1611.29"/>
<text text-anchor="start" x="377.75" y="-1623.2" font-family="Times,serif" font-size="14.00"> &#160;command = 2&#39;b01</text>
</g>
<!-- 1 -->
<g id="node3" class="node">
<title>1</title>
<ellipse fill="#a2cd5a" stroke="black" cx="368" cy="-694.5" rx="72" ry="72"/>
<text text-anchor="middle" x="368" y="-697.7" font-family="Times,serif" font-size="14.00">ALARM</text>
<text text-anchor="middle" x="368" y="-681.2" font-family="Times,serif" font-size="14.00">alarm = 1&#39;b1</text>
</g>
<!-- 1&#45;&gt;1 -->
<g id="edge4" class="edge">
<title>1&#45;&gt;1</title>
<path fill="none" stroke="black" d="M438.19,-711.62C449.91,-709.23 458,-703.52 458,-694.5 458,-688.58 454.52,-684.09 448.81,-681.02"/>
<polygon fill="black" stroke="black" points="450.21,-677.8 439.62,-677.87 447.94,-684.43 450.21,-677.8"/>
</g>
<!-- 9 -->
<g id="node11" class="node">
<title>9</title>
<ellipse fill="#a2cd5a" stroke="black" cx="271" cy="-498" rx="72" ry="72"/>
<text text-anchor="middle" x="271" y="-492.95" font-family="Times,serif" font-size="14.00">DISARM0</text>
</g>
<!-- 1&#45;&gt;9 -->
<g id="edge5" class="edge">
<title>1&#45;&gt;9</title>
<path fill="none" stroke="black" d="M336.1,-629.54C327.11,-611.51 317.25,-591.75 307.99,-573.17"/>
<polygon fill="black" stroke="black" points="311.19,-571.74 303.59,-564.35 304.92,-574.86 311.19,-571.74"/>
<text text-anchor="start" x="322.41" y="-591.2" font-family="Times,serif" font-size="14.00"> &#160;command = 2&#39;b10</text>
</g>
<!-- 2 -->
<g id="node4" class="node">
<title>2</title>
<ellipse fill="#a2cd5a" stroke="black" cx="367" cy="-891" rx="72" ry="72"/>
<text text-anchor="middle" x="367" y="-894.2" font-family="Times,serif" font-size="14.00">ARMED</text>
<text text-anchor="middle" x="367" y="-877.7" font-family="Times,serif" font-size="14.00">armed = 1&#39;b1</text>
</g>
<!-- 2&#45;&gt;1 -->
<g id="edge6" class="edge">
<title>2&#45;&gt;1</title>
<path fill="none" stroke="black" d="M367.37,-818.68C367.43,-805.47 367.51,-791.56 367.58,-778.05"/>
<polygon fill="black" stroke="black" points="371.07,-778.34 367.63,-768.33 364.07,-778.31 371.07,-778.34"/>
<text text-anchor="start" x="367.53" y="-787.7" font-family="Times,serif" font-size="14.00"> &#160;trigger = 1&#39;b1</text>
</g>
<!-- 2&#45;&gt;2 -->
<g id="edge7" class="edge">
<title>2&#45;&gt;2</title>
<path fill="none" stroke="black" d="M437.19,-908.12C448.91,-905.73 457,-900.02 457,-891 457,-885.08 453.52,-880.59 447.81,-877.52"/>
<polygon fill="black" stroke="black" points="449.21,-874.3 438.62,-874.37 446.94,-880.93 449.21,-874.3"/>
</g>
<!-- 2&#45;&gt;9 -->
<g id="edge8" class="edge">
<title>2&#45;&gt;9</title>
<path fill="none" stroke="black" d="M297.59,-870.34C247.79,-852.2 184.26,-819.82 153.5,-766.5 121.52,-711.06 129.75,-681.93 153.5,-622.5 164.51,-594.96 184.9,-570.06 205.64,-549.95"/>
<polygon fill="black" stroke="black" points="207.9,-552.64 212.79,-543.24 203.11,-547.53 207.9,-552.64"/>
<text text-anchor="start" x="153.5" y="-697.7" font-family="Times,serif" font-size="14.00"> &#160;trigger = 1&#39;b0</text>
<text text-anchor="start" x="153.5" y="-681.2" font-family="Times,serif" font-size="14.00"> &#160;&amp;&amp; command = 2&#39;b10</text>
</g>
<!-- 3 -->
<g id="node5" class="node">
<title>3</title>
<ellipse fill="#a2cd5a" stroke="black" cx="72" cy="-72" rx="72" ry="72"/>
<text text-anchor="middle" x="72" y="-66.95" font-family="Times,serif" font-size="14.00">DISARM2B</text>
</g>
<!-- 3&#45;&gt;2 -->
<g id="edge9" class="edge">
<title>3&#45;&gt;2</title>
<path fill="none" stroke="black" d="M55.6,-142.43C47.31,-183.38 39,-236.36 39,-284 39,-695.5 39,-695.5 39,-695.5 39,-809.33 186.96,-857.99 284.13,-877.68"/>
<polygon fill="black" stroke="black" points="283.45,-881.11 293.94,-879.59 284.79,-874.24 283.45,-881.11"/>
<text text-anchor="start" x="39" y="-492.95" font-family="Times,serif" font-size="14.00"> &#160;input_digit = 1&#39;b1</text>
</g>
<!-- 3&#45;&gt;3 -->
<g id="edge10" class="edge">
<title>3&#45;&gt;3</title>
<path fill="none" stroke="black" d="M141.81,-90.64C153.74,-88.09 162,-81.88 162,-72 162,-65.52 158.44,-60.61 152.62,-57.29"/>
<polygon fill="black" stroke="black" points="153.83,-54 143.23,-53.88 151.44,-60.58 153.83,-54"/>
</g>
<!-- 4 -->
<g id="node6" class="node">
<title>4</title>
<ellipse fill="#a2cd5a" stroke="black" cx="352" cy="-1317" rx="72" ry="72"/>
<text text-anchor="middle" x="352" y="-1311.95" font-family="Times,serif" font-size="14.00">ARM1</text>
</g>
<!-- 4&#45;&gt;4 -->
<g id="edge11" class="edge">
<title>4&#45;&gt;4</title>
<path fill="none" stroke="black" d="M421.81,-1335.64C433.74,-1333.09 442,-1326.88 442,-1317 442,-1310.52 438.44,-1305.61 432.62,-1302.29"/>
<polygon fill="black" stroke="black" points="433.83,-1299 423.23,-1298.88 431.44,-1305.58 433.83,-1299"/>
</g>
<!-- 5 -->
<g id="node7" class="node">
<title>5</title>
<ellipse fill="#a2cd5a" stroke="black" cx="85" cy="-1104" rx="72" ry="72"/>
<text text-anchor="middle" x="85" y="-1098.95" font-family="Times,serif" font-size="14.00">ARM2B</text>
</g>
<!-- 4&#45;&gt;5 -->
<g id="edge12" class="edge">
<title>4&#45;&gt;5</title>
<path fill="none" stroke="black" d="M297,-1270.2C285.42,-1261.39 273.05,-1252.56 261,-1245 245.68,-1235.39 239.24,-1237.48 224.5,-1227 207.47,-1214.89 206.46,-1208.06 191,-1194 177.68,-1181.88 163.07,-1169.23 149.08,-1157.4"/>
<polygon fill="black" stroke="black" points="151.52,-1154.88 141.61,-1151.12 147.01,-1160.24 151.52,-1154.88"/>
<text text-anchor="start" x="224.5" y="-1213.7" font-family="Times,serif" font-size="14.00"> &#160;input_digit = 1&#39;b1</text>
<text text-anchor="start" x="224.5" y="-1197.2" font-family="Times,serif" font-size="14.00"> &#160;&amp;&amp; !(digit = 4&#39;b0010)</text>
</g>
<!-- 10 -->
<g id="node12" class="node">
<title>10</title>
<ellipse fill="#a2cd5a" stroke="black" cx="367" cy="-1104" rx="72" ry="72"/>
<text text-anchor="middle" x="367" y="-1098.95" font-family="Times,serif" font-size="14.00">ARM2</text>
</g>
<!-- 4&#45;&gt;10 -->
<g id="edge13" class="edge">
<title>4&#45;&gt;10</title>
<path fill="none" stroke="black" d="M357.06,-1244.86C358.37,-1226.44 359.79,-1206.46 361.13,-1187.52"/>
<polygon fill="black" stroke="black" points="364.61,-1187.92 361.83,-1177.7 357.63,-1187.43 364.61,-1187.92"/>
<text text-anchor="start" x="360.4" y="-1213.7" font-family="Times,serif" font-size="14.00"> &#160;input_digit = 1&#39;b1</text>
<text text-anchor="start" x="360.4" y="-1197.2" font-family="Times,serif" font-size="14.00"> &#160;&amp;&amp; digit = 4&#39;b0010</text>
</g>
<!-- 5&#45;&gt;0 -->
<g id="edge14" class="edge">
<title>5&#45;&gt;0</title>
<path fill="none" stroke="black" d="M67.81,-1174.39C54.09,-1245.53 43.69,-1357.18 88,-1440 150.66,-1557.11 282.81,-1644.17 367.84,-1690.84"/>
<polygon fill="black" stroke="black" points="365.92,-1693.78 376.38,-1695.47 369.26,-1687.63 365.92,-1693.78"/>
<text text-anchor="start" x="88" y="-1418.45" font-family="Times,serif" font-size="14.00"> &#160;input_digit = 1&#39;b1</text>
</g>
<!-- 5&#45;&gt;5 -->
<g id="edge15" class="edge">
<title>5&#45;&gt;5</title>
<path fill="none" stroke="black" d="M154.81,-1122.64C166.74,-1120.09 175,-1113.88 175,-1104 175,-1097.52 171.44,-1092.61 165.62,-1089.29"/>
<polygon fill="black" stroke="black" points="166.83,-1086 156.23,-1085.88 164.44,-1092.58 166.83,-1086"/>
</g>
<!-- 6 -->
<g id="node8" class="node">
<title>6</title>
<ellipse fill="#a2cd5a" stroke="black" cx="319" cy="-285" rx="72" ry="72"/>
<text text-anchor="middle" x="319" y="-279.95" font-family="Times,serif" font-size="14.00">DISARM1</text>
</g>
<!-- 6&#45;&gt;3 -->
<g id="edge16" class="edge">
<title>6&#45;&gt;3</title>
<path fill="none" stroke="black" d="M266.88,-235.13C257.56,-227.33 247.72,-219.65 238,-213 223.73,-203.23 216.76,-206.1 203.5,-195 189.29,-183.1 190.84,-175.37 178,-162 165.53,-149.01 151.27,-136 137.35,-124.09"/>
<polygon fill="black" stroke="black" points="139.8,-121.58 129.9,-117.8 135.28,-126.93 139.8,-121.58"/>
<text text-anchor="start" x="203.5" y="-181.7" font-family="Times,serif" font-size="14.00"> &#160;input_digit = 1&#39;b1</text>
<text text-anchor="start" x="203.5" y="-165.2" font-family="Times,serif" font-size="14.00"> &#160;&amp;&amp; !(digit = 4&#39;b0010)</text>
</g>
<!-- 6&#45;&gt;6 -->
<g id="edge17" class="edge">
<title>6&#45;&gt;6</title>
<path fill="none" stroke="black" d="M388.81,-303.64C400.74,-301.09 409,-294.88 409,-285 409,-278.52 405.44,-273.61 399.62,-270.29"/>
<polygon fill="black" stroke="black" points="400.83,-267 390.23,-266.88 398.44,-273.58 400.83,-267"/>
</g>
<!-- 12 -->
<g id="node14" class="node">
<title>12</title>
<ellipse fill="#a2cd5a" stroke="black" cx="486" cy="-72" rx="72" ry="72"/>
<text text-anchor="middle" x="486" y="-66.95" font-family="Times,serif" font-size="14.00">DISARM2</text>
</g>
<!-- 6&#45;&gt;12 -->
<g id="edge18" class="edge">
<title>6&#45;&gt;12</title>
<path fill="none" stroke="black" d="M330.92,-213.71C336.25,-195.71 343.93,-177.16 355,-162 369.9,-141.59 390.99,-124.36 411.9,-110.66"/>
<polygon fill="black" stroke="black" points="413.61,-113.72 420.2,-105.42 409.87,-107.8 413.61,-113.72"/>
<text text-anchor="start" x="355" y="-181.7" font-family="Times,serif" font-size="14.00"> &#160;input_digit = 1&#39;b1</text>
<text text-anchor="start" x="355" y="-165.2" font-family="Times,serif" font-size="14.00"> &#160;&amp;&amp; digit = 4&#39;b0010</text>
</g>
<!-- 7&#45;&gt;4 -->
<g id="edge19" class="edge">
<title>7&#45;&gt;4</title>
<path fill="none" stroke="black" d="M352,-1457.57C352,-1439.26 352,-1419.43 352,-1400.61"/>
<polygon fill="black" stroke="black" points="355.5,-1400.87 352,-1390.87 348.5,-1400.87 355.5,-1400.87"/>
<text text-anchor="start" x="352" y="-1426.7" font-family="Times,serif" font-size="14.00"> &#160;input_digit = 1&#39;b1</text>
<text text-anchor="start" x="352" y="-1410.2" font-family="Times,serif" font-size="14.00"> &#160;&amp;&amp; digit = 4&#39;b0001</text>
</g>
<!-- 7&#45;&gt;7 -->
<g id="edge20" class="edge">
<title>7&#45;&gt;7</title>
<path fill="none" stroke="black" d="M422.19,-1547.12C433.91,-1544.73 442,-1539.02 442,-1530 442,-1524.08 438.52,-1519.59 432.81,-1516.52"/>
<polygon fill="black" stroke="black" points="434.21,-1513.3 423.62,-1513.37 431.94,-1519.93 434.21,-1513.3"/>
</g>
<!-- 8 -->
<g id="node10" class="node">
<title>8</title>
<ellipse fill="#a2cd5a" stroke="black" cx="162" cy="-1317" rx="72" ry="72"/>
<text text-anchor="middle" x="162" y="-1311.95" font-family="Times,serif" font-size="14.00">ARM1B</text>
</g>
<!-- 7&#45;&gt;8 -->
<g id="edge21" class="edge">
<title>7&#45;&gt;8</title>
<path fill="none" stroke="black" d="M287.77,-1496.6C263.39,-1481.89 236.86,-1462.68 217.5,-1440 206.41,-1427.01 197.11,-1411.43 189.5,-1395.82"/>
<polygon fill="black" stroke="black" points="192.77,-1394.55 185.37,-1386.96 186.42,-1397.51 192.77,-1394.55"/>
<text text-anchor="start" x="217.5" y="-1426.7" font-family="Times,serif" font-size="14.00"> &#160;input_digit = 1&#39;b1</text>
<text text-anchor="start" x="217.5" y="-1410.2" font-family="Times,serif" font-size="14.00"> &#160;&amp;&amp; !(digit = 4&#39;b0001)</text>
</g>
<!-- 8&#45;&gt;5 -->
<g id="edge22" class="edge">
<title>8&#45;&gt;5</title>
<path fill="none" stroke="black" d="M109.74,-1266.85C100.06,-1254.83 91.33,-1241.28 86,-1227 81.34,-1214.52 78.91,-1200.81 77.89,-1187.23"/>
<polygon fill="black" stroke="black" points="81.39,-1187.21 77.43,-1177.39 74.4,-1187.54 81.39,-1187.21"/>
<text text-anchor="start" x="86" y="-1205.45" font-family="Times,serif" font-size="14.00"> &#160;input_digit = 1&#39;b1</text>
</g>
<!-- 8&#45;&gt;8 -->
<g id="edge23" class="edge">
<title>8&#45;&gt;8</title>
<path fill="none" stroke="black" d="M231.81,-1335.64C243.74,-1333.09 252,-1326.88 252,-1317 252,-1310.52 248.44,-1305.61 242.62,-1302.29"/>
<polygon fill="black" stroke="black" points="243.83,-1299 233.23,-1298.88 241.44,-1305.58 243.83,-1299"/>
</g>
<!-- 9&#45;&gt;6 -->
<g id="edge24" class="edge">
<title>9&#45;&gt;6</title>
<path fill="none" stroke="black" d="M286.85,-427.33C291.27,-407.88 296.12,-386.59 300.67,-366.57"/>
<polygon fill="black" stroke="black" points="304.03,-367.6 302.83,-357.08 297.2,-366.05 304.03,-367.6"/>
<text text-anchor="start" x="297.87" y="-394.7" font-family="Times,serif" font-size="14.00"> &#160;input_digit = 1&#39;b1</text>
<text text-anchor="start" x="297.87" y="-378.2" font-family="Times,serif" font-size="14.00"> &#160;&amp;&amp; digit = 4&#39;b0001</text>
</g>
<!-- 9&#45;&gt;9 -->
<g id="edge25" class="edge">
<title>9&#45;&gt;9</title>
<path fill="none" stroke="black" d="M341.19,-515.12C352.91,-512.73 361,-507.02 361,-498 361,-492.08 357.52,-487.59 351.81,-484.52"/>
<polygon fill="black" stroke="black" points="353.21,-481.3 342.62,-481.37 350.94,-487.93 353.21,-481.3"/>
</g>
<!-- 11 -->
<g id="node13" class="node">
<title>11</title>
<ellipse fill="#a2cd5a" stroke="black" cx="139" cy="-285" rx="72" ry="72"/>
<text text-anchor="middle" x="139" y="-279.95" font-family="Times,serif" font-size="14.00">DISARM1B</text>
</g>
<!-- 9&#45;&gt;11 -->
<g id="edge26" class="edge">
<title>9&#45;&gt;11</title>
<path fill="none" stroke="black" d="M208.8,-461.36C189.4,-447.21 169.87,-429.2 157.5,-408 150.51,-396.03 145.88,-382.31 142.85,-368.5"/>
<polygon fill="black" stroke="black" points="146.34,-368.1 141.03,-358.93 139.46,-369.4 146.34,-368.1"/>
<text text-anchor="start" x="157.5" y="-394.7" font-family="Times,serif" font-size="14.00"> &#160;input_digit = 1&#39;b1</text>
<text text-anchor="start" x="157.5" y="-378.2" font-family="Times,serif" font-size="14.00"> &#160;&amp;&amp; !(digit = 4&#39;b0001)</text>
</g>
<!-- 10&#45;&gt;0 -->
<g id="edge27" class="edge">
<title>10&#45;&gt;0</title>
<path fill="none" stroke="black" d="M430.32,-1139C450.25,-1153.17 469.94,-1171.6 481,-1194 522.92,-1278.89 484.56,-1525.33 485,-1620 485.03,-1627.33 486.45,-1629.31 485,-1636.5 484.08,-1641.09 482.92,-1645.73 481.59,-1650.36"/>
<polygon fill="black" stroke="black" points="478.32,-1649.11 478.66,-1659.7 485,-1651.21 478.32,-1649.11"/>
<text text-anchor="start" x="498.35" y="-1426.7" font-family="Times,serif" font-size="14.00"> &#160;input_digit = 1&#39;b1</text>
<text text-anchor="start" x="498.35" y="-1410.2" font-family="Times,serif" font-size="14.00"> &#160;&amp;&amp; !(digit = 4&#39;b0100)</text>
</g>
<!-- 10&#45;&gt;2 -->
<g id="edge28" class="edge">
<title>10&#45;&gt;2</title>
<path fill="none" stroke="black" d="M367,-1031.57C367,-1013.26 367,-993.43 367,-974.61"/>
<polygon fill="black" stroke="black" points="370.5,-974.87 367,-964.87 363.5,-974.87 370.5,-974.87"/>
<text text-anchor="start" x="367" y="-1000.7" font-family="Times,serif" font-size="14.00"> &#160;input_digit = 1&#39;b1</text>
<text text-anchor="start" x="367" y="-984.2" font-family="Times,serif" font-size="14.00"> &#160;&amp;&amp; digit = 4&#39;b0100</text>
</g>
<!-- 10&#45;&gt;10 -->
<g id="edge29" class="edge">
<title>10&#45;&gt;10</title>
<path fill="none" stroke="black" d="M436.81,-1122.64C448.74,-1120.09 457,-1113.88 457,-1104 457,-1097.52 453.44,-1092.61 447.62,-1089.29"/>
<polygon fill="black" stroke="black" points="448.83,-1086 438.23,-1085.88 446.44,-1092.58 448.83,-1086"/>
</g>
<!-- 11&#45;&gt;3 -->
<g id="edge30" class="edge">
<title>11&#45;&gt;3</title>
<path fill="none" stroke="black" d="M91.22,-230.57C83.76,-219.5 77.15,-207.4 73,-195 68.8,-182.45 66.59,-168.75 65.65,-155.22"/>
<polygon fill="black" stroke="black" points="69.15,-155.27 65.21,-145.43 62.16,-155.58 69.15,-155.27"/>
<text text-anchor="start" x="73" y="-173.45" font-family="Times,serif" font-size="14.00"> &#160;input_digit = 1&#39;b1</text>
</g>
<!-- 11&#45;&gt;11 -->
<g id="edge31" class="edge">
<title>11&#45;&gt;11</title>
<path fill="none" stroke="black" d="M208.81,-303.64C220.74,-301.09 229,-294.88 229,-285 229,-278.52 225.44,-273.61 219.62,-270.29"/>
<polygon fill="black" stroke="black" points="220.83,-267 210.23,-266.88 218.44,-273.58 220.83,-267"/>
</g>
<!-- 12&#45;&gt;0 -->
<g id="edge32" class="edge">
<title>12&#45;&gt;0</title>
<path fill="none" stroke="black" d="M543.85,-115.04C589.31,-153.37 645,-214.51 645,-284 645,-1531 645,-1531 645,-1531 645,-1602.35 580.08,-1656.95 524.4,-1690.66"/>
<polygon fill="black" stroke="black" points="522.62,-1687.64 515.79,-1695.74 526.18,-1693.67 522.62,-1687.64"/>
<text text-anchor="start" x="645" y="-894.2" font-family="Times,serif" font-size="14.00"> &#160;input_digit = 1&#39;b1</text>
<text text-anchor="start" x="645" y="-877.7" font-family="Times,serif" font-size="14.00"> &#160;&amp;&amp; digit = 4&#39;b0100</text>
</g>
<!-- 12&#45;&gt;2 -->
<g id="edge33" class="edge">
<title>12&#45;&gt;2</title>
<path fill="none" stroke="black" d="M486,-144.3C486,-185.18 486,-237.48 486,-284 486,-695.5 486,-695.5 486,-695.5 486,-744.63 479.8,-759.82 453,-801 445.68,-812.26 436.8,-823.32 427.57,-833.62"/>
<polygon fill="black" stroke="black" points="425,-831.24 420.79,-840.96 430.14,-835.99 425,-831.24"/>
<text text-anchor="start" x="486" y="-501.2" font-family="Times,serif" font-size="14.00"> &#160;input_digit = 1&#39;b1</text>
<text text-anchor="start" x="486" y="-484.7" font-family="Times,serif" font-size="14.00"> &#160;&amp;&amp; !(digit = 4&#39;b0100)</text>
</g>
<!-- 12&#45;&gt;12 -->
<g id="edge34" class="edge">
<title>12&#45;&gt;12</title>
<path fill="none" stroke="black" d="M555.81,-90.64C567.74,-88.09 576,-81.88 576,-72 576,-65.52 572.44,-60.61 566.62,-57.29"/>
<polygon fill="black" stroke="black" points="567.83,-54 557.23,-53.88 565.44,-60.58 567.83,-54"/>
</g>
</g>
</svg>
