<svg xmlns="http://www.w3.org/2000/svg" xmlns:xlink="http://www.w3.org/1999/xlink" xmlns:s="https://github.com/nturley/netlistsvg" viewBox="0 0 1100 550" preserveAspectRatio="xMinYMin meet"><style>  svg {
    stroke:#000;
    fill:none;
  }
  text {
    fill:#000;
    fill-opacity:1.0;
    stroke:none;
    font-size:10px;
    font-weight: bold;
    font-family: "Courier New", monospace;
  }
  line {
      stroke-linecap: round;
  }
  .nodelabel {
    text-anchor: middle;
  }
  .inputPortLabel {
    text-anchor: end;
  }
  .splitjoinBody {
    fill:#000;
  }
  .invert {
    fill:#ff9999;
    fill-opacity:1.0;
  }
  .combinational {
    fill:#afecef;
    fill-opacity:1.0;
  }
  .state {
    fill:#def1b2;
    fill-opacity:1.0;
  }
  .hierarchical {
    fill:#ffd8b2;
    fill-opacity:1.0;
  }
  .io {
    fill:#fcffb2;
    fill-opacity:1.0;
  }</style><g s:type="eq" class="hierarchical" transform="translate(877.5,340)" s:width="25" s:height="25" id="cell_$eq$brew_system_ref.v:46$5"><s:alias val="$eq"/><s:alias val="$eqx"/><circle r="12.5" cx="12.5" cy="12.5" class="cell_$eq$brew_system_ref.v:46$5"/><line x1="7.5" x2="17.5" y1="10" y2="10" class="cell_$eq$brew_system_ref.v:46$5"/><line x1="7.5" x2="17.5" y1="15" y2="15" class="cell_$eq$brew_system_ref.v:46$5"/><g s:x="2" s:y="5" s:pid="A"/><g s:x="2" s:y="20" s:pid="B"/><g s:x="25" s:y="12.5" s:pid="Y"/></g><g s:type="or" class="combinational" transform="translate(190,467.5)" s:width="30" s:height="25" id="cell_$logic_or$brew_system_ref.v:28$3"><s:alias val="$or"/><s:alias val="$logic_or"/><s:alias val="$_OR_"/><s:alias val="$reduce_or"/><s:alias val="$reduce_bool"/><path d="M0,0 A30 25 0 0 1 0,25 A30 25 0 0 0 30,12.5 A30 25 0 0 0 0,0" class="cell_$logic_or$brew_system_ref.v:28$3"/><g s:x="2" s:y="5" s:pid="A"/><g s:x="2" s:y="20" s:pid="B"/><g s:x="30" s:y="12.5" s:pid="Y"/></g><g s:type="not" class="combinational" transform="translate(104,412.5)" s:width="30" s:height="20" id="cell_$not$brew_system_ref.v:28$2"><s:alias val="$_NOT_"/><s:alias val="$not"/><s:alias val="$logic_not"/><path d="M0,0 L0,20 L20,10 Z" class="cell_$not$brew_system_ref.v:28$2"/><circle cx="24" cy="10" r="3" class="invert"/><g s:x="-1" s:y="10" s:pid="A"/><g s:x="27" s:y="10" s:pid="Y"/></g><g s:type="or" class="combinational" transform="translate(763.8333333333334,452.5)" s:width="30" s:height="25" id="cell_$or$brew_system_ref.v:47$6"><s:alias val="$or"/><s:alias val="$logic_or"/><s:alias val="$_OR_"/><s:alias val="$reduce_or"/><s:alias val="$reduce_bool"/><path d="M0,0 A30 25 0 0 1 0,25 A30 25 0 0 0 30,12.5 A30 25 0 0 0 0,0" class="cell_$or$brew_system_ref.v:47$6"/><g s:x="2" s:y="5" s:pid="A"/><g s:x="2" s:y="20" s:pid="B"/><g s:x="30" s:y="12.5" s:pid="Y"/></g><g s:type="dff-bus" class="state" transform="translate(389,347.5)" s:width="34" s:height="44" id="cell_$procdff$395"><s:alias val="$dff-bus"/><s:alias val="$_DFF_-bus"/><s:alias val="$_DFF_P_-bus"/><s:alias val="adff-bus"/><s:alias val="$adff-bus"/><s:alias val="$_DFF_-bus"/><s:alias val="$_DFF_P_-bus"/><s:alias val="sdff-bus"/><s:alias val="$sdff-bus"/><s:alias val="$_DFF_-bus"/><s:alias val="$_DFF_P_-bus"/><rect width="30" height="40" x="0" y="0" stroke="none" transform="translate(4,4)" style="filter:brightness(0.7);" class="cell_$procdff$395"/><path d="M32,4 L34,4 L34,44 L4,44 L4,42" class="cell_$procdff$395"/><rect width="30" height="40" x="0" y="0" stroke="none" transform="translate(2,2)" style="filter:brightness(0.7)" class="cell_$procdff$395"/><path d="M30,2 L32,2 L32,42 L2,42 L2,40" class="cell_$procdff$395" style=""/><rect width="30" height="40" x="0" y="0" class="cell_$procdff$395"/><path d="M0,35 L5,30 L0,25 Z" class="cell_$procdff$395" style="fill:#ffffff;"/><g s:x="35" s:y="10" s:pid="Q"/><g s:x="-1" s:y="30" s:pid="CLK"/><g s:x="-1" s:y="30" s:pid="C"/><g s:x="-1" s:y="10" s:pid="D"/><g s:x="17" s:y="44" s:pid="ARST"/><g s:x="17" s:y="44" s:pid="SRST"/></g><g s:type="mux-bus" class="combinational" transform="translate(256,337.5)" s:width="24" s:height="40" id="cell_$procmux$388"><s:alias val="$pmux-bus"/><s:alias val="$mux-bus"/><s:alias val="$_MUX_-bus"/><path d="M8,2 L8,0 L24,8 L24,32 L8,40 L8,38" style="filter:brightness(0.7)" class="cell_$procmux$388"/><path d="M4,2 L4,0 L22,9 L22,31 L4,40 L4,38" style="filter:brightness(0.7)" class="cell_$procmux$388"/><path d="M0,0 L20,10 L20,30 L0,40 Z" class="cell_$procmux$388"/><text x="5" y="32" class="nodelabel cell_$procmux$178" s:attribute="">1</text><text x="5" y="13" class="nodelabel cell_$procmux$178" s:attribute="">0</text><g s:x="-1" s:y="10" s:pid="A"/><g s:x="-1" s:y="30" s:pid="B"/><g s:x="12" s:y="38" s:pid="S"/><g s:x="24.5" s:y="20" s:pid="Y"/></g><g s:type="generic" class="hierarchical" transform="translate(551.5,372)" s:width="30" s:height="40" id="cell_FSM"><text x="15" y="-4" class="nodelabel cell_FSM" s:attribute="ref">brew_fsm</text><rect width="30" height="80" s:generic="body" class="cell_FSM"/><g transform="translate(0,10)" s:x="0" s:y="10" s:pid="in0" id="port_FSM~clk"><text x="-3" y="-4" class="inputPortLabel cell_FSM">clk</text></g><g transform="translate(0,30)" s:x="0" s:y="10" s:pid="in0" id="port_FSM~level"><text x="-3" y="-4" class="inputPortLabel cell_FSM">level</text></g><g transform="translate(0,50)" s:x="0" s:y="10" s:pid="in0" id="port_FSM~reset"><text x="-3" y="-4" class="inputPortLabel cell_FSM">reset</text></g><g transform="translate(0,70)" s:x="0" s:y="10" s:pid="in0" id="port_FSM~temp"><text x="-3" y="-4" class="inputPortLabel cell_FSM">temp</text></g><g transform="translate(30,10)" s:x="30" s:y="10" s:pid="out0" id="port_FSM~agitate"><text x="5" y="-4" style="fill:#000; stroke:none" class="cell_FSM">agitate</text></g><g transform="translate(30,30)" s:x="30" s:y="10" s:pid="out0" id="port_FSM~chute"><text x="5" y="-4" style="fill:#000; stroke:none" class="cell_FSM">chute</text></g><g transform="translate(30,50)" s:x="30" s:y="10" s:pid="out0" id="port_FSM~heat"><text x="5" y="-4" style="fill:#000; stroke:none" class="cell_FSM">heat</text></g><g transform="translate(30,70)" s:x="30" s:y="10" s:pid="out0" id="port_FSM~pump"><text x="5" y="-4" style="fill:#000; stroke:none" class="cell_FSM">pump</text></g></g><g s:type="inputExt" class="io" transform="translate(315.5,67)" s:width="30" s:height="20" id="cell_clock"><text x="15" y="-4" class="nodelabel cell_clock" s:attribute="ref">clock</text><s:alias val="$_inputExt_"/><path d="M0,0 L0,20 L15,20 L30,10 L15,0 Z" class="cell_clock"/><g s:x="30" s:y="10" s:pid="Y"/></g><g s:type="inputExt" class="io" transform="translate(12,412.5)" s:width="30" s:height="20" id="cell_nreset"><text x="15" y="-4" class="nodelabel cell_nreset" s:attribute="ref">nreset</text><s:alias val="$_inputExt_"/><path d="M0,0 L0,20 L15,20 L30,10 L15,0 Z" class="cell_nreset"/><g s:x="30" s:y="10" s:pid="Y"/></g><g s:type="inputExt" class="io" transform="translate(83,477.5)" s:width="30" s:height="20" id="cell_valid"><text x="15" y="-4" class="nodelabel cell_valid" s:attribute="ref">valid</text><s:alias val="$_inputExt_"/><path d="M0,0 L0,20 L15,20 L30,10 L15,0 Z" class="cell_valid"/><g s:x="30" s:y="10" s:pid="Y"/></g><g s:type="inputExt" class="io" transform="translate(83,357.5)" s:width="30" s:height="20" id="cell_level_sensor"><text x="15" y="-4" class="nodelabel cell_level_sensor" s:attribute="ref">level_sensor</text><s:alias val="$_inputExt_"/><path d="M0,0 L0,20 L15,20 L30,10 L15,0 Z" class="cell_level_sensor"/><g s:x="30" s:y="10" s:pid="Y"/></g><g s:type="inputExt" class="io" transform="translate(380.5,443.5)" s:width="30" s:height="20" id="cell_temperature"><text x="15" y="-4" class="nodelabel cell_temperature" s:attribute="ref">temperature</text><s:alias val="$_inputExt_"/><path d="M0,0 L0,20 L15,20 L30,10 L15,0 Z" class="cell_temperature"/><g s:x="30" s:y="10" s:pid="Y"/></g><g s:type="outputExt" class="io" transform="translate(937.5,274)" s:width="30" s:height="20" id="cell_heater"><text x="15" y="-4" class="nodelabel cell_heater" s:attribute="ref">heater</text><s:alias val="$_outputExt_"/><path d="M30,0 L30,20 L15,20 L0,10 L15,0 Z" class="cell_heater"/><g s:x="0" s:y="10" s:pid="A"/></g><g s:type="outputExt" class="io" transform="translate(937.5,144)" s:width="30" s:height="20" id="cell_motor"><text x="15" y="-4" class="nodelabel cell_motor" s:attribute="ref">motor</text><s:alias val="$_outputExt_"/><path d="M30,0 L30,20 L15,20 L0,10 L15,0 Z" class="cell_motor"/><g s:x="0" s:y="10" s:pid="A"/></g><g s:type="outputExt" class="io" transform="translate(937.5,472.5)" s:width="30" s:height="20" id="cell_pump"><text x="15" y="-4" class="nodelabel cell_pump" s:attribute="ref">pump</text><s:alias val="$_outputExt_"/><path d="M30,0 L30,20 L15,20 L0,10 L15,0 Z" class="cell_pump"/><g s:x="0" s:y="10" s:pid="A"/></g><g s:type="outputExt" class="io" transform="translate(937.5,342.5)" s:width="30" s:height="20" id="cell_sparge_valve"><text x="15" y="-4" class="nodelabel cell_sparge_valve" s:attribute="ref">sparge_valve</text><s:alias val="$_outputExt_"/><path d="M30,0 L30,20 L15,20 L0,10 L15,0 Z" class="cell_sparge_valve"/><g s:x="0" s:y="10" s:pid="A"/></g><g s:type="outputExt" class="io" transform="translate(937.5,209)" s:width="30" s:height="20" id="cell_grain_feed"><text x="15" y="-4" class="nodelabel cell_grain_feed" s:attribute="ref">grain_feed</text><s:alias val="$_outputExt_"/><path d="M30,0 L30,20 L15,20 L0,10 L15,0 Z" class="cell_grain_feed"/><g s:x="0" s:y="10" s:pid="A"/></g><g s:type="outputExt" class="io" transform="translate(937.5,407.5)" s:width="30" s:height="20" id="cell_valve"><text x="15" y="-4" class="nodelabel cell_valve" s:attribute="ref">valve</text><s:alias val="$_outputExt_"/><path d="M30,0 L30,20 L15,20 L0,10 L15,0 Z" class="cell_valve"/><g s:x="0" s:y="10" s:pid="A"/></g><g s:type="outputExt" class="io" transform="translate(937.5,79)" s:width="30" s:height="20" id="cell_level"><text x="15" y="-4" class="nodelabel cell_level" s:attribute="ref">level</text><s:alias val="$_outputExt_"/><path d="M30,0 L30,20 L15,20 L0,10 L15,0 Z" class="cell_level"/><g s:x="0" s:y="10" s:pid="A"/></g><g s:type="constant" class="io" transform="translate(763.5,350)" s:width="30" s:height="20" id="cell_11"><text x="15" y="-4" class="nodelabel cell_11" s:attribute="ref">11</text><s:alias val="$_constant_"/><rect width="30" height="20" class="cell_11"/><g s:x="31" s:y="10" s:pid="Y"/></g><g s:type="join" class="" transform="translate(836.5,462)" s:width="4" s:height="40" id="cell_$join$,23,24,"><rect width="5" height="40" class="splitjoinBody" s:generic="body"/><s:alias val="$_join_"/><g s:x="5" s:y="20" s:pid="out"/><g transform="translate(0,10)" s:x="0" s:y="10" s:pid="in0"><text x="-3" y="-4" class="inputPortLabel">0</text></g><g transform="translate(0,30)" s:x="0" s:y="10" s:pid="in0"><text x="-3" y="-4" class="inputPortLabel">1</text></g></g><g s:type="split" class="" transform="translate(704.5,422)" s:width="5" s:height="40" id="cell_$split$,27,36,24,"><rect width="5" height="80" class="splitjoinBody" s:generic="body"/><s:alias val="$_split_"/><g s:x="0" s:y="20" s:pid="in"/><g transform="translate(4,10)" s:x="4" s:y="10" s:pid="out0"><text x="5" y="-4">1:2</text></g><g transform="translate(4,30)" s:x="4" s:y="10" s:pid="out0"><text x="5" y="-4">0</text></g><g transform="translate(4,50)" s:x="4" s:y="10" s:pid="out0"><text x="5" y="-4">1</text></g><g transform="translate(4,70)" s:x="4" s:y="10" s:pid="out0"><text x="5" y="-4">2</text></g></g><line x1="709.5" x2="738.5" y1="432.5" y2="432.5" class="net_36,24 width_2" style="stroke-width: 2"/><line x1="738.5" x2="738.5" y1="432.5" y2="299" class="net_36,24 width_2" style="stroke-width: 2"/><line x1="738.5" x2="852.5" y1="299" y2="299" class="net_36,24 width_2" style="stroke-width: 2"/><line x1="852.5" x2="852.5" y1="299" y2="345" class="net_36,24 width_2" style="stroke-width: 2"/><line x1="852.5" x2="879.5" y1="345" y2="345" class="net_36,24 width_2" style="stroke-width: 2"/><line x1="794.5" x2="879.5" y1="360" y2="360" class="net_47,48 width_2" style="stroke-width: 2"/><line x1="131" x2="165" y1="422.5" y2="422.5" class="net_37 width_1" style="stroke-width: 1"/><line x1="165" x2="165" y1="422.5" y2="472.5" class="net_37 width_1" style="stroke-width: 1"/><circle cx="165" cy="422.5" r="2" style="fill:#000" class="net_37 width_1"/><line x1="165" x2="192" y1="472.5" y2="472.5" class="net_37 width_1" style="stroke-width: 1"/><line x1="131" x2="551.5" y1="422.5" y2="422.5" class="net_37 width_1" style="stroke-width: 1"/><line x1="113" x2="192" y1="487.5" y2="487.5" class="net_4 width_1" style="stroke-width: 1"/><line x1="42" x2="103" y1="422.5" y2="422.5" class="net_3 width_1" style="stroke-width: 1"/><line x1="709.5" x2="748.5" y1="452.5" y2="452.5" class="net_27 width_1" style="stroke-width: 1"/><line x1="748.5" x2="748.5" y1="452.5" y2="457.5" class="net_27 width_1" style="stroke-width: 1"/><circle cx="748.5" cy="452.5" r="2" style="fill:#000" class="net_27 width_1"/><line x1="748.5" x2="765.8333333333334" y1="457.5" y2="457.5" class="net_27 width_1" style="stroke-width: 1"/><line x1="709.5" x2="748.5" y1="452.5" y2="452.5" class="net_27 width_1" style="stroke-width: 1"/><line x1="748.5" x2="748.5" y1="452.5" y2="417.5" class="net_27 width_1" style="stroke-width: 1"/><line x1="748.5" x2="937.5" y1="417.5" y2="417.5" class="net_27 width_1" style="stroke-width: 1"/><line x1="709.5" x2="765.8333333333334" y1="472.5" y2="472.5" class="net_36 width_1" style="stroke-width: 1"/><line x1="345.5" x2="355.5" y1="77" y2="77" class="net_2 width_1" style="stroke-width: 1"/><line x1="355.5" x2="355.5" y1="77" y2="377.5" class="net_2 width_1" style="stroke-width: 1"/><circle cx="355.5" cy="77" r="2" style="fill:#000" class="net_2 width_1"/><line x1="355.5" x2="388" y1="377.5" y2="377.5" class="net_2 width_1" style="stroke-width: 1"/><line x1="345.5" x2="505.5" y1="77" y2="77" class="net_2 width_1" style="stroke-width: 1"/><line x1="505.5" x2="505.5" y1="77" y2="382.5" class="net_2 width_1" style="stroke-width: 1"/><line x1="505.5" x2="551.5" y1="382.5" y2="382.5" class="net_2 width_1" style="stroke-width: 1"/><line x1="280.5" x2="388" y1="357.5" y2="357.5" class="net_39,40,41,42,43,44,45,46 width_8" style="stroke-width: 2"/><line x1="424" x2="456.5" y1="357.5" y2="357.5" class="net_28,29,30,31,32,33,34,35 width_8" style="stroke-width: 2"/><line x1="456.5" x2="456.5" y1="357.5" y2="16" class="net_28,29,30,31,32,33,34,35 width_8" style="stroke-width: 2"/><line x1="456.5" x2="230" y1="16" y2="16" class="net_28,29,30,31,32,33,34,35 width_8" style="stroke-width: 2"/><line x1="230" x2="230" y1="16" y2="347.5" class="net_28,29,30,31,32,33,34,35 width_8" style="stroke-width: 2"/><circle cx="456.5" cy="357.5" r="3" style="fill:#000" class="net_28,29,30,31,32,33,34,35 width_8"/><line x1="230" x2="255" y1="347.5" y2="347.5" class="net_28,29,30,31,32,33,34,35 width_8" style="stroke-width: 2"/><line x1="424" x2="495.5" y1="357.5" y2="357.5" class="net_28,29,30,31,32,33,34,35 width_8" style="stroke-width: 2"/><line x1="495.5" x2="495.5" y1="357.5" y2="402.5" class="net_28,29,30,31,32,33,34,35 width_8" style="stroke-width: 2"/><line x1="495.5" x2="551.5" y1="402.5" y2="402.5" class="net_28,29,30,31,32,33,34,35 width_8" style="stroke-width: 2"/><line x1="424" x2="456.5" y1="357.5" y2="357.5" class="net_28,29,30,31,32,33,34,35 width_8" style="stroke-width: 2"/><line x1="456.5" x2="456.5" y1="357.5" y2="89" class="net_28,29,30,31,32,33,34,35 width_8" style="stroke-width: 2"/><circle cx="456.5" cy="89" r="3" style="fill:#000" class="net_28,29,30,31,32,33,34,35 width_8"/><line x1="456.5" x2="937.5" y1="89" y2="89" class="net_28,29,30,31,32,33,34,35 width_8" style="stroke-width: 2"/><line x1="113" x2="255" y1="367.5" y2="367.5" class="net_5,6,7,8,9,10,11,12 width_8" style="stroke-width: 2"/><line x1="220" x2="268" y1="480" y2="480" class="net_38 width_1" style="stroke-width: 1"/><line x1="268" x2="268" y1="480" y2="375.5" class="net_38 width_1" style="stroke-width: 1"/><line x1="410.5" x2="495.5" y1="453.5" y2="453.5" class="net_13,14,15,16,17,18,19,20 width_8" style="stroke-width: 2"/><line x1="495.5" x2="495.5" y1="453.5" y2="442.5" class="net_13,14,15,16,17,18,19,20 width_8" style="stroke-width: 2"/><line x1="495.5" x2="551.5" y1="442.5" y2="442.5" class="net_13,14,15,16,17,18,19,20 width_8" style="stroke-width: 2"/><line x1="582.5" x2="655.5" y1="422.5" y2="422.5" class="net_21 width_1" style="stroke-width: 1"/><line x1="655.5" x2="655.5" y1="422.5" y2="284" class="net_21 width_1" style="stroke-width: 1"/><line x1="655.5" x2="937.5" y1="284" y2="284" class="net_21 width_1" style="stroke-width: 1"/><line x1="582.5" x2="635.5" y1="382.5" y2="382.5" class="net_22 width_1" style="stroke-width: 1"/><line x1="635.5" x2="635.5" y1="382.5" y2="154" class="net_22 width_1" style="stroke-width: 1"/><line x1="635.5" x2="937.5" y1="154" y2="154" class="net_22 width_1" style="stroke-width: 1"/><line x1="842.5" x2="937.5" y1="482.5" y2="482.5" class="net_23,24 width_2" style="stroke-width: 2"/><line x1="902.5" x2="937.5" y1="352.5" y2="352.5" class="net_25 width_1" style="stroke-width: 1"/><line x1="582.5" x2="645.5" y1="402.5" y2="402.5" class="net_26 width_1" style="stroke-width: 1"/><line x1="645.5" x2="645.5" y1="402.5" y2="219" class="net_26 width_1" style="stroke-width: 1"/><line x1="645.5" x2="937.5" y1="219" y2="219" class="net_26 width_1" style="stroke-width: 1"/><line x1="793.8333333333334" x2="804.5" y1="465" y2="465" class="net_23 width_1" style="stroke-width: 1"/><line x1="804.5" x2="804.5" y1="465" y2="472.5" class="net_23 width_1" style="stroke-width: 1"/><line x1="804.5" x2="836.5" y1="472.5" y2="472.5" class="net_23 width_1" style="stroke-width: 1"/><line x1="709.5" x2="836.5" y1="492.5" y2="492.5" class="net_24 width_1" style="stroke-width: 1"/><line x1="582.5" x2="704.5" y1="442.5" y2="442.5" class="net_27,36,24 width_3" style="stroke-width: 2"/><rect x="778" y="294" width="16" height="9" class="net_36,24 width_2 busLabel_2" style="fill: white; stroke: none"/><text x="777" y="302" class="net_36,24 width_2 busLabel_2">/2/</text><rect x="835" y="355" width="16" height="9" class="net_47,48 width_2 busLabel_2" style="fill: white; stroke: none"/><text x="834" y="363" class="net_47,48 width_2 busLabel_2">/2/</text><rect x="329.5" y="352.5" width="16" height="9" class="net_39,40,41,42,43,44,45,46 width_8 busLabel_8" style="fill: white; stroke: none"/><text x="328.5" y="360.5" class="net_39,40,41,42,43,44,45,46 width_8 busLabel_8">/8/</text><rect x="715.5" y="84" width="16" height="9" class="net_28,29,30,31,32,33,34,35 width_8 busLabel_8" style="fill: white; stroke: none"/><text x="714.5" y="92" class="net_28,29,30,31,32,33,34,35 width_8 busLabel_8">/8/</text><rect x="715.5" y="84" width="16" height="9" class="net_28,29,30,31,32,33,34,35 width_8 busLabel_8" style="fill: white; stroke: none"/><text x="714.5" y="92" class="net_28,29,30,31,32,33,34,35 width_8 busLabel_8">/8/</text><rect x="715.5" y="84" width="16" height="9" class="net_28,29,30,31,32,33,34,35 width_8 busLabel_8" style="fill: white; stroke: none"/><text x="714.5" y="92" class="net_28,29,30,31,32,33,34,35 width_8 busLabel_8">/8/</text><rect x="204" y="362.5" width="16" height="9" class="net_5,6,7,8,9,10,11,12 width_8 busLabel_8" style="fill: white; stroke: none"/><text x="203" y="370.5" class="net_5,6,7,8,9,10,11,12 width_8 busLabel_8">/8/</text><rect x="482.5" y="448.5" width="16" height="9" class="net_13,14,15,16,17,18,19,20 width_8 busLabel_8" style="fill: white; stroke: none"/><text x="481.5" y="456.5" class="net_13,14,15,16,17,18,19,20 width_8 busLabel_8">/8/</text><rect x="889" y="477.5" width="16" height="9" class="net_23,24 width_2 busLabel_2" style="fill: white; stroke: none"/><text x="888" y="485.5" class="net_23,24 width_2 busLabel_2">/2/</text><rect x="666.5" y="437.5" width="16" height="9" class="net_27,36,24 width_3 busLabel_3" style="fill: white; stroke: none"/><text x="665.5" y="445.5" class="net_27,36,24 width_3 busLabel_3">/3/</text></svg>