<svg xmlns="http://www.w3.org/2000/svg" xmlns:xlink="http://www.w3.org/1999/xlink" xmlns:s="https://github.com/nturley/netlistsvg" width="872" height="534"><style>  svg {
    stroke:#000;
    fill:none;
  }
  text {
    fill:#000;
    fill-opacity:1.0;
    stroke:none;
    font-size:10px;
    font-weight: bold;
    font-family: "Courier New", monospace;
  }
  line {
      stroke-linecap: round;
  }
  .nodelabel {
    text-anchor: middle;
  }
  .inputPortLabel {
    text-anchor: end;
  }
  .splitjoinBody {
    fill:#000;
  }
  .invert {
    fill:#ff9999;
    fill-opacity:1.0;
  }
  .combinational {
    fill:#afecef;
    fill-opacity:1.0;
  }
  .state {
    fill:#def1b2;
    fill-opacity:1.0;
  }
  .hierarchical {
    fill:#ffd8b2;
    fill-opacity:1.0;
  }
  .io {
    fill:#fcffb2;
    fill-opacity:1.0;
  }</style><g s:type="not" class="combinational" transform="translate(203,339)" s:width="30" s:height="20" id="cell_$eq$REF.v:19$3"><s:alias val="$_NOT_"/><s:alias val="$not"/><s:alias val="$logic_not"/><path d="M0,0 L0,20 L20,10 Z" class="cell_$eq$REF.v:19$3"/><circle cx="24" cy="10" r="3" class="invert"/><g s:x="-1" s:y="10" s:pid="A"/><g s:x="27" s:y="10" s:pid="Y"/></g><g s:type="ne" class="hierarchical" transform="translate(492,182)" s:width="25" s:height="25" id="cell_$ne$REF.v:21$4"><s:alias val="$ne"/><s:alias val="$nex"/><circle r="12.5" cx="12.5" cy="12.5" class="cell_$ne$REF.v:21$4"/><line x1="7.5" x2="17.5" y1="10" y2="10" class="cell_$ne$REF.v:21$4"/><line x1="7.5" x2="17.5" y1="15" y2="15" class="cell_$ne$REF.v:21$4"/><line x1="9" x2="16" y1="18" y2="7" class="cell_$ne$REF.v:21$4"/><g s:x="2" s:y="5" s:pid="A"/><g s:x="2" s:y="20" s:pid="B"/><g s:x="25" s:y="12.5" s:pid="Y"/></g><g s:type="not" class="combinational" transform="translate(203,299)" s:width="30" s:height="20" id="cell_$not$REF.v:33$9"><s:alias val="$_NOT_"/><s:alias val="$not"/><s:alias val="$logic_not"/><path d="M0,0 L0,20 L20,10 Z" class="cell_$not$REF.v:33$9"/><circle cx="24" cy="10" r="3" class="invert"/><g s:x="-1" s:y="10" s:pid="A"/><g s:x="27" s:y="10" s:pid="Y"/></g><g s:type="dff" class="state" transform="translate(749,482)" s:width="30" s:height="40" id="cell_$procdff$35"><s:alias val="$dff"/><s:alias val="$_DFF_"/><s:alias val="$_DFF_P_"/><s:alias val="$adff"/><s:alias val="$_DFF_"/><s:alias val="$_DFF_P_"/><s:alias val="$sdff"/><s:alias val="$_DFF_"/><s:alias val="$_DFF_P_"/><rect width="30" height="40" x="0" y="0" class="cell_$procdff$35"/><path d="M0,35 L5,30 L0,25 Z" class="cell_$procdff$35" style="fill:#ffffff;"/><g s:x="31" s:y="10" s:pid="Q"/><g s:x="-1" s:y="30" s:pid="CLK"/><g s:x="-1" s:y="30" s:pid="C"/><g s:x="-1" s:y="10" s:pid="D"/><g s:x="15" s:y="40" s:pid="ARST"/><g s:x="15" s:y="40" s:pid="SRST"/></g><g s:type="dff" class="state" transform="translate(421,228)" s:width="30" s:height="40" id="cell_$procdff$36"><s:alias val="$dff"/><s:alias val="$_DFF_"/><s:alias val="$_DFF_P_"/><s:alias val="$adff"/><s:alias val="$_DFF_"/><s:alias val="$_DFF_P_"/><s:alias val="$sdff"/><s:alias val="$_DFF_"/><s:alias val="$_DFF_P_"/><rect width="30" height="40" x="0" y="0" class="cell_$procdff$36"/><path d="M0,35 L5,30 L0,25 Z" class="cell_$procdff$36" style="fill:#ffffff;"/><g s:x="31" s:y="10" s:pid="Q"/><g s:x="-1" s:y="30" s:pid="CLK"/><g s:x="-1" s:y="30" s:pid="C"/><g s:x="-1" s:y="10" s:pid="D"/><g s:x="15" s:y="40" s:pid="ARST"/><g s:x="15" s:y="40" s:pid="SRST"/></g><g s:type="dff-bus" class="state" transform="translate(83,107)" s:width="34" s:height="44" id="cell_$procdff$37"><s:alias val="$dff-bus"/><s:alias val="$_DFF_-bus"/><s:alias val="$_DFF_P_-bus"/><s:alias val="adff-bus"/><s:alias val="$adff-bus"/><s:alias val="$_DFF_-bus"/><s:alias val="$_DFF_P_-bus"/><s:alias val="sdff-bus"/><s:alias val="$sdff-bus"/><s:alias val="$_DFF_-bus"/><s:alias val="$_DFF_P_-bus"/><rect width="30" height="40" x="0" y="0" stroke="none" transform="translate(4,4)" style="filter:brightness(0.7);" class="cell_$procdff$37"/><path d="M32,4 L34,4 L34,44 L4,44 L4,42" class="cell_$procdff$37"/><rect width="30" height="40" x="0" y="0" stroke="none" transform="translate(2,2)" style="filter:brightness(0.7)" class="cell_$procdff$37"/><path d="M30,2 L32,2 L32,42 L2,42 L2,40" class="cell_$procdff$37" style=""/><rect width="30" height="40" x="0" y="0" class="cell_$procdff$37"/><path d="M0,35 L5,30 L0,25 Z" class="cell_$procdff$37" style="fill:#ffffff;"/><g s:x="35" s:y="10" s:pid="Q"/><g s:x="-1" s:y="30" s:pid="CLK"/><g s:x="-1" s:y="30" s:pid="C"/><g s:x="-1" s:y="10" s:pid="D"/><g s:x="17" s:y="44" s:pid="ARST"/><g s:x="17" s:y="44" s:pid="SRST"/></g><g s:type="mux" class="combinational" transform="translate(622.5,370)" s:width="20" s:height="40" id="cell_$procmux$15"><s:alias val="$pmux"/><s:alias val="$mux"/><s:alias val="$_MUX_"/><path d="M0,0 L20,10 L20,30 L0,40 Z" class="cell_$procmux$15"/><text x="5" y="32" class="nodelabel cell_$procmux$15" s:attribute="">1</text><text x="5" y="13" class="nodelabel cell_$procmux$15" s:attribute="">0</text><g s:x="0" s:y="10" s:pid="A"/><g s:x="0" s:y="30" s:pid="B"/><g s:x="10" s:y="35" s:pid="S"/><g s:x="20" s:y="20" s:pid="Y"/></g><g s:type="mux" class="combinational" transform="translate(684.6666666666666,360)" s:width="20" s:height="40" id="cell_$procmux$18"><s:alias val="$pmux"/><s:alias val="$mux"/><s:alias val="$_MUX_"/><path d="M0,0 L20,10 L20,30 L0,40 Z" class="cell_$procmux$18"/><text x="5" y="32" class="nodelabel cell_$procmux$18" s:attribute="">1</text><text x="5" y="13" class="nodelabel cell_$procmux$18" s:attribute="">0</text><g s:x="0" s:y="10" s:pid="A"/><g s:x="0" s:y="30" s:pid="B"/><g s:x="10" s:y="35" s:pid="S"/><g s:x="20" s:y="20" s:pid="Y"/></g><g s:type="mux" class="combinational" transform="translate(281.6666666666667,228)" s:width="20" s:height="40" id="cell_$procmux$21"><s:alias val="$pmux"/><s:alias val="$mux"/><s:alias val="$_MUX_"/><path d="M0,0 L20,10 L20,30 L0,40 Z" class="cell_$procmux$21"/><text x="5" y="32" class="nodelabel cell_$procmux$21" s:attribute="">1</text><text x="5" y="13" class="nodelabel cell_$procmux$21" s:attribute="">0</text><g s:x="0" s:y="10" s:pid="A"/><g s:x="0" s:y="30" s:pid="B"/><g s:x="10" s:y="35" s:pid="S"/><g s:x="20" s:y="20" s:pid="Y"/></g><g s:type="mux" class="combinational" transform="translate(352.6666666666667,218)" s:width="20" s:height="40" id="cell_$procmux$24"><s:alias val="$pmux"/><s:alias val="$mux"/><s:alias val="$_MUX_"/><path d="M0,0 L20,10 L20,30 L0,40 Z" class="cell_$procmux$24"/><text x="5" y="32" class="nodelabel cell_$procmux$24" s:attribute="">1</text><text x="5" y="13" class="nodelabel cell_$procmux$24" s:attribute="">0</text><g s:x="0" s:y="10" s:pid="A"/><g s:x="0" s:y="30" s:pid="B"/><g s:x="10" s:y="35" s:pid="S"/><g s:x="20" s:y="20" s:pid="Y"/></g><g s:type="mux-bus" class="combinational" transform="translate(558,62)" s:width="24" s:height="40" id="cell_$procmux$27"><s:alias val="$pmux-bus"/><s:alias val="$mux-bus"/><s:alias val="$_MUX_-bus"/><path d="M8,2 L8,0 L24,8 L24,32 L8,40 L8,38" style="filter:brightness(0.7)" class="cell_$procmux$27"/><path d="M4,2 L4,0 L22,9 L22,31 L4,40 L4,38" style="filter:brightness(0.7)" class="cell_$procmux$27"/><path d="M0,0 L20,10 L20,30 L0,40 Z" class="cell_$procmux$27"/><text x="5" y="32" class="nodelabel cell_$procmux$178" s:attribute="">1</text><text x="5" y="13" class="nodelabel cell_$procmux$178" s:attribute="">0</text><g s:x="-1" s:y="10" s:pid="A"/><g s:x="-1" s:y="30" s:pid="B"/><g s:x="12" s:y="38" s:pid="S"/><g s:x="24.5" s:y="20" s:pid="Y"/></g><g s:type="mux-bus" class="combinational" transform="translate(683.5,72)" s:width="24" s:height="40" id="cell_$procmux$30"><s:alias val="$pmux-bus"/><s:alias val="$mux-bus"/><s:alias val="$_MUX_-bus"/><path d="M8,2 L8,0 L24,8 L24,32 L8,40 L8,38" style="filter:brightness(0.7)" class="cell_$procmux$30"/><path d="M4,2 L4,0 L22,9 L22,31 L4,40 L4,38" style="filter:brightness(0.7)" class="cell_$procmux$30"/><path d="M0,0 L20,10 L20,30 L0,40 Z" class="cell_$procmux$30"/><text x="5" y="32" class="nodelabel cell_$procmux$178" s:attribute="">1</text><text x="5" y="13" class="nodelabel cell_$procmux$178" s:attribute="">0</text><g s:x="-1" s:y="10" s:pid="A"/><g s:x="-1" s:y="30" s:pid="B"/><g s:x="12" s:y="38" s:pid="S"/><g s:x="24.5" s:y="20" s:pid="Y"/></g><g s:type="mux-bus" class="combinational" transform="translate(821,26)" s:width="24" s:height="40" id="cell_$procmux$33"><s:alias val="$pmux-bus"/><s:alias val="$mux-bus"/><s:alias val="$_MUX_-bus"/><path d="M8,2 L8,0 L24,8 L24,32 L8,40 L8,38" style="filter:brightness(0.7)" class="cell_$procmux$33"/><path d="M4,2 L4,0 L22,9 L22,31 L4,40 L4,38" style="filter:brightness(0.7)" class="cell_$procmux$33"/><path d="M0,0 L20,10 L20,30 L0,40 Z" class="cell_$procmux$33"/><text x="5" y="32" class="nodelabel cell_$procmux$178" s:attribute="">1</text><text x="5" y="13" class="nodelabel cell_$procmux$178" s:attribute="">0</text><g s:x="-1" s:y="10" s:pid="A"/><g s:x="-1" s:y="30" s:pid="B"/><g s:x="12" s:y="38" s:pid="S"/><g s:x="24.5" s:y="20" s:pid="Y"/></g><g s:type="sub" class="hierarchical" transform="translate(422.6666666666667,112)" s:width="25" s:height="25" id="cell_$sub$REF.v:22$5"><s:alias val="$sub"/><circle r="12.5" cx="12.5" cy="12.5" class="cell_$sub$REF.v:22$5"/><line x1="7.5" x2="17.5" y1="12.5" y2="12.5" class="cell_$sub$REF.v:22$5"/><g s:x="2" s:y="5" s:pid="A"/><g s:x="2" s:y="20" s:pid="B"/><g s:x="25" s:y="12.5" s:pid="Y"/></g><g s:type="inputExt" class="io" transform="translate(12,278)" s:width="30" s:height="20" id="cell_clk"><text x="15" y="-4" class="nodelabel cell_clk" s:attribute="ref">clk</text><s:alias val="$_inputExt_"/><path d="M0,0 L0,20 L15,20 L30,10 L15,0 Z" class="cell_clk"/><g s:x="30" s:y="10" s:pid="Y"/></g><g s:type="inputExt" class="io" transform="translate(273,442)" s:width="30" s:height="20" id="cell_resetn"><text x="15" y="-4" class="nodelabel cell_resetn" s:attribute="ref">resetn</text><s:alias val="$_inputExt_"/><path d="M0,0 L0,20 L15,20 L30,10 L15,0 Z" class="cell_resetn"/><g s:x="30" s:y="10" s:pid="Y"/></g><g s:type="inputExt" class="io" transform="translate(421,177)" s:width="30" s:height="20" id="cell_in"><text x="15" y="-4" class="nodelabel cell_in" s:attribute="ref">in</text><s:alias val="$_inputExt_"/><path d="M0,0 L0,20 L15,20 L30,10 L15,0 Z" class="cell_in"/><g s:x="30" s:y="10" s:pid="Y"/></g><g s:type="outputExt" class="io" transform="translate(820,482)" s:width="30" s:height="20" id="cell_out"><text x="15" y="-4" class="nodelabel cell_out" s:attribute="ref">out</text><s:alias val="$_outputExt_"/><path d="M30,0 L30,20 L15,20 L0,10 L15,0 Z" class="cell_out"/><g s:x="0" s:y="10" s:pid="A"/></g><g s:type="constant" class="io" transform="translate(273,370)" s:width="30" s:height="20" id="cell_0"><text x="15" y="-4" class="nodelabel cell_0" s:attribute="ref">0</text><s:alias val="$_constant_"/><rect width="30" height="20" class="cell_0"/><g s:x="31" s:y="10" s:pid="Y"/></g><g s:type="constant" class="io" transform="translate(421,62)" s:width="30" s:height="20" id="cell_10011"><text x="15" y="-4" class="nodelabel cell_10011" s:attribute="ref">0x13</text><s:alias val="$_constant_"/><rect width="30" height="20" class="cell_10011"/><g s:x="31" s:y="10" s:pid="Y"/></g><g s:type="constant" class="io" transform="translate(349,138)" s:width="30" s:height="20" id="cell_1"><text x="15" y="-4" class="nodelabel cell_1" s:attribute="ref">1</text><s:alias val="$_constant_"/><rect width="30" height="20" class="cell_1"/><g s:x="31" s:y="10" s:pid="Y"/></g><line x1="118" x2="138" y1="117" y2="117" class="net_6,7,8,9,10 width_5" style="stroke-width: 2"/><line x1="138" x2="138" y1="117" y2="349" class="net_6,7,8,9,10 width_5" style="stroke-width: 2"/><circle cx="138" cy="117" r="3" style="fill:#000" class="net_6,7,8,9,10 width_5"/><line x1="138" x2="202" y1="349" y2="349" class="net_6,7,8,9,10 width_5" style="stroke-width: 2"/><line x1="118" x2="424.6666666666667" y1="117" y2="117" class="net_6,7,8,9,10 width_5" style="stroke-width: 2"/><line x1="451" x2="494" y1="187" y2="187" class="net_4 width_1" style="stroke-width: 1"/><line x1="452" x2="462" y1="238" y2="238" class="net_12 width_1" style="stroke-width: 1"/><line x1="462" x2="462" y1="238" y2="202" class="net_12 width_1" style="stroke-width: 1"/><line x1="462" x2="494" y1="202" y2="202" class="net_12 width_1" style="stroke-width: 1"/><line x1="452" x2="462" y1="238" y2="238" class="net_12 width_1" style="stroke-width: 1"/><line x1="462" x2="462" y1="238" y2="329" class="net_12 width_1" style="stroke-width: 1"/><line x1="462" x2="172" y1="329" y2="329" class="net_12 width_1" style="stroke-width: 1"/><line x1="172" x2="172" y1="329" y2="309" class="net_12 width_1" style="stroke-width: 1"/><line x1="172" x2="202" y1="309" y2="309" class="net_12 width_1" style="stroke-width: 1"/><line x1="452" x2="462" y1="238" y2="238" class="net_12 width_1" style="stroke-width: 1"/><line x1="462" x2="462" y1="238" y2="207" class="net_12 width_1" style="stroke-width: 1"/><line x1="462" x2="253" y1="207" y2="207" class="net_12 width_1" style="stroke-width: 1"/><line x1="253" x2="253" y1="207" y2="238" class="net_12 width_1" style="stroke-width: 1"/><circle cx="462" cy="207" r="2" style="fill:#000" class="net_12 width_1"/><circle cx="462" cy="238" r="2" style="fill:#000" class="net_12 width_1"/><line x1="253" x2="281.6666666666667" y1="238" y2="238" class="net_12 width_1" style="stroke-width: 1"/><line x1="42" x2="128" y1="288" y2="288" class="net_2 width_1" style="stroke-width: 1"/><line x1="128" x2="128" y1="288" y2="512" class="net_2 width_1" style="stroke-width: 1"/><circle cx="128" cy="288" r="2" style="fill:#000" class="net_2 width_1"/><line x1="128" x2="748" y1="512" y2="512" class="net_2 width_1" style="stroke-width: 1"/><line x1="42" x2="390" y1="288" y2="288" class="net_2 width_1" style="stroke-width: 1"/><line x1="390" x2="390" y1="288" y2="258" class="net_2 width_1" style="stroke-width: 1"/><line x1="390" x2="420" y1="258" y2="258" class="net_2 width_1" style="stroke-width: 1"/><line x1="42" x2="52" y1="288" y2="288" class="net_2 width_1" style="stroke-width: 1"/><line x1="52" x2="52" y1="288" y2="137" class="net_2 width_1" style="stroke-width: 1"/><circle cx="52" cy="288" r="2" style="fill:#000" class="net_2 width_1"/><line x1="52" x2="82" y1="137" y2="137" class="net_2 width_1" style="stroke-width: 1"/><line x1="704.6666666666666" x2="718" y1="380" y2="380" class="net_15 width_1" style="stroke-width: 1"/><line x1="718" x2="718" y1="380" y2="492" class="net_15 width_1" style="stroke-width: 1"/><line x1="718" x2="748" y1="492" y2="492" class="net_15 width_1" style="stroke-width: 1"/><line x1="372.6666666666667" x2="420" y1="238" y2="238" class="net_16 width_1" style="stroke-width: 1"/><line x1="845.5" x2="860" y1="46" y2="46" class="net_17,18,19,20,21 width_5" style="stroke-width: 2"/><line x1="860" x2="860" y1="46" y2="16" class="net_17,18,19,20,21 width_5" style="stroke-width: 2"/><line x1="860" x2="52" y1="16" y2="16" class="net_17,18,19,20,21 width_5" style="stroke-width: 2"/><line x1="52" x2="52" y1="16" y2="117" class="net_17,18,19,20,21 width_5" style="stroke-width: 2"/><line x1="52" x2="82" y1="117" y2="117" class="net_17,18,19,20,21 width_5" style="stroke-width: 2"/><line x1="304" x2="622.5" y1="380" y2="380" class="net_39 width_1" style="stroke-width: 1"/><line x1="304" x2="319" y1="380" y2="380" class="net_39 width_1" style="stroke-width: 1"/><line x1="319" x2="319" y1="380" y2="431" class="net_39 width_1" style="stroke-width: 1"/><line x1="319" x2="652.5" y1="431" y2="431" class="net_39 width_1" style="stroke-width: 1"/><line x1="652.5" x2="652.5" y1="431" y2="370" class="net_39 width_1" style="stroke-width: 1"/><circle cx="319" cy="380" r="2" style="fill:#000" class="net_39 width_1"/><line x1="652.5" x2="684.6666666666666" y1="370" y2="370" class="net_39 width_1" style="stroke-width: 1"/><line x1="304" x2="319" y1="380" y2="380" class="net_39 width_1" style="stroke-width: 1"/><line x1="319" x2="319" y1="380" y2="228" class="net_39 width_1" style="stroke-width: 1"/><line x1="319" x2="352.6666666666667" y1="228" y2="228" class="net_39 width_1" style="stroke-width: 1"/><line x1="230" x2="243" y1="309" y2="309" class="net_14 width_1" style="stroke-width: 1"/><line x1="243" x2="243" y1="309" y2="400" class="net_14 width_1" style="stroke-width: 1"/><circle cx="243" cy="309" r="2" style="fill:#000" class="net_14 width_1"/><line x1="243" x2="622.5" y1="400" y2="400" class="net_14 width_1" style="stroke-width: 1"/><line x1="230" x2="243" y1="309" y2="309" class="net_14 width_1" style="stroke-width: 1"/><line x1="243" x2="243" y1="309" y2="258" class="net_14 width_1" style="stroke-width: 1"/><line x1="243" x2="281.6666666666667" y1="258" y2="258" class="net_14 width_1" style="stroke-width: 1"/><line x1="230" x2="253" y1="349" y2="349" class="net_11 width_1" style="stroke-width: 1"/><line x1="253" x2="253" y1="349" y2="420" class="net_11 width_1" style="stroke-width: 1"/><line x1="253" x2="632.5" y1="420" y2="420" class="net_11 width_1" style="stroke-width: 1"/><circle cx="253" cy="349" r="2" style="fill:#000" class="net_11 width_1"/><line x1="632.5" x2="632.5" y1="420" y2="405" class="net_11 width_1" style="stroke-width: 1"/><line x1="230" x2="253" y1="349" y2="349" class="net_11 width_1" style="stroke-width: 1"/><line x1="253" x2="253" y1="349" y2="278" class="net_11 width_1" style="stroke-width: 1"/><line x1="253" x2="291.6666666666667" y1="278" y2="278" class="net_11 width_1" style="stroke-width: 1"/><line x1="291.6666666666667" x2="291.6666666666667" y1="278" y2="263" class="net_11 width_1" style="stroke-width: 1"/><line x1="230" x2="695.5" y1="349" y2="349" class="net_11 width_1" style="stroke-width: 1"/><line x1="695.5" x2="695.5" y1="349" y2="110" class="net_11 width_1" style="stroke-width: 1"/><line x1="642.5" x2="684.6666666666666" y1="390" y2="390" class="net_22 width_1" style="stroke-width: 1"/><line x1="303" x2="694.6666666666666" y1="452" y2="452" class="net_3 width_1" style="stroke-width: 1"/><line x1="694.6666666666666" x2="694.6666666666666" y1="452" y2="395" class="net_3 width_1" style="stroke-width: 1"/><line x1="303" x2="319" y1="452" y2="452" class="net_3 width_1" style="stroke-width: 1"/><line x1="319" x2="319" y1="452" y2="442" class="net_3 width_1" style="stroke-width: 1"/><line x1="319" x2="362.6666666666667" y1="442" y2="442" class="net_3 width_1" style="stroke-width: 1"/><circle cx="319" cy="452" r="2" style="fill:#000" class="net_3 width_1"/><line x1="362.6666666666667" x2="362.6666666666667" y1="442" y2="253" class="net_3 width_1" style="stroke-width: 1"/><line x1="303" x2="652.5" y1="452" y2="452" class="net_3 width_1" style="stroke-width: 1"/><line x1="652.5" x2="652.5" y1="452" y2="462" class="net_3 width_1" style="stroke-width: 1"/><line x1="652.5" x2="833" y1="462" y2="462" class="net_3 width_1" style="stroke-width: 1"/><circle cx="652.5" cy="452" r="2" style="fill:#000" class="net_3 width_1"/><line x1="833" x2="833" y1="462" y2="64" class="net_3 width_1" style="stroke-width: 1"/><line x1="301.6666666666667" x2="352.6666666666667" y1="248" y2="248" class="net_23 width_1" style="stroke-width: 1"/><line x1="452" x2="557" y1="72" y2="72" class="net_42,43,44,45,46 width_5" style="stroke-width: 2"/><line x1="452" x2="462" y1="72" y2="72" class="net_42,43,44,45,46 width_5" style="stroke-width: 2"/><line x1="462" x2="462" y1="72" y2="141.5" class="net_42,43,44,45,46 width_5" style="stroke-width: 2"/><line x1="462" x2="652.5" y1="141.5" y2="141.5" class="net_42,43,44,45,46 width_5" style="stroke-width: 2"/><line x1="652.5" x2="652.5" y1="141.5" y2="102" class="net_42,43,44,45,46 width_5" style="stroke-width: 2"/><circle cx="462" cy="72" r="3" style="fill:#000" class="net_42,43,44,45,46 width_5"/><line x1="652.5" x2="682.5" y1="102" y2="102" class="net_42,43,44,45,46 width_5" style="stroke-width: 2"/><line x1="452" x2="462" y1="72" y2="72" class="net_42,43,44,45,46 width_5" style="stroke-width: 2"/><line x1="462" x2="462" y1="72" y2="36" class="net_42,43,44,45,46 width_5" style="stroke-width: 2"/><line x1="462" x2="820" y1="36" y2="36" class="net_42,43,44,45,46 width_5" style="stroke-width: 2"/><line x1="447.6666666666667" x2="527" y1="124.5" y2="124.5" class="net_24,25,26,27,28 width_5" style="stroke-width: 2"/><line x1="527" x2="527" y1="124.5" y2="92" class="net_24,25,26,27,28 width_5" style="stroke-width: 2"/><line x1="527" x2="557" y1="92" y2="92" class="net_24,25,26,27,28 width_5" style="stroke-width: 2"/><line x1="517" x2="570" y1="194.5" y2="194.5" class="net_13 width_1" style="stroke-width: 1"/><line x1="570" x2="570" y1="194.5" y2="100" class="net_13 width_1" style="stroke-width: 1"/><line x1="582.5" x2="682.5" y1="82" y2="82" class="net_29,30,31,32,33 width_5" style="stroke-width: 2"/><line x1="708" x2="790" y1="92" y2="92" class="net_34,35,36,37,38 width_5" style="stroke-width: 2"/><line x1="790" x2="790" y1="92" y2="56" class="net_34,35,36,37,38 width_5" style="stroke-width: 2"/><line x1="790" x2="820" y1="56" y2="56" class="net_34,35,36,37,38 width_5" style="stroke-width: 2"/><line x1="380" x2="390" y1="148" y2="148" class="net_57 width_1" style="stroke-width: 1"/><line x1="390" x2="390" y1="148" y2="132" class="net_57 width_1" style="stroke-width: 1"/><line x1="390" x2="424.6666666666667" y1="132" y2="132" class="net_57 width_1" style="stroke-width: 1"/><line x1="780" x2="820" y1="492" y2="492" class="net_5 width_1" style="stroke-width: 1"/><rect x="216.5" y="112" width="16" height="9" class="net_6,7,8,9,10 width_5 busLabel_5" style="fill: white; stroke: none"/><text x="215.5" y="120" class="net_6,7,8,9,10 width_5 busLabel_5">/5/</text><rect x="216.5" y="112" width="16" height="9" class="net_6,7,8,9,10 width_5 busLabel_5" style="fill: white; stroke: none"/><text x="215.5" y="120" class="net_6,7,8,9,10 width_5 busLabel_5">/5/</text><rect x="435" y="11" width="16" height="9" class="net_17,18,19,20,21 width_5 busLabel_5" style="fill: white; stroke: none"/><text x="434" y="19" class="net_17,18,19,20,21 width_5 busLabel_5">/5/</text><rect x="631.5" y="31" width="16" height="9" class="net_42,43,44,45,46 width_5 busLabel_5" style="fill: white; stroke: none"/><text x="630.5" y="39" class="net_42,43,44,45,46 width_5 busLabel_5">/5/</text><rect x="631.5" y="31" width="16" height="9" class="net_42,43,44,45,46 width_5 busLabel_5" style="fill: white; stroke: none"/><text x="630.5" y="39" class="net_42,43,44,45,46 width_5 busLabel_5">/5/</text><rect x="631.5" y="31" width="16" height="9" class="net_42,43,44,45,46 width_5 busLabel_5" style="fill: white; stroke: none"/><text x="630.5" y="39" class="net_42,43,44,45,46 width_5 busLabel_5">/5/</text><rect x="503.5" y="119.5" width="16" height="9" class="net_24,25,26,27,28 width_5 busLabel_5" style="fill: white; stroke: none"/><text x="502.5" y="127.5" class="net_24,25,26,27,28 width_5 busLabel_5">/5/</text><rect x="631.5" y="77" width="16" height="9" class="net_29,30,31,32,33 width_5 busLabel_5" style="fill: white; stroke: none"/><text x="630.5" y="85" class="net_29,30,31,32,33 width_5 busLabel_5">/5/</text><rect x="763" y="87" width="16" height="9" class="net_34,35,36,37,38 width_5 busLabel_5" style="fill: white; stroke: none"/><text x="762" y="95" class="net_34,35,36,37,38 width_5 busLabel_5">/5/</text></svg>