<svg xmlns="http://www.w3.org/2000/svg" xmlns:xlink="http://www.w3.org/1999/xlink" xmlns:s="https://github.com/nturley/netlistsvg" width="623" height="270"><style>  svg {
    stroke:#000;
    fill:none;
  }
  text {
    fill:#000;
    fill-opacity:1.0;
    stroke:none;
    font-size:10px;
    font-weight: bold;
    font-family: "Courier New", monospace;
  }
  line {
      stroke-linecap: round;
  }
  .nodelabel {
    text-anchor: middle;
  }
  .inputPortLabel {
    text-anchor: end;
  }
  .splitjoinBody {
    fill:#000;
  }
  .invert {
    fill:#ff9999;
    fill-opacity:1.0;
  }
  .combinational {
    fill:#afecef;
    fill-opacity:1.0;
  }
  .state {
    fill:#def1b2;
    fill-opacity:1.0;
  }
  .hierarchical {
    fill:#ffd8b2;
    fill-opacity:1.0;
  }
  .io {
    fill:#fcffb2;
    fill-opacity:1.0;
  }</style><g s:type="dff-bus" class="state" transform="translate(542,169)" s:width="34" s:height="44" id="cell_$procdff$13"><s:alias val="$dff-bus"/><s:alias val="$_DFF_-bus"/><s:alias val="$_DFF_P_-bus"/><s:alias val="adff-bus"/><s:alias val="$adff-bus"/><s:alias val="$_DFF_-bus"/><s:alias val="$_DFF_P_-bus"/><s:alias val="sdff-bus"/><s:alias val="$sdff-bus"/><s:alias val="$_DFF_-bus"/><s:alias val="$_DFF_P_-bus"/><rect width="30" height="40" x="0" y="0" stroke="none" transform="translate(4,4)" style="filter:brightness(0.7);" class="cell_$procdff$13"/><path d="M32,4 L34,4 L34,44 L4,44 L4,42" class="cell_$procdff$13"/><rect width="30" height="40" x="0" y="0" stroke="none" transform="translate(2,2)" style="filter:brightness(0.7)" class="cell_$procdff$13"/><path d="M30,2 L32,2 L32,42 L2,42 L2,40" class="cell_$procdff$13" style=""/><rect width="30" height="40" x="0" y="0" class="cell_$procdff$13"/><path d="M0,35 L5,30 L0,25 Z" class="cell_$procdff$13" style="fill:#ffffff;"/><g s:x="35" s:y="10" s:pid="Q"/><g s:x="-1" s:y="30" s:pid="CLK"/><g s:x="-1" s:y="30" s:pid="C"/><g s:x="-1" s:y="10" s:pid="D"/><g s:x="17" s:y="44" s:pid="ARST"/><g s:x="17" s:y="44" s:pid="SRST"/></g><g s:type="mux" class="combinational" transform="translate(373,93)" s:width="20" s:height="40" id="cell_$procmux$11"><s:alias val="$pmux"/><s:alias val="$mux"/><s:alias val="$_MUX_"/><path d="M0,0 L20,10 L20,30 L0,40 Z" class="cell_$procmux$11"/><text x="5" y="32" class="nodelabel cell_$procmux$11" s:attribute="">1</text><text x="5" y="13" class="nodelabel cell_$procmux$11" s:attribute="">0</text><g s:x="0" s:y="10" s:pid="A"/><g s:x="0" s:y="30" s:pid="B"/><g s:x="10" s:y="35" s:pid="S"/><g s:x="20" s:y="20" s:pid="Y"/></g><g s:type="mux-bus" class="combinational" transform="translate(154.66666666666666,98)" s:width="24" s:height="40" id="cell_$procmux$3"><s:alias val="$pmux-bus"/><s:alias val="$mux-bus"/><s:alias val="$_MUX_-bus"/><path d="M8,2 L8,0 L24,8 L24,32 L8,40 L8,38" style="filter:brightness(0.7)" class="cell_$procmux$3"/><path d="M4,2 L4,0 L22,9 L22,31 L4,40 L4,38" style="filter:brightness(0.7)" class="cell_$procmux$3"/><path d="M0,0 L20,10 L20,30 L0,40 Z" class="cell_$procmux$3"/><text x="5" y="32" class="nodelabel cell_$procmux$178" s:attribute="">1</text><text x="5" y="13" class="nodelabel cell_$procmux$178" s:attribute="">0</text><g s:x="-1" s:y="10" s:pid="A"/><g s:x="-1" s:y="30" s:pid="B"/><g s:x="12" s:y="38" s:pid="S"/><g s:x="24.5" s:y="20" s:pid="Y"/></g><g s:type="mux-bus" class="combinational" transform="translate(309.6666666666667,148)" s:width="24" s:height="40" id="cell_$procmux$6"><s:alias val="$pmux-bus"/><s:alias val="$mux-bus"/><s:alias val="$_MUX_-bus"/><path d="M8,2 L8,0 L24,8 L24,32 L8,40 L8,38" style="filter:brightness(0.7)" class="cell_$procmux$6"/><path d="M4,2 L4,0 L22,9 L22,31 L4,40 L4,38" style="filter:brightness(0.7)" class="cell_$procmux$6"/><path d="M0,0 L20,10 L20,30 L0,40 Z" class="cell_$procmux$6"/><text x="5" y="32" class="nodelabel cell_$procmux$178" s:attribute="">1</text><text x="5" y="13" class="nodelabel cell_$procmux$178" s:attribute="">0</text><g s:x="-1" s:y="10" s:pid="A"/><g s:x="-1" s:y="30" s:pid="B"/><g s:x="12" s:y="38" s:pid="S"/><g s:x="24.5" s:y="20" s:pid="Y"/></g><g s:type="mux" class="combinational" transform="translate(311,37)" s:width="20" s:height="40" id="cell_$procmux$8"><s:alias val="$pmux"/><s:alias val="$mux"/><s:alias val="$_MUX_"/><path d="M0,0 L20,10 L20,30 L0,40 Z" class="cell_$procmux$8"/><text x="5" y="32" class="nodelabel cell_$procmux$8" s:attribute="">1</text><text x="5" y="13" class="nodelabel cell_$procmux$8" s:attribute="">0</text><g s:x="0" s:y="10" s:pid="A"/><g s:x="0" s:y="30" s:pid="B"/><g s:x="10" s:y="35" s:pid="S"/><g s:x="20" s:y="20" s:pid="Y"/></g><g s:type="inputExt" class="io" transform="translate(476,189)" s:width="30" s:height="20" id="cell_clk"><text x="15" y="-4" class="nodelabel cell_clk" s:attribute="ref">clk</text><s:alias val="$_inputExt_"/><path d="M0,0 L0,20 L15,20 L30,10 L15,0 Z" class="cell_clk"/><g s:x="30" s:y="10" s:pid="Y"/></g><g s:type="inputExt" class="io" transform="translate(218,218)" s:width="30" s:height="20" id="cell_reset"><text x="15" y="-4" class="nodelabel cell_reset" s:attribute="ref">reset</text><s:alias val="$_inputExt_"/><path d="M0,0 L0,20 L15,20 L30,10 L15,0 Z" class="cell_reset"/><g s:x="30" s:y="10" s:pid="Y"/></g><g s:type="inputExt" class="io" transform="translate(81,77)" s:width="30" s:height="20" id="cell_enable"><text x="15" y="-4" class="nodelabel cell_enable" s:attribute="ref">enable</text><s:alias val="$_inputExt_"/><path d="M0,0 L0,20 L15,20 L30,10 L15,0 Z" class="cell_enable"/><g s:x="30" s:y="10" s:pid="Y"/></g><g s:type="inputExt" class="io" transform="translate(218,57)" s:width="30" s:height="20" id="cell_serial_in"><text x="15" y="-4" class="nodelabel cell_serial_in" s:attribute="ref">serial_in</text><s:alias val="$_inputExt_"/><path d="M0,0 L0,20 L15,20 L30,10 L15,0 Z" class="cell_serial_in"/><g s:x="30" s:y="10" s:pid="Y"/></g><g s:type="outputExt" class="io" transform="translate(541,238)" s:width="30" s:height="20" id="cell_serial_out"><text x="15" y="-4" class="nodelabel cell_serial_out" s:attribute="ref">serial_out</text><s:alias val="$_outputExt_"/><path d="M30,0 L30,20 L15,20 L0,10 L15,0 Z" class="cell_serial_out"/><g s:x="0" s:y="10" s:pid="A"/></g><g s:type="constant" class="io" transform="translate(307,113)" s:width="30" s:height="20" id="cell_0"><text x="15" y="-4" class="nodelabel cell_0" s:attribute="ref">0</text><s:alias val="$_constant_"/><rect width="30" height="20" class="cell_0"/><g s:x="31" s:y="10" s:pid="Y"/></g><g s:type="constant" class="io" transform="translate(152,168)" s:width="30" s:height="20" id="cell_0000000"><text x="15" y="-4" class="nodelabel cell_0000000" s:attribute="ref">0x0</text><s:alias val="$_constant_"/><rect width="30" height="20" class="cell_0000000"/><g s:x="31" s:y="10" s:pid="Y"/></g><g s:type="join" class="" transform="translate(435,137.5)" s:width="4" s:height="40" id="cell_$join$,7,8,9,10,11,12,13,14,"><rect width="5" height="40" class="splitjoinBody" s:generic="body"/><s:alias val="$_join_"/><g s:x="5" s:y="20" s:pid="out"/><g transform="translate(0,10)" s:x="0" s:y="10" s:pid="in0"><text x="-3" y="-4" class="inputPortLabel">0</text></g><g transform="translate(0,30)" s:x="0" s:y="10" s:pid="in0"><text x="-3" y="-4" class="inputPortLabel">1:7</text></g></g><g s:type="split" class="" transform="translate(22,97.5)" s:width="5" s:height="40" id="cell_$split$,15,16,17,18,19,20,21,6,"><rect width="5" height="80" class="splitjoinBody" s:generic="body"/><s:alias val="$_split_"/><g s:x="0" s:y="20" s:pid="in"/><g transform="translate(4,10)" s:x="4" s:y="10" s:pid="out0"><text x="5" y="-4">1:7</text></g><g transform="translate(4,30)" s:x="4" s:y="10" s:pid="out0"><text x="5" y="-4">0:6</text></g><g transform="translate(4,50)" s:x="4" s:y="10" s:pid="out0"><text x="5" y="-4">0</text></g><g transform="translate(4,70)" s:x="4" s:y="10" s:pid="out0"><text x="5" y="-4">7</text></g></g><line x1="506" x2="541" y1="199" y2="199" class="net_2 width_1" style="stroke-width: 1"/><line x1="441" x2="516" y1="158" y2="158" class="net_7,8,9,10,11,12,13,14 width_8" style="stroke-width: 2"/><line x1="516" x2="516" y1="158" y2="179" class="net_7,8,9,10,11,12,13,14 width_8" style="stroke-width: 2"/><line x1="516" x2="541" y1="179" y2="179" class="net_7,8,9,10,11,12,13,14 width_8" style="stroke-width: 2"/><line x1="331" x2="348" y1="57" y2="57" class="net_22 width_1" style="stroke-width: 1"/><line x1="348" x2="348" y1="57" y2="103" class="net_22 width_1" style="stroke-width: 1"/><line x1="348" x2="373" y1="103" y2="103" class="net_22 width_1" style="stroke-width: 1"/><line x1="338" x2="373" y1="123" y2="123" class="net_30 width_1" style="stroke-width: 1"/><line x1="248" x2="383" y1="228" y2="228" class="net_3 width_1" style="stroke-width: 1"/><line x1="383" x2="383" y1="228" y2="128" class="net_3 width_1" style="stroke-width: 1"/><line x1="248" x2="282" y1="228" y2="228" class="net_3 width_1" style="stroke-width: 1"/><line x1="282" x2="282" y1="228" y2="218" class="net_3 width_1" style="stroke-width: 1"/><line x1="282" x2="321.6666666666667" y1="218" y2="218" class="net_3 width_1" style="stroke-width: 1"/><circle cx="282" cy="228" r="2" style="fill:#000" class="net_3 width_1"/><line x1="321.6666666666667" x2="321.6666666666667" y1="218" y2="186" class="net_3 width_1" style="stroke-width: 1"/><line x1="27" x2="66" y1="108" y2="108" class="net_16,17,18,19,20,21,6 width_7" style="stroke-width: 2"/><line x1="66" x2="66" y1="108" y2="46" class="net_16,17,18,19,20,21,6 width_7" style="stroke-width: 2"/><line x1="66" x2="137" y1="46" y2="46" class="net_16,17,18,19,20,21,6 width_7" style="stroke-width: 2"/><line x1="137" x2="137" y1="46" y2="108" class="net_16,17,18,19,20,21,6 width_7" style="stroke-width: 2"/><line x1="137" x2="153.66666666666666" y1="108" y2="108" class="net_16,17,18,19,20,21,6 width_7" style="stroke-width: 2"/><line x1="27" x2="153.66666666666666" y1="128" y2="128" class="net_15,16,17,18,19,20,21 width_7" style="stroke-width: 2"/><line x1="111" x2="127" y1="87" y2="87" class="net_4 width_1" style="stroke-width: 1"/><line x1="127" x2="127" y1="87" y2="148" class="net_4 width_1" style="stroke-width: 1"/><line x1="127" x2="166.66666666666666" y1="148" y2="148" class="net_4 width_1" style="stroke-width: 1"/><circle cx="127" cy="87" r="2" style="fill:#000" class="net_4 width_1"/><line x1="166.66666666666666" x2="166.66666666666666" y1="148" y2="136" class="net_4 width_1" style="stroke-width: 1"/><line x1="111" x2="321" y1="87" y2="87" class="net_4 width_1" style="stroke-width: 1"/><line x1="321" x2="321" y1="87" y2="72" class="net_4 width_1" style="stroke-width: 1"/><line x1="179.16666666666666" x2="282" y1="118" y2="118" class="net_23,24,25,26,27,28,29 width_7" style="stroke-width: 2"/><line x1="282" x2="282" y1="118" y2="158" class="net_23,24,25,26,27,28,29 width_7" style="stroke-width: 2"/><line x1="282" x2="308.6666666666667" y1="158" y2="158" class="net_23,24,25,26,27,28,29 width_7" style="stroke-width: 2"/><line x1="183" x2="308.6666666666667" y1="178" y2="178" class="net_31,32,33,34,35,36,37 width_7" style="stroke-width: 2"/><line x1="27" x2="56" y1="148" y2="148" class="net_15 width_1" style="stroke-width: 1"/><line x1="56" x2="56" y1="148" y2="31" class="net_15 width_1" style="stroke-width: 1"/><line x1="56" x2="282" y1="31" y2="31" class="net_15 width_1" style="stroke-width: 1"/><line x1="282" x2="282" y1="31" y2="47" class="net_15 width_1" style="stroke-width: 1"/><line x1="282" x2="311" y1="47" y2="47" class="net_15 width_1" style="stroke-width: 1"/><line x1="248" x2="311" y1="67" y2="67" class="net_5 width_1" style="stroke-width: 1"/><line x1="27" x2="56" y1="168" y2="168" class="net_6 width_1" style="stroke-width: 1"/><line x1="56" x2="56" y1="168" y2="248" class="net_6 width_1" style="stroke-width: 1"/><line x1="56" x2="541" y1="248" y2="248" class="net_6 width_1" style="stroke-width: 1"/><line x1="393" x2="403" y1="113" y2="113" class="net_7 width_1" style="stroke-width: 1"/><line x1="403" x2="403" y1="113" y2="148" class="net_7 width_1" style="stroke-width: 1"/><line x1="403" x2="435" y1="148" y2="148" class="net_7 width_1" style="stroke-width: 1"/><line x1="334.1666666666667" x2="435" y1="168" y2="168" class="net_8,9,10,11,12,13,14 width_7" style="stroke-width: 2"/><line x1="577" x2="611" y1="179" y2="179" class="net_15,16,17,18,19,20,21,6 width_8" style="stroke-width: 2"/><line x1="611" x2="611" y1="179" y2="16" class="net_15,16,17,18,19,20,21,6 width_8" style="stroke-width: 2"/><line x1="611" x2="12" y1="16" y2="16" class="net_15,16,17,18,19,20,21,6 width_8" style="stroke-width: 2"/><line x1="12" x2="12" y1="16" y2="118" class="net_15,16,17,18,19,20,21,6 width_8" style="stroke-width: 2"/><line x1="12" x2="22" y1="118" y2="118" class="net_15,16,17,18,19,20,21,6 width_8" style="stroke-width: 2"/><rect x="490" y="153" width="16" height="9" class="net_7,8,9,10,11,12,13,14 width_8 busLabel_8" style="fill: white; stroke: none"/><text x="489" y="161" class="net_7,8,9,10,11,12,13,14 width_8 busLabel_8">/8/</text><rect x="98" y="41" width="16" height="9" class="net_16,17,18,19,20,21,6 width_7 busLabel_7" style="fill: white; stroke: none"/><text x="97" y="49" class="net_16,17,18,19,20,21,6 width_7 busLabel_7">/7/</text><rect x="98" y="123" width="16" height="9" class="net_15,16,17,18,19,20,21 width_7 busLabel_7" style="fill: white; stroke: none"/><text x="97" y="131" class="net_15,16,17,18,19,20,21 width_7 busLabel_7">/7/</text><rect x="244" y="113" width="16" height="9" class="net_23,24,25,26,27,28,29 width_7 busLabel_7" style="fill: white; stroke: none"/><text x="243" y="121" class="net_23,24,25,26,27,28,29 width_7 busLabel_7">/7/</text><rect x="244" y="173" width="16" height="9" class="net_31,32,33,34,35,36,37 width_7 busLabel_7" style="fill: white; stroke: none"/><text x="243" y="181" class="net_31,32,33,34,35,36,37 width_7 busLabel_7">/7/</text><rect x="382" y="163" width="16" height="9" class="net_8,9,10,11,12,13,14 width_7 busLabel_7" style="fill: white; stroke: none"/><text x="381" y="171" class="net_8,9,10,11,12,13,14 width_7 busLabel_7">/7/</text><rect x="321.5" y="11" width="16" height="9" class="net_15,16,17,18,19,20,21,6 width_8 busLabel_8" style="fill: white; stroke: none"/><text x="320.5" y="19" class="net_15,16,17,18,19,20,21,6 width_8 busLabel_8">/8/</text></svg>