<svg xmlns="http://www.w3.org/2000/svg" xmlns:xlink="http://www.w3.org/1999/xlink" xmlns:s="https://github.com/nturley/netlistsvg" width="271" height="273"><style>  svg {
    stroke:#000;
    fill:none;
  }
  text {
    fill:#000;
    fill-opacity:1.0;
    stroke:none;
    font-size:10px;
    font-weight: bold;
    font-family: "Courier New", monospace;
  }
  line {
      stroke-linecap: round;
  }
  .nodelabel {
    text-anchor: middle;
  }
  .inputPortLabel {
    text-anchor: end;
  }
  .splitjoinBody {
    fill:#000;
  }
  .invert {
    fill:#ff9999;
    fill-opacity:1.0;
  }
  .combinational {
    fill:#afecef;
    fill-opacity:1.0;
  }
  .state {
    fill:#def1b2;
    fill-opacity:1.0;
  }
  .hierarchical {
    fill:#ffd8b2;
    fill-opacity:1.0;
  }
  .io {
    fill:#fcffb2;
    fill-opacity:1.0;
  }</style><g s:type="inputExt" class="io" transform="translate(77,22)" s:width="30" s:height="20" id="cell_a"><text x="15" y="-4" class="nodelabel cell_a" s:attribute="ref">a</text><s:alias val="$_inputExt_"/><path d="M0,0 L0,20 L15,20 L30,10 L15,0 Z" class="cell_a"/><g s:x="30" s:y="10" s:pid="Y"/></g><g s:type="inputExt" class="io" transform="translate(12,51)" s:width="30" s:height="20" id="cell_b"><text x="15" y="-4" class="nodelabel cell_b" s:attribute="ref">b</text><s:alias val="$_inputExt_"/><path d="M0,0 L0,20 L15,20 L30,10 L15,0 Z" class="cell_b"/><g s:x="30" s:y="10" s:pid="Y"/></g><g s:type="outputExt" class="io" transform="translate(229,32)" s:width="30" s:height="20" id="cell_c"><text x="15" y="-4" class="nodelabel cell_c" s:attribute="ref">c</text><s:alias val="$_outputExt_"/><path d="M30,0 L30,20 L15,20 L0,10 L15,0 Z" class="cell_c"/><g s:x="0" s:y="10" s:pid="A"/></g><g s:type="inputExt" class="io" transform="translate(12,196)" s:width="30" s:height="20" id="cell_d"><text x="15" y="-4" class="nodelabel cell_d" s:attribute="ref">d</text><s:alias val="$_inputExt_"/><path d="M0,0 L0,20 L15,20 L30,10 L15,0 Z" class="cell_d"/><g s:x="30" s:y="10" s:pid="Y"/></g><g s:type="inputExt" class="io" transform="translate(12,241)" s:width="30" s:height="20" id="cell_e"><text x="15" y="-4" class="nodelabel cell_e" s:attribute="ref">e</text><s:alias val="$_inputExt_"/><path d="M0,0 L0,20 L15,20 L30,10 L15,0 Z" class="cell_e"/><g s:x="30" s:y="10" s:pid="Y"/></g><g s:type="outputExt" class="io" transform="translate(215,206)" s:width="30" s:height="20" id="cell_f"><text x="15" y="-4" class="nodelabel cell_f" s:attribute="ref">f</text><s:alias val="$_outputExt_"/><path d="M30,0 L30,20 L15,20 L0,10 L15,0 Z" class="cell_f"/><g s:x="0" s:y="10" s:pid="A"/></g><g s:type="outputExt" class="io" transform="translate(214,101)" s:width="30" s:height="20" id="cell_g"><text x="15" y="-4" class="nodelabel cell_g" s:attribute="ref">g</text><s:alias val="$_outputExt_"/><path d="M30,0 L30,20 L15,20 L0,10 L15,0 Z" class="cell_g"/><g s:x="0" s:y="10" s:pid="A"/></g><g s:type="outputExt" class="io" transform="translate(214,146)" s:width="30" s:height="20" id="cell_h"><text x="15" y="-4" class="nodelabel cell_h" s:attribute="ref">h</text><s:alias val="$_outputExt_"/><path d="M30,0 L30,20 L15,20 L0,10 L15,0 Z" class="cell_h"/><g s:x="0" s:y="10" s:pid="A"/></g><g s:type="inputExt" class="io" transform="translate(12,111)" s:width="30" s:height="20" id="cell_i"><text x="15" y="-4" class="nodelabel cell_i" s:attribute="ref">i</text><s:alias val="$_inputExt_"/><path d="M0,0 L0,20 L15,20 L30,10 L15,0 Z" class="cell_i"/><g s:x="30" s:y="10" s:pid="Y"/></g><g s:type="join" class="" transform="translate(149,21.5)" s:width="4" s:height="40" id="cell_$join$,2,3,4,5,6,"><rect width="5" height="40" class="splitjoinBody" s:generic="body"/><s:alias val="$_join_"/><g s:x="5" s:y="20" s:pid="out"/><g transform="translate(0,10)" s:x="0" s:y="10" s:pid="in0"><text x="-3" y="-4" class="inputPortLabel">0</text></g><g transform="translate(0,30)" s:x="0" s:y="10" s:pid="in0"><text x="-3" y="-4" class="inputPortLabel">1:4</text></g></g><g s:type="join" class="" transform="translate(135,195.5)" s:width="4" s:height="40" id="cell_$join$,7,8,9,10,11,12,"><rect width="5" height="40" class="splitjoinBody" s:generic="body"/><s:alias val="$_join_"/><g s:x="5" s:y="20" s:pid="out"/><g transform="translate(0,10)" s:x="0" s:y="10" s:pid="in0"><text x="-3" y="-4" class="inputPortLabel">0:1</text></g><g transform="translate(0,30)" s:x="0" s:y="10" s:pid="in0"><text x="-3" y="-4" class="inputPortLabel">2:5</text></g></g><g s:type="split" class="" transform="translate(116,100.5)" s:width="5" s:height="40" id="cell_$split$,13,14,15,16,17,18,"><rect width="5" height="40" class="splitjoinBody" s:generic="body"/><s:alias val="$_split_"/><g s:x="0" s:y="20" s:pid="in"/><g transform="translate(4,10)" s:x="4" s:y="10" s:pid="out0"><text x="5" y="-4">0:1</text></g><g transform="translate(4,30)" s:x="4" s:y="10" s:pid="out0"><text x="5" y="-4">2:5</text></g></g><line x1="155" x2="229" y1="42" y2="42" class="net_2,3,4,5,6 width_5" style="stroke-width: 2"/><line x1="141" x2="215" y1="216" y2="216" class="net_7,8,9,10,11,12 width_6" style="stroke-width: 2"/><line x1="121" x2="214" y1="111" y2="111" class="net_13,14 width_2" style="stroke-width: 2"/><line x1="121" x2="150" y1="131" y2="131" class="net_15,16,17,18 width_4" style="stroke-width: 2"/><line x1="150" x2="150" y1="131" y2="156" class="net_15,16,17,18 width_4" style="stroke-width: 2"/><line x1="150" x2="214" y1="156" y2="156" class="net_15,16,17,18 width_4" style="stroke-width: 2"/><line x1="107" x2="149" y1="32" y2="32" class="net_2 width_1" style="stroke-width: 1"/><line x1="42" x2="117" y1="61" y2="61" class="net_3,4,5,6 width_4" style="stroke-width: 2"/><line x1="117" x2="117" y1="61" y2="52" class="net_3,4,5,6 width_4" style="stroke-width: 2"/><line x1="117" x2="149" y1="52" y2="52" class="net_3,4,5,6 width_4" style="stroke-width: 2"/><line x1="42" x2="135" y1="206" y2="206" class="net_7,8 width_2" style="stroke-width: 2"/><line x1="42" x2="91" y1="251" y2="251" class="net_9,10,11,12 width_4" style="stroke-width: 2"/><line x1="91" x2="91" y1="251" y2="226" class="net_9,10,11,12 width_4" style="stroke-width: 2"/><line x1="91" x2="135" y1="226" y2="226" class="net_9,10,11,12 width_4" style="stroke-width: 2"/><line x1="42" x2="116" y1="121" y2="121" class="net_13,14,15,16,17,18 width_6" style="stroke-width: 2"/><rect x="191" y="37" width="16" height="9" class="net_2,3,4,5,6 width_5 busLabel_5" style="fill: white; stroke: none"/><text x="190" y="45" class="net_2,3,4,5,6 width_5 busLabel_5">/5/</text><rect x="177" y="211" width="16" height="9" class="net_7,8,9,10,11,12 width_6 busLabel_6" style="fill: white; stroke: none"/><text x="176" y="219" class="net_7,8,9,10,11,12 width_6 busLabel_6">/6/</text><rect x="176" y="106" width="16" height="9" class="net_13,14 width_2 busLabel_2" style="fill: white; stroke: none"/><text x="175" y="114" class="net_13,14 width_2 busLabel_2">/2/</text><rect x="176" y="151" width="16" height="9" class="net_15,16,17,18 width_4 busLabel_4" style="fill: white; stroke: none"/><text x="175" y="159" class="net_15,16,17,18 width_4 busLabel_4">/4/</text><rect x="91" y="56" width="16" height="9" class="net_3,4,5,6 width_4 busLabel_4" style="fill: white; stroke: none"/><text x="90" y="64" class="net_3,4,5,6 width_4 busLabel_4">/4/</text><rect x="78" y="201" width="16" height="9" class="net_7,8 width_2 busLabel_2" style="fill: white; stroke: none"/><text x="77" y="209" class="net_7,8 width_2 busLabel_2">/2/</text><rect x="78" y="246" width="16" height="9" class="net_9,10,11,12 width_4 busLabel_4" style="fill: white; stroke: none"/><text x="77" y="254" class="net_9,10,11,12 width_4 busLabel_4">/4/</text><rect x="78" y="116" width="16" height="9" class="net_13,14,15,16,17,18 width_6 busLabel_6" style="fill: white; stroke: none"/><text x="77" y="124" class="net_13,14,15,16,17,18 width_6 busLabel_6">/6/</text></svg>