<?xml version="1.0" encoding="UTF-8" standalone="no"?>
<!DOCTYPE svg PUBLIC "-//W3C//DTD SVG 1.1//EN"
 "http://www.w3.org/Graphics/SVG/1.1/DTD/svg11.dtd">
<!-- Generated by graphviz version 12.2.1 (0)
 -->
<!-- Pages: 1 -->
<svg width="677pt" height="5342pt"
 viewBox="0.00 0.00 677.00 5342.00" xmlns="http://www.w3.org/2000/svg" xmlns:xlink="http://www.w3.org/1999/xlink">
<g id="graph0" class="graph" transform="scale(1 1) rotate(0) translate(4 5338)">
<polygon fill="white" stroke="none" points="-4,4 -4,-5338 673,-5338 673,4 -4,4"/>
<!-- _reset -->
<!-- 0 -->
<g id="node2" class="node">
<title>0</title>
<ellipse fill="#a2cd5a" stroke="black" cx="470" cy="-5169.5" rx="72" ry="72"/>
<ellipse fill="none" stroke="black" cx="470" cy="-5169.5" rx="76" ry="76"/>
<text text-anchor="middle" x="470" y="-5180.95" font-family="Times,serif" font-size="14.00">RESET</text>
<text text-anchor="middle" x="470" y="-5164.45" font-family="Times,serif" font-size="14.00">SDA_drive = 1&#39;b1</text>
<text text-anchor="middle" x="470" y="-5147.95" font-family="Times,serif" font-size="14.00">grab_SDA = 1&#39;b0</text>
</g>
<!-- _reset&#45;&gt;0 -->
<g id="edge1" class="edge">
<title>_reset&#45;&gt;0</title>
<path fill="none" stroke="black" d="M470,-5297.57C470,-5287.25 470,-5273.31 470,-5258.43"/>
<polygon fill="black" stroke="black" points="470,-5258.68 466,-5252.68 470,-5246.68 474,-5252.68 470,-5258.68"/>
<text text-anchor="middle" x="486.5" y="-5266.7" font-family="Times,serif" font-size="14.00"> &#160;reset</text>
</g>
<!-- 18 -->
<g id="node20" class="node">
<title>18</title>
<ellipse fill="#a2cd5a" stroke="black" cx="470" cy="-4984.5" rx="72" ry="72"/>
<text text-anchor="middle" x="470" y="-4979.45" font-family="Times,serif" font-size="14.00">IDLE</text>
</g>
<!-- 0&#45;&gt;18 -->
<g id="edge2" class="edge">
<title>0&#45;&gt;18</title>
<path fill="none" stroke="black" d="M470,-5093.01C470,-5084.91 470,-5076.64 470,-5068.47"/>
<polygon fill="black" stroke="black" points="473.5,-5068.51 470,-5058.51 466.5,-5068.51 473.5,-5068.51"/>
</g>
<!-- 1 -->
<g id="node3" class="node">
<title>1</title>
<ellipse fill="#a2cd5a" stroke="black" cx="551" cy="-1674" rx="72" ry="72"/>
<text text-anchor="middle" x="551" y="-1677.2" font-family="Times,serif" font-size="14.00">RB4</text>
<text text-anchor="middle" x="551" y="-1660.7" font-family="Times,serif" font-size="14.00">SDA_drive = mem [3]</text>
</g>
<!-- 1&#45;&gt;1 -->
<g id="edge3" class="edge">
<title>1&#45;&gt;1</title>
<path fill="none" stroke="black" d="M620.81,-1692.64C632.74,-1690.09 641,-1683.88 641,-1674 641,-1667.52 637.44,-1662.61 631.62,-1659.29"/>
<polygon fill="black" stroke="black" points="632.83,-1656 622.23,-1655.88 630.44,-1662.58 632.83,-1656"/>
</g>
<!-- 19 -->
<g id="node21" class="node">
<title>19</title>
<ellipse fill="#a2cd5a" stroke="black" cx="551" cy="-1461" rx="72" ry="72"/>
<text text-anchor="middle" x="551" y="-1464.2" font-family="Times,serif" font-size="14.00">RB3</text>
<text text-anchor="middle" x="551" y="-1447.7" font-family="Times,serif" font-size="14.00">SDA_drive = mem [2]</text>
</g>
<!-- 1&#45;&gt;19 -->
<g id="edge4" class="edge">
<title>1&#45;&gt;19</title>
<path fill="none" stroke="black" d="M551,-1601.57C551,-1583.26 551,-1563.43 551,-1544.61"/>
<polygon fill="black" stroke="black" points="554.5,-1544.87 551,-1534.87 547.5,-1544.87 554.5,-1544.87"/>
<text text-anchor="start" x="551" y="-1570.7" font-family="Times,serif" font-size="14.00"> &#160;edge_scl</text>
<text text-anchor="start" x="551" y="-1554.2" font-family="Times,serif" font-size="14.00"> &#160;&amp;&amp; &#160;!scl</text>
</g>
<!-- 2 -->
<g id="node4" class="node">
<title>2</title>
<ellipse fill="#a2cd5a" stroke="black" cx="442" cy="-3640.5" rx="72" ry="72"/>
<text text-anchor="middle" x="442" y="-3635.45" font-family="Times,serif" font-size="14.00">AB2</text>
</g>
<!-- 2&#45;&gt;2 -->
<g id="edge5" class="edge">
<title>2&#45;&gt;2</title>
<path fill="none" stroke="black" d="M511.43,-3660.67C523.56,-3657.98 532,-3651.26 532,-3640.5 532,-3633.27 528.19,-3627.87 522.01,-3624.28"/>
<polygon fill="black" stroke="black" points="523.44,-3621.08 512.85,-3620.86 521,-3627.64 523.44,-3621.08"/>
</g>
<!-- 15 -->
<g id="node17" class="node">
<title>15</title>
<ellipse fill="#a2cd5a" stroke="black" cx="174" cy="-3411" rx="72" ry="72"/>
<text text-anchor="middle" x="174" y="-3405.95" font-family="Times,serif" font-size="14.00">WRONG_ADDR</text>
</g>
<!-- 2&#45;&gt;15 -->
<g id="edge6" class="edge">
<title>2&#45;&gt;15</title>
<path fill="none" stroke="black" d="M387.44,-3593.19C343.88,-3556.21 282.78,-3504.34 237.11,-3465.57"/>
<polygon fill="black" stroke="black" points="239.52,-3463.03 229.63,-3459.23 234.99,-3468.37 239.52,-3463.03"/>
<text text-anchor="start" x="332" y="-3537.2" font-family="Times,serif" font-size="14.00"> &#160;sda_recv = 1&#39;b1</text>
<text text-anchor="start" x="332" y="-3520.7" font-family="Times,serif" font-size="14.00"> &#160;&amp;&amp; edge_scl</text>
<text text-anchor="start" x="332" y="-3504.2" font-family="Times,serif" font-size="14.00"> &#160;&amp;&amp; &#160;scl</text>
</g>
<!-- 20 -->
<g id="node22" class="node">
<title>20</title>
<ellipse fill="#a2cd5a" stroke="black" cx="483" cy="-3411" rx="72" ry="72"/>
<text text-anchor="middle" x="483" y="-3405.95" font-family="Times,serif" font-size="14.00">AB1</text>
</g>
<!-- 2&#45;&gt;20 -->
<g id="edge7" class="edge">
<title>2&#45;&gt;20</title>
<path fill="none" stroke="black" d="M443.74,-3568.2C445.22,-3546.46 447.8,-3522.61 452.25,-3501 453.03,-3497.2 453.93,-3493.34 454.93,-3489.47"/>
<polygon fill="black" stroke="black" points="458.25,-3490.57 457.53,-3480 451.5,-3488.71 458.25,-3490.57"/>
<text text-anchor="start" x="452.25" y="-3537.2" font-family="Times,serif" font-size="14.00"> &#160;sda_recv = 1&#39;b0</text>
<text text-anchor="start" x="452.25" y="-3520.7" font-family="Times,serif" font-size="14.00"> &#160;&amp;&amp; edge_scl</text>
<text text-anchor="start" x="452.25" y="-3504.2" font-family="Times,serif" font-size="14.00"> &#160;&amp;&amp; &#160;scl</text>
</g>
<!-- 3 -->
<g id="node5" class="node">
<title>3</title>
<ellipse fill="#a2cd5a" stroke="black" cx="371" cy="-1674" rx="72" ry="72"/>
<text text-anchor="middle" x="371" y="-1677.2" font-family="Times,serif" font-size="14.00">WB5</text>
<text text-anchor="middle" x="371" y="-1660.7" font-family="Times,serif" font-size="14.00">mem[4] = SDA_recv</text>
</g>
<!-- 3&#45;&gt;3 -->
<g id="edge8" class="edge">
<title>3&#45;&gt;3</title>
<path fill="none" stroke="black" d="M440.81,-1692.64C452.74,-1690.09 461,-1683.88 461,-1674 461,-1667.52 457.44,-1662.61 451.62,-1659.29"/>
<polygon fill="black" stroke="black" points="452.83,-1656 442.23,-1655.88 450.44,-1662.58 452.83,-1656"/>
</g>
<!-- 21 -->
<g id="node23" class="node">
<title>21</title>
<ellipse fill="#a2cd5a" stroke="black" cx="371" cy="-1461" rx="72" ry="72"/>
<text text-anchor="middle" x="371" y="-1464.2" font-family="Times,serif" font-size="14.00">WB4</text>
<text text-anchor="middle" x="371" y="-1447.7" font-family="Times,serif" font-size="14.00">mem[3] = SDA_recv</text>
</g>
<!-- 3&#45;&gt;21 -->
<g id="edge9" class="edge">
<title>3&#45;&gt;21</title>
<path fill="none" stroke="black" d="M371,-1601.57C371,-1583.26 371,-1563.43 371,-1544.61"/>
<polygon fill="black" stroke="black" points="374.5,-1544.87 371,-1534.87 367.5,-1544.87 374.5,-1544.87"/>
<text text-anchor="start" x="371" y="-1570.7" font-family="Times,serif" font-size="14.00"> &#160;edge_scl</text>
<text text-anchor="start" x="371" y="-1554.2" font-family="Times,serif" font-size="14.00"> &#160;&amp;&amp; &#160;scl</text>
</g>
<!-- 4 -->
<g id="node6" class="node">
<title>4</title>
<ellipse fill="#a2cd5a" stroke="black" cx="201" cy="-4558.5" rx="72" ry="72"/>
<text text-anchor="middle" x="201" y="-4553.45" font-family="Times,serif" font-size="14.00">AB6</text>
</g>
<!-- 4&#45;&gt;4 -->
<g id="edge10" class="edge">
<title>4&#45;&gt;4</title>
<path fill="none" stroke="black" d="M270.43,-4578.67C282.56,-4575.98 291,-4569.26 291,-4558.5 291,-4551.27 287.19,-4545.87 281.01,-4542.28"/>
<polygon fill="black" stroke="black" points="282.44,-4539.08 271.85,-4538.86 280,-4545.64 282.44,-4539.08"/>
</g>
<!-- 4&#45;&gt;15 -->
<g id="edge11" class="edge">
<title>4&#45;&gt;15</title>
<path fill="none" stroke="black" d="M194.65,-4486.36C181.99,-4346.57 153.97,-4047.81 144,-4027.5 138.91,-4017.13 129.78,-4020.13 125.25,-4009.5 116.98,-3990.1 88.18,-4093.53 142,-3568.5 144.56,-3543.5 149.32,-3516.59 154.4,-3492.25"/>
<polygon fill="black" stroke="black" points="157.76,-3493.26 156.43,-3482.75 150.92,-3491.79 157.76,-3493.26"/>
<text text-anchor="start" x="125.25" y="-3996.2" font-family="Times,serif" font-size="14.00"> &#160;sda_recv = 1&#39;b1</text>
<text text-anchor="start" x="125.25" y="-3979.7" font-family="Times,serif" font-size="14.00"> &#160;&amp;&amp; edge_scl</text>
<text text-anchor="start" x="125.25" y="-3963.2" font-family="Times,serif" font-size="14.00"> &#160;&amp;&amp; &#160;scl</text>
</g>
<!-- 22 -->
<g id="node24" class="node">
<title>22</title>
<ellipse fill="#a2cd5a" stroke="black" cx="268" cy="-4329" rx="72" ry="72"/>
<text text-anchor="middle" x="268" y="-4323.95" font-family="Times,serif" font-size="14.00">AB5</text>
</g>
<!-- 4&#45;&gt;22 -->
<g id="edge12" class="edge">
<title>4&#45;&gt;22</title>
<path fill="none" stroke="black" d="M221.19,-4488.93C228.58,-4463.86 236.99,-4435.3 244.63,-4409.36"/>
<polygon fill="black" stroke="black" points="247.95,-4410.46 247.42,-4399.88 241.24,-4408.48 247.95,-4410.46"/>
<text text-anchor="start" x="240.5" y="-4455.2" font-family="Times,serif" font-size="14.00"> &#160;sda_recv = 1&#39;b0</text>
<text text-anchor="start" x="240.5" y="-4438.7" font-family="Times,serif" font-size="14.00"> &#160;&amp;&amp; edge_scl</text>
<text text-anchor="start" x="240.5" y="-4422.2" font-family="Times,serif" font-size="14.00"> &#160;&amp;&amp; &#160;scl</text>
</g>
<!-- 5 -->
<g id="node7" class="node">
<title>5</title>
<ellipse fill="#a2cd5a" stroke="black" cx="371" cy="-2526" rx="72" ry="72"/>
<text text-anchor="middle" x="371" y="-2537.45" font-family="Times,serif" font-size="14.00">WRITE</text>
<text text-anchor="middle" x="371" y="-2520.95" font-family="Times,serif" font-size="14.00">SDA_drive = 1&#39;b1</text>
<text text-anchor="middle" x="371" y="-2504.45" font-family="Times,serif" font-size="14.00">grab_SDA = 1&#39;b0</text>
</g>
<!-- 23 -->
<g id="node25" class="node">
<title>23</title>
<ellipse fill="#a2cd5a" stroke="black" cx="371" cy="-2313" rx="72" ry="72"/>
<text text-anchor="middle" x="371" y="-2316.2" font-family="Times,serif" font-size="14.00">WB8</text>
<text text-anchor="middle" x="371" y="-2299.7" font-family="Times,serif" font-size="14.00">mem[7] = SDA_recv</text>
</g>
<!-- 5&#45;&gt;23 -->
<g id="edge13" class="edge">
<title>5&#45;&gt;23</title>
<path fill="none" stroke="black" d="M371,-2453.57C371,-2435.26 371,-2415.43 371,-2396.61"/>
<polygon fill="black" stroke="black" points="374.5,-2396.87 371,-2386.87 367.5,-2396.87 374.5,-2396.87"/>
</g>
<!-- 6 -->
<g id="node8" class="node">
<title>6</title>
<ellipse fill="#a2cd5a" stroke="black" cx="371" cy="-2739" rx="72" ry="72"/>
<text text-anchor="middle" x="371" y="-2750.45" font-family="Times,serif" font-size="14.00">ACK_WRITE</text>
<text text-anchor="middle" x="371" y="-2733.95" font-family="Times,serif" font-size="14.00">SDA_drive = 1&#39;b0</text>
<text text-anchor="middle" x="371" y="-2717.45" font-family="Times,serif" font-size="14.00">grab_SDA = 1&#39;b1</text>
</g>
<!-- 6&#45;&gt;5 -->
<g id="edge14" class="edge">
<title>6&#45;&gt;5</title>
<path fill="none" stroke="black" d="M371,-2666.57C371,-2648.26 371,-2628.43 371,-2609.61"/>
<polygon fill="black" stroke="black" points="374.5,-2609.87 371,-2599.87 367.5,-2609.87 374.5,-2609.87"/>
<text text-anchor="start" x="371" y="-2635.7" font-family="Times,serif" font-size="14.00"> &#160;edge_scl</text>
<text text-anchor="start" x="371" y="-2619.2" font-family="Times,serif" font-size="14.00"> &#160;&amp;&amp; &#160;!scl</text>
</g>
<!-- 6&#45;&gt;6 -->
<g id="edge15" class="edge">
<title>6&#45;&gt;6</title>
<path fill="none" stroke="black" d="M440.81,-2757.64C452.74,-2755.09 461,-2748.88 461,-2739 461,-2732.52 457.44,-2727.61 451.62,-2724.29"/>
<polygon fill="black" stroke="black" points="452.83,-2721 442.23,-2720.88 450.44,-2727.58 452.83,-2721"/>
</g>
<!-- 7 -->
<g id="node9" class="node">
<title>7</title>
<ellipse fill="#a2cd5a" stroke="black" cx="551" cy="-2526" rx="72" ry="72"/>
<text text-anchor="middle" x="551" y="-2529.2" font-family="Times,serif" font-size="14.00">RB8</text>
<text text-anchor="middle" x="551" y="-2512.7" font-family="Times,serif" font-size="14.00">SDA_drive = mem [7]</text>
</g>
<!-- 7&#45;&gt;7 -->
<g id="edge16" class="edge">
<title>7&#45;&gt;7</title>
<path fill="none" stroke="black" d="M620.81,-2544.64C632.74,-2542.09 641,-2535.88 641,-2526 641,-2519.52 637.44,-2514.61 631.62,-2511.29"/>
<polygon fill="black" stroke="black" points="632.83,-2508 622.23,-2507.88 630.44,-2514.58 632.83,-2508"/>
</g>
<!-- 25 -->
<g id="node27" class="node">
<title>25</title>
<ellipse fill="#a2cd5a" stroke="black" cx="551" cy="-2313" rx="72" ry="72"/>
<text text-anchor="middle" x="551" y="-2316.2" font-family="Times,serif" font-size="14.00">RB7</text>
<text text-anchor="middle" x="551" y="-2299.7" font-family="Times,serif" font-size="14.00">SDA_drive = mem [6]</text>
</g>
<!-- 7&#45;&gt;25 -->
<g id="edge17" class="edge">
<title>7&#45;&gt;25</title>
<path fill="none" stroke="black" d="M551,-2453.57C551,-2435.26 551,-2415.43 551,-2396.61"/>
<polygon fill="black" stroke="black" points="554.5,-2396.87 551,-2386.87 547.5,-2396.87 554.5,-2396.87"/>
<text text-anchor="start" x="551" y="-2422.7" font-family="Times,serif" font-size="14.00"> &#160;edge_scl</text>
<text text-anchor="start" x="551" y="-2406.2" font-family="Times,serif" font-size="14.00"> &#160;&amp;&amp; &#160;!scl</text>
</g>
<!-- 8 -->
<g id="node10" class="node">
<title>8</title>
<ellipse fill="#a2cd5a" stroke="black" cx="414" cy="-711" rx="72" ry="72"/>
<text text-anchor="middle" x="414" y="-714.2" font-family="Times,serif" font-size="14.00">WB1</text>
<text text-anchor="middle" x="414" y="-697.7" font-family="Times,serif" font-size="14.00">mem[0] = SDA_recv</text>
</g>
<!-- 8&#45;&gt;8 -->
<g id="edge18" class="edge">
<title>8&#45;&gt;8</title>
<path fill="none" stroke="black" d="M483.81,-729.64C495.74,-727.09 504,-720.88 504,-711 504,-704.52 500.44,-699.61 494.62,-696.29"/>
<polygon fill="black" stroke="black" points="495.83,-693 485.23,-692.88 493.44,-699.58 495.83,-693"/>
</g>
<!-- 26 -->
<g id="node28" class="node">
<title>26</title>
<ellipse fill="#a2cd5a" stroke="black" cx="421" cy="-498" rx="72" ry="72"/>
<text text-anchor="middle" x="421" y="-492.95" font-family="Times,serif" font-size="14.00">END_WRITE</text>
</g>
<!-- 8&#45;&gt;26 -->
<g id="edge19" class="edge">
<title>8&#45;&gt;26</title>
<path fill="none" stroke="black" d="M416.37,-638.57C416.98,-620.26 417.64,-600.43 418.26,-581.61"/>
<polygon fill="black" stroke="black" points="421.75,-581.98 418.58,-571.87 414.75,-581.75 421.75,-581.98"/>
<text text-anchor="start" x="417.92" y="-607.7" font-family="Times,serif" font-size="14.00"> &#160;edge_scl</text>
<text text-anchor="start" x="417.92" y="-591.2" font-family="Times,serif" font-size="14.00"> &#160;&amp;&amp; &#160;scl</text>
</g>
<!-- 9 -->
<g id="node11" class="node">
<title>9</title>
<ellipse fill="#a2cd5a" stroke="black" cx="551" cy="-1248" rx="72" ry="72"/>
<text text-anchor="middle" x="551" y="-1251.2" font-family="Times,serif" font-size="14.00">RB2</text>
<text text-anchor="middle" x="551" y="-1234.7" font-family="Times,serif" font-size="14.00">SDA_drive = mem [1]</text>
</g>
<!-- 9&#45;&gt;9 -->
<g id="edge20" class="edge">
<title>9&#45;&gt;9</title>
<path fill="none" stroke="black" d="M620.81,-1266.64C632.74,-1264.09 641,-1257.88 641,-1248 641,-1241.52 637.44,-1236.61 631.62,-1233.29"/>
<polygon fill="black" stroke="black" points="632.83,-1230 622.23,-1229.88 630.44,-1236.58 632.83,-1230"/>
</g>
<!-- 28 -->
<g id="node30" class="node">
<title>28</title>
<ellipse fill="#a2cd5a" stroke="black" cx="551" cy="-873" rx="72" ry="72"/>
<text text-anchor="middle" x="551" y="-876.2" font-family="Times,serif" font-size="14.00">RB1</text>
<text text-anchor="middle" x="551" y="-859.7" font-family="Times,serif" font-size="14.00">SDA_drive = mem [0]</text>
</g>
<!-- 9&#45;&gt;28 -->
<g id="edge21" class="edge">
<title>9&#45;&gt;28</title>
<path fill="none" stroke="black" d="M551,-1175.52C551,-1112.93 551,-1021.99 551,-956.36"/>
<polygon fill="black" stroke="black" points="554.5,-956.75 551,-946.75 547.5,-956.75 554.5,-956.75"/>
<text text-anchor="start" x="551" y="-1144.7" font-family="Times,serif" font-size="14.00"> &#160;edge_scl</text>
<text text-anchor="start" x="551" y="-1128.2" font-family="Times,serif" font-size="14.00"> &#160;&amp;&amp; &#160;!scl</text>
</g>
<!-- 10 -->
<g id="node12" class="node">
<title>10</title>
<ellipse fill="#a2cd5a" stroke="black" cx="551" cy="-2952" rx="72" ry="72"/>
<text text-anchor="middle" x="551" y="-2946.95" font-family="Times,serif" font-size="14.00">PREAD</text>
</g>
<!-- 10&#45;&gt;10 -->
<g id="edge22" class="edge">
<title>10&#45;&gt;10</title>
<path fill="none" stroke="black" d="M620.81,-2970.64C632.74,-2968.09 641,-2961.88 641,-2952 641,-2945.52 637.44,-2940.61 631.62,-2937.29"/>
<polygon fill="black" stroke="black" points="632.83,-2934 622.23,-2933.88 630.44,-2940.58 632.83,-2934"/>
</g>
<!-- 30 -->
<g id="node32" class="node">
<title>30</title>
<ellipse fill="#a2cd5a" stroke="black" cx="551" cy="-2739" rx="72" ry="72"/>
<text text-anchor="middle" x="551" y="-2750.45" font-family="Times,serif" font-size="14.00">READ</text>
<text text-anchor="middle" x="551" y="-2733.95" font-family="Times,serif" font-size="14.00">SDA_drive = 1&#39;b0</text>
<text text-anchor="middle" x="551" y="-2717.45" font-family="Times,serif" font-size="14.00">grab_SDA = 1&#39;b1</text>
</g>
<!-- 10&#45;&gt;30 -->
<g id="edge23" class="edge">
<title>10&#45;&gt;30</title>
<path fill="none" stroke="black" d="M551,-2879.57C551,-2861.26 551,-2841.43 551,-2822.61"/>
<polygon fill="black" stroke="black" points="554.5,-2822.87 551,-2812.87 547.5,-2822.87 554.5,-2822.87"/>
<text text-anchor="start" x="551" y="-2848.7" font-family="Times,serif" font-size="14.00"> &#160;edge_scl</text>
<text text-anchor="start" x="551" y="-2832.2" font-family="Times,serif" font-size="14.00"> &#160;&amp;&amp; &#160;!scl</text>
</g>
<!-- 11 -->
<g id="node13" class="node">
<title>11</title>
<ellipse fill="#a2cd5a" stroke="black" cx="483" cy="-3181.5" rx="72" ry="72"/>
<text text-anchor="middle" x="483" y="-3176.45" font-family="Times,serif" font-size="14.00">OPERATION</text>
</g>
<!-- 11&#45;&gt;10 -->
<g id="edge24" class="edge">
<title>11&#45;&gt;10</title>
<path fill="none" stroke="black" d="M503.4,-3112.24C510.93,-3087.05 519.53,-3058.29 527.33,-3032.21"/>
<polygon fill="black" stroke="black" points="530.67,-3033.24 530.18,-3022.66 523.96,-3031.24 530.67,-3033.24"/>
<text text-anchor="start" x="523.09" y="-3078.2" font-family="Times,serif" font-size="14.00"> &#160;sda_recv = 1&#39;b1</text>
<text text-anchor="start" x="523.09" y="-3061.7" font-family="Times,serif" font-size="14.00"> &#160;&amp;&amp; edge_scl</text>
<text text-anchor="start" x="523.09" y="-3045.2" font-family="Times,serif" font-size="14.00"> &#160;&amp;&amp; &#160;scl</text>
</g>
<!-- 11&#45;&gt;11 -->
<g id="edge25" class="edge">
<title>11&#45;&gt;11</title>
<path fill="none" stroke="black" d="M552.43,-3201.67C564.56,-3198.98 573,-3192.26 573,-3181.5 573,-3174.27 569.19,-3168.87 563.01,-3165.28"/>
<polygon fill="black" stroke="black" points="564.44,-3162.08 553.85,-3161.86 562,-3168.64 564.44,-3162.08"/>
</g>
<!-- 29 -->
<g id="node31" class="node">
<title>29</title>
<ellipse fill="#a2cd5a" stroke="black" cx="371" cy="-2952" rx="72" ry="72"/>
<text text-anchor="middle" x="371" y="-2946.95" font-family="Times,serif" font-size="14.00">PWRITE</text>
</g>
<!-- 11&#45;&gt;29 -->
<g id="edge26" class="edge">
<title>11&#45;&gt;29</title>
<path fill="none" stroke="black" d="M435.74,-3126.64C427.46,-3115.51 419.51,-3103.51 413.25,-3091.5 403.84,-3073.44 396.15,-3052.95 390.04,-3033.36"/>
<polygon fill="black" stroke="black" points="393.48,-3032.62 387.25,-3024.05 386.77,-3034.63 393.48,-3032.62"/>
<text text-anchor="start" x="413.25" y="-3078.2" font-family="Times,serif" font-size="14.00"> &#160;sda_recv = 1&#39;b0</text>
<text text-anchor="start" x="413.25" y="-3061.7" font-family="Times,serif" font-size="14.00"> &#160;&amp;&amp; edge_scl</text>
<text text-anchor="start" x="413.25" y="-3045.2" font-family="Times,serif" font-size="14.00"> &#160;&amp;&amp; &#160;scl</text>
</g>
<!-- 12 -->
<g id="node14" class="node">
<title>12</title>
<ellipse fill="#a2cd5a" stroke="black" cx="371" cy="-1248" rx="72" ry="72"/>
<text text-anchor="middle" x="371" y="-1251.2" font-family="Times,serif" font-size="14.00">WB3</text>
<text text-anchor="middle" x="371" y="-1234.7" font-family="Times,serif" font-size="14.00">mem[2] = SDA_recv</text>
</g>
<!-- 12&#45;&gt;12 -->
<g id="edge27" class="edge">
<title>12&#45;&gt;12</title>
<path fill="none" stroke="black" d="M440.81,-1266.64C452.74,-1264.09 461,-1257.88 461,-1248 461,-1241.52 457.44,-1236.61 451.62,-1233.29"/>
<polygon fill="black" stroke="black" points="452.83,-1230 442.23,-1229.88 450.44,-1236.58 452.83,-1230"/>
</g>
<!-- 31 -->
<g id="node33" class="node">
<title>31</title>
<ellipse fill="#a2cd5a" stroke="black" cx="389" cy="-1035" rx="72" ry="72"/>
<text text-anchor="middle" x="389" y="-1038.2" font-family="Times,serif" font-size="14.00">WB2</text>
<text text-anchor="middle" x="389" y="-1021.7" font-family="Times,serif" font-size="14.00">mem[1] = SDA_recv</text>
</g>
<!-- 12&#45;&gt;31 -->
<g id="edge28" class="edge">
<title>12&#45;&gt;31</title>
<path fill="none" stroke="black" d="M377.07,-1175.86C378.64,-1157.44 380.34,-1137.46 381.96,-1118.52"/>
<polygon fill="black" stroke="black" points="385.44,-1118.96 382.8,-1108.7 378.46,-1118.37 385.44,-1118.96"/>
<text text-anchor="start" x="381.08" y="-1144.7" font-family="Times,serif" font-size="14.00"> &#160;edge_scl</text>
<text text-anchor="start" x="381.08" y="-1128.2" font-family="Times,serif" font-size="14.00"> &#160;&amp;&amp; &#160;scl</text>
</g>
<!-- 13 -->
<g id="node15" class="node">
<title>13</title>
<ellipse fill="#a2cd5a" stroke="black" cx="337" cy="-4099.5" rx="72" ry="72"/>
<text text-anchor="middle" x="337" y="-4094.45" font-family="Times,serif" font-size="14.00">AB4</text>
</g>
<!-- 13&#45;&gt;13 -->
<g id="edge29" class="edge">
<title>13&#45;&gt;13</title>
<path fill="none" stroke="black" d="M406.43,-4119.67C418.56,-4116.98 427,-4110.26 427,-4099.5 427,-4092.27 423.19,-4086.87 417.01,-4083.28"/>
<polygon fill="black" stroke="black" points="418.44,-4080.08 407.85,-4079.86 416,-4086.64 418.44,-4080.08"/>
</g>
<!-- 13&#45;&gt;15 -->
<g id="edge30" class="edge">
<title>13&#45;&gt;15</title>
<path fill="none" stroke="black" d="M325.66,-4028.08C311.63,-3944.65 287.68,-3814.76 272,-3798 252.18,-3776.82 227.58,-3802.49 209.25,-3780 189.61,-3755.9 191.6,-3531.88 188,-3501 187.71,-3498.54 187.41,-3496.04 187.09,-3493.52"/>
<polygon fill="black" stroke="black" points="190.59,-3493.32 185.8,-3483.87 183.65,-3494.25 190.59,-3493.32"/>
<text text-anchor="start" x="209.25" y="-3766.7" font-family="Times,serif" font-size="14.00"> &#160;sda_recv = 1&#39;b1</text>
<text text-anchor="start" x="209.25" y="-3750.2" font-family="Times,serif" font-size="14.00"> &#160;&amp;&amp; edge_scl</text>
<text text-anchor="start" x="209.25" y="-3733.7" font-family="Times,serif" font-size="14.00"> &#160;&amp;&amp; &#160;scl</text>
</g>
<!-- 32 -->
<g id="node34" class="node">
<title>32</title>
<ellipse fill="#a2cd5a" stroke="black" cx="396" cy="-3870" rx="72" ry="72"/>
<text text-anchor="middle" x="396" y="-3864.95" font-family="Times,serif" font-size="14.00">AB3</text>
</g>
<!-- 13&#45;&gt;32 -->
<g id="edge31" class="edge">
<title>13&#45;&gt;32</title>
<path fill="none" stroke="black" d="M354.94,-4029.32C361.38,-4004.49 368.69,-3976.31 375.34,-3950.67"/>
<polygon fill="black" stroke="black" points="378.64,-3951.88 377.76,-3941.32 371.86,-3950.12 378.64,-3951.88"/>
<text text-anchor="start" x="371.78" y="-3996.2" font-family="Times,serif" font-size="14.00"> &#160;sda_recv = 1&#39;b0</text>
<text text-anchor="start" x="371.78" y="-3979.7" font-family="Times,serif" font-size="14.00"> &#160;&amp;&amp; edge_scl</text>
<text text-anchor="start" x="371.78" y="-3963.2" font-family="Times,serif" font-size="14.00"> &#160;&amp;&amp; &#160;scl</text>
</g>
<!-- 14 -->
<g id="node16" class="node">
<title>14</title>
<ellipse fill="#a2cd5a" stroke="black" cx="371" cy="-2100" rx="72" ry="72"/>
<text text-anchor="middle" x="371" y="-2103.2" font-family="Times,serif" font-size="14.00">WB7</text>
<text text-anchor="middle" x="371" y="-2086.7" font-family="Times,serif" font-size="14.00">mem[6] = SDA_recv</text>
</g>
<!-- 14&#45;&gt;14 -->
<g id="edge32" class="edge">
<title>14&#45;&gt;14</title>
<path fill="none" stroke="black" d="M440.81,-2118.64C452.74,-2116.09 461,-2109.88 461,-2100 461,-2093.52 457.44,-2088.61 451.62,-2085.29"/>
<polygon fill="black" stroke="black" points="452.83,-2082 442.23,-2081.88 450.44,-2088.58 452.83,-2082"/>
</g>
<!-- 33 -->
<g id="node35" class="node">
<title>33</title>
<ellipse fill="#a2cd5a" stroke="black" cx="371" cy="-1887" rx="72" ry="72"/>
<text text-anchor="middle" x="371" y="-1890.2" font-family="Times,serif" font-size="14.00">WB6</text>
<text text-anchor="middle" x="371" y="-1873.7" font-family="Times,serif" font-size="14.00">mem[5] = SDA_recv</text>
</g>
<!-- 14&#45;&gt;33 -->
<g id="edge33" class="edge">
<title>14&#45;&gt;33</title>
<path fill="none" stroke="black" d="M371,-2027.57C371,-2009.26 371,-1989.43 371,-1970.61"/>
<polygon fill="black" stroke="black" points="374.5,-1970.87 371,-1960.87 367.5,-1970.87 374.5,-1970.87"/>
<text text-anchor="start" x="371" y="-1996.7" font-family="Times,serif" font-size="14.00"> &#160;edge_scl</text>
<text text-anchor="start" x="371" y="-1980.2" font-family="Times,serif" font-size="14.00"> &#160;&amp;&amp; &#160;scl</text>
</g>
<!-- 15&#45;&gt;18 -->
<g id="edge34" class="edge">
<title>15&#45;&gt;18</title>
<path fill="none" stroke="black" d="M115.58,-3453.12C65.03,-3493.99 0,-3561.68 0,-3639.5 0,-4789 0,-4789 0,-4789 0,-4871.99 253.38,-4937.97 388.06,-4967.18"/>
<polygon fill="black" stroke="black" points="387.14,-4970.56 397.65,-4969.23 388.6,-4963.71 387.14,-4970.56"/>
</g>
<!-- 16 -->
<g id="node18" class="node">
<title>16</title>
<ellipse fill="#a2cd5a" stroke="black" cx="551" cy="-2100" rx="72" ry="72"/>
<text text-anchor="middle" x="551" y="-2103.2" font-family="Times,serif" font-size="14.00">RB6</text>
<text text-anchor="middle" x="551" y="-2086.7" font-family="Times,serif" font-size="14.00">SDA_drive = mem [5]</text>
</g>
<!-- 16&#45;&gt;16 -->
<g id="edge35" class="edge">
<title>16&#45;&gt;16</title>
<path fill="none" stroke="black" d="M620.81,-2118.64C632.74,-2116.09 641,-2109.88 641,-2100 641,-2093.52 637.44,-2088.61 631.62,-2085.29"/>
<polygon fill="black" stroke="black" points="632.83,-2082 622.23,-2081.88 630.44,-2088.58 632.83,-2082"/>
</g>
<!-- 34 -->
<g id="node36" class="node">
<title>34</title>
<ellipse fill="#a2cd5a" stroke="black" cx="551" cy="-1887" rx="72" ry="72"/>
<text text-anchor="middle" x="551" y="-1890.2" font-family="Times,serif" font-size="14.00">RB5</text>
<text text-anchor="middle" x="551" y="-1873.7" font-family="Times,serif" font-size="14.00">SDA_drive = mem [4]</text>
</g>
<!-- 16&#45;&gt;34 -->
<g id="edge36" class="edge">
<title>16&#45;&gt;34</title>
<path fill="none" stroke="black" d="M551,-2027.57C551,-2009.26 551,-1989.43 551,-1970.61"/>
<polygon fill="black" stroke="black" points="554.5,-1970.87 551,-1960.87 547.5,-1970.87 554.5,-1970.87"/>
<text text-anchor="start" x="551" y="-1996.7" font-family="Times,serif" font-size="14.00"> &#160;edge_scl</text>
<text text-anchor="start" x="551" y="-1980.2" font-family="Times,serif" font-size="14.00"> &#160;&amp;&amp; &#160;!scl</text>
</g>
<!-- 17 -->
<g id="node19" class="node">
<title>17</title>
<ellipse fill="#a2cd5a" stroke="black" cx="429" cy="-285" rx="72" ry="72"/>
<text text-anchor="middle" x="429" y="-296.45" font-family="Times,serif" font-size="14.00">ACK_WRITE2</text>
<text text-anchor="middle" x="429" y="-279.95" font-family="Times,serif" font-size="14.00">SDA_drive = 1&#39;b0</text>
<text text-anchor="middle" x="429" y="-263.45" font-family="Times,serif" font-size="14.00">grab_SDA = 1&#39;b1</text>
</g>
<!-- 17&#45;&gt;17 -->
<g id="edge37" class="edge">
<title>17&#45;&gt;17</title>
<path fill="none" stroke="black" d="M498.81,-303.64C510.74,-301.09 519,-294.88 519,-285 519,-278.52 515.44,-273.61 509.62,-270.29"/>
<polygon fill="black" stroke="black" points="510.83,-267 500.23,-266.88 508.44,-273.58 510.83,-267"/>
</g>
<!-- 24 -->
<g id="node26" class="node">
<title>24</title>
<ellipse fill="#a2cd5a" stroke="black" cx="551" cy="-72" rx="72" ry="72"/>
<text text-anchor="middle" x="551" y="-75.2" font-family="Times,serif" font-size="14.00">RELEASE</text>
<text text-anchor="middle" x="551" y="-58.7" font-family="Times,serif" font-size="14.00">grab_SDA = 1&#39;b0</text>
</g>
<!-- 17&#45;&gt;24 -->
<g id="edge38" class="edge">
<title>17&#45;&gt;24</title>
<path fill="none" stroke="black" d="M453.16,-216.84C460.78,-198.55 469.88,-179.09 480,-162 485.18,-153.26 491.14,-144.44 497.36,-135.92"/>
<polygon fill="black" stroke="black" points="500.08,-138.13 503.28,-128.03 494.48,-133.93 500.08,-138.13"/>
<text text-anchor="start" x="480" y="-181.7" font-family="Times,serif" font-size="14.00"> &#160;edge_scl</text>
<text text-anchor="start" x="480" y="-165.2" font-family="Times,serif" font-size="14.00"> &#160;&amp;&amp; &#160;!scl</text>
</g>
<!-- 18&#45;&gt;18 -->
<g id="edge39" class="edge">
<title>18&#45;&gt;18</title>
<path fill="none" stroke="black" d="M540.56,-5000.2C552.08,-4997.95 560,-4992.72 560,-4984.5 560,-4979.23 556.75,-4975.19 551.39,-4972.38"/>
<polygon fill="black" stroke="black" points="552.59,-4969.09 542,-4969.28 550.39,-4975.74 552.59,-4969.09"/>
</g>
<!-- 27 -->
<g id="node29" class="node">
<title>27</title>
<ellipse fill="#a2cd5a" stroke="black" cx="201" cy="-4788" rx="72" ry="72"/>
<text text-anchor="middle" x="201" y="-4782.95" font-family="Times,serif" font-size="14.00">AB7</text>
</g>
<!-- 18&#45;&gt;27 -->
<g id="edge40" class="edge">
<title>18&#45;&gt;27</title>
<path fill="none" stroke="black" d="M411.96,-4941.54C369.71,-4910.99 312.39,-4869.54 268.16,-4837.56"/>
<polygon fill="black" stroke="black" points="270.31,-4834.8 260.16,-4831.78 266.21,-4840.47 270.31,-4834.8"/>
<text text-anchor="start" x="343.57" y="-4881.2" font-family="Times,serif" font-size="14.00"> &#160;start = 1&#39;b1</text>
</g>
<!-- 19&#45;&gt;9 -->
<g id="edge41" class="edge">
<title>19&#45;&gt;9</title>
<path fill="none" stroke="black" d="M551,-1388.57C551,-1370.26 551,-1350.43 551,-1331.61"/>
<polygon fill="black" stroke="black" points="554.5,-1331.87 551,-1321.87 547.5,-1331.87 554.5,-1331.87"/>
<text text-anchor="start" x="551" y="-1357.7" font-family="Times,serif" font-size="14.00"> &#160;edge_scl</text>
<text text-anchor="start" x="551" y="-1341.2" font-family="Times,serif" font-size="14.00"> &#160;&amp;&amp; &#160;!scl</text>
</g>
<!-- 19&#45;&gt;19 -->
<g id="edge42" class="edge">
<title>19&#45;&gt;19</title>
<path fill="none" stroke="black" d="M620.81,-1479.64C632.74,-1477.09 641,-1470.88 641,-1461 641,-1454.52 637.44,-1449.61 631.62,-1446.29"/>
<polygon fill="black" stroke="black" points="632.83,-1443 622.23,-1442.88 630.44,-1449.58 632.83,-1443"/>
</g>
<!-- 20&#45;&gt;11 -->
<g id="edge43" class="edge">
<title>20&#45;&gt;11</title>
<path fill="none" stroke="black" d="M483,-3338.64C483,-3315.36 483,-3289.3 483,-3265.25"/>
<polygon fill="black" stroke="black" points="486.5,-3265.51 483,-3255.51 479.5,-3265.51 486.5,-3265.51"/>
<text text-anchor="start" x="483" y="-3307.7" font-family="Times,serif" font-size="14.00"> &#160;sda_recv = 1&#39;b1</text>
<text text-anchor="start" x="483" y="-3291.2" font-family="Times,serif" font-size="14.00"> &#160;&amp;&amp; edge_scl</text>
<text text-anchor="start" x="483" y="-3274.7" font-family="Times,serif" font-size="14.00"> &#160;&amp;&amp; &#160;scl</text>
</g>
<!-- 20&#45;&gt;18 -->
<g id="edge44" class="edge">
<title>20&#45;&gt;18</title>
<path fill="none" stroke="black" d="M528.36,-3466.97C535.31,-3477.72 541.62,-3489.3 546,-3501 567.7,-3558.94 560,-3577.63 560,-3639.5 560,-4789 560,-4789 560,-4789 560,-4834.43 539.53,-4880.76 518.11,-4916.81"/>
<polygon fill="black" stroke="black" points="515.38,-4914.57 513.15,-4924.93 521.35,-4918.22 515.38,-4914.57"/>
<text text-anchor="start" x="560" y="-4225.7" font-family="Times,serif" font-size="14.00"> &#160;sda_recv = 1&#39;b0</text>
<text text-anchor="start" x="560" y="-4209.2" font-family="Times,serif" font-size="14.00"> &#160;&amp;&amp; edge_scl</text>
<text text-anchor="start" x="560" y="-4192.7" font-family="Times,serif" font-size="14.00"> &#160;&amp;&amp; &#160;scl</text>
</g>
<!-- 20&#45;&gt;20 -->
<g id="edge45" class="edge">
<title>20&#45;&gt;20</title>
<path fill="none" stroke="black" d="M552.43,-3431.17C564.56,-3428.48 573,-3421.76 573,-3411 573,-3403.77 569.19,-3398.37 563.01,-3394.78"/>
<polygon fill="black" stroke="black" points="564.44,-3391.58 553.85,-3391.36 562,-3398.14 564.44,-3391.58"/>
</g>
<!-- 21&#45;&gt;12 -->
<g id="edge46" class="edge">
<title>21&#45;&gt;12</title>
<path fill="none" stroke="black" d="M371,-1388.57C371,-1370.26 371,-1350.43 371,-1331.61"/>
<polygon fill="black" stroke="black" points="374.5,-1331.87 371,-1321.87 367.5,-1331.87 374.5,-1331.87"/>
<text text-anchor="start" x="371" y="-1357.7" font-family="Times,serif" font-size="14.00"> &#160;edge_scl</text>
<text text-anchor="start" x="371" y="-1341.2" font-family="Times,serif" font-size="14.00"> &#160;&amp;&amp; &#160;scl</text>
</g>
<!-- 21&#45;&gt;21 -->
<g id="edge47" class="edge">
<title>21&#45;&gt;21</title>
<path fill="none" stroke="black" d="M440.81,-1479.64C452.74,-1477.09 461,-1470.88 461,-1461 461,-1454.52 457.44,-1449.61 451.62,-1446.29"/>
<polygon fill="black" stroke="black" points="452.83,-1443 442.23,-1442.88 450.44,-1449.58 452.83,-1443"/>
</g>
<!-- 22&#45;&gt;13 -->
<g id="edge48" class="edge">
<title>22&#45;&gt;13</title>
<path fill="none" stroke="black" d="M288.7,-4259.74C296.34,-4234.55 305.07,-4205.79 312.98,-4179.71"/>
<polygon fill="black" stroke="black" points="316.32,-4180.74 315.87,-4170.16 309.62,-4178.71 316.32,-4180.74"/>
<text text-anchor="start" x="308.68" y="-4225.7" font-family="Times,serif" font-size="14.00"> &#160;sda_recv = 1&#39;b0</text>
<text text-anchor="start" x="308.68" y="-4209.2" font-family="Times,serif" font-size="14.00"> &#160;&amp;&amp; edge_scl</text>
<text text-anchor="start" x="308.68" y="-4192.7" font-family="Times,serif" font-size="14.00"> &#160;&amp;&amp; &#160;scl</text>
</g>
<!-- 22&#45;&gt;15 -->
<g id="edge49" class="edge">
<title>22&#45;&gt;15</title>
<path fill="none" stroke="black" d="M261.21,-4256.84C251.05,-4153.14 232.1,-3971.5 223,-3960 208.67,-3941.89 187.46,-3960.95 174.25,-3942 125.36,-3871.86 147.32,-3624.27 163.03,-3493.81"/>
<polygon fill="black" stroke="black" points="166.46,-3494.57 164.2,-3484.22 159.51,-3493.72 166.46,-3494.57"/>
<text text-anchor="start" x="174.25" y="-3881.45" font-family="Times,serif" font-size="14.00"> &#160;sda_recv = 1&#39;b1</text>
<text text-anchor="start" x="174.25" y="-3864.95" font-family="Times,serif" font-size="14.00"> &#160;&amp;&amp; edge_scl</text>
<text text-anchor="start" x="174.25" y="-3848.45" font-family="Times,serif" font-size="14.00"> &#160;&amp;&amp; &#160;scl</text>
</g>
<!-- 22&#45;&gt;22 -->
<g id="edge50" class="edge">
<title>22&#45;&gt;22</title>
<path fill="none" stroke="black" d="M337.43,-4349.17C349.56,-4346.48 358,-4339.76 358,-4329 358,-4321.77 354.19,-4316.37 348.01,-4312.78"/>
<polygon fill="black" stroke="black" points="349.44,-4309.58 338.85,-4309.36 347,-4316.14 349.44,-4309.58"/>
</g>
<!-- 23&#45;&gt;14 -->
<g id="edge51" class="edge">
<title>23&#45;&gt;14</title>
<path fill="none" stroke="black" d="M371,-2240.57C371,-2222.26 371,-2202.43 371,-2183.61"/>
<polygon fill="black" stroke="black" points="374.5,-2183.87 371,-2173.87 367.5,-2183.87 374.5,-2183.87"/>
<text text-anchor="start" x="371" y="-2209.7" font-family="Times,serif" font-size="14.00"> &#160;edge_scl</text>
<text text-anchor="start" x="371" y="-2193.2" font-family="Times,serif" font-size="14.00"> &#160;&amp;&amp; &#160;scl</text>
</g>
<!-- 23&#45;&gt;23 -->
<g id="edge52" class="edge">
<title>23&#45;&gt;23</title>
<path fill="none" stroke="black" d="M440.81,-2331.64C452.74,-2329.09 461,-2322.88 461,-2313 461,-2306.52 457.44,-2301.61 451.62,-2298.29"/>
<polygon fill="black" stroke="black" points="452.83,-2295 442.23,-2294.88 450.44,-2301.58 452.83,-2295"/>
</g>
<!-- 24&#45;&gt;18 -->
<g id="edge53" class="edge">
<title>24&#45;&gt;18</title>
<path fill="none" stroke="black" d="M600.02,-125.38C632.44,-165.59 669,-224.19 669,-284 669,-4789 669,-4789 669,-4789 669,-4861.01 601.54,-4915.1 545.18,-4947.73"/>
<polygon fill="black" stroke="black" points="543.47,-4944.67 536.48,-4952.63 546.91,-4950.77 543.47,-4944.67"/>
</g>
<!-- 25&#45;&gt;16 -->
<g id="edge54" class="edge">
<title>25&#45;&gt;16</title>
<path fill="none" stroke="black" d="M551,-2240.57C551,-2222.26 551,-2202.43 551,-2183.61"/>
<polygon fill="black" stroke="black" points="554.5,-2183.87 551,-2173.87 547.5,-2183.87 554.5,-2183.87"/>
<text text-anchor="start" x="551" y="-2209.7" font-family="Times,serif" font-size="14.00"> &#160;edge_scl</text>
<text text-anchor="start" x="551" y="-2193.2" font-family="Times,serif" font-size="14.00"> &#160;&amp;&amp; &#160;!scl</text>
</g>
<!-- 25&#45;&gt;25 -->
<g id="edge55" class="edge">
<title>25&#45;&gt;25</title>
<path fill="none" stroke="black" d="M620.81,-2331.64C632.74,-2329.09 641,-2322.88 641,-2313 641,-2306.52 637.44,-2301.61 631.62,-2298.29"/>
<polygon fill="black" stroke="black" points="632.83,-2295 622.23,-2294.88 630.44,-2301.58 632.83,-2295"/>
</g>
<!-- 26&#45;&gt;17 -->
<g id="edge56" class="edge">
<title>26&#45;&gt;17</title>
<path fill="none" stroke="black" d="M423.71,-425.57C424.4,-407.26 425.15,-387.43 425.87,-368.61"/>
<polygon fill="black" stroke="black" points="429.36,-369 426.24,-358.87 422.36,-368.73 429.36,-369"/>
<text text-anchor="start" x="425.48" y="-394.7" font-family="Times,serif" font-size="14.00"> &#160;edge_scl</text>
<text text-anchor="start" x="425.48" y="-378.2" font-family="Times,serif" font-size="14.00"> &#160;&amp;&amp; &#160;!scl</text>
</g>
<!-- 26&#45;&gt;26 -->
<g id="edge57" class="edge">
<title>26&#45;&gt;26</title>
<path fill="none" stroke="black" d="M490.81,-516.64C502.74,-514.09 511,-507.88 511,-498 511,-491.52 507.44,-486.61 501.62,-483.29"/>
<polygon fill="black" stroke="black" points="502.83,-480 492.23,-479.88 500.44,-486.58 502.83,-480"/>
</g>
<!-- 27&#45;&gt;4 -->
<g id="edge58" class="edge">
<title>27&#45;&gt;4</title>
<path fill="none" stroke="black" d="M201,-4715.64C201,-4692.36 201,-4666.3 201,-4642.25"/>
<polygon fill="black" stroke="black" points="204.5,-4642.51 201,-4632.51 197.5,-4642.51 204.5,-4642.51"/>
<text text-anchor="start" x="201" y="-4684.7" font-family="Times,serif" font-size="14.00"> &#160;sda_recv = 1&#39;b1</text>
<text text-anchor="start" x="201" y="-4668.2" font-family="Times,serif" font-size="14.00"> &#160;&amp;&amp; edge_scl</text>
<text text-anchor="start" x="201" y="-4651.7" font-family="Times,serif" font-size="14.00"> &#160;&amp;&amp; &#160;scl</text>
</g>
<!-- 27&#45;&gt;15 -->
<g id="edge59" class="edge">
<title>27&#45;&gt;15</title>
<path fill="none" stroke="black" d="M145.92,-4741.66C101.36,-4699.6 46,-4632.62 46,-4559.5 46,-4559.5 46,-4559.5 46,-3639.5 46,-3577.09 83.04,-3516 117.26,-3472.86"/>
<polygon fill="black" stroke="black" points="119.97,-3475.08 123.56,-3465.11 114.54,-3470.67 119.97,-3475.08"/>
<text text-anchor="start" x="46" y="-4110.95" font-family="Times,serif" font-size="14.00"> &#160;sda_recv = 1&#39;b0</text>
<text text-anchor="start" x="46" y="-4094.45" font-family="Times,serif" font-size="14.00"> &#160;&amp;&amp; edge_scl</text>
<text text-anchor="start" x="46" y="-4077.95" font-family="Times,serif" font-size="14.00"> &#160;&amp;&amp; &#160;scl</text>
</g>
<!-- 27&#45;&gt;27 -->
<g id="edge60" class="edge">
<title>27&#45;&gt;27</title>
<path fill="none" stroke="black" d="M271.19,-4805.12C282.91,-4802.73 291,-4797.02 291,-4788 291,-4782.08 287.52,-4777.59 281.81,-4774.52"/>
<polygon fill="black" stroke="black" points="283.21,-4771.3 272.62,-4771.37 280.94,-4777.93 283.21,-4771.3"/>
</g>
<!-- 28&#45;&gt;24 -->
<g id="edge61" class="edge">
<title>28&#45;&gt;24</title>
<path fill="none" stroke="black" d="M551,-800.74C551,-747.06 551,-671.66 551,-605.5 551,-605.5 551,-605.5 551,-284 551,-241.66 551,-194.53 551,-155.58"/>
<polygon fill="black" stroke="black" points="554.5,-155.81 551,-145.81 547.5,-155.81 554.5,-155.81"/>
<text text-anchor="start" x="551" y="-501.2" font-family="Times,serif" font-size="14.00"> &#160;edge_scl</text>
<text text-anchor="start" x="551" y="-484.7" font-family="Times,serif" font-size="14.00"> &#160;&amp;&amp; &#160;!scl</text>
</g>
<!-- 28&#45;&gt;28 -->
<g id="edge62" class="edge">
<title>28&#45;&gt;28</title>
<path fill="none" stroke="black" d="M616.93,-902.39C630.91,-899.41 641,-889.61 641,-873 641,-861.06 635.79,-852.64 627.66,-847.74"/>
<polygon fill="black" stroke="black" points="628.93,-844.48 618.34,-844.15 626.41,-851.01 628.93,-844.48"/>
</g>
<!-- 29&#45;&gt;6 -->
<g id="edge63" class="edge">
<title>29&#45;&gt;6</title>
<path fill="none" stroke="black" d="M371,-2879.57C371,-2861.26 371,-2841.43 371,-2822.61"/>
<polygon fill="black" stroke="black" points="374.5,-2822.87 371,-2812.87 367.5,-2822.87 374.5,-2822.87"/>
<text text-anchor="start" x="371" y="-2848.7" font-family="Times,serif" font-size="14.00"> &#160;edge_scl</text>
<text text-anchor="start" x="371" y="-2832.2" font-family="Times,serif" font-size="14.00"> &#160;&amp;&amp; &#160;!scl</text>
</g>
<!-- 29&#45;&gt;29 -->
<g id="edge64" class="edge">
<title>29&#45;&gt;29</title>
<path fill="none" stroke="black" d="M440.81,-2970.64C452.74,-2968.09 461,-2961.88 461,-2952 461,-2945.52 457.44,-2940.61 451.62,-2937.29"/>
<polygon fill="black" stroke="black" points="452.83,-2934 442.23,-2933.88 450.44,-2940.58 452.83,-2934"/>
</g>
<!-- 30&#45;&gt;7 -->
<g id="edge65" class="edge">
<title>30&#45;&gt;7</title>
<path fill="none" stroke="black" d="M551,-2666.57C551,-2648.26 551,-2628.43 551,-2609.61"/>
<polygon fill="black" stroke="black" points="554.5,-2609.87 551,-2599.87 547.5,-2609.87 554.5,-2609.87"/>
<text text-anchor="start" x="551" y="-2635.7" font-family="Times,serif" font-size="14.00"> &#160;edge_scl</text>
<text text-anchor="start" x="551" y="-2619.2" font-family="Times,serif" font-size="14.00"> &#160;&amp;&amp; &#160;!scl</text>
</g>
<!-- 30&#45;&gt;30 -->
<g id="edge66" class="edge">
<title>30&#45;&gt;30</title>
<path fill="none" stroke="black" d="M620.81,-2757.64C632.74,-2755.09 641,-2748.88 641,-2739 641,-2732.52 637.44,-2727.61 631.62,-2724.29"/>
<polygon fill="black" stroke="black" points="632.83,-2721 622.23,-2720.88 630.44,-2727.58 632.83,-2721"/>
</g>
<!-- 31&#45;&gt;8 -->
<g id="edge67" class="edge">
<title>31&#45;&gt;8</title>
<path fill="none" stroke="black" d="M394.52,-962.94C398.38,-913.16 403.56,-846.49 407.6,-794.38"/>
<polygon fill="black" stroke="black" points="411.07,-794.91 408.36,-784.67 404.09,-794.37 411.07,-794.91"/>
<text text-anchor="start" x="406.61" y="-876.2" font-family="Times,serif" font-size="14.00"> &#160;edge_scl</text>
<text text-anchor="start" x="406.61" y="-859.7" font-family="Times,serif" font-size="14.00"> &#160;&amp;&amp; &#160;scl</text>
</g>
<!-- 31&#45;&gt;31 -->
<g id="edge68" class="edge">
<title>31&#45;&gt;31</title>
<path fill="none" stroke="black" d="M458.81,-1053.64C470.74,-1051.09 479,-1044.88 479,-1035 479,-1028.52 475.44,-1023.61 469.62,-1020.29"/>
<polygon fill="black" stroke="black" points="470.83,-1017 460.23,-1016.88 468.44,-1023.58 470.83,-1017"/>
</g>
<!-- 32&#45;&gt;2 -->
<g id="edge69" class="edge">
<title>32&#45;&gt;2</title>
<path fill="none" stroke="black" d="M410.11,-3799.2C415.01,-3774.96 420.55,-3747.58 425.62,-3722.52"/>
<polygon fill="black" stroke="black" points="428.98,-3723.54 427.53,-3713.05 422.12,-3722.15 428.98,-3723.54"/>
<text text-anchor="start" x="423.12" y="-3766.7" font-family="Times,serif" font-size="14.00"> &#160;sda_recv = 1&#39;b1</text>
<text text-anchor="start" x="423.12" y="-3750.2" font-family="Times,serif" font-size="14.00"> &#160;&amp;&amp; edge_scl</text>
<text text-anchor="start" x="423.12" y="-3733.7" font-family="Times,serif" font-size="14.00"> &#160;&amp;&amp; &#160;scl</text>
</g>
<!-- 32&#45;&gt;15 -->
<g id="edge70" class="edge">
<title>32&#45;&gt;15</title>
<path fill="none" stroke="black" d="M364.99,-3804.59C350.21,-3779 330.58,-3750.86 307,-3730.5 292.32,-3717.82 279.28,-3727.71 267.25,-3712.5 207.84,-3637.38 259.8,-3590.61 226,-3501 223.6,-3494.63 220.76,-3488.18 217.67,-3481.83"/>
<polygon fill="black" stroke="black" points="220.97,-3480.61 213.32,-3473.29 214.74,-3483.78 220.97,-3480.61"/>
<text text-anchor="start" x="267.25" y="-3651.95" font-family="Times,serif" font-size="14.00"> &#160;sda_recv = 1&#39;b0</text>
<text text-anchor="start" x="267.25" y="-3635.45" font-family="Times,serif" font-size="14.00"> &#160;&amp;&amp; edge_scl</text>
<text text-anchor="start" x="267.25" y="-3618.95" font-family="Times,serif" font-size="14.00"> &#160;&amp;&amp; &#160;scl</text>
</g>
<!-- 32&#45;&gt;32 -->
<g id="edge71" class="edge">
<title>32&#45;&gt;32</title>
<path fill="none" stroke="black" d="M465.43,-3890.17C477.56,-3887.48 486,-3880.76 486,-3870 486,-3862.77 482.19,-3857.37 476.01,-3853.78"/>
<polygon fill="black" stroke="black" points="477.44,-3850.58 466.85,-3850.36 475,-3857.14 477.44,-3850.58"/>
</g>
<!-- 33&#45;&gt;3 -->
<g id="edge72" class="edge">
<title>33&#45;&gt;3</title>
<path fill="none" stroke="black" d="M371,-1814.57C371,-1796.26 371,-1776.43 371,-1757.61"/>
<polygon fill="black" stroke="black" points="374.5,-1757.87 371,-1747.87 367.5,-1757.87 374.5,-1757.87"/>
<text text-anchor="start" x="371" y="-1783.7" font-family="Times,serif" font-size="14.00"> &#160;edge_scl</text>
<text text-anchor="start" x="371" y="-1767.2" font-family="Times,serif" font-size="14.00"> &#160;&amp;&amp; &#160;scl</text>
</g>
<!-- 33&#45;&gt;33 -->
<g id="edge73" class="edge">
<title>33&#45;&gt;33</title>
<path fill="none" stroke="black" d="M440.81,-1905.64C452.74,-1903.09 461,-1896.88 461,-1887 461,-1880.52 457.44,-1875.61 451.62,-1872.29"/>
<polygon fill="black" stroke="black" points="452.83,-1869 442.23,-1868.88 450.44,-1875.58 452.83,-1869"/>
</g>
<!-- 34&#45;&gt;1 -->
<g id="edge74" class="edge">
<title>34&#45;&gt;1</title>
<path fill="none" stroke="black" d="M551,-1814.57C551,-1796.26 551,-1776.43 551,-1757.61"/>
<polygon fill="black" stroke="black" points="554.5,-1757.87 551,-1747.87 547.5,-1757.87 554.5,-1757.87"/>
<text text-anchor="start" x="551" y="-1783.7" font-family="Times,serif" font-size="14.00"> &#160;edge_scl</text>
<text text-anchor="start" x="551" y="-1767.2" font-family="Times,serif" font-size="14.00"> &#160;&amp;&amp; &#160;!scl</text>
</g>
<!-- 34&#45;&gt;34 -->
<g id="edge75" class="edge">
<title>34&#45;&gt;34</title>
<path fill="none" stroke="black" d="M620.81,-1905.64C632.74,-1903.09 641,-1896.88 641,-1887 641,-1880.52 637.44,-1875.61 631.62,-1872.29"/>
<polygon fill="black" stroke="black" points="632.83,-1869 622.23,-1868.88 630.44,-1875.58 632.83,-1869"/>
</g>
</g>
</svg>
