<?xml version="1.0" encoding="UTF-8" standalone="no"?>
<!DOCTYPE svg PUBLIC "-//W3C//DTD SVG 1.1//EN"
 "http://www.w3.org/Graphics/SVG/1.1/DTD/svg11.dtd">
<!-- Generated by graphviz version 12.1.1 (0)
 -->
<!-- Pages: 1 -->
<svg width="634pt" height="5342pt"
 viewBox="0.00 0.00 634.00 5342.00" xmlns="http://www.w3.org/2000/svg" xmlns:xlink="http://www.w3.org/1999/xlink">
<g id="graph0" class="graph" transform="scale(1 1) rotate(0) translate(4 5338)">
<polygon fill="white" stroke="none" points="-4,4 -4,-5338 630,-5338 630,4 -4,4"/>
<!-- _reset -->
<!-- 0 -->
<g id="node2" class="node">
<title>0</title>
<ellipse fill="#a2cd5a" stroke="black" cx="449" cy="-5169.5" rx="72" ry="72"/>
<ellipse fill="none" stroke="black" cx="449" cy="-5169.5" rx="76" ry="76"/>
<text text-anchor="middle" x="449" y="-5180.95" font-family="Times,serif" font-size="14.00">RESET</text>
<text text-anchor="middle" x="449" y="-5164.45" font-family="Times,serif" font-size="14.00">SDA_drive = 1&#39;1</text>
<text text-anchor="middle" x="449" y="-5147.95" font-family="Times,serif" font-size="14.00">grab_SDA = 1&#39;0</text>
</g>
<!-- _reset&#45;&gt;0 -->
<g id="edge1" class="edge">
<title>_reset&#45;&gt;0</title>
<path fill="none" stroke="black" d="M449,-5297.57C449,-5287.25 449,-5273.31 449,-5258.43"/>
<polygon fill="black" stroke="black" points="449,-5258.68 445,-5252.68 449,-5246.68 453,-5252.68 449,-5258.68"/>
<text text-anchor="middle" x="465.5" y="-5266.7" font-family="Times,serif" font-size="14.00"> &#160;reset</text>
</g>
<!-- 18 -->
<g id="node20" class="node">
<title>18</title>
<ellipse fill="#a2cd5a" stroke="black" cx="449" cy="-4984.5" rx="72" ry="72"/>
<text text-anchor="middle" x="449" y="-4979.45" font-family="Times,serif" font-size="14.00">IDLE</text>
</g>
<!-- 0&#45;&gt;18 -->
<g id="edge2" class="edge">
<title>0&#45;&gt;18</title>
<path fill="none" stroke="black" d="M449,-5093.01C449,-5084.91 449,-5076.64 449,-5068.47"/>
<polygon fill="black" stroke="black" points="452.5,-5068.51 449,-5058.51 445.5,-5068.51 452.5,-5068.51"/>
</g>
<!-- 1 -->
<g id="node3" class="node">
<title>1</title>
<ellipse fill="#a2cd5a" stroke="black" cx="508" cy="-1674" rx="72" ry="72"/>
<text text-anchor="middle" x="508" y="-1677.2" font-family="Times,serif" font-size="14.00">RB4</text>
<text text-anchor="middle" x="508" y="-1660.7" font-family="Times,serif" font-size="14.00">SDA_drive = mem [3]</text>
</g>
<!-- 1&#45;&gt;1 -->
<g id="edge3" class="edge">
<title>1&#45;&gt;1</title>
<path fill="none" stroke="black" d="M577.81,-1692.64C589.74,-1690.09 598,-1683.88 598,-1674 598,-1667.52 594.44,-1662.61 588.62,-1659.29"/>
<polygon fill="black" stroke="black" points="589.83,-1656 579.23,-1655.88 587.44,-1662.58 589.83,-1656"/>
</g>
<!-- 19 -->
<g id="node21" class="node">
<title>19</title>
<ellipse fill="#a2cd5a" stroke="black" cx="508" cy="-1461" rx="72" ry="72"/>
<text text-anchor="middle" x="508" y="-1464.2" font-family="Times,serif" font-size="14.00">RB3</text>
<text text-anchor="middle" x="508" y="-1447.7" font-family="Times,serif" font-size="14.00">SDA_drive = mem [2]</text>
</g>
<!-- 1&#45;&gt;19 -->
<g id="edge4" class="edge">
<title>1&#45;&gt;19</title>
<path fill="none" stroke="black" d="M508,-1601.57C508,-1583.26 508,-1563.43 508,-1544.61"/>
<polygon fill="black" stroke="black" points="511.5,-1544.87 508,-1534.87 504.5,-1544.87 511.5,-1544.87"/>
<text text-anchor="start" x="508" y="-1570.7" font-family="Times,serif" font-size="14.00"> &#160;edge_scl</text>
<text text-anchor="start" x="508" y="-1554.2" font-family="Times,serif" font-size="14.00"> &#160;&amp;&amp; &#160;!scl</text>
</g>
<!-- 2 -->
<g id="node4" class="node">
<title>2</title>
<ellipse fill="#a2cd5a" stroke="black" cx="412" cy="-3640.5" rx="72" ry="72"/>
<text text-anchor="middle" x="412" y="-3635.45" font-family="Times,serif" font-size="14.00">AB2</text>
</g>
<!-- 2&#45;&gt;2 -->
<g id="edge5" class="edge">
<title>2&#45;&gt;2</title>
<path fill="none" stroke="black" d="M481.43,-3660.67C493.56,-3657.98 502,-3651.26 502,-3640.5 502,-3633.27 498.19,-3627.87 492.01,-3624.28"/>
<polygon fill="black" stroke="black" points="493.44,-3621.08 482.85,-3620.86 491,-3627.64 493.44,-3621.08"/>
</g>
<!-- 15 -->
<g id="node17" class="node">
<title>15</title>
<ellipse fill="#a2cd5a" stroke="black" cx="157" cy="-3411" rx="72" ry="72"/>
<text text-anchor="middle" x="157" y="-3405.95" font-family="Times,serif" font-size="14.00">WRONG_ADDR</text>
</g>
<!-- 2&#45;&gt;15 -->
<g id="edge6" class="edge">
<title>2&#45;&gt;15</title>
<path fill="none" stroke="black" d="M358.54,-3591.81C317.74,-3555.41 261.46,-3505.2 218.74,-3467.08"/>
<polygon fill="black" stroke="black" points="221.31,-3464.68 211.52,-3460.64 216.65,-3469.91 221.31,-3464.68"/>
<text text-anchor="start" x="307.34" y="-3537.2" font-family="Times,serif" font-size="14.00"> &#160;sda_recv</text>
<text text-anchor="start" x="307.34" y="-3520.7" font-family="Times,serif" font-size="14.00"> &#160;&amp;&amp; edge_scl</text>
<text text-anchor="start" x="307.34" y="-3504.2" font-family="Times,serif" font-size="14.00"> &#160;&amp;&amp; &#160;scl</text>
</g>
<!-- 20 -->
<g id="node22" class="node">
<title>20</title>
<ellipse fill="#a2cd5a" stroke="black" cx="446" cy="-3411" rx="72" ry="72"/>
<text text-anchor="middle" x="446" y="-3405.95" font-family="Times,serif" font-size="14.00">AB1</text>
</g>
<!-- 2&#45;&gt;20 -->
<g id="edge7" class="edge">
<title>2&#45;&gt;20</title>
<path fill="none" stroke="black" d="M422.52,-3569.08C426.09,-3545.2 430.11,-3518.33 433.8,-3493.65"/>
<polygon fill="black" stroke="black" points="437.23,-3494.39 435.24,-3483.98 430.3,-3493.35 437.23,-3494.39"/>
<text text-anchor="start" x="432.05" y="-3537.2" font-family="Times,serif" font-size="14.00"> &#160;!sda_recv</text>
<text text-anchor="start" x="432.05" y="-3520.7" font-family="Times,serif" font-size="14.00"> &#160;&amp;&amp; edge_scl</text>
<text text-anchor="start" x="432.05" y="-3504.2" font-family="Times,serif" font-size="14.00"> &#160;&amp;&amp; &#160;scl</text>
</g>
<!-- 3 -->
<g id="node5" class="node">
<title>3</title>
<ellipse fill="#a2cd5a" stroke="black" cx="328" cy="-1674" rx="72" ry="72"/>
<text text-anchor="middle" x="328" y="-1677.2" font-family="Times,serif" font-size="14.00">WB5</text>
<text text-anchor="middle" x="328" y="-1660.7" font-family="Times,serif" font-size="14.00">mem[4] = SDA_recv</text>
</g>
<!-- 3&#45;&gt;3 -->
<g id="edge8" class="edge">
<title>3&#45;&gt;3</title>
<path fill="none" stroke="black" d="M397.81,-1692.64C409.74,-1690.09 418,-1683.88 418,-1674 418,-1667.52 414.44,-1662.61 408.62,-1659.29"/>
<polygon fill="black" stroke="black" points="409.83,-1656 399.23,-1655.88 407.44,-1662.58 409.83,-1656"/>
</g>
<!-- 21 -->
<g id="node23" class="node">
<title>21</title>
<ellipse fill="#a2cd5a" stroke="black" cx="328" cy="-1461" rx="72" ry="72"/>
<text text-anchor="middle" x="328" y="-1464.2" font-family="Times,serif" font-size="14.00">WB4</text>
<text text-anchor="middle" x="328" y="-1447.7" font-family="Times,serif" font-size="14.00">mem[3] = SDA_recv</text>
</g>
<!-- 3&#45;&gt;21 -->
<g id="edge9" class="edge">
<title>3&#45;&gt;21</title>
<path fill="none" stroke="black" d="M328,-1601.57C328,-1583.26 328,-1563.43 328,-1544.61"/>
<polygon fill="black" stroke="black" points="331.5,-1544.87 328,-1534.87 324.5,-1544.87 331.5,-1544.87"/>
<text text-anchor="start" x="328" y="-1570.7" font-family="Times,serif" font-size="14.00"> &#160;edge_scl</text>
<text text-anchor="start" x="328" y="-1554.2" font-family="Times,serif" font-size="14.00"> &#160;&amp;&amp; &#160;scl</text>
</g>
<!-- 4 -->
<g id="node6" class="node">
<title>4</title>
<ellipse fill="#a2cd5a" stroke="black" cx="188" cy="-4558.5" rx="72" ry="72"/>
<text text-anchor="middle" x="188" y="-4553.45" font-family="Times,serif" font-size="14.00">AB6</text>
</g>
<!-- 4&#45;&gt;4 -->
<g id="edge10" class="edge">
<title>4&#45;&gt;4</title>
<path fill="none" stroke="black" d="M257.43,-4578.67C269.56,-4575.98 278,-4569.26 278,-4558.5 278,-4551.27 274.19,-4545.87 268.01,-4542.28"/>
<polygon fill="black" stroke="black" points="269.44,-4539.08 258.85,-4538.86 267,-4545.64 269.44,-4539.08"/>
</g>
<!-- 4&#45;&gt;15 -->
<g id="edge11" class="edge">
<title>4&#45;&gt;15</title>
<path fill="none" stroke="black" d="M181.09,-4486.53C167.15,-4344.38 136.52,-4037.44 131,-4027.5 124.7,-4016.15 113.69,-4021.17 108,-4009.5 99.34,-3991.73 69.97,-4106.66 126,-3568.5 128.6,-3543.53 133.24,-3516.63 138.16,-3492.3"/>
<polygon fill="black" stroke="black" points="141.53,-3493.29 140.12,-3482.79 134.67,-3491.88 141.53,-3493.29"/>
<text text-anchor="start" x="108" y="-3996.2" font-family="Times,serif" font-size="14.00"> &#160;sda_recv</text>
<text text-anchor="start" x="108" y="-3979.7" font-family="Times,serif" font-size="14.00"> &#160;&amp;&amp; edge_scl</text>
<text text-anchor="start" x="108" y="-3963.2" font-family="Times,serif" font-size="14.00"> &#160;&amp;&amp; &#160;scl</text>
</g>
<!-- 22 -->
<g id="node24" class="node">
<title>22</title>
<ellipse fill="#a2cd5a" stroke="black" cx="255" cy="-4329" rx="72" ry="72"/>
<text text-anchor="middle" x="255" y="-4323.95" font-family="Times,serif" font-size="14.00">AB5</text>
</g>
<!-- 4&#45;&gt;22 -->
<g id="edge12" class="edge">
<title>4&#45;&gt;22</title>
<path fill="none" stroke="black" d="M208.19,-4488.93C215.58,-4463.86 223.99,-4435.3 231.63,-4409.36"/>
<polygon fill="black" stroke="black" points="234.95,-4410.46 234.42,-4399.88 228.24,-4408.48 234.95,-4410.46"/>
<text text-anchor="start" x="227.5" y="-4455.2" font-family="Times,serif" font-size="14.00"> &#160;!sda_recv</text>
<text text-anchor="start" x="227.5" y="-4438.7" font-family="Times,serif" font-size="14.00"> &#160;&amp;&amp; edge_scl</text>
<text text-anchor="start" x="227.5" y="-4422.2" font-family="Times,serif" font-size="14.00"> &#160;&amp;&amp; &#160;scl</text>
</g>
<!-- 5 -->
<g id="node7" class="node">
<title>5</title>
<ellipse fill="#a2cd5a" stroke="black" cx="328" cy="-2526" rx="72" ry="72"/>
<text text-anchor="middle" x="328" y="-2537.45" font-family="Times,serif" font-size="14.00">WRITE</text>
<text text-anchor="middle" x="328" y="-2520.95" font-family="Times,serif" font-size="14.00">SDA_drive = 1&#39;1</text>
<text text-anchor="middle" x="328" y="-2504.45" font-family="Times,serif" font-size="14.00">grab_SDA = 1&#39;0</text>
</g>
<!-- 23 -->
<g id="node25" class="node">
<title>23</title>
<ellipse fill="#a2cd5a" stroke="black" cx="328" cy="-2313" rx="72" ry="72"/>
<text text-anchor="middle" x="328" y="-2316.2" font-family="Times,serif" font-size="14.00">WB8</text>
<text text-anchor="middle" x="328" y="-2299.7" font-family="Times,serif" font-size="14.00">mem[7] = SDA_recv</text>
</g>
<!-- 5&#45;&gt;23 -->
<g id="edge13" class="edge">
<title>5&#45;&gt;23</title>
<path fill="none" stroke="black" d="M328,-2453.57C328,-2435.26 328,-2415.43 328,-2396.61"/>
<polygon fill="black" stroke="black" points="331.5,-2396.87 328,-2386.87 324.5,-2396.87 331.5,-2396.87"/>
</g>
<!-- 6 -->
<g id="node8" class="node">
<title>6</title>
<ellipse fill="#a2cd5a" stroke="black" cx="328" cy="-2739" rx="72" ry="72"/>
<text text-anchor="middle" x="328" y="-2750.45" font-family="Times,serif" font-size="14.00">ACK_WRITE</text>
<text text-anchor="middle" x="328" y="-2733.95" font-family="Times,serif" font-size="14.00">SDA_drive = 1&#39;0</text>
<text text-anchor="middle" x="328" y="-2717.45" font-family="Times,serif" font-size="14.00">grab_SDA = 1&#39;1</text>
</g>
<!-- 6&#45;&gt;5 -->
<g id="edge14" class="edge">
<title>6&#45;&gt;5</title>
<path fill="none" stroke="black" d="M328,-2666.57C328,-2648.26 328,-2628.43 328,-2609.61"/>
<polygon fill="black" stroke="black" points="331.5,-2609.87 328,-2599.87 324.5,-2609.87 331.5,-2609.87"/>
<text text-anchor="start" x="328" y="-2635.7" font-family="Times,serif" font-size="14.00"> &#160;edge_scl</text>
<text text-anchor="start" x="328" y="-2619.2" font-family="Times,serif" font-size="14.00"> &#160;&amp;&amp; &#160;!scl</text>
</g>
<!-- 6&#45;&gt;6 -->
<g id="edge15" class="edge">
<title>6&#45;&gt;6</title>
<path fill="none" stroke="black" d="M397.81,-2757.64C409.74,-2755.09 418,-2748.88 418,-2739 418,-2732.52 414.44,-2727.61 408.62,-2724.29"/>
<polygon fill="black" stroke="black" points="409.83,-2721 399.23,-2720.88 407.44,-2727.58 409.83,-2721"/>
</g>
<!-- 7 -->
<g id="node9" class="node">
<title>7</title>
<ellipse fill="#a2cd5a" stroke="black" cx="508" cy="-2526" rx="72" ry="72"/>
<text text-anchor="middle" x="508" y="-2529.2" font-family="Times,serif" font-size="14.00">RB8</text>
<text text-anchor="middle" x="508" y="-2512.7" font-family="Times,serif" font-size="14.00">SDA_drive = mem [7]</text>
</g>
<!-- 7&#45;&gt;7 -->
<g id="edge16" class="edge">
<title>7&#45;&gt;7</title>
<path fill="none" stroke="black" d="M577.81,-2544.64C589.74,-2542.09 598,-2535.88 598,-2526 598,-2519.52 594.44,-2514.61 588.62,-2511.29"/>
<polygon fill="black" stroke="black" points="589.83,-2508 579.23,-2507.88 587.44,-2514.58 589.83,-2508"/>
</g>
<!-- 25 -->
<g id="node27" class="node">
<title>25</title>
<ellipse fill="#a2cd5a" stroke="black" cx="508" cy="-2313" rx="72" ry="72"/>
<text text-anchor="middle" x="508" y="-2316.2" font-family="Times,serif" font-size="14.00">RB7</text>
<text text-anchor="middle" x="508" y="-2299.7" font-family="Times,serif" font-size="14.00">SDA_drive = mem [6]</text>
</g>
<!-- 7&#45;&gt;25 -->
<g id="edge17" class="edge">
<title>7&#45;&gt;25</title>
<path fill="none" stroke="black" d="M508,-2453.57C508,-2435.26 508,-2415.43 508,-2396.61"/>
<polygon fill="black" stroke="black" points="511.5,-2396.87 508,-2386.87 504.5,-2396.87 511.5,-2396.87"/>
<text text-anchor="start" x="508" y="-2422.7" font-family="Times,serif" font-size="14.00"> &#160;edge_scl</text>
<text text-anchor="start" x="508" y="-2406.2" font-family="Times,serif" font-size="14.00"> &#160;&amp;&amp; &#160;!scl</text>
</g>
<!-- 8 -->
<g id="node10" class="node">
<title>8</title>
<ellipse fill="#a2cd5a" stroke="black" cx="374" cy="-711" rx="72" ry="72"/>
<text text-anchor="middle" x="374" y="-714.2" font-family="Times,serif" font-size="14.00">WB1</text>
<text text-anchor="middle" x="374" y="-697.7" font-family="Times,serif" font-size="14.00">mem[0] = SDA_recv</text>
</g>
<!-- 8&#45;&gt;8 -->
<g id="edge18" class="edge">
<title>8&#45;&gt;8</title>
<path fill="none" stroke="black" d="M443.81,-729.64C455.74,-727.09 464,-720.88 464,-711 464,-704.52 460.44,-699.61 454.62,-696.29"/>
<polygon fill="black" stroke="black" points="455.83,-693 445.23,-692.88 453.44,-699.58 455.83,-693"/>
</g>
<!-- 26 -->
<g id="node28" class="node">
<title>26</title>
<ellipse fill="#a2cd5a" stroke="black" cx="378" cy="-498" rx="72" ry="72"/>
<text text-anchor="middle" x="378" y="-492.95" font-family="Times,serif" font-size="14.00">END_WRITE</text>
</g>
<!-- 8&#45;&gt;26 -->
<g id="edge19" class="edge">
<title>8&#45;&gt;26</title>
<path fill="none" stroke="black" d="M375.35,-638.57C375.7,-620.26 376.08,-600.43 376.43,-581.61"/>
<polygon fill="black" stroke="black" points="379.93,-581.94 376.62,-571.87 372.93,-581.81 379.93,-581.94"/>
<text text-anchor="start" x="376.24" y="-607.7" font-family="Times,serif" font-size="14.00"> &#160;edge_scl</text>
<text text-anchor="start" x="376.24" y="-591.2" font-family="Times,serif" font-size="14.00"> &#160;&amp;&amp; &#160;scl</text>
</g>
<!-- 9 -->
<g id="node11" class="node">
<title>9</title>
<ellipse fill="#a2cd5a" stroke="black" cx="508" cy="-1248" rx="72" ry="72"/>
<text text-anchor="middle" x="508" y="-1251.2" font-family="Times,serif" font-size="14.00">RB2</text>
<text text-anchor="middle" x="508" y="-1234.7" font-family="Times,serif" font-size="14.00">SDA_drive = mem [1]</text>
</g>
<!-- 9&#45;&gt;9 -->
<g id="edge20" class="edge">
<title>9&#45;&gt;9</title>
<path fill="none" stroke="black" d="M577.81,-1266.64C589.74,-1264.09 598,-1257.88 598,-1248 598,-1241.52 594.44,-1236.61 588.62,-1233.29"/>
<polygon fill="black" stroke="black" points="589.83,-1230 579.23,-1229.88 587.44,-1236.58 589.83,-1230"/>
</g>
<!-- 28 -->
<g id="node30" class="node">
<title>28</title>
<ellipse fill="#a2cd5a" stroke="black" cx="508" cy="-873" rx="72" ry="72"/>
<text text-anchor="middle" x="508" y="-876.2" font-family="Times,serif" font-size="14.00">RB1</text>
<text text-anchor="middle" x="508" y="-859.7" font-family="Times,serif" font-size="14.00">SDA_drive = mem [0]</text>
</g>
<!-- 9&#45;&gt;28 -->
<g id="edge21" class="edge">
<title>9&#45;&gt;28</title>
<path fill="none" stroke="black" d="M508,-1175.52C508,-1112.93 508,-1021.99 508,-956.36"/>
<polygon fill="black" stroke="black" points="511.5,-956.75 508,-946.75 504.5,-956.75 511.5,-956.75"/>
<text text-anchor="start" x="508" y="-1144.7" font-family="Times,serif" font-size="14.00"> &#160;edge_scl</text>
<text text-anchor="start" x="508" y="-1128.2" font-family="Times,serif" font-size="14.00"> &#160;&amp;&amp; &#160;!scl</text>
</g>
<!-- 10 -->
<g id="node12" class="node">
<title>10</title>
<ellipse fill="#a2cd5a" stroke="black" cx="508" cy="-2952" rx="72" ry="72"/>
<text text-anchor="middle" x="508" y="-2946.95" font-family="Times,serif" font-size="14.00">PREAD</text>
</g>
<!-- 10&#45;&gt;10 -->
<g id="edge22" class="edge">
<title>10&#45;&gt;10</title>
<path fill="none" stroke="black" d="M577.81,-2970.64C589.74,-2968.09 598,-2961.88 598,-2952 598,-2945.52 594.44,-2940.61 588.62,-2937.29"/>
<polygon fill="black" stroke="black" points="589.83,-2934 579.23,-2933.88 587.44,-2940.58 589.83,-2934"/>
</g>
<!-- 30 -->
<g id="node32" class="node">
<title>30</title>
<ellipse fill="#a2cd5a" stroke="black" cx="508" cy="-2739" rx="72" ry="72"/>
<text text-anchor="middle" x="508" y="-2750.45" font-family="Times,serif" font-size="14.00">READ</text>
<text text-anchor="middle" x="508" y="-2733.95" font-family="Times,serif" font-size="14.00">SDA_drive = 1&#39;0</text>
<text text-anchor="middle" x="508" y="-2717.45" font-family="Times,serif" font-size="14.00">grab_SDA = 1&#39;1</text>
</g>
<!-- 10&#45;&gt;30 -->
<g id="edge23" class="edge">
<title>10&#45;&gt;30</title>
<path fill="none" stroke="black" d="M508,-2879.57C508,-2861.26 508,-2841.43 508,-2822.61"/>
<polygon fill="black" stroke="black" points="511.5,-2822.87 508,-2812.87 504.5,-2822.87 511.5,-2822.87"/>
<text text-anchor="start" x="508" y="-2848.7" font-family="Times,serif" font-size="14.00"> &#160;edge_scl</text>
<text text-anchor="start" x="508" y="-2832.2" font-family="Times,serif" font-size="14.00"> &#160;&amp;&amp; &#160;!scl</text>
</g>
<!-- 11 -->
<g id="node13" class="node">
<title>11</title>
<ellipse fill="#a2cd5a" stroke="black" cx="446" cy="-3181.5" rx="72" ry="72"/>
<text text-anchor="middle" x="446" y="-3176.45" font-family="Times,serif" font-size="14.00">OPERATION</text>
</g>
<!-- 11&#45;&gt;10 -->
<g id="edge24" class="edge">
<title>11&#45;&gt;10</title>
<path fill="none" stroke="black" d="M464.77,-3111.63C471.57,-3086.68 479.3,-3058.3 486.33,-3032.52"/>
<polygon fill="black" stroke="black" points="489.64,-3033.67 488.9,-3023.1 482.89,-3031.83 489.64,-3033.67"/>
<text text-anchor="start" x="482.55" y="-3078.2" font-family="Times,serif" font-size="14.00"> &#160;sda_recv</text>
<text text-anchor="start" x="482.55" y="-3061.7" font-family="Times,serif" font-size="14.00"> &#160;&amp;&amp; edge_scl</text>
<text text-anchor="start" x="482.55" y="-3045.2" font-family="Times,serif" font-size="14.00"> &#160;&amp;&amp; &#160;scl</text>
</g>
<!-- 11&#45;&gt;11 -->
<g id="edge25" class="edge">
<title>11&#45;&gt;11</title>
<path fill="none" stroke="black" d="M515.43,-3201.67C527.56,-3198.98 536,-3192.26 536,-3181.5 536,-3174.27 532.19,-3168.87 526.01,-3165.28"/>
<polygon fill="black" stroke="black" points="527.44,-3162.08 516.85,-3161.86 525,-3168.64 527.44,-3162.08"/>
</g>
<!-- 29 -->
<g id="node31" class="node">
<title>29</title>
<ellipse fill="#a2cd5a" stroke="black" cx="328" cy="-2952" rx="72" ry="72"/>
<text text-anchor="middle" x="328" y="-2946.95" font-family="Times,serif" font-size="14.00">PWRITE</text>
</g>
<!-- 11&#45;&gt;29 -->
<g id="edge26" class="edge">
<title>11&#45;&gt;29</title>
<path fill="none" stroke="black" d="M404.62,-3122.63C398.04,-3112.47 391.58,-3101.83 386,-3091.5 375.56,-3072.16 365.71,-3050.54 357.19,-3030.23"/>
<polygon fill="black" stroke="black" points="360.49,-3029.06 353.44,-3021.15 354.02,-3031.73 360.49,-3029.06"/>
<text text-anchor="start" x="386" y="-3078.2" font-family="Times,serif" font-size="14.00"> &#160;!sda_recv</text>
<text text-anchor="start" x="386" y="-3061.7" font-family="Times,serif" font-size="14.00"> &#160;&amp;&amp; edge_scl</text>
<text text-anchor="start" x="386" y="-3045.2" font-family="Times,serif" font-size="14.00"> &#160;&amp;&amp; &#160;scl</text>
</g>
<!-- 12 -->
<g id="node14" class="node">
<title>12</title>
<ellipse fill="#a2cd5a" stroke="black" cx="328" cy="-1248" rx="72" ry="72"/>
<text text-anchor="middle" x="328" y="-1251.2" font-family="Times,serif" font-size="14.00">WB3</text>
<text text-anchor="middle" x="328" y="-1234.7" font-family="Times,serif" font-size="14.00">mem[2] = SDA_recv</text>
</g>
<!-- 12&#45;&gt;12 -->
<g id="edge27" class="edge">
<title>12&#45;&gt;12</title>
<path fill="none" stroke="black" d="M397.81,-1266.64C409.74,-1264.09 418,-1257.88 418,-1248 418,-1241.52 414.44,-1236.61 408.62,-1233.29"/>
<polygon fill="black" stroke="black" points="409.83,-1230 399.23,-1229.88 407.44,-1236.58 409.83,-1230"/>
</g>
<!-- 31 -->
<g id="node33" class="node">
<title>31</title>
<ellipse fill="#a2cd5a" stroke="black" cx="346" cy="-1035" rx="72" ry="72"/>
<text text-anchor="middle" x="346" y="-1038.2" font-family="Times,serif" font-size="14.00">WB2</text>
<text text-anchor="middle" x="346" y="-1021.7" font-family="Times,serif" font-size="14.00">mem[1] = SDA_recv</text>
</g>
<!-- 12&#45;&gt;31 -->
<g id="edge28" class="edge">
<title>12&#45;&gt;31</title>
<path fill="none" stroke="black" d="M334.07,-1175.86C335.64,-1157.44 337.34,-1137.46 338.96,-1118.52"/>
<polygon fill="black" stroke="black" points="342.44,-1118.96 339.8,-1108.7 335.46,-1118.37 342.44,-1118.96"/>
<text text-anchor="start" x="338.08" y="-1144.7" font-family="Times,serif" font-size="14.00"> &#160;edge_scl</text>
<text text-anchor="start" x="338.08" y="-1128.2" font-family="Times,serif" font-size="14.00"> &#160;&amp;&amp; &#160;scl</text>
</g>
<!-- 13 -->
<g id="node15" class="node">
<title>13</title>
<ellipse fill="#a2cd5a" stroke="black" cx="307" cy="-4099.5" rx="72" ry="72"/>
<text text-anchor="middle" x="307" y="-4094.45" font-family="Times,serif" font-size="14.00">AB4</text>
</g>
<!-- 13&#45;&gt;13 -->
<g id="edge29" class="edge">
<title>13&#45;&gt;13</title>
<path fill="none" stroke="black" d="M376.43,-4119.67C388.56,-4116.98 397,-4110.26 397,-4099.5 397,-4092.27 393.19,-4086.87 387.01,-4083.28"/>
<polygon fill="black" stroke="black" points="388.44,-4080.08 377.85,-4079.86 386,-4086.64 388.44,-4080.08"/>
</g>
<!-- 13&#45;&gt;15 -->
<g id="edge30" class="edge">
<title>13&#45;&gt;15</title>
<path fill="none" stroke="black" d="M295.48,-4028.25C281.26,-3944.98 257.12,-3815.27 242,-3798 226.44,-3780.23 206.3,-3798.8 192,-3780 173.18,-3755.26 174.58,-3531.88 171,-3501 170.71,-3498.54 170.41,-3496.04 170.09,-3493.52"/>
<polygon fill="black" stroke="black" points="173.6,-3493.32 168.81,-3483.87 166.66,-3494.25 173.6,-3493.32"/>
<text text-anchor="start" x="192" y="-3766.7" font-family="Times,serif" font-size="14.00"> &#160;sda_recv</text>
<text text-anchor="start" x="192" y="-3750.2" font-family="Times,serif" font-size="14.00"> &#160;&amp;&amp; edge_scl</text>
<text text-anchor="start" x="192" y="-3733.7" font-family="Times,serif" font-size="14.00"> &#160;&amp;&amp; &#160;scl</text>
</g>
<!-- 32 -->
<g id="node34" class="node">
<title>32</title>
<ellipse fill="#a2cd5a" stroke="black" cx="366" cy="-3870" rx="72" ry="72"/>
<text text-anchor="middle" x="366" y="-3864.95" font-family="Times,serif" font-size="14.00">AB3</text>
</g>
<!-- 13&#45;&gt;32 -->
<g id="edge31" class="edge">
<title>13&#45;&gt;32</title>
<path fill="none" stroke="black" d="M324.94,-4029.32C331.38,-4004.49 338.69,-3976.31 345.34,-3950.67"/>
<polygon fill="black" stroke="black" points="348.64,-3951.88 347.76,-3941.32 341.86,-3950.12 348.64,-3951.88"/>
<text text-anchor="start" x="341.78" y="-3996.2" font-family="Times,serif" font-size="14.00"> &#160;!sda_recv</text>
<text text-anchor="start" x="341.78" y="-3979.7" font-family="Times,serif" font-size="14.00"> &#160;&amp;&amp; edge_scl</text>
<text text-anchor="start" x="341.78" y="-3963.2" font-family="Times,serif" font-size="14.00"> &#160;&amp;&amp; &#160;scl</text>
</g>
<!-- 14 -->
<g id="node16" class="node">
<title>14</title>
<ellipse fill="#a2cd5a" stroke="black" cx="328" cy="-2100" rx="72" ry="72"/>
<text text-anchor="middle" x="328" y="-2103.2" font-family="Times,serif" font-size="14.00">WB7</text>
<text text-anchor="middle" x="328" y="-2086.7" font-family="Times,serif" font-size="14.00">mem[6] = SDA_recv</text>
</g>
<!-- 14&#45;&gt;14 -->
<g id="edge32" class="edge">
<title>14&#45;&gt;14</title>
<path fill="none" stroke="black" d="M397.81,-2118.64C409.74,-2116.09 418,-2109.88 418,-2100 418,-2093.52 414.44,-2088.61 408.62,-2085.29"/>
<polygon fill="black" stroke="black" points="409.83,-2082 399.23,-2081.88 407.44,-2088.58 409.83,-2082"/>
</g>
<!-- 33 -->
<g id="node35" class="node">
<title>33</title>
<ellipse fill="#a2cd5a" stroke="black" cx="328" cy="-1887" rx="72" ry="72"/>
<text text-anchor="middle" x="328" y="-1890.2" font-family="Times,serif" font-size="14.00">WB6</text>
<text text-anchor="middle" x="328" y="-1873.7" font-family="Times,serif" font-size="14.00">mem[5] = SDA_recv</text>
</g>
<!-- 14&#45;&gt;33 -->
<g id="edge33" class="edge">
<title>14&#45;&gt;33</title>
<path fill="none" stroke="black" d="M328,-2027.57C328,-2009.26 328,-1989.43 328,-1970.61"/>
<polygon fill="black" stroke="black" points="331.5,-1970.87 328,-1960.87 324.5,-1970.87 331.5,-1970.87"/>
<text text-anchor="start" x="328" y="-1996.7" font-family="Times,serif" font-size="14.00"> &#160;edge_scl</text>
<text text-anchor="start" x="328" y="-1980.2" font-family="Times,serif" font-size="14.00"> &#160;&amp;&amp; &#160;scl</text>
</g>
<!-- 15&#45;&gt;18 -->
<g id="edge34" class="edge">
<title>15&#45;&gt;18</title>
<path fill="none" stroke="black" d="M101.21,-3457.19C56.08,-3499.16 0,-3566.08 0,-3639.5 0,-4789 0,-4789 0,-4789 0,-4946.4 235.2,-4977.84 365.14,-4983.21"/>
<polygon fill="black" stroke="black" points="364.98,-4986.7 375.1,-4983.57 365.23,-4979.71 364.98,-4986.7"/>
</g>
<!-- 16 -->
<g id="node18" class="node">
<title>16</title>
<ellipse fill="#a2cd5a" stroke="black" cx="508" cy="-2100" rx="72" ry="72"/>
<text text-anchor="middle" x="508" y="-2103.2" font-family="Times,serif" font-size="14.00">RB6</text>
<text text-anchor="middle" x="508" y="-2086.7" font-family="Times,serif" font-size="14.00">SDA_drive = mem [5]</text>
</g>
<!-- 16&#45;&gt;16 -->
<g id="edge35" class="edge">
<title>16&#45;&gt;16</title>
<path fill="none" stroke="black" d="M577.81,-2118.64C589.74,-2116.09 598,-2109.88 598,-2100 598,-2093.52 594.44,-2088.61 588.62,-2085.29"/>
<polygon fill="black" stroke="black" points="589.83,-2082 579.23,-2081.88 587.44,-2088.58 589.83,-2082"/>
</g>
<!-- 34 -->
<g id="node36" class="node">
<title>34</title>
<ellipse fill="#a2cd5a" stroke="black" cx="508" cy="-1887" rx="72" ry="72"/>
<text text-anchor="middle" x="508" y="-1890.2" font-family="Times,serif" font-size="14.00">RB5</text>
<text text-anchor="middle" x="508" y="-1873.7" font-family="Times,serif" font-size="14.00">SDA_drive = mem [4]</text>
</g>
<!-- 16&#45;&gt;34 -->
<g id="edge36" class="edge">
<title>16&#45;&gt;34</title>
<path fill="none" stroke="black" d="M508,-2027.57C508,-2009.26 508,-1989.43 508,-1970.61"/>
<polygon fill="black" stroke="black" points="511.5,-1970.87 508,-1960.87 504.5,-1970.87 511.5,-1970.87"/>
<text text-anchor="start" x="508" y="-1996.7" font-family="Times,serif" font-size="14.00"> &#160;edge_scl</text>
<text text-anchor="start" x="508" y="-1980.2" font-family="Times,serif" font-size="14.00"> &#160;&amp;&amp; &#160;!scl</text>
</g>
<!-- 17 -->
<g id="node19" class="node">
<title>17</title>
<ellipse fill="#a2cd5a" stroke="black" cx="386" cy="-285" rx="72" ry="72"/>
<text text-anchor="middle" x="386" y="-296.45" font-family="Times,serif" font-size="14.00">ACK_WRITE2</text>
<text text-anchor="middle" x="386" y="-279.95" font-family="Times,serif" font-size="14.00">SDA_drive = 1&#39;0</text>
<text text-anchor="middle" x="386" y="-263.45" font-family="Times,serif" font-size="14.00">grab_SDA = 1&#39;1</text>
</g>
<!-- 17&#45;&gt;17 -->
<g id="edge37" class="edge">
<title>17&#45;&gt;17</title>
<path fill="none" stroke="black" d="M455.81,-303.64C467.74,-301.09 476,-294.88 476,-285 476,-278.52 472.44,-273.61 466.62,-270.29"/>
<polygon fill="black" stroke="black" points="467.83,-267 457.23,-266.88 465.44,-273.58 467.83,-267"/>
</g>
<!-- 24 -->
<g id="node26" class="node">
<title>24</title>
<ellipse fill="#a2cd5a" stroke="black" cx="508" cy="-72" rx="72" ry="72"/>
<text text-anchor="middle" x="508" y="-75.2" font-family="Times,serif" font-size="14.00">RELEASE</text>
<text text-anchor="middle" x="508" y="-58.7" font-family="Times,serif" font-size="14.00">grab_SDA = 1&#39;0</text>
</g>
<!-- 17&#45;&gt;24 -->
<g id="edge38" class="edge">
<title>17&#45;&gt;24</title>
<path fill="none" stroke="black" d="M410.16,-216.84C417.78,-198.55 426.88,-179.09 437,-162 442.18,-153.26 448.14,-144.44 454.36,-135.92"/>
<polygon fill="black" stroke="black" points="457.08,-138.13 460.28,-128.03 451.48,-133.93 457.08,-138.13"/>
<text text-anchor="start" x="437" y="-181.7" font-family="Times,serif" font-size="14.00"> &#160;edge_scl</text>
<text text-anchor="start" x="437" y="-165.2" font-family="Times,serif" font-size="14.00"> &#160;&amp;&amp; &#160;!scl</text>
</g>
<!-- 18&#45;&gt;18 -->
<g id="edge39" class="edge">
<title>18&#45;&gt;18</title>
<path fill="none" stroke="black" d="M519.56,-5000.2C531.08,-4997.95 539,-4992.72 539,-4984.5 539,-4979.23 535.75,-4975.19 530.39,-4972.38"/>
<polygon fill="black" stroke="black" points="531.59,-4969.09 521,-4969.28 529.39,-4975.74 531.59,-4969.09"/>
</g>
<!-- 27 -->
<g id="node29" class="node">
<title>27</title>
<ellipse fill="#a2cd5a" stroke="black" cx="188" cy="-4788" rx="72" ry="72"/>
<text text-anchor="middle" x="188" y="-4782.95" font-family="Times,serif" font-size="14.00">AB7</text>
</g>
<!-- 18&#45;&gt;27 -->
<g id="edge40" class="edge">
<title>18&#45;&gt;27</title>
<path fill="none" stroke="black" d="M391.4,-4940.58C350.98,-4910.45 296.82,-4870.1 254.56,-4838.6"/>
<polygon fill="black" stroke="black" points="256.78,-4835.89 246.67,-4832.72 252.59,-4841.5 256.78,-4835.89"/>
<text text-anchor="start" x="326.33" y="-4881.2" font-family="Times,serif" font-size="14.00"> &#160;start</text>
</g>
<!-- 19&#45;&gt;9 -->
<g id="edge41" class="edge">
<title>19&#45;&gt;9</title>
<path fill="none" stroke="black" d="M508,-1388.57C508,-1370.26 508,-1350.43 508,-1331.61"/>
<polygon fill="black" stroke="black" points="511.5,-1331.87 508,-1321.87 504.5,-1331.87 511.5,-1331.87"/>
<text text-anchor="start" x="508" y="-1357.7" font-family="Times,serif" font-size="14.00"> &#160;edge_scl</text>
<text text-anchor="start" x="508" y="-1341.2" font-family="Times,serif" font-size="14.00"> &#160;&amp;&amp; &#160;!scl</text>
</g>
<!-- 19&#45;&gt;19 -->
<g id="edge42" class="edge">
<title>19&#45;&gt;19</title>
<path fill="none" stroke="black" d="M577.81,-1479.64C589.74,-1477.09 598,-1470.88 598,-1461 598,-1454.52 594.44,-1449.61 588.62,-1446.29"/>
<polygon fill="black" stroke="black" points="589.83,-1443 579.23,-1442.88 587.44,-1449.58 589.83,-1443"/>
</g>
<!-- 20&#45;&gt;11 -->
<g id="edge43" class="edge">
<title>20&#45;&gt;11</title>
<path fill="none" stroke="black" d="M446,-3338.64C446,-3315.36 446,-3289.3 446,-3265.25"/>
<polygon fill="black" stroke="black" points="449.5,-3265.51 446,-3255.51 442.5,-3265.51 449.5,-3265.51"/>
<text text-anchor="start" x="446" y="-3307.7" font-family="Times,serif" font-size="14.00"> &#160;sda_recv</text>
<text text-anchor="start" x="446" y="-3291.2" font-family="Times,serif" font-size="14.00"> &#160;&amp;&amp; edge_scl</text>
<text text-anchor="start" x="446" y="-3274.7" font-family="Times,serif" font-size="14.00"> &#160;&amp;&amp; &#160;scl</text>
</g>
<!-- 20&#45;&gt;18 -->
<g id="edge44" class="edge">
<title>20&#45;&gt;18</title>
<path fill="none" stroke="black" d="M494.65,-3463.98C503.07,-3475.45 510.78,-3488.06 516,-3501 539.16,-3558.37 530,-3577.63 530,-3639.5 530,-4789 530,-4789 530,-4789 530,-4832.8 512.28,-4878.18 493.41,-4914.08"/>
<polygon fill="black" stroke="black" points="490.48,-4912.15 488.8,-4922.61 496.63,-4915.48 490.48,-4912.15"/>
<text text-anchor="start" x="530" y="-4225.7" font-family="Times,serif" font-size="14.00"> &#160;!sda_recv</text>
<text text-anchor="start" x="530" y="-4209.2" font-family="Times,serif" font-size="14.00"> &#160;&amp;&amp; edge_scl</text>
<text text-anchor="start" x="530" y="-4192.7" font-family="Times,serif" font-size="14.00"> &#160;&amp;&amp; &#160;scl</text>
</g>
<!-- 20&#45;&gt;20 -->
<g id="edge45" class="edge">
<title>20&#45;&gt;20</title>
<path fill="none" stroke="black" d="M515.43,-3431.17C527.56,-3428.48 536,-3421.76 536,-3411 536,-3403.77 532.19,-3398.37 526.01,-3394.78"/>
<polygon fill="black" stroke="black" points="527.44,-3391.58 516.85,-3391.36 525,-3398.14 527.44,-3391.58"/>
</g>
<!-- 21&#45;&gt;12 -->
<g id="edge46" class="edge">
<title>21&#45;&gt;12</title>
<path fill="none" stroke="black" d="M328,-1388.57C328,-1370.26 328,-1350.43 328,-1331.61"/>
<polygon fill="black" stroke="black" points="331.5,-1331.87 328,-1321.87 324.5,-1331.87 331.5,-1331.87"/>
<text text-anchor="start" x="328" y="-1357.7" font-family="Times,serif" font-size="14.00"> &#160;edge_scl</text>
<text text-anchor="start" x="328" y="-1341.2" font-family="Times,serif" font-size="14.00"> &#160;&amp;&amp; &#160;scl</text>
</g>
<!-- 21&#45;&gt;21 -->
<g id="edge47" class="edge">
<title>21&#45;&gt;21</title>
<path fill="none" stroke="black" d="M397.81,-1479.64C409.74,-1477.09 418,-1470.88 418,-1461 418,-1454.52 414.44,-1449.61 408.62,-1446.29"/>
<polygon fill="black" stroke="black" points="409.83,-1443 399.23,-1442.88 407.44,-1449.58 409.83,-1443"/>
</g>
<!-- 22&#45;&gt;13 -->
<g id="edge48" class="edge">
<title>22&#45;&gt;13</title>
<path fill="none" stroke="black" d="M270.88,-4258.51C276.48,-4234.03 282.81,-4206.32 288.6,-4181.02"/>
<polygon fill="black" stroke="black" points="291.97,-4181.96 290.79,-4171.44 285.15,-4180.4 291.97,-4181.96"/>
<text text-anchor="start" x="285.66" y="-4225.7" font-family="Times,serif" font-size="14.00"> &#160;!sda_recv</text>
<text text-anchor="start" x="285.66" y="-4209.2" font-family="Times,serif" font-size="14.00"> &#160;&amp;&amp; edge_scl</text>
<text text-anchor="start" x="285.66" y="-4192.7" font-family="Times,serif" font-size="14.00"> &#160;&amp;&amp; &#160;scl</text>
</g>
<!-- 22&#45;&gt;15 -->
<g id="edge49" class="edge">
<title>22&#45;&gt;15</title>
<path fill="none" stroke="black" d="M241.58,-4257.96C236.53,-4230.97 230.83,-4199.83 226,-4171.5 210,-4077.72 249.12,-4036.82 193,-3960 182.45,-3945.56 166.4,-3957.22 157,-3942 112.16,-3869.44 132.27,-3623.99 146.77,-3494.13"/>
<polygon fill="black" stroke="black" points="150.25,-3494.53 147.89,-3484.2 143.29,-3493.74 150.25,-3494.53"/>
<text text-anchor="start" x="157" y="-3881.45" font-family="Times,serif" font-size="14.00"> &#160;sda_recv</text>
<text text-anchor="start" x="157" y="-3864.95" font-family="Times,serif" font-size="14.00"> &#160;&amp;&amp; edge_scl</text>
<text text-anchor="start" x="157" y="-3848.45" font-family="Times,serif" font-size="14.00"> &#160;&amp;&amp; &#160;scl</text>
</g>
<!-- 22&#45;&gt;22 -->
<g id="edge50" class="edge">
<title>22&#45;&gt;22</title>
<path fill="none" stroke="black" d="M324.43,-4349.17C336.56,-4346.48 345,-4339.76 345,-4329 345,-4321.77 341.19,-4316.37 335.01,-4312.78"/>
<polygon fill="black" stroke="black" points="336.44,-4309.58 325.85,-4309.36 334,-4316.14 336.44,-4309.58"/>
</g>
<!-- 23&#45;&gt;14 -->
<g id="edge51" class="edge">
<title>23&#45;&gt;14</title>
<path fill="none" stroke="black" d="M328,-2240.57C328,-2222.26 328,-2202.43 328,-2183.61"/>
<polygon fill="black" stroke="black" points="331.5,-2183.87 328,-2173.87 324.5,-2183.87 331.5,-2183.87"/>
<text text-anchor="start" x="328" y="-2209.7" font-family="Times,serif" font-size="14.00"> &#160;edge_scl</text>
<text text-anchor="start" x="328" y="-2193.2" font-family="Times,serif" font-size="14.00"> &#160;&amp;&amp; &#160;scl</text>
</g>
<!-- 23&#45;&gt;23 -->
<g id="edge52" class="edge">
<title>23&#45;&gt;23</title>
<path fill="none" stroke="black" d="M397.81,-2331.64C409.74,-2329.09 418,-2322.88 418,-2313 418,-2306.52 414.44,-2301.61 408.62,-2298.29"/>
<polygon fill="black" stroke="black" points="409.83,-2295 399.23,-2294.88 407.44,-2301.58 409.83,-2295"/>
</g>
<!-- 24&#45;&gt;18 -->
<g id="edge53" class="edge">
<title>24&#45;&gt;18</title>
<path fill="none" stroke="black" d="M557.02,-125.38C589.44,-165.59 626,-224.19 626,-284 626,-4789 626,-4789 626,-4789 626,-4854.84 569.84,-4908.22 520.78,-4942.29"/>
<polygon fill="black" stroke="black" points="518.98,-4939.28 512.66,-4947.78 522.9,-4945.08 518.98,-4939.28"/>
</g>
<!-- 25&#45;&gt;16 -->
<g id="edge54" class="edge">
<title>25&#45;&gt;16</title>
<path fill="none" stroke="black" d="M508,-2240.57C508,-2222.26 508,-2202.43 508,-2183.61"/>
<polygon fill="black" stroke="black" points="511.5,-2183.87 508,-2173.87 504.5,-2183.87 511.5,-2183.87"/>
<text text-anchor="start" x="508" y="-2209.7" font-family="Times,serif" font-size="14.00"> &#160;edge_scl</text>
<text text-anchor="start" x="508" y="-2193.2" font-family="Times,serif" font-size="14.00"> &#160;&amp;&amp; &#160;!scl</text>
</g>
<!-- 25&#45;&gt;25 -->
<g id="edge55" class="edge">
<title>25&#45;&gt;25</title>
<path fill="none" stroke="black" d="M577.81,-2331.64C589.74,-2329.09 598,-2322.88 598,-2313 598,-2306.52 594.44,-2301.61 588.62,-2298.29"/>
<polygon fill="black" stroke="black" points="589.83,-2295 579.23,-2294.88 587.44,-2301.58 589.83,-2295"/>
</g>
<!-- 26&#45;&gt;17 -->
<g id="edge56" class="edge">
<title>26&#45;&gt;17</title>
<path fill="none" stroke="black" d="M380.71,-425.57C381.4,-407.26 382.15,-387.43 382.87,-368.61"/>
<polygon fill="black" stroke="black" points="386.36,-369 383.24,-358.87 379.36,-368.73 386.36,-369"/>
<text text-anchor="start" x="382.48" y="-394.7" font-family="Times,serif" font-size="14.00"> &#160;edge_scl</text>
<text text-anchor="start" x="382.48" y="-378.2" font-family="Times,serif" font-size="14.00"> &#160;&amp;&amp; &#160;!scl</text>
</g>
<!-- 26&#45;&gt;26 -->
<g id="edge57" class="edge">
<title>26&#45;&gt;26</title>
<path fill="none" stroke="black" d="M447.81,-516.64C459.74,-514.09 468,-507.88 468,-498 468,-491.52 464.44,-486.61 458.62,-483.29"/>
<polygon fill="black" stroke="black" points="459.83,-480 449.23,-479.88 457.44,-486.58 459.83,-480"/>
</g>
<!-- 27&#45;&gt;4 -->
<g id="edge58" class="edge">
<title>27&#45;&gt;4</title>
<path fill="none" stroke="black" d="M188,-4715.64C188,-4692.36 188,-4666.3 188,-4642.25"/>
<polygon fill="black" stroke="black" points="191.5,-4642.51 188,-4632.51 184.5,-4642.51 191.5,-4642.51"/>
<text text-anchor="start" x="188" y="-4684.7" font-family="Times,serif" font-size="14.00"> &#160;sda_recv</text>
<text text-anchor="start" x="188" y="-4668.2" font-family="Times,serif" font-size="14.00"> &#160;&amp;&amp; edge_scl</text>
<text text-anchor="start" x="188" y="-4651.7" font-family="Times,serif" font-size="14.00"> &#160;&amp;&amp; &#160;scl</text>
</g>
<!-- 27&#45;&gt;15 -->
<g id="edge59" class="edge">
<title>27&#45;&gt;15</title>
<path fill="none" stroke="black" d="M135.53,-4738.64C95.08,-4695.88 46,-4629.57 46,-4559.5 46,-4559.5 46,-4559.5 46,-3639.5 46,-3580.34 76.7,-3520.49 105.8,-3477.03"/>
<polygon fill="black" stroke="black" points="108.55,-3479.21 111.32,-3468.99 102.78,-3475.26 108.55,-3479.21"/>
<text text-anchor="start" x="46" y="-4110.95" font-family="Times,serif" font-size="14.00"> &#160;!sda_recv</text>
<text text-anchor="start" x="46" y="-4094.45" font-family="Times,serif" font-size="14.00"> &#160;&amp;&amp; edge_scl</text>
<text text-anchor="start" x="46" y="-4077.95" font-family="Times,serif" font-size="14.00"> &#160;&amp;&amp; &#160;scl</text>
</g>
<!-- 27&#45;&gt;27 -->
<g id="edge60" class="edge">
<title>27&#45;&gt;27</title>
<path fill="none" stroke="black" d="M258.19,-4805.12C269.91,-4802.73 278,-4797.02 278,-4788 278,-4782.08 274.52,-4777.59 268.81,-4774.52"/>
<polygon fill="black" stroke="black" points="270.21,-4771.3 259.62,-4771.37 267.94,-4777.93 270.21,-4771.3"/>
</g>
<!-- 28&#45;&gt;24 -->
<g id="edge61" class="edge">
<title>28&#45;&gt;24</title>
<path fill="none" stroke="black" d="M508,-800.74C508,-747.06 508,-671.66 508,-605.5 508,-605.5 508,-605.5 508,-284 508,-241.66 508,-194.53 508,-155.58"/>
<polygon fill="black" stroke="black" points="511.5,-155.81 508,-145.81 504.5,-155.81 511.5,-155.81"/>
<text text-anchor="start" x="508" y="-501.2" font-family="Times,serif" font-size="14.00"> &#160;edge_scl</text>
<text text-anchor="start" x="508" y="-484.7" font-family="Times,serif" font-size="14.00"> &#160;&amp;&amp; &#160;!scl</text>
</g>
<!-- 28&#45;&gt;28 -->
<g id="edge62" class="edge">
<title>28&#45;&gt;28</title>
<path fill="none" stroke="black" d="M573.93,-902.39C587.91,-899.41 598,-889.61 598,-873 598,-861.06 592.79,-852.64 584.66,-847.74"/>
<polygon fill="black" stroke="black" points="585.93,-844.48 575.34,-844.15 583.41,-851.01 585.93,-844.48"/>
</g>
<!-- 29&#45;&gt;6 -->
<g id="edge63" class="edge">
<title>29&#45;&gt;6</title>
<path fill="none" stroke="black" d="M328,-2879.57C328,-2861.26 328,-2841.43 328,-2822.61"/>
<polygon fill="black" stroke="black" points="331.5,-2822.87 328,-2812.87 324.5,-2822.87 331.5,-2822.87"/>
<text text-anchor="start" x="328" y="-2848.7" font-family="Times,serif" font-size="14.00"> &#160;edge_scl</text>
<text text-anchor="start" x="328" y="-2832.2" font-family="Times,serif" font-size="14.00"> &#160;&amp;&amp; &#160;!scl</text>
</g>
<!-- 29&#45;&gt;29 -->
<g id="edge64" class="edge">
<title>29&#45;&gt;29</title>
<path fill="none" stroke="black" d="M397.81,-2970.64C409.74,-2968.09 418,-2961.88 418,-2952 418,-2945.52 414.44,-2940.61 408.62,-2937.29"/>
<polygon fill="black" stroke="black" points="409.83,-2934 399.23,-2933.88 407.44,-2940.58 409.83,-2934"/>
</g>
<!-- 30&#45;&gt;7 -->
<g id="edge65" class="edge">
<title>30&#45;&gt;7</title>
<path fill="none" stroke="black" d="M508,-2666.57C508,-2648.26 508,-2628.43 508,-2609.61"/>
<polygon fill="black" stroke="black" points="511.5,-2609.87 508,-2599.87 504.5,-2609.87 511.5,-2609.87"/>
<text text-anchor="start" x="508" y="-2635.7" font-family="Times,serif" font-size="14.00"> &#160;edge_scl</text>
<text text-anchor="start" x="508" y="-2619.2" font-family="Times,serif" font-size="14.00"> &#160;&amp;&amp; &#160;!scl</text>
</g>
<!-- 30&#45;&gt;30 -->
<g id="edge66" class="edge">
<title>30&#45;&gt;30</title>
<path fill="none" stroke="black" d="M577.81,-2757.64C589.74,-2755.09 598,-2748.88 598,-2739 598,-2732.52 594.44,-2727.61 588.62,-2724.29"/>
<polygon fill="black" stroke="black" points="589.83,-2721 579.23,-2720.88 587.44,-2727.58 589.83,-2721"/>
</g>
<!-- 31&#45;&gt;8 -->
<g id="edge67" class="edge">
<title>31&#45;&gt;8</title>
<path fill="none" stroke="black" d="M352.18,-962.94C356.51,-913.16 362.31,-846.49 366.84,-794.38"/>
<polygon fill="black" stroke="black" points="370.3,-794.93 367.68,-784.67 363.33,-794.33 370.3,-794.93"/>
<text text-anchor="start" x="365.73" y="-876.2" font-family="Times,serif" font-size="14.00"> &#160;edge_scl</text>
<text text-anchor="start" x="365.73" y="-859.7" font-family="Times,serif" font-size="14.00"> &#160;&amp;&amp; &#160;scl</text>
</g>
<!-- 31&#45;&gt;31 -->
<g id="edge68" class="edge">
<title>31&#45;&gt;31</title>
<path fill="none" stroke="black" d="M415.81,-1053.64C427.74,-1051.09 436,-1044.88 436,-1035 436,-1028.52 432.44,-1023.61 426.62,-1020.29"/>
<polygon fill="black" stroke="black" points="427.83,-1017 417.23,-1016.88 425.44,-1023.58 427.83,-1017"/>
</g>
<!-- 32&#45;&gt;2 -->
<g id="edge69" class="edge">
<title>32&#45;&gt;2</title>
<path fill="none" stroke="black" d="M380.11,-3799.2C385.01,-3774.96 390.55,-3747.58 395.62,-3722.52"/>
<polygon fill="black" stroke="black" points="398.98,-3723.54 397.53,-3713.05 392.12,-3722.15 398.98,-3723.54"/>
<text text-anchor="start" x="393.12" y="-3766.7" font-family="Times,serif" font-size="14.00"> &#160;sda_recv</text>
<text text-anchor="start" x="393.12" y="-3750.2" font-family="Times,serif" font-size="14.00"> &#160;&amp;&amp; edge_scl</text>
<text text-anchor="start" x="393.12" y="-3733.7" font-family="Times,serif" font-size="14.00"> &#160;&amp;&amp; &#160;scl</text>
</g>
<!-- 32&#45;&gt;15 -->
<g id="edge70" class="edge">
<title>32&#45;&gt;15</title>
<path fill="none" stroke="black" d="M332.86,-3805.72C317.86,-3780.6 298.64,-3752.51 277,-3730.5 266.89,-3720.22 257.99,-3724.51 250,-3712.5 196.96,-3632.79 242.74,-3590.61 209,-3501 206.6,-3494.63 203.76,-3488.18 200.67,-3481.82"/>
<polygon fill="black" stroke="black" points="203.98,-3480.6 196.32,-3473.28 197.74,-3483.78 203.98,-3480.6"/>
<text text-anchor="start" x="250" y="-3651.95" font-family="Times,serif" font-size="14.00"> &#160;!sda_recv</text>
<text text-anchor="start" x="250" y="-3635.45" font-family="Times,serif" font-size="14.00"> &#160;&amp;&amp; edge_scl</text>
<text text-anchor="start" x="250" y="-3618.95" font-family="Times,serif" font-size="14.00"> &#160;&amp;&amp; &#160;scl</text>
</g>
<!-- 32&#45;&gt;32 -->
<g id="edge71" class="edge">
<title>32&#45;&gt;32</title>
<path fill="none" stroke="black" d="M435.43,-3890.17C447.56,-3887.48 456,-3880.76 456,-3870 456,-3862.77 452.19,-3857.37 446.01,-3853.78"/>
<polygon fill="black" stroke="black" points="447.44,-3850.58 436.85,-3850.36 445,-3857.14 447.44,-3850.58"/>
</g>
<!-- 33&#45;&gt;3 -->
<g id="edge72" class="edge">
<title>33&#45;&gt;3</title>
<path fill="none" stroke="black" d="M328,-1814.57C328,-1796.26 328,-1776.43 328,-1757.61"/>
<polygon fill="black" stroke="black" points="331.5,-1757.87 328,-1747.87 324.5,-1757.87 331.5,-1757.87"/>
<text text-anchor="start" x="328" y="-1783.7" font-family="Times,serif" font-size="14.00"> &#160;edge_scl</text>
<text text-anchor="start" x="328" y="-1767.2" font-family="Times,serif" font-size="14.00"> &#160;&amp;&amp; &#160;scl</text>
</g>
<!-- 33&#45;&gt;33 -->
<g id="edge73" class="edge">
<title>33&#45;&gt;33</title>
<path fill="none" stroke="black" d="M397.81,-1905.64C409.74,-1903.09 418,-1896.88 418,-1887 418,-1880.52 414.44,-1875.61 408.62,-1872.29"/>
<polygon fill="black" stroke="black" points="409.83,-1869 399.23,-1868.88 407.44,-1875.58 409.83,-1869"/>
</g>
<!-- 34&#45;&gt;1 -->
<g id="edge74" class="edge">
<title>34&#45;&gt;1</title>
<path fill="none" stroke="black" d="M508,-1814.57C508,-1796.26 508,-1776.43 508,-1757.61"/>
<polygon fill="black" stroke="black" points="511.5,-1757.87 508,-1747.87 504.5,-1757.87 511.5,-1757.87"/>
<text text-anchor="start" x="508" y="-1783.7" font-family="Times,serif" font-size="14.00"> &#160;edge_scl</text>
<text text-anchor="start" x="508" y="-1767.2" font-family="Times,serif" font-size="14.00"> &#160;&amp;&amp; &#160;!scl</text>
</g>
<!-- 34&#45;&gt;34 -->
<g id="edge75" class="edge">
<title>34&#45;&gt;34</title>
<path fill="none" stroke="black" d="M577.81,-1905.64C589.74,-1903.09 598,-1896.88 598,-1887 598,-1880.52 594.44,-1875.61 588.62,-1872.29"/>
<polygon fill="black" stroke="black" points="589.83,-1869 579.23,-1868.88 587.44,-1875.58 589.83,-1869"/>
</g>
</g>
</svg>
