<svg xmlns="http://www.w3.org/2000/svg" xmlns:xlink="http://www.w3.org/1999/xlink" xmlns:s="https://github.com/nturley/netlistsvg" width="603" height="216"><style>  svg {
    stroke:#000;
    fill:none;
  }
  text {
    fill:#000;
    fill-opacity:1.0;
    stroke:none;
    font-size:10px;
    font-weight: bold;
    font-family: "Courier New", monospace;
  }
  line {
      stroke-linecap: round;
  }
  .nodelabel {
    text-anchor: middle;
  }
  .inputPortLabel {
    text-anchor: end;
  }
  .splitjoinBody {
    fill:#000;
  }
  .invert {
    fill:#ff9999;
    fill-opacity:1.0;
  }
  .combinational {
    fill:#afecef;
    fill-opacity:1.0;
  }
  .state {
    fill:#def1b2;
    fill-opacity:1.0;
  }
  .hierarchical {
    fill:#ffd8b2;
    fill-opacity:1.0;
  }
  .io {
    fill:#fcffb2;
    fill-opacity:1.0;
  }</style><g s:type="eq" class="hierarchical" transform="translate(488,27)" s:width="25" s:height="25" id="cell_$eq$ref.v:27$2"><s:alias val="$eq"/><s:alias val="$eqx"/><circle r="12.5" cx="12.5" cy="12.5" class="cell_$eq$ref.v:27$2"/><line x1="7.5" x2="17.5" y1="10" y2="10" class="cell_$eq$ref.v:27$2"/><line x1="7.5" x2="17.5" y1="15" y2="15" class="cell_$eq$ref.v:27$2"/><g s:x="2" s:y="5" s:pid="A"/><g s:x="2" s:y="20" s:pid="B"/><g s:x="25" s:y="12.5" s:pid="Y"/></g><g s:type="dff" class="state" transform="translate(321,164)" s:width="30" s:height="40" id="cell_$procdff$3"><s:alias val="$dff"/><s:alias val="$_DFF_"/><s:alias val="$_DFF_P_"/><s:alias val="$adff"/><s:alias val="$_DFF_"/><s:alias val="$_DFF_P_"/><s:alias val="$sdff"/><s:alias val="$_DFF_"/><s:alias val="$_DFF_P_"/><rect width="30" height="40" x="0" y="0" class="cell_$procdff$3"/><path d="M0,35 L5,30 L0,25 Z" class="cell_$procdff$3" style="fill:#ffffff;"/><g s:x="31" s:y="10" s:pid="Q"/><g s:x="-1" s:y="30" s:pid="CLK"/><g s:x="-1" s:y="30" s:pid="C"/><g s:x="-1" s:y="10" s:pid="D"/><g s:x="15" s:y="40" s:pid="ARST"/><g s:x="15" s:y="40" s:pid="SRST"/></g><g s:type="dff" class="state" transform="translate(259,125.5)" s:width="30" s:height="40" id="cell_$procdff$4"><s:alias val="$dff"/><s:alias val="$_DFF_"/><s:alias val="$_DFF_P_"/><s:alias val="$adff"/><s:alias val="$_DFF_"/><s:alias val="$_DFF_P_"/><s:alias val="$sdff"/><s:alias val="$_DFF_"/><s:alias val="$_DFF_P_"/><rect width="30" height="40" x="0" y="0" class="cell_$procdff$4"/><path d="M0,35 L5,30 L0,25 Z" class="cell_$procdff$4" style="fill:#ffffff;"/><g s:x="31" s:y="10" s:pid="Q"/><g s:x="-1" s:y="30" s:pid="CLK"/><g s:x="-1" s:y="30" s:pid="C"/><g s:x="-1" s:y="10" s:pid="D"/><g s:x="15" s:y="40" s:pid="ARST"/><g s:x="15" s:y="40" s:pid="SRST"/></g><g s:type="dff" class="state" transform="translate(197,104.5)" s:width="30" s:height="40" id="cell_$procdff$5"><s:alias val="$dff"/><s:alias val="$_DFF_"/><s:alias val="$_DFF_P_"/><s:alias val="$adff"/><s:alias val="$_DFF_"/><s:alias val="$_DFF_P_"/><s:alias val="$sdff"/><s:alias val="$_DFF_"/><s:alias val="$_DFF_P_"/><rect width="30" height="40" x="0" y="0" class="cell_$procdff$5"/><path d="M0,35 L5,30 L0,25 Z" class="cell_$procdff$5" style="fill:#ffffff;"/><g s:x="31" s:y="10" s:pid="Q"/><g s:x="-1" s:y="30" s:pid="CLK"/><g s:x="-1" s:y="30" s:pid="C"/><g s:x="-1" s:y="10" s:pid="D"/><g s:x="15" s:y="40" s:pid="ARST"/><g s:x="15" s:y="40" s:pid="SRST"/></g><g s:type="dff" class="state" transform="translate(135,82)" s:width="30" s:height="40" id="cell_$procdff$6"><s:alias val="$dff"/><s:alias val="$_DFF_"/><s:alias val="$_DFF_P_"/><s:alias val="$adff"/><s:alias val="$_DFF_"/><s:alias val="$_DFF_P_"/><s:alias val="$sdff"/><s:alias val="$_DFF_"/><s:alias val="$_DFF_P_"/><rect width="30" height="40" x="0" y="0" class="cell_$procdff$6"/><path d="M0,35 L5,30 L0,25 Z" class="cell_$procdff$6" style="fill:#ffffff;"/><g s:x="31" s:y="10" s:pid="Q"/><g s:x="-1" s:y="30" s:pid="CLK"/><g s:x="-1" s:y="30" s:pid="C"/><g s:x="-1" s:y="10" s:pid="D"/><g s:x="15" s:y="40" s:pid="ARST"/><g s:x="15" s:y="40" s:pid="SRST"/></g><g s:type="dff" class="state" transform="translate(73,42)" s:width="30" s:height="40" id="cell_$procdff$7"><s:alias val="$dff"/><s:alias val="$_DFF_"/><s:alias val="$_DFF_P_"/><s:alias val="$adff"/><s:alias val="$_DFF_"/><s:alias val="$_DFF_P_"/><s:alias val="$sdff"/><s:alias val="$_DFF_"/><s:alias val="$_DFF_P_"/><rect width="30" height="40" x="0" y="0" class="cell_$procdff$7"/><path d="M0,35 L5,30 L0,25 Z" class="cell_$procdff$7" style="fill:#ffffff;"/><g s:x="31" s:y="10" s:pid="Q"/><g s:x="-1" s:y="30" s:pid="CLK"/><g s:x="-1" s:y="30" s:pid="C"/><g s:x="-1" s:y="10" s:pid="D"/><g s:x="15" s:y="40" s:pid="ARST"/><g s:x="15" s:y="40" s:pid="SRST"/></g><g s:type="inputExt" class="io" transform="translate(12,102)" s:width="30" s:height="20" id="cell_clk"><text x="15" y="-4" class="nodelabel cell_clk" s:attribute="ref">clk</text><s:alias val="$_inputExt_"/><path d="M0,0 L0,20 L15,20 L30,10 L15,0 Z" class="cell_clk"/><g s:x="30" s:y="10" s:pid="Y"/></g><g s:type="inputExt" class="io" transform="translate(382,22)" s:width="30" s:height="20" id="cell_pattern"><text x="15" y="-4" class="nodelabel cell_pattern" s:attribute="ref">pattern</text><s:alias val="$_inputExt_"/><path d="M0,0 L0,20 L15,20 L30,10 L15,0 Z" class="cell_pattern"/><g s:x="30" s:y="10" s:pid="Y"/></g><g s:type="inputExt" class="io" transform="translate(12,42)" s:width="30" s:height="20" id="cell_in"><text x="15" y="-4" class="nodelabel cell_in" s:attribute="ref">in</text><s:alias val="$_inputExt_"/><path d="M0,0 L0,20 L15,20 L30,10 L15,0 Z" class="cell_in"/><g s:x="30" s:y="10" s:pid="Y"/></g><g s:type="outputExt" class="io" transform="translate(543,29.5)" s:width="30" s:height="20" id="cell_detected"><text x="15" y="-4" class="nodelabel cell_detected" s:attribute="ref">detected</text><s:alias val="$_outputExt_"/><path d="M30,0 L30,20 L15,20 L0,10 L15,0 Z" class="cell_detected"/><g s:x="0" s:y="10" s:pid="A"/></g><g s:type="join" class="" transform="translate(391.5,64)" s:width="4" s:height="40" id="cell_$join$,10,11,12,13,14,"><rect width="5" height="100" class="splitjoinBody" s:generic="body"/><s:alias val="$_join_"/><g s:x="5" s:y="20" s:pid="out"/><g transform="translate(0,10)" s:x="0" s:y="10" s:pid="in0"><text x="-3" y="-4" class="inputPortLabel">0</text></g><g transform="translate(0,30)" s:x="0" s:y="10" s:pid="in0"><text x="-3" y="-4" class="inputPortLabel">1</text></g><g transform="translate(0,50)" s:x="0" s:y="10" s:pid="in0"><text x="-3" y="-4" class="inputPortLabel">2</text></g><g transform="translate(0,70)" s:x="0" s:y="10" s:pid="in0"><text x="-3" y="-4" class="inputPortLabel">3</text></g><g transform="translate(0,90)" s:x="0" s:y="10" s:pid="in0"><text x="-3" y="-4" class="inputPortLabel">4</text></g></g><line x1="412" x2="490" y1="32" y2="32" class="net_3,4,5,6,7 width_5" style="stroke-width: 2"/><line x1="397.5" x2="468" y1="84.5" y2="84.5" class="net_10,11,12,13,14 width_5" style="stroke-width: 2"/><line x1="468" x2="468" y1="84.5" y2="47" class="net_10,11,12,13,14 width_5" style="stroke-width: 2"/><line x1="468" x2="490" y1="47" y2="47" class="net_10,11,12,13,14 width_5" style="stroke-width: 2"/><line x1="42" x2="114" y1="112" y2="112" class="net_2 width_1" style="stroke-width: 1"/><line x1="114" x2="114" y1="112" y2="134.5" class="net_2 width_1" style="stroke-width: 1"/><line x1="114" x2="176" y1="134.5" y2="134.5" class="net_2 width_1" style="stroke-width: 1"/><line x1="176" x2="176" y1="134.5" y2="155.5" class="net_2 width_1" style="stroke-width: 1"/><line x1="176" x2="238" y1="155.5" y2="155.5" class="net_2 width_1" style="stroke-width: 1"/><line x1="238" x2="238" y1="155.5" y2="194" class="net_2 width_1" style="stroke-width: 1"/><circle cx="238" cy="155.5" r="2" style="fill:#000" class="net_2 width_1"/><line x1="238" x2="320" y1="194" y2="194" class="net_2 width_1" style="stroke-width: 1"/><line x1="42" x2="114" y1="112" y2="112" class="net_2 width_1" style="stroke-width: 1"/><line x1="114" x2="114" y1="112" y2="134.5" class="net_2 width_1" style="stroke-width: 1"/><line x1="114" x2="176" y1="134.5" y2="134.5" class="net_2 width_1" style="stroke-width: 1"/><line x1="176" x2="176" y1="134.5" y2="155.5" class="net_2 width_1" style="stroke-width: 1"/><circle cx="176" cy="134.5" r="2" style="fill:#000" class="net_2 width_1"/><line x1="176" x2="258" y1="155.5" y2="155.5" class="net_2 width_1" style="stroke-width: 1"/><line x1="42" x2="114" y1="112" y2="112" class="net_2 width_1" style="stroke-width: 1"/><line x1="114" x2="114" y1="112" y2="134.5" class="net_2 width_1" style="stroke-width: 1"/><circle cx="114" cy="112" r="2" style="fill:#000" class="net_2 width_1"/><line x1="114" x2="196" y1="134.5" y2="134.5" class="net_2 width_1" style="stroke-width: 1"/><line x1="42" x2="134" y1="112" y2="112" class="net_2 width_1" style="stroke-width: 1"/><line x1="42" x2="52" y1="112" y2="112" class="net_2 width_1" style="stroke-width: 1"/><line x1="52" x2="52" y1="112" y2="72" class="net_2 width_1" style="stroke-width: 1"/><circle cx="52" cy="112" r="2" style="fill:#000" class="net_2 width_1"/><line x1="52" x2="72" y1="72" y2="72" class="net_2 width_1" style="stroke-width: 1"/><line x1="290" x2="300" y1="135.5" y2="135.5" class="net_13 width_1" style="stroke-width: 1"/><line x1="300" x2="300" y1="135.5" y2="174" class="net_13 width_1" style="stroke-width: 1"/><circle cx="300" cy="135.5" r="2" style="fill:#000" class="net_13 width_1"/><line x1="300" x2="320" y1="174" y2="174" class="net_13 width_1" style="stroke-width: 1"/><line x1="290" x2="362" y1="135.5" y2="135.5" class="net_13 width_1" style="stroke-width: 1"/><line x1="362" x2="362" y1="135.5" y2="134.5" class="net_13 width_1" style="stroke-width: 1"/><line x1="362" x2="391.5" y1="134.5" y2="134.5" class="net_13 width_1" style="stroke-width: 1"/><line x1="228" x2="238" y1="114.5" y2="114.5" class="net_12 width_1" style="stroke-width: 1"/><line x1="238" x2="238" y1="114.5" y2="135.5" class="net_12 width_1" style="stroke-width: 1"/><circle cx="238" cy="114.5" r="2" style="fill:#000" class="net_12 width_1"/><line x1="238" x2="258" y1="135.5" y2="135.5" class="net_12 width_1" style="stroke-width: 1"/><line x1="228" x2="391.5" y1="114.5" y2="114.5" class="net_12 width_1" style="stroke-width: 1"/><line x1="166" x2="176" y1="92" y2="92" class="net_11 width_1" style="stroke-width: 1"/><line x1="176" x2="176" y1="92" y2="114.5" class="net_11 width_1" style="stroke-width: 1"/><circle cx="176" cy="92" r="2" style="fill:#000" class="net_11 width_1"/><line x1="176" x2="196" y1="114.5" y2="114.5" class="net_11 width_1" style="stroke-width: 1"/><line x1="166" x2="362" y1="92" y2="92" class="net_11 width_1" style="stroke-width: 1"/><line x1="362" x2="362" y1="92" y2="94.5" class="net_11 width_1" style="stroke-width: 1"/><line x1="362" x2="391.5" y1="94.5" y2="94.5" class="net_11 width_1" style="stroke-width: 1"/><line x1="104" x2="114" y1="52" y2="52" class="net_10 width_1" style="stroke-width: 1"/><line x1="114" x2="114" y1="52" y2="92" class="net_10 width_1" style="stroke-width: 1"/><circle cx="114" cy="52" r="2" style="fill:#000" class="net_10 width_1"/><line x1="114" x2="134" y1="92" y2="92" class="net_10 width_1" style="stroke-width: 1"/><line x1="104" x2="392" y1="52" y2="52" class="net_10 width_1" style="stroke-width: 1"/><line x1="392" x2="392" y1="52" y2="74" class="net_10 width_1" style="stroke-width: 1"/><line x1="42" x2="72" y1="52" y2="52" class="net_8 width_1" style="stroke-width: 1"/><line x1="513" x2="543" y1="39.5" y2="39.5" class="net_9 width_1" style="stroke-width: 1"/><line x1="352" x2="392" y1="174" y2="174" class="net_14 width_1" style="stroke-width: 1"/><line x1="392" x2="392" y1="174" y2="155" class="net_14 width_1" style="stroke-width: 1"/><rect x="455" y="27" width="16" height="9" class="net_3,4,5,6,7 width_5 busLabel_5" style="fill: white; stroke: none"/><text x="454" y="35" class="net_3,4,5,6,7 width_5 busLabel_5">/5/</text><rect x="455" y="79.5" width="16" height="9" class="net_10,11,12,13,14 width_5 busLabel_5" style="fill: white; stroke: none"/><text x="454" y="87.5" class="net_10,11,12,13,14 width_5 busLabel_5">/5/</text></svg>