<svg xmlns="http://www.w3.org/2000/svg" xmlns:xlink="http://www.w3.org/1999/xlink" xmlns:s="https://github.com/nturley/netlistsvg" width="598.5" height="176.5"><style>  svg {
    stroke:#000;
    fill:none;
  }
  text {
    fill:#000;
    fill-opacity:1.0;
    stroke:none;
    font-size:10px;
    font-weight: bold;
    font-family: "Courier New", monospace;
  }
  line {
      stroke-linecap: round;
  }
  .nodelabel {
    text-anchor: middle;
  }
  .inputPortLabel {
    text-anchor: end;
  }
  .splitjoinBody {
    fill:#000;
  }
  .invert {
    fill:#ff9999;
    fill-opacity:1.0;
  }
  .combinational {
    fill:#afecef;
    fill-opacity:1.0;
  }
  .state {
    fill:#def1b2;
    fill-opacity:1.0;
  }
  .hierarchical {
    fill:#ffd8b2;
    fill-opacity:1.0;
  }
  .io {
    fill:#fcffb2;
    fill-opacity:1.0;
  }</style><g s:type="dff-bus" class="state" transform="translate(358.5,42)" s:width="34" s:height="44" id="cell_$procdff$5"><s:alias val="$dff-bus"/><s:alias val="$_DFF_-bus"/><s:alias val="$_DFF_P_-bus"/><s:alias val="adff-bus"/><s:alias val="$adff-bus"/><s:alias val="$_DFF_-bus"/><s:alias val="$_DFF_P_-bus"/><s:alias val="sdff-bus"/><s:alias val="$sdff-bus"/><s:alias val="$_DFF_-bus"/><s:alias val="$_DFF_P_-bus"/><rect width="30" height="40" x="0" y="0" stroke="none" transform="translate(4,4)" style="filter:brightness(0.7);" class="cell_$procdff$5"/><path d="M32,4 L34,4 L34,44 L4,44 L4,42" class="cell_$procdff$5"/><rect width="30" height="40" x="0" y="0" stroke="none" transform="translate(2,2)" style="filter:brightness(0.7)" class="cell_$procdff$5"/><path d="M30,2 L32,2 L32,42 L2,42 L2,40" class="cell_$procdff$5" style=""/><rect width="30" height="40" x="0" y="0" class="cell_$procdff$5"/><path d="M0,35 L5,30 L0,25 Z" class="cell_$procdff$5" style="fill:#ffffff;"/><g s:x="35" s:y="10" s:pid="Q"/><g s:x="-1" s:y="30" s:pid="CLK"/><g s:x="-1" s:y="30" s:pid="C"/><g s:x="-1" s:y="10" s:pid="D"/><g s:x="17" s:y="44" s:pid="ARST"/><g s:x="17" s:y="44" s:pid="SRST"/></g><g s:type="mux-bus" class="combinational" transform="translate(233,32)" s:width="24" s:height="40" id="cell_$procmux$3"><s:alias val="$pmux-bus"/><s:alias val="$mux-bus"/><s:alias val="$_MUX_-bus"/><path d="M8,2 L8,0 L24,8 L24,32 L8,40 L8,38" style="filter:brightness(0.7)" class="cell_$procmux$3"/><path d="M4,2 L4,0 L22,9 L22,31 L4,40 L4,38" style="filter:brightness(0.7)" class="cell_$procmux$3"/><path d="M0,0 L20,10 L20,30 L0,40 Z" class="cell_$procmux$3"/><text x="5" y="32" class="nodelabel cell_$procmux$178" s:attribute="">1</text><text x="5" y="13" class="nodelabel cell_$procmux$178" s:attribute="">0</text><g s:x="-1" s:y="10" s:pid="A"/><g s:x="-1" s:y="30" s:pid="B"/><g s:x="12" s:y="38" s:pid="S"/><g s:x="24.5" s:y="20" s:pid="Y"/></g><g s:type="inputExt" class="io" transform="translate(292.5,83)" s:width="30" s:height="20" id="cell_clk"><text x="15" y="-4" class="nodelabel cell_clk" s:attribute="ref">clk</text><s:alias val="$_inputExt_"/><path d="M0,0 L0,20 L15,20 L30,10 L15,0 Z" class="cell_clk"/><g s:x="30" s:y="10" s:pid="Y"/></g><g s:type="inputExt" class="io" transform="translate(167,127.5)" s:width="30" s:height="20" id="cell_reset"><text x="15" y="-4" class="nodelabel cell_reset" s:attribute="ref">reset</text><s:alias val="$_inputExt_"/><path d="M0,0 L0,20 L15,20 L30,10 L15,0 Z" class="cell_reset"/><g s:x="30" s:y="10" s:pid="Y"/></g><g s:type="inputExt" class="io" transform="translate(12,22)" s:width="30" s:height="20" id="cell_serial_in"><text x="15" y="-4" class="nodelabel cell_serial_in" s:attribute="ref">serial_in</text><s:alias val="$_inputExt_"/><path d="M0,0 L0,20 L15,20 L30,10 L15,0 Z" class="cell_serial_in"/><g s:x="30" s:y="10" s:pid="Y"/></g><g s:type="outputExt" class="io" transform="translate(526.5,52)" s:width="30" s:height="20" id="cell_serial_out"><text x="15" y="-4" class="nodelabel cell_serial_out" s:attribute="ref">serial_out</text><s:alias val="$_outputExt_"/><path d="M30,0 L30,20 L15,20 L0,10 L15,0 Z" class="cell_serial_out"/><g s:x="0" s:y="10" s:pid="A"/></g><g s:type="constant" class="io" transform="translate(101,86.5)" s:width="30" s:height="20" id="cell_00000000"><text x="15" y="-4" class="nodelabel cell_00000000" s:attribute="ref">0x0</text><s:alias val="$_constant_"/><rect width="30" height="20" class="cell_00000000"/><g s:x="31" s:y="10" s:pid="Y"/></g><g s:type="join" class="" transform="translate(118.33333333333333,21.5)" s:width="4" s:height="40" id="cell_$join$,4,14,15,16,17,18,19,20,"><rect width="5" height="40" class="splitjoinBody" s:generic="body"/><s:alias val="$_join_"/><g s:x="5" s:y="20" s:pid="out"/><g transform="translate(0,10)" s:x="0" s:y="10" s:pid="in0"><text x="-3" y="-4" class="inputPortLabel">0</text></g><g transform="translate(0,30)" s:x="0" s:y="10" s:pid="in0"><text x="-3" y="-4" class="inputPortLabel">1:7</text></g></g><g s:type="split" class="" transform="translate(467.5,31.5)" s:width="5" s:height="40" id="cell_$split$,14,15,16,17,18,19,20,5,"><rect width="5" height="40" class="splitjoinBody" s:generic="body"/><s:alias val="$_split_"/><g s:x="0" s:y="20" s:pid="in"/><g transform="translate(4,10)" s:x="4" s:y="10" s:pid="out0"><text x="5" y="-4">0:6</text></g><g transform="translate(4,30)" s:x="4" s:y="10" s:pid="out0"><text x="5" y="-4">7</text></g></g><line x1="322.5" x2="332.5" y1="93" y2="93" class="net_2 width_1" style="stroke-width: 1"/><line x1="332.5" x2="332.5" y1="93" y2="72" class="net_2 width_1" style="stroke-width: 1"/><line x1="332.5" x2="357.5" y1="72" y2="72" class="net_2 width_1" style="stroke-width: 1"/><line x1="257.5" x2="357.5" y1="52" y2="52" class="net_6,7,8,9,10,11,12,13 width_8" style="stroke-width: 2"/><line x1="124.33333333333333" x2="232" y1="42" y2="42" class="net_4,14,15,16,17,18,19,20 width_8" style="stroke-width: 2"/><line x1="132" x2="207" y1="96.5" y2="96.5" class="net_21,22,23,24,25,26,27,28 width_8" style="stroke-width: 2"/><line x1="207" x2="207" y1="96.5" y2="62" class="net_21,22,23,24,25,26,27,28 width_8" style="stroke-width: 2"/><line x1="207" x2="232" y1="62" y2="62" class="net_21,22,23,24,25,26,27,28 width_8" style="stroke-width: 2"/><line x1="197" x2="245" y1="137.5" y2="137.5" class="net_3 width_1" style="stroke-width: 1"/><line x1="245" x2="245" y1="137.5" y2="70" class="net_3 width_1" style="stroke-width: 1"/><line x1="472.5" x2="526.5" y1="62" y2="62" class="net_5 width_1" style="stroke-width: 1"/><line x1="42" x2="118.33333333333333" y1="32" y2="32" class="net_4 width_1" style="stroke-width: 1"/><line x1="472.5" x2="501.5" y1="42" y2="42" class="net_14,15,16,17,18,19,20 width_7" style="stroke-width: 2"/><line x1="501.5" x2="501.5" y1="42" y2="158.5" class="net_14,15,16,17,18,19,20 width_7" style="stroke-width: 2"/><line x1="501.5" x2="76" y1="158.5" y2="158.5" class="net_14,15,16,17,18,19,20 width_7" style="stroke-width: 2"/><line x1="76" x2="76" y1="158.5" y2="52" class="net_14,15,16,17,18,19,20 width_7" style="stroke-width: 2"/><line x1="76" x2="118.33333333333333" y1="52" y2="52" class="net_14,15,16,17,18,19,20 width_7" style="stroke-width: 2"/><line x1="393.5" x2="467.5" y1="52" y2="52" class="net_14,15,16,17,18,19,20,5 width_8" style="stroke-width: 2"/><rect x="306.5" y="47" width="16" height="9" class="net_6,7,8,9,10,11,12,13 width_8 busLabel_8" style="fill: white; stroke: none"/><text x="305.5" y="55" class="net_6,7,8,9,10,11,12,13 width_8 busLabel_8">/8/</text><rect x="181" y="37" width="16" height="9" class="net_4,14,15,16,17,18,19,20 width_8 busLabel_8" style="fill: white; stroke: none"/><text x="180" y="45" class="net_4,14,15,16,17,18,19,20 width_8 busLabel_8">/8/</text><rect x="181" y="91.5" width="16" height="9" class="net_21,22,23,24,25,26,27,28 width_8 busLabel_8" style="fill: white; stroke: none"/><text x="180" y="99.5" class="net_21,22,23,24,25,26,27,28 width_8 busLabel_8">/8/</text><rect x="306.5" y="153.5" width="16" height="9" class="net_14,15,16,17,18,19,20 width_7 busLabel_7" style="fill: white; stroke: none"/><text x="305.5" y="161.5" class="net_14,15,16,17,18,19,20 width_7 busLabel_7">/7/</text><rect x="429.5" y="47" width="16" height="9" class="net_14,15,16,17,18,19,20,5 width_8 busLabel_8" style="fill: white; stroke: none"/><text x="428.5" y="55" class="net_14,15,16,17,18,19,20,5 width_8 busLabel_8">/8/</text></svg>