<svg xmlns="http://www.w3.org/2000/svg" xmlns:xlink="http://www.w3.org/1999/xlink" xmlns:s="https://github.com/nturley/netlistsvg" width="988" height="412.5"><style>  svg {
    stroke:#000;
    fill:none;
  }
  text {
    fill:#000;
    fill-opacity:1.0;
    stroke:none;
    font-size:10px;
    font-weight: bold;
    font-family: "Courier New", monospace;
  }
  line {
      stroke-linecap: round;
  }
  .nodelabel {
    text-anchor: middle;
  }
  .inputPortLabel {
    text-anchor: end;
  }
  .splitjoinBody {
    fill:#000;
  }
  .invert {
    fill:#ff9999;
    fill-opacity:1.0;
  }
  .combinational {
    fill:#afecef;
    fill-opacity:1.0;
  }
  .state {
    fill:#def1b2;
    fill-opacity:1.0;
  }
  .hierarchical {
    fill:#ffd8b2;
    fill-opacity:1.0;
  }
  .io {
    fill:#fcffb2;
    fill-opacity:1.0;
  }</style><g s:type="eq" class="hierarchical" transform="translate(253.66666666666666,323.5)" s:width="25" s:height="25" id="cell_$eq$REF.v:65$3"><s:alias val="$eq"/><s:alias val="$eqx"/><circle r="12.5" cx="12.5" cy="12.5" class="cell_$eq$REF.v:65$3"/><line x1="7.5" x2="17.5" y1="10" y2="10" class="cell_$eq$REF.v:65$3"/><line x1="7.5" x2="17.5" y1="15" y2="15" class="cell_$eq$REF.v:65$3"/><g s:x="2" s:y="5" s:pid="A"/><g s:x="2" s:y="20" s:pid="B"/><g s:x="25" s:y="12.5" s:pid="Y"/></g><g s:type="eq" class="hierarchical" transform="translate(253.66666666666666,257)" s:width="25" s:height="25" id="cell_$eq$REF.v:66$4"><s:alias val="$eq"/><s:alias val="$eqx"/><circle r="12.5" cx="12.5" cy="12.5" class="cell_$eq$REF.v:66$4"/><line x1="7.5" x2="17.5" y1="10" y2="10" class="cell_$eq$REF.v:66$4"/><line x1="7.5" x2="17.5" y1="15" y2="15" class="cell_$eq$REF.v:66$4"/><g s:x="2" s:y="5" s:pid="A"/><g s:x="2" s:y="20" s:pid="B"/><g s:x="25" s:y="12.5" s:pid="Y"/></g><g s:type="or" class="combinational" transform="translate(357,301)" s:width="30" s:height="25" id="cell_$logic_or$REF.v:52$1"><s:alias val="$or"/><s:alias val="$logic_or"/><s:alias val="$_OR_"/><s:alias val="$reduce_or"/><s:alias val="$reduce_bool"/><path d="M0,0 A30 25 0 0 1 0,25 A30 25 0 0 0 30,12.5 A30 25 0 0 0 0,0" class="cell_$logic_or$REF.v:52$1"/><g s:x="2" s:y="5" s:pid="A"/><g s:x="2" s:y="20" s:pid="B"/><g s:x="30" s:y="12.5" s:pid="Y"/></g><g s:type="mux-bus" class="combinational" transform="translate(867.5,219.5)" s:width="24" s:height="40" id="cell_$procmux$12"><s:alias val="$pmux-bus"/><s:alias val="$mux-bus"/><s:alias val="$_MUX_-bus"/><path d="M8,2 L8,0 L24,8 L24,32 L8,40 L8,38" style="filter:brightness(0.7)" class="cell_$procmux$12"/><path d="M4,2 L4,0 L22,9 L22,31 L4,40 L4,38" style="filter:brightness(0.7)" class="cell_$procmux$12"/><path d="M0,0 L20,10 L20,30 L0,40 Z" class="cell_$procmux$12"/><text x="5" y="32" class="nodelabel cell_$procmux$178" s:attribute="">1</text><text x="5" y="13" class="nodelabel cell_$procmux$178" s:attribute="">0</text><g s:x="-1" s:y="10" s:pid="A"/><g s:x="-1" s:y="30" s:pid="B"/><g s:x="12" s:y="38" s:pid="S"/><g s:x="24.5" s:y="20" s:pid="Y"/></g><g s:type="mux-bus" class="combinational" transform="translate(788,198.5)" s:width="24" s:height="40" id="cell_$procmux$15"><s:alias val="$pmux-bus"/><s:alias val="$mux-bus"/><s:alias val="$_MUX_-bus"/><path d="M8,2 L8,0 L24,8 L24,32 L8,40 L8,38" style="filter:brightness(0.7)" class="cell_$procmux$15"/><path d="M4,2 L4,0 L22,9 L22,31 L4,40 L4,38" style="filter:brightness(0.7)" class="cell_$procmux$15"/><path d="M0,0 L20,10 L20,30 L0,40 Z" class="cell_$procmux$15"/><text x="5" y="32" class="nodelabel cell_$procmux$178" s:attribute="">1</text><text x="5" y="13" class="nodelabel cell_$procmux$178" s:attribute="">0</text><g s:x="-1" s:y="10" s:pid="A"/><g s:x="-1" s:y="30" s:pid="B"/><g s:x="12" s:y="38" s:pid="S"/><g s:x="24.5" s:y="20" s:pid="Y"/></g><g s:type="generic" class="hierarchical" transform="translate(671,136.5)" s:width="30" s:height="40" id="cell_counter_0"><text x="15" y="-4" class="nodelabel cell_counter_0" s:attribute="ref">counter</text><rect width="30" height="60" s:generic="body" class="cell_counter_0"/><g transform="translate(0,10)" s:x="0" s:y="10" s:pid="in0" id="port_counter_0~clk"><text x="-3" y="-4" class="inputPortLabel cell_counter_0">clk</text></g><g transform="translate(0,30)" s:x="0" s:y="10" s:pid="in0" id="port_counter_0~enable"><text x="-3" y="-4" class="inputPortLabel cell_counter_0">enable</text></g><g transform="translate(0,50)" s:x="0" s:y="10" s:pid="in0" id="port_counter_0~reset"><text x="-3" y="-4" class="inputPortLabel cell_counter_0">reset</text></g><g transform="translate(30,10)" s:x="30" s:y="10" s:pid="out0" id="port_counter_0~count"><text x="5" y="-4" style="fill:#000; stroke:none" class="cell_counter_0">count</text></g></g><g s:type="generic" class="hierarchical" transform="translate(514,114)" s:width="30" s:height="40" id="cell_counter_1"><text x="15" y="-4" class="nodelabel cell_counter_1" s:attribute="ref">counter</text><rect width="30" height="60" s:generic="body" class="cell_counter_1"/><g transform="translate(0,10)" s:x="0" s:y="10" s:pid="in0" id="port_counter_1~clk"><text x="-3" y="-4" class="inputPortLabel cell_counter_1">clk</text></g><g transform="translate(0,30)" s:x="0" s:y="10" s:pid="in0" id="port_counter_1~enable"><text x="-3" y="-4" class="inputPortLabel cell_counter_1">enable</text></g><g transform="translate(0,50)" s:x="0" s:y="10" s:pid="in0" id="port_counter_1~reset"><text x="-3" y="-4" class="inputPortLabel cell_counter_1">reset</text></g><g transform="translate(30,10)" s:x="30" s:y="10" s:pid="out0" id="port_counter_1~count"><text x="5" y="-4" style="fill:#000; stroke:none" class="cell_counter_1">count</text></g><g transform="translate(30,30)" s:x="30" s:y="10" s:pid="out0" id="port_counter_1~rollover"><text x="5" y="-4" style="fill:#000; stroke:none" class="cell_counter_1">rollover</text></g></g><g s:type="generic" class="hierarchical" transform="translate(357,114)" s:width="30" s:height="40" id="cell_counter_2"><text x="15" y="-4" class="nodelabel cell_counter_2" s:attribute="ref">counter</text><rect width="30" height="60" s:generic="body" class="cell_counter_2"/><g transform="translate(0,10)" s:x="0" s:y="10" s:pid="in0" id="port_counter_2~clk"><text x="-3" y="-4" class="inputPortLabel cell_counter_2">clk</text></g><g transform="translate(0,30)" s:x="0" s:y="10" s:pid="in0" id="port_counter_2~enable"><text x="-3" y="-4" class="inputPortLabel cell_counter_2">enable</text></g><g transform="translate(0,50)" s:x="0" s:y="10" s:pid="in0" id="port_counter_2~reset"><text x="-3" y="-4" class="inputPortLabel cell_counter_2">reset</text></g><g transform="translate(30,10)" s:x="30" s:y="10" s:pid="out0" id="port_counter_2~count"><text x="5" y="-4" style="fill:#000; stroke:none" class="cell_counter_2">count</text></g><g transform="translate(30,30)" s:x="30" s:y="10" s:pid="out0" id="port_counter_2~rollover"><text x="5" y="-4" style="fill:#000; stroke:none" class="cell_counter_2">rollover</text></g></g><g s:type="generic" class="hierarchical" transform="translate(110,286.5)" s:width="30" s:height="40" id="cell_counter_active"><text x="15" y="-4" class="nodelabel cell_counter_active" s:attribute="ref">counter</text><rect width="30" height="60" s:generic="body" class="cell_counter_active"/><g transform="translate(0,10)" s:x="0" s:y="10" s:pid="in0" id="port_counter_active~clk"><text x="-3" y="-4" class="inputPortLabel cell_counter_active">clk</text></g><g transform="translate(0,30)" s:x="0" s:y="10" s:pid="in0" id="port_counter_active~enable"><text x="-3" y="-4" class="inputPortLabel cell_counter_active">enable</text></g><g transform="translate(0,50)" s:x="0" s:y="10" s:pid="in0" id="port_counter_active~reset"><text x="-3" y="-4" class="inputPortLabel cell_counter_active">reset</text></g><g transform="translate(30,10)" s:x="30" s:y="10" s:pid="out0" id="port_counter_active~count"><text x="5" y="-4" style="fill:#000; stroke:none" class="cell_counter_active">count</text></g></g><g s:type="inputExt" class="io" transform="translate(12,72)" s:width="30" s:height="20" id="cell_clk"><text x="15" y="-4" class="nodelabel cell_clk" s:attribute="ref">clk</text><s:alias val="$_inputExt_"/><path d="M0,0 L0,20 L15,20 L30,10 L15,0 Z" class="cell_clk"/><g s:x="30" s:y="10" s:pid="Y"/></g><g s:type="inputExt" class="io" transform="translate(12,307)" s:width="30" s:height="20" id="cell_enable"><text x="15" y="-4" class="nodelabel cell_enable" s:attribute="ref">enable</text><s:alias val="$_inputExt_"/><path d="M0,0 L0,20 L15,20 L30,10 L15,0 Z" class="cell_enable"/><g s:x="30" s:y="10" s:pid="Y"/></g><g s:type="inputExt" class="io" transform="translate(248,177)" s:width="30" s:height="20" id="cell_reset"><text x="15" y="-4" class="nodelabel cell_reset" s:attribute="ref">reset</text><s:alias val="$_inputExt_"/><path d="M0,0 L0,20 L15,20 L30,10 L15,0 Z" class="cell_reset"/><g s:x="30" s:y="10" s:pid="Y"/></g><g s:type="outputExt" class="io" transform="translate(248,380.5)" s:width="30" s:height="20" id="cell_command"><text x="15" y="-4" class="nodelabel cell_command" s:attribute="ref">command</text><s:alias val="$_outputExt_"/><path d="M30,0 L30,20 L15,20 L0,10 L15,0 Z" class="cell_command"/><g s:x="0" s:y="10" s:pid="A"/></g><g s:type="outputExt" class="io" transform="translate(946,229.5)" s:width="30" s:height="20" id="cell_digit"><text x="15" y="-4" class="nodelabel cell_digit" s:attribute="ref">digit</text><s:alias val="$_outputExt_"/><path d="M30,0 L30,20 L15,20 L0,10 L15,0 Z" class="cell_digit"/><g s:x="0" s:y="10" s:pid="A"/></g><g s:type="outputExt" class="io" transform="translate(68,22)" s:width="30" s:height="20" id="cell_digit_entered"><text x="15" y="-4" class="nodelabel cell_digit_entered" s:attribute="ref">digit_entered</text><s:alias val="$_outputExt_"/><path d="M30,0 L30,20 L15,20 L0,10 L15,0 Z" class="cell_digit_entered"/><g s:x="0" s:y="10" s:pid="A"/></g><g s:type="constant" class="io" transform="translate(110,380.5)" s:width="30" s:height="20" id="cell_10"><text x="15" y="-4" class="nodelabel cell_10" s:attribute="ref">10</text><s:alias val="$_constant_"/><rect width="30" height="20" class="cell_10"/><g s:x="31" s:y="10" s:pid="Y"/></g><g s:type="constant" class="io" transform="translate(110,231.5)" s:width="30" s:height="20" id="cell_11"><text x="15" y="-4" class="nodelabel cell_11" s:attribute="ref">11</text><s:alias val="$_constant_"/><rect width="30" height="20" class="cell_11"/><g s:x="31" s:y="10" s:pid="Y"/></g><g s:type="constant" class="io" transform="translate(12,22)" s:width="30" s:height="20" id="cell_1"><text x="15" y="-4" class="nodelabel cell_1" s:attribute="ref">1</text><s:alias val="$_constant_"/><rect width="30" height="20" class="cell_1"/><g s:x="31" s:y="10" s:pid="Y"/></g><line x1="141" x2="233" y1="297" y2="297" class="net_9,10,11,12 width_4" style="stroke-width: 2"/><line x1="233" x2="233" y1="297" y2="328.5" class="net_9,10,11,12 width_4" style="stroke-width: 2"/><line x1="233" x2="255.66666666666666" y1="328.5" y2="328.5" class="net_9,10,11,12 width_4" style="stroke-width: 2"/><line x1="141" x2="204" y1="297" y2="297" class="net_9,10,11,12 width_4" style="stroke-width: 2"/><line x1="204" x2="204" y1="297" y2="277" class="net_9,10,11,12 width_4" style="stroke-width: 2"/><circle cx="204" cy="297" r="3" style="fill:#000" class="net_9,10,11,12 width_4"/><line x1="204" x2="255.66666666666666" y1="277" y2="277" class="net_9,10,11,12 width_4" style="stroke-width: 2"/><line x1="141" x2="204" y1="390.5" y2="390.5" class="net_34,35 width_2" style="stroke-width: 2"/><line x1="204" x2="204" y1="390.5" y2="343.5" class="net_34,35 width_2" style="stroke-width: 2"/><circle cx="204" cy="390.5" r="3" style="fill:#000" class="net_34,35 width_2"/><line x1="204" x2="255.66666666666666" y1="343.5" y2="343.5" class="net_34,35 width_2" style="stroke-width: 2"/><line x1="141" x2="248" y1="390.5" y2="390.5" class="net_34,35 width_2" style="stroke-width: 2"/><line x1="141" x2="233" y1="241.5" y2="241.5" class="net_36,37 width_2" style="stroke-width: 2"/><line x1="233" x2="233" y1="241.5" y2="262" class="net_36,37 width_2" style="stroke-width: 2"/><line x1="233" x2="255.66666666666666" y1="262" y2="262" class="net_36,37 width_2" style="stroke-width: 2"/><line x1="278.66666666666663" x2="310" y1="269.5" y2="269.5" class="net_14 width_1" style="stroke-width: 1"/><line x1="310" x2="310" y1="269.5" y2="306" class="net_14 width_1" style="stroke-width: 1"/><circle cx="310" cy="269.5" r="2" style="fill:#000" class="net_14 width_1"/><line x1="310" x2="359" y1="306" y2="306" class="net_14 width_1" style="stroke-width: 1"/><line x1="278.66666666666663" x2="879.5" y1="269.5" y2="269.5" class="net_14 width_1" style="stroke-width: 1"/><line x1="879.5" x2="879.5" y1="269.5" y2="257.5" class="net_14 width_1" style="stroke-width: 1"/><line x1="278.66666666666663" x2="310" y1="269.5" y2="269.5" class="net_14 width_1" style="stroke-width: 1"/><line x1="310" x2="310" y1="269.5" y2="144.5" class="net_14 width_1" style="stroke-width: 1"/><line x1="310" x2="357" y1="144.5" y2="144.5" class="net_14 width_1" style="stroke-width: 1"/><line x1="278" x2="300" y1="187" y2="187" class="net_4 width_1" style="stroke-width: 1"/><line x1="300" x2="300" y1="187" y2="321" class="net_4 width_1" style="stroke-width: 1"/><circle cx="300" cy="187" r="2" style="fill:#000" class="net_4 width_1"/><line x1="300" x2="359" y1="321" y2="321" class="net_4 width_1" style="stroke-width: 1"/><line x1="278" x2="671" y1="187" y2="187" class="net_4 width_1" style="stroke-width: 1"/><line x1="278" x2="300" y1="187" y2="187" class="net_4 width_1" style="stroke-width: 1"/><line x1="300" x2="300" y1="187" y2="93" class="net_4 width_1" style="stroke-width: 1"/><line x1="300" x2="457" y1="93" y2="93" class="net_4 width_1" style="stroke-width: 1"/><line x1="457" x2="457" y1="93" y2="164.5" class="net_4 width_1" style="stroke-width: 1"/><line x1="457" x2="514" y1="164.5" y2="164.5" class="net_4 width_1" style="stroke-width: 1"/><line x1="278" x2="300" y1="187" y2="187" class="net_4 width_1" style="stroke-width: 1"/><line x1="300" x2="300" y1="187" y2="164.5" class="net_4 width_1" style="stroke-width: 1"/><circle cx="300" cy="164.5" r="2" style="fill:#000" class="net_4 width_1"/><line x1="300" x2="357" y1="164.5" y2="164.5" class="net_4 width_1" style="stroke-width: 1"/><line x1="812.5" x2="851.5" y1="218.5" y2="218.5" class="net_16,17,18,19 width_4" style="stroke-width: 2"/><line x1="851.5" x2="851.5" y1="218.5" y2="229.5" class="net_16,17,18,19 width_4" style="stroke-width: 2"/><line x1="851.5" x2="866.5" y1="229.5" y2="229.5" class="net_16,17,18,19 width_4" style="stroke-width: 2"/><line x1="388" x2="447" y1="124.5" y2="124.5" class="net_20,21,22,23 width_4" style="stroke-width: 2"/><line x1="447" x2="447" y1="124.5" y2="249.5" class="net_20,21,22,23 width_4" style="stroke-width: 2"/><line x1="447" x2="866.5" y1="249.5" y2="249.5" class="net_20,21,22,23 width_4" style="stroke-width: 2"/><line x1="702" x2="772" y1="147" y2="147" class="net_24,25,26,27 width_4" style="stroke-width: 2"/><line x1="772" x2="772" y1="147" y2="208.5" class="net_24,25,26,27 width_4" style="stroke-width: 2"/><line x1="772" x2="787" y1="208.5" y2="208.5" class="net_24,25,26,27 width_4" style="stroke-width: 2"/><line x1="545" x2="604" y1="124.5" y2="124.5" class="net_28,29,30,31 width_4" style="stroke-width: 2"/><line x1="604" x2="604" y1="124.5" y2="228.5" class="net_28,29,30,31 width_4" style="stroke-width: 2"/><line x1="604" x2="787" y1="228.5" y2="228.5" class="net_28,29,30,31 width_4" style="stroke-width: 2"/><line x1="278.66666666666663" x2="800" y1="336" y2="336" class="net_13 width_1" style="stroke-width: 1"/><line x1="800" x2="800" y1="336" y2="236.5" class="net_13 width_1" style="stroke-width: 1"/><line x1="42" x2="624" y1="82" y2="82" class="net_2 width_1" style="stroke-width: 1"/><line x1="624" x2="624" y1="82" y2="147" class="net_2 width_1" style="stroke-width: 1"/><line x1="624" x2="671" y1="147" y2="147" class="net_2 width_1" style="stroke-width: 1"/><line x1="42" x2="467" y1="82" y2="82" class="net_2 width_1" style="stroke-width: 1"/><line x1="467" x2="467" y1="82" y2="124.5" class="net_2 width_1" style="stroke-width: 1"/><circle cx="467" cy="82" r="2" style="fill:#000" class="net_2 width_1"/><line x1="467" x2="514" y1="124.5" y2="124.5" class="net_2 width_1" style="stroke-width: 1"/><line x1="42" x2="310" y1="82" y2="82" class="net_2 width_1" style="stroke-width: 1"/><line x1="310" x2="310" y1="82" y2="124.5" class="net_2 width_1" style="stroke-width: 1"/><circle cx="310" cy="82" r="2" style="fill:#000" class="net_2 width_1"/><line x1="310" x2="357" y1="124.5" y2="124.5" class="net_2 width_1" style="stroke-width: 1"/><line x1="42" x2="58" y1="82" y2="82" class="net_2 width_1" style="stroke-width: 1"/><line x1="58" x2="58" y1="82" y2="297" class="net_2 width_1" style="stroke-width: 1"/><circle cx="58" cy="82" r="2" style="fill:#000" class="net_2 width_1"/><line x1="58" x2="110" y1="297" y2="297" class="net_2 width_1" style="stroke-width: 1"/><line x1="545" x2="614" y1="144.5" y2="144.5" class="net_32 width_1" style="stroke-width: 1"/><line x1="614" x2="614" y1="144.5" y2="167" class="net_32 width_1" style="stroke-width: 1"/><line x1="614" x2="671" y1="167" y2="167" class="net_32 width_1" style="stroke-width: 1"/><line x1="388" x2="514" y1="144.5" y2="144.5" class="net_33 width_1" style="stroke-width: 1"/><line x1="42" x2="110" y1="317" y2="317" class="net_3 width_1" style="stroke-width: 1"/><line x1="387" x2="447" y1="313.5" y2="313.5" class="net_15 width_1" style="stroke-width: 1"/><line x1="447" x2="447" y1="313.5" y2="359.5" class="net_15 width_1" style="stroke-width: 1"/><line x1="447" x2="58" y1="359.5" y2="359.5" class="net_15 width_1" style="stroke-width: 1"/><line x1="58" x2="58" y1="359.5" y2="337" class="net_15 width_1" style="stroke-width: 1"/><line x1="58" x2="110" y1="337" y2="337" class="net_15 width_1" style="stroke-width: 1"/><line x1="892" x2="946" y1="239.5" y2="239.5" class="net_5,6,7,8 width_4" style="stroke-width: 2"/><line x1="43" x2="68" y1="32" y2="32" class="net_40 width_1" style="stroke-width: 1"/><rect x="220" y="272" width="16" height="9" class="net_9,10,11,12 width_4 busLabel_4" style="fill: white; stroke: none"/><text x="219" y="280" class="net_9,10,11,12 width_4 busLabel_4">/4/</text><rect x="220" y="272" width="16" height="9" class="net_9,10,11,12 width_4 busLabel_4" style="fill: white; stroke: none"/><text x="219" y="280" class="net_9,10,11,12 width_4 busLabel_4">/4/</text><rect x="220" y="385.5" width="16" height="9" class="net_34,35 width_2 busLabel_2" style="fill: white; stroke: none"/><text x="219" y="393.5" class="net_34,35 width_2 busLabel_2">/2/</text><rect x="220" y="385.5" width="16" height="9" class="net_34,35 width_2 busLabel_2" style="fill: white; stroke: none"/><text x="219" y="393.5" class="net_34,35 width_2 busLabel_2">/2/</text><rect x="220" y="236.5" width="16" height="9" class="net_36,37 width_2 busLabel_2" style="fill: white; stroke: none"/><text x="219" y="244.5" class="net_36,37 width_2 busLabel_2">/2/</text><rect x="838.5" y="213.5" width="16" height="9" class="net_16,17,18,19 width_4 busLabel_4" style="fill: white; stroke: none"/><text x="837.5" y="221.5" class="net_16,17,18,19 width_4 busLabel_4">/4/</text><rect x="759" y="244.5" width="16" height="9" class="net_20,21,22,23 width_4 busLabel_4" style="fill: white; stroke: none"/><text x="758" y="252.5" class="net_20,21,22,23 width_4 busLabel_4">/4/</text><rect x="759" y="142" width="16" height="9" class="net_24,25,26,27 width_4 busLabel_4" style="fill: white; stroke: none"/><text x="758" y="150" class="net_24,25,26,27 width_4 busLabel_4">/4/</text><rect x="682.5" y="223.5" width="16" height="9" class="net_28,29,30,31 width_4 busLabel_4" style="fill: white; stroke: none"/><text x="681.5" y="231.5" class="net_28,29,30,31 width_4 busLabel_4">/4/</text><rect x="918" y="234.5" width="16" height="9" class="net_5,6,7,8 width_4 busLabel_4" style="fill: white; stroke: none"/><text x="917" y="242.5" class="net_5,6,7,8 width_4 busLabel_4">/4/</text></svg>