<?xml version="1.0" encoding="UTF-8" standalone="no"?>
<!DOCTYPE svg PUBLIC "-//W3C//DTD SVG 1.1//EN"
 "http://www.w3.org/Graphics/SVG/1.1/DTD/svg11.dtd">
<!-- Generated by graphviz version 12.2.1 (0)
 -->
<!-- Pages: 1 -->
<svg width="745pt" height="888pt"
 viewBox="0.00 0.00 745.19 887.50" xmlns="http://www.w3.org/2000/svg" xmlns:xlink="http://www.w3.org/1999/xlink">
<g id="graph0" class="graph" transform="scale(1 1) rotate(0) translate(4 883.5)">
<polygon fill="white" stroke="none" points="-4,4 -4,-883.5 741.19,-883.5 741.19,4 -4,4"/>
<!-- _reset -->
<!-- 0 -->
<g id="node2" class="node">
<title>0</title>
<ellipse fill="#a2cd5a" stroke="black" cx="371.62" cy="-715" rx="72" ry="72"/>
<ellipse fill="none" stroke="black" cx="371.62" cy="-715" rx="76" ry="76"/>
<text text-anchor="middle" x="371.62" y="-709.95" font-family="Times,serif" font-size="14.00">CS0</text>
</g>
<!-- _reset&#45;&gt;0 -->
<g id="edge1" class="edge">
<title>_reset&#45;&gt;0</title>
<path fill="none" stroke="black" d="M371.62,-843.07C371.62,-832.75 371.62,-818.81 371.62,-803.93"/>
<polygon fill="black" stroke="black" points="371.62,-804.18 367.62,-798.18 371.62,-792.18 375.62,-798.18 371.62,-804.18"/>
<text text-anchor="middle" x="388.12" y="-812.2" font-family="Times,serif" font-size="14.00"> &#160;reset</text>
</g>
<!-- 0&#45;&gt;0 -->
<g id="edge2" class="edge">
<title>0&#45;&gt;0</title>
<path fill="none" stroke="black" d="M445.7,-732.66C457.53,-730.07 465.62,-724.19 465.62,-715 465.62,-708.97 462.13,-704.36 456.4,-701.18"/>
<polygon fill="black" stroke="black" points="457.72,-697.94 447.13,-697.86 455.36,-704.53 457.72,-697.94"/>
</g>
<!-- 1 -->
<g id="node3" class="node">
<title>1</title>
<ellipse fill="#a2cd5a" stroke="black" cx="126.62" cy="-498" rx="72" ry="72"/>
<text text-anchor="middle" x="126.62" y="-492.95" font-family="Times,serif" font-size="14.00">CS2</text>
</g>
<!-- 0&#45;&gt;1 -->
<g id="edge3" class="edge">
<title>0&#45;&gt;1</title>
<path fill="none" stroke="black" d="M295.71,-707.34C239.01,-697.95 165.07,-675.34 127.37,-621 119.09,-609.07 115.2,-594.79 113.92,-580.27"/>
<polygon fill="black" stroke="black" points="117.44,-580.5 113.5,-570.66 110.45,-580.8 117.44,-580.5"/>
<text text-anchor="start" x="127.37" y="-607.7" font-family="Times,serif" font-size="14.00"> &#160;coins = 2&#39;10</text>
<text text-anchor="start" x="127.37" y="-591.2" font-family="Times,serif" font-size="14.00"> &#160;[ice_cream_balls = 2&#39;00]</text>
</g>
<!-- 2 -->
<g id="node4" class="node">
<title>2</title>
<ellipse fill="#a2cd5a" stroke="black" cx="160.62" cy="-72" rx="72" ry="72"/>
<text text-anchor="middle" x="160.62" y="-66.95" font-family="Times,serif" font-size="14.00">CS1</text>
</g>
<!-- 0&#45;&gt;2 -->
<g id="edge4" class="edge">
<title>0&#45;&gt;2</title>
<path fill="none" stroke="black" d="M443.7,-689.93C497.05,-667.88 565.9,-629.5 598.62,-570 629.46,-513.92 613.42,-488.27 598.62,-426 568.24,-298.18 566.61,-246.04 465.62,-162 402.79,-109.72 310.51,-88.14 243.92,-79.24"/>
<polygon fill="black" stroke="black" points="244.5,-75.79 234.14,-78.01 243.62,-82.73 244.5,-75.79"/>
<text text-anchor="start" x="593.94" y="-394.7" font-family="Times,serif" font-size="14.00"> &#160;coins = 2&#39;01</text>
<text text-anchor="start" x="593.94" y="-378.2" font-family="Times,serif" font-size="14.00"> &#160;[ice_cream_balls = 2&#39;00]</text>
</g>
<!-- 1&#45;&gt;0 -->
<g id="edge5" class="edge">
<title>1&#45;&gt;0</title>
<path fill="none" stroke="black" d="M190.85,-531.08C217.31,-546.15 247.2,-565.72 270.62,-588 283.53,-600.28 282.57,-606.83 293.37,-621 300.25,-630.03 307.7,-639.37 315.17,-648.49"/>
<polygon fill="black" stroke="black" points="312.29,-650.5 321.36,-655.99 317.69,-646.05 312.29,-650.5"/>
<text text-anchor="start" x="293.37" y="-607.7" font-family="Times,serif" font-size="14.00"> &#160;!coins</text>
<text text-anchor="start" x="293.37" y="-591.2" font-family="Times,serif" font-size="14.00"> &#160;[ice_cream_balls = 2&#39;01]</text>
</g>
<!-- 1&#45;&gt;1 -->
<g id="edge6" class="edge">
<title>1&#45;&gt;1</title>
<path fill="none" stroke="black" d="M196.43,-516.64C208.36,-514.09 216.62,-507.88 216.62,-498 216.62,-491.52 213.06,-486.61 207.24,-483.29"/>
<polygon fill="black" stroke="black" points="208.45,-480 197.85,-479.88 206.06,-486.58 208.45,-480"/>
</g>
<!-- 1&#45;&gt;2 -->
<g id="edge7" class="edge">
<title>1&#45;&gt;2</title>
<path fill="none" stroke="black" d="M109.88,-427.53C98.51,-369.65 87.93,-285.3 102.37,-213 106.8,-190.81 114.83,-167.73 123.53,-146.86"/>
<polygon fill="black" stroke="black" points="126.66,-148.45 127.39,-137.88 120.23,-145.69 126.66,-148.45"/>
<text text-anchor="start" x="102.37" y="-288.2" font-family="Times,serif" font-size="14.00"> &#160;coins = 2&#39;10</text>
<text text-anchor="start" x="102.37" y="-271.7" font-family="Times,serif" font-size="14.00"> &#160;[ice_cream_balls = 2&#39;10]</text>
</g>
<!-- 3 -->
<g id="node5" class="node">
<title>3</title>
<ellipse fill="#a2cd5a" stroke="black" cx="326.62" cy="-285" rx="72" ry="72"/>
<text text-anchor="middle" x="326.62" y="-279.95" font-family="Times,serif" font-size="14.00">CS3</text>
</g>
<!-- 1&#45;&gt;3 -->
<g id="edge8" class="edge">
<title>1&#45;&gt;3</title>
<path fill="none" stroke="black" d="M111.48,-427.24C111.25,-408.4 115.09,-389.3 127.37,-375 160.58,-336.34 194.16,-377.96 240.62,-357 249.24,-353.11 257.71,-348.11 265.77,-342.58"/>
<polygon fill="black" stroke="black" points="267.75,-345.46 273.79,-336.76 263.64,-339.8 267.75,-345.46"/>
<text text-anchor="start" x="127.37" y="-394.7" font-family="Times,serif" font-size="14.00"> &#160;coins = 2&#39;01</text>
<text text-anchor="start" x="127.37" y="-378.2" font-family="Times,serif" font-size="14.00"> &#160;[ice_cream_balls = 2&#39;10]</text>
</g>
<!-- 2&#45;&gt;1 -->
<g id="edge9" class="edge">
<title>2&#45;&gt;1</title>
<path fill="none" stroke="black" d="M101.21,-112.81C69.89,-137.52 34.5,-172.3 17.37,-213 -7.46,-271.99 -3.45,-296.48 17.37,-357 27.73,-387.12 47.52,-415.73 67.44,-439.14"/>
<polygon fill="black" stroke="black" points="64.56,-441.16 73.78,-446.39 69.83,-436.56 64.56,-441.16"/>
<text text-anchor="start" x="17.37" y="-279.95" font-family="Times,serif" font-size="14.00"> &#160;coins = 2&#39;01</text>
</g>
<!-- 2&#45;&gt;2 -->
<g id="edge10" class="edge">
<title>2&#45;&gt;2</title>
<path fill="none" stroke="black" d="M230.43,-90.64C242.36,-88.09 250.62,-81.88 250.62,-72 250.62,-65.52 247.06,-60.61 241.24,-57.29"/>
<polygon fill="black" stroke="black" points="242.45,-54 231.85,-53.88 240.06,-60.58 242.45,-54"/>
</g>
<!-- 2&#45;&gt;3 -->
<g id="edge11" class="edge">
<title>2&#45;&gt;3</title>
<path fill="none" stroke="black" d="M146.08,-142.89C145.96,-161.51 149.7,-180.47 161.37,-195 183.99,-223.16 208.2,-197.07 240.62,-213 249.11,-217.17 257.5,-222.34 265.5,-227.97"/>
<polygon fill="black" stroke="black" points="263.37,-230.75 273.5,-233.86 267.53,-225.11 263.37,-230.75"/>
<text text-anchor="start" x="161.37" y="-181.7" font-family="Times,serif" font-size="14.00"> &#160;coins = 2&#39;10</text>
<text text-anchor="start" x="161.37" y="-165.2" font-family="Times,serif" font-size="14.00"> &#160;[ice_cream_balls = 2&#39;10]</text>
</g>
<!-- 3&#45;&gt;0 -->
<g id="edge12" class="edge">
<title>3&#45;&gt;0</title>
<path fill="none" stroke="black" d="M389.04,-321.25C407.89,-335.32 426.3,-353.38 436.62,-375 460.16,-424.34 453.04,-568.86 436.62,-621 433.93,-629.55 430.14,-638 425.73,-646.11"/>
<polygon fill="black" stroke="black" points="422.84,-644.11 420.84,-654.52 428.89,-647.63 422.84,-644.11"/>
<text text-anchor="start" x="451.72" y="-501.2" font-family="Times,serif" font-size="14.00"> &#160;!coins</text>
<text text-anchor="start" x="451.72" y="-484.7" font-family="Times,serif" font-size="14.00"> &#160;[ice_cream_balls = 2&#39;00]</text>
</g>
<!-- 3&#45;&gt;1 -->
<g id="edge13" class="edge">
<title>3&#45;&gt;1</title>
<path fill="none" stroke="black" d="M304.04,-353.54C295.55,-372.54 284.51,-392.28 270.62,-408 251.63,-429.48 226.2,-447.52 202,-461.61"/>
<polygon fill="black" stroke="black" points="200.39,-458.5 193.4,-466.47 203.83,-464.6 200.39,-458.5"/>
<text text-anchor="start" x="291.61" y="-394.7" font-family="Times,serif" font-size="14.00"> &#160;coins = 2&#39;10</text>
<text text-anchor="start" x="291.61" y="-378.2" font-family="Times,serif" font-size="14.00"> &#160;[ice_cream_balls = 2&#39;00]</text>
</g>
<!-- 3&#45;&gt;2 -->
<g id="edge14" class="edge">
<title>3&#45;&gt;2</title>
<path fill="none" stroke="black" d="M323.89,-212.7C320.59,-195 314.73,-176.85 304.62,-162 288.04,-137.66 262.38,-118.74 237.29,-104.72"/>
<polygon fill="black" stroke="black" points="239.15,-101.75 228.68,-100.11 235.85,-107.92 239.15,-101.75"/>
<text text-anchor="start" x="318.82" y="-181.7" font-family="Times,serif" font-size="14.00"> &#160;coins = 2&#39;01</text>
<text text-anchor="start" x="318.82" y="-165.2" font-family="Times,serif" font-size="14.00"> &#160;[ice_cream_balls = 2&#39;00]</text>
</g>
<!-- 3&#45;&gt;3 -->
<g id="edge15" class="edge">
<title>3&#45;&gt;3</title>
<path fill="none" stroke="black" d="M396.43,-303.64C408.36,-301.09 416.62,-294.88 416.62,-285 416.62,-278.52 413.06,-273.61 407.24,-270.29"/>
<polygon fill="black" stroke="black" points="408.45,-267 397.85,-266.88 406.06,-273.58 408.45,-267"/>
</g>
</g>
</svg>
