<?xml version="1.0" encoding="UTF-8" standalone="no"?>
<!DOCTYPE svg PUBLIC "-//W3C//DTD SVG 1.1//EN"
 "http://www.w3.org/Graphics/SVG/1.1/DTD/svg11.dtd">
<!-- Generated by graphviz version 12.2.1 (0)
 -->
<!-- Pages: 1 -->
<svg width="781pt" height="888pt"
 viewBox="0.00 0.00 780.94 887.50" xmlns="http://www.w3.org/2000/svg" xmlns:xlink="http://www.w3.org/1999/xlink">
<g id="graph0" class="graph" transform="scale(1 1) rotate(0) translate(4 883.5)">
<polygon fill="white" stroke="none" points="-4,4 -4,-883.5 776.94,-883.5 776.94,4 -4,4"/>
<!-- _reset -->
<!-- 0 -->
<g id="node2" class="node">
<title>0</title>
<ellipse fill="#a2cd5a" stroke="black" cx="388.94" cy="-715" rx="72" ry="72"/>
<ellipse fill="none" stroke="black" cx="388.94" cy="-715" rx="76" ry="76"/>
<text text-anchor="middle" x="388.94" y="-709.95" font-family="Times,serif" font-size="14.00">CS0</text>
</g>
<!-- _reset&#45;&gt;0 -->
<g id="edge1" class="edge">
<title>_reset&#45;&gt;0</title>
<path fill="none" stroke="black" d="M388.94,-843.07C388.94,-832.75 388.94,-818.81 388.94,-803.93"/>
<polygon fill="black" stroke="black" points="388.94,-804.18 384.94,-798.18 388.94,-792.18 392.94,-798.18 388.94,-804.18"/>
<text text-anchor="middle" x="405.44" y="-812.2" font-family="Times,serif" font-size="14.00"> &#160;reset</text>
</g>
<!-- 0&#45;&gt;0 -->
<g id="edge2" class="edge">
<title>0&#45;&gt;0</title>
<path fill="none" stroke="black" d="M463.02,-732.66C474.85,-730.07 482.94,-724.19 482.94,-715 482.94,-708.97 479.46,-704.36 473.72,-701.18"/>
<polygon fill="black" stroke="black" points="475.04,-697.94 464.45,-697.86 472.68,-704.53 475.04,-697.94"/>
</g>
<!-- 1 -->
<g id="node3" class="node">
<title>1</title>
<ellipse fill="#a2cd5a" stroke="black" cx="133.94" cy="-498" rx="72" ry="72"/>
<text text-anchor="middle" x="133.94" y="-492.95" font-family="Times,serif" font-size="14.00">CS2</text>
</g>
<!-- 0&#45;&gt;1 -->
<g id="edge3" class="edge">
<title>0&#45;&gt;1</title>
<path fill="none" stroke="black" d="M312.84,-708.64C253.62,-700.01 174.98,-677.81 134.94,-621 126.58,-609.14 122.62,-594.88 121.31,-580.36"/>
<polygon fill="black" stroke="black" points="124.82,-580.59 120.86,-570.76 117.83,-580.91 124.82,-580.59"/>
<text text-anchor="start" x="134.94" y="-607.7" font-family="Times,serif" font-size="14.00"> &#160;coins = 2&#39;b10</text>
<text text-anchor="start" x="134.94" y="-591.2" font-family="Times,serif" font-size="14.00"> &#160;[ice_cream_balls = 2&#39;b00]</text>
</g>
<!-- 2 -->
<g id="node4" class="node">
<title>2</title>
<ellipse fill="#a2cd5a" stroke="black" cx="167.94" cy="-72" rx="72" ry="72"/>
<text text-anchor="middle" x="167.94" y="-66.95" font-family="Times,serif" font-size="14.00">CS1</text>
</g>
<!-- 0&#45;&gt;2 -->
<g id="edge4" class="edge">
<title>0&#45;&gt;2</title>
<path fill="none" stroke="black" d="M461.83,-692.07C518.3,-670.8 592.67,-632.42 627.94,-570 659.42,-514.28 643.48,-488.08 627.94,-426 595.64,-296.96 590.69,-245.24 486.94,-162 419.5,-107.89 321.22,-86.64 251.6,-78.32"/>
<polygon fill="black" stroke="black" points="252.08,-74.85 241.75,-77.21 251.3,-81.81 252.08,-74.85"/>
<text text-anchor="start" x="622.94" y="-394.7" font-family="Times,serif" font-size="14.00"> &#160;coins = 2&#39;b01</text>
<text text-anchor="start" x="622.94" y="-378.2" font-family="Times,serif" font-size="14.00"> &#160;[ice_cream_balls = 2&#39;b00]</text>
</g>
<!-- 1&#45;&gt;0 -->
<g id="edge5" class="edge">
<title>1&#45;&gt;0</title>
<path fill="none" stroke="black" d="M199.04,-529.41C227.34,-544.55 259.72,-564.63 284.94,-588 298.05,-600.15 296.94,-606.91 307.94,-621 315.2,-630.31 323.09,-639.92 331,-649.27"/>
<polygon fill="black" stroke="black" points="328.12,-651.28 337.27,-656.62 333.45,-646.74 328.12,-651.28"/>
<text text-anchor="start" x="307.94" y="-607.7" font-family="Times,serif" font-size="14.00"> &#160;!coins</text>
<text text-anchor="start" x="307.94" y="-591.2" font-family="Times,serif" font-size="14.00"> &#160;[ice_cream_balls = 2&#39;b01]</text>
</g>
<!-- 1&#45;&gt;1 -->
<g id="edge6" class="edge">
<title>1&#45;&gt;1</title>
<path fill="none" stroke="black" d="M203.75,-516.64C215.68,-514.09 223.94,-507.88 223.94,-498 223.94,-491.52 220.38,-486.61 214.57,-483.29"/>
<polygon fill="black" stroke="black" points="215.77,-480 205.18,-479.88 213.38,-486.58 215.77,-480"/>
</g>
<!-- 1&#45;&gt;2 -->
<g id="edge7" class="edge">
<title>1&#45;&gt;2</title>
<path fill="none" stroke="black" d="M117.33,-427.53C106.05,-369.65 95.56,-285.31 109.94,-213 114.35,-190.82 122.35,-167.74 131.01,-146.88"/>
<polygon fill="black" stroke="black" points="134.14,-148.47 134.85,-137.9 127.7,-145.72 134.14,-148.47"/>
<text text-anchor="start" x="109.94" y="-288.2" font-family="Times,serif" font-size="14.00"> &#160;coins = 2&#39;b10</text>
<text text-anchor="start" x="109.94" y="-271.7" font-family="Times,serif" font-size="14.00"> &#160;[ice_cream_balls = 2&#39;b10]</text>
</g>
<!-- 3 -->
<g id="node5" class="node">
<title>3</title>
<ellipse fill="#a2cd5a" stroke="black" cx="340.94" cy="-285" rx="72" ry="72"/>
<text text-anchor="middle" x="340.94" y="-279.95" font-family="Times,serif" font-size="14.00">CS3</text>
</g>
<!-- 1&#45;&gt;3 -->
<g id="edge8" class="edge">
<title>1&#45;&gt;3</title>
<path fill="none" stroke="black" d="M118.88,-427.16C118.69,-408.32 122.58,-389.23 134.94,-375 170.3,-334.28 205.69,-378.97 254.94,-357 263.58,-353.15 272.06,-348.18 280.12,-342.65"/>
<polygon fill="black" stroke="black" points="282.1,-345.54 288.15,-336.84 278,-339.87 282.1,-345.54"/>
<text text-anchor="start" x="134.94" y="-394.7" font-family="Times,serif" font-size="14.00"> &#160;coins = 2&#39;b01</text>
<text text-anchor="start" x="134.94" y="-378.2" font-family="Times,serif" font-size="14.00"> &#160;[ice_cream_balls = 2&#39;b10]</text>
</g>
<!-- 2&#45;&gt;1 -->
<g id="edge9" class="edge">
<title>2&#45;&gt;1</title>
<path fill="none" stroke="black" d="M107.34,-111.06C74.2,-135.64 36.26,-170.85 17.94,-213 -7.57,-271.7 -3.76,-296.79 17.94,-357 29.29,-388.48 51.13,-417.89 72.82,-441.55"/>
<polygon fill="black" stroke="black" points="70.03,-443.69 79.44,-448.57 75.13,-438.89 70.03,-443.69"/>
<text text-anchor="start" x="17.94" y="-279.95" font-family="Times,serif" font-size="14.00"> &#160;coins = 2&#39;b01</text>
</g>
<!-- 2&#45;&gt;2 -->
<g id="edge10" class="edge">
<title>2&#45;&gt;2</title>
<path fill="none" stroke="black" d="M237.75,-90.64C249.68,-88.09 257.94,-81.88 257.94,-72 257.94,-65.52 254.38,-60.61 248.57,-57.29"/>
<polygon fill="black" stroke="black" points="249.77,-54 239.18,-53.88 247.38,-60.58 249.77,-54"/>
</g>
<!-- 2&#45;&gt;3 -->
<g id="edge11" class="edge">
<title>2&#45;&gt;3</title>
<path fill="none" stroke="black" d="M153.41,-142.72C153.28,-161.44 157.06,-180.5 168.94,-195 193.69,-225.21 219.75,-196.08 254.94,-213 263.47,-217.1 271.88,-222.22 279.9,-227.83"/>
<polygon fill="black" stroke="black" points="277.77,-230.61 287.9,-233.7 281.91,-224.96 277.77,-230.61"/>
<text text-anchor="start" x="168.94" y="-181.7" font-family="Times,serif" font-size="14.00"> &#160;coins = 2&#39;b10</text>
<text text-anchor="start" x="168.94" y="-165.2" font-family="Times,serif" font-size="14.00"> &#160;[ice_cream_balls = 2&#39;b10]</text>
</g>
<!-- 3&#45;&gt;0 -->
<g id="edge12" class="edge">
<title>3&#45;&gt;0</title>
<path fill="none" stroke="black" d="M404.78,-318.76C425.66,-333 446.44,-351.79 457.94,-375 482.22,-423.98 475.09,-569.09 457.94,-621 454.87,-630.29 450.47,-639.41 445.36,-648.09"/>
<polygon fill="black" stroke="black" points="442.49,-646.08 440.13,-656.41 448.42,-649.81 442.49,-646.08"/>
<text text-anchor="start" x="473.59" y="-501.2" font-family="Times,serif" font-size="14.00"> &#160;!coins</text>
<text text-anchor="start" x="473.59" y="-484.7" font-family="Times,serif" font-size="14.00"> &#160;[ice_cream_balls = 2&#39;b00]</text>
</g>
<!-- 3&#45;&gt;1 -->
<g id="edge13" class="edge">
<title>3&#45;&gt;1</title>
<path fill="none" stroke="black" d="M314.6,-352.47C304.45,-375.91 293.3,-398.74 284.94,-408 264.33,-430.83 236.45,-449.51 210.26,-463.76"/>
<polygon fill="black" stroke="black" points="208.87,-460.53 201.66,-468.29 212.14,-466.72 208.87,-460.53"/>
<text text-anchor="start" x="304.36" y="-394.7" font-family="Times,serif" font-size="14.00"> &#160;coins = 2&#39;b10</text>
<text text-anchor="start" x="304.36" y="-378.2" font-family="Times,serif" font-size="14.00"> &#160;[ice_cream_balls = 2&#39;b00]</text>
</g>
<!-- 3&#45;&gt;2 -->
<g id="edge14" class="edge">
<title>3&#45;&gt;2</title>
<path fill="none" stroke="black" d="M338.43,-212.56C335.12,-194.85 329.21,-176.75 318.94,-162 300.98,-136.2 272.92,-116.73 245.85,-102.69"/>
<polygon fill="black" stroke="black" points="247.41,-99.55 236.9,-98.24 244.29,-105.82 247.41,-99.55"/>
<text text-anchor="start" x="333.32" y="-181.7" font-family="Times,serif" font-size="14.00"> &#160;coins = 2&#39;b01</text>
<text text-anchor="start" x="333.32" y="-165.2" font-family="Times,serif" font-size="14.00"> &#160;[ice_cream_balls = 2&#39;b00]</text>
</g>
<!-- 3&#45;&gt;3 -->
<g id="edge15" class="edge">
<title>3&#45;&gt;3</title>
<path fill="none" stroke="black" d="M410.75,-303.64C422.68,-301.09 430.94,-294.88 430.94,-285 430.94,-278.52 427.38,-273.61 421.57,-270.29"/>
<polygon fill="black" stroke="black" points="422.77,-267 412.18,-266.88 420.38,-273.58 422.77,-267"/>
</g>
</g>
</svg>
