<?xml version="1.0" encoding="UTF-8" standalone="no"?>
<!DOCTYPE svg PUBLIC "-//W3C//DTD SVG 1.1//EN"
 "http://www.w3.org/Graphics/SVG/1.1/DTD/svg11.dtd">
<!-- Generated by graphviz version 12.2.1 (0)
 -->
<!-- Pages: 1 -->
<svg width="785pt" height="882pt"
 viewBox="0.00 0.00 784.61 882.25" xmlns="http://www.w3.org/2000/svg" xmlns:xlink="http://www.w3.org/1999/xlink">
<g id="graph0" class="graph" transform="scale(1 1) rotate(0) translate(4 878.25)">
<polygon fill="white" stroke="none" points="-4,4 -4,-878.25 780.61,-878.25 780.61,4 -4,4"/>
<!-- _reset -->
<!-- 0 -->
<g id="node2" class="node">
<title>0</title>
<ellipse fill="#a2cd5a" stroke="black" cx="391.87" cy="-710.5" rx="72" ry="72"/>
<ellipse fill="none" stroke="black" cx="391.87" cy="-710.5" rx="76" ry="76"/>
<text text-anchor="middle" x="391.87" y="-705.08" font-family="Times,serif" font-size="14.00">CS0</text>
</g>
<!-- _reset&#45;&gt;0 -->
<g id="edge1" class="edge">
<title>_reset&#45;&gt;0</title>
<path fill="none" stroke="black" d="M391.87,-837.91C391.87,-827.8 391.87,-814.21 391.87,-799.67"/>
<polygon fill="black" stroke="black" points="391.87,-799.62 387.87,-793.62 391.87,-787.62 395.87,-793.62 391.87,-799.62"/>
<text text-anchor="middle" x="408.37" y="-806.95" font-family="Times,serif" font-size="14.00"> &#160;reset</text>
</g>
<!-- 0&#45;&gt;0 -->
<g id="edge2" class="edge">
<title>0&#45;&gt;0</title>
<path fill="none" stroke="black" d="M466.34,-728.01C477.95,-725.39 485.87,-719.55 485.87,-710.5 485.87,-704.56 482.46,-700 476.83,-696.83"/>
<polygon fill="black" stroke="black" points="478.35,-693.66 467.76,-693.51 475.95,-700.24 478.35,-693.66"/>
</g>
<!-- 1 -->
<g id="node3" class="node">
<title>1</title>
<ellipse fill="#a2cd5a" stroke="black" cx="134.87" cy="-495" rx="72" ry="72"/>
<text text-anchor="middle" x="134.87" y="-489.57" font-family="Times,serif" font-size="14.00">CS2</text>
</g>
<!-- 0&#45;&gt;1 -->
<g id="edge3" class="edge">
<title>0&#45;&gt;1</title>
<path fill="none" stroke="black" d="M315.9,-704.36C256.23,-695.88 176.67,-673.76 136.12,-616.5 128.06,-605.12 124.11,-591.49 122.68,-577.56"/>
<polygon fill="black" stroke="black" points="126.19,-577.65 122.13,-567.87 119.21,-578.05 126.19,-577.65"/>
<text text-anchor="start" x="136.12" y="-603.2" font-family="Times,serif" font-size="14.00"> &#160;coins = 2&#39;b10</text>
<text text-anchor="start" x="136.12" y="-587.45" font-family="Times,serif" font-size="14.00"> &#160;[ice_cream_balls = 2&#39;b00]</text>
</g>
<!-- 2 -->
<g id="node4" class="node">
<title>2</title>
<ellipse fill="#a2cd5a" stroke="black" cx="168.87" cy="-72" rx="72" ry="72"/>
<text text-anchor="middle" x="168.87" y="-66.58" font-family="Times,serif" font-size="14.00">CS1</text>
</g>
<!-- 0&#45;&gt;2 -->
<g id="edge4" class="edge">
<title>0&#45;&gt;2</title>
<path fill="none" stroke="black" d="M464.74,-688.01C521.2,-667.08 595.56,-629.17 630.87,-567 662.48,-511.35 646.56,-485.05 630.87,-423 598.55,-295.18 592.97,-244.18 489.87,-162 421.65,-107.62 322.37,-86.43 252.32,-78.19"/>
<polygon fill="black" stroke="black" points="252.73,-74.71 242.41,-77.1 251.96,-81.67 252.73,-74.71"/>
<text text-anchor="start" x="625.86" y="-391.7" font-family="Times,serif" font-size="14.00"> &#160;coins = 2&#39;b01</text>
<text text-anchor="start" x="625.86" y="-375.95" font-family="Times,serif" font-size="14.00"> &#160;[ice_cream_balls = 2&#39;b00]</text>
</g>
<!-- 1&#45;&gt;0 -->
<g id="edge5" class="edge">
<title>1&#45;&gt;0</title>
<path fill="none" stroke="black" d="M199.74,-526.46C228.26,-541.67 261.06,-561.79 286.87,-585 299.81,-596.63 299.2,-602.95 310.12,-616.5 317.66,-625.85 325.81,-635.56 333.93,-645.01"/>
<polygon fill="black" stroke="black" points="331.19,-647.19 340.38,-652.46 336.48,-642.61 331.19,-647.19"/>
<text text-anchor="start" x="310.12" y="-603.2" font-family="Times,serif" font-size="14.00"> &#160;!coins</text>
<text text-anchor="start" x="310.12" y="-587.45" font-family="Times,serif" font-size="14.00"> &#160;[ice_cream_balls = 2&#39;b01]</text>
</g>
<!-- 1&#45;&gt;1 -->
<g id="edge6" class="edge">
<title>1&#45;&gt;1</title>
<path fill="none" stroke="black" d="M204.68,-513.51C216.61,-510.98 224.87,-504.81 224.87,-495 224.87,-488.56 221.31,-483.69 215.5,-480.39"/>
<polygon fill="black" stroke="black" points="216.7,-477.1 206.11,-477 214.33,-483.69 216.7,-477.1"/>
</g>
<!-- 1&#45;&gt;2 -->
<g id="edge7" class="edge">
<title>1&#45;&gt;2</title>
<path fill="none" stroke="black" d="M118.29,-424.6C107.1,-367.03 96.75,-283.29 111.12,-211.5 115.45,-189.86 123.24,-167.37 131.73,-146.96"/>
<polygon fill="black" stroke="black" points="134.9,-148.46 135.62,-137.89 128.46,-145.7 134.9,-148.46"/>
<text text-anchor="start" x="111.12" y="-285.95" font-family="Times,serif" font-size="14.00"> &#160;coins = 2&#39;b10</text>
<text text-anchor="start" x="111.12" y="-270.2" font-family="Times,serif" font-size="14.00"> &#160;[ice_cream_balls = 2&#39;b10]</text>
</g>
<!-- 3 -->
<g id="node5" class="node">
<title>3</title>
<ellipse fill="#a2cd5a" stroke="black" cx="342.87" cy="-283.5" rx="72" ry="72"/>
<text text-anchor="middle" x="342.87" y="-278.07" font-family="Times,serif" font-size="14.00">CS3</text>
</g>
<!-- 1&#45;&gt;3 -->
<g id="edge8" class="edge">
<title>1&#45;&gt;3</title>
<path fill="none" stroke="black" d="M120.16,-424.05C120.15,-405.75 124.1,-387.3 136.12,-373.5 171.76,-332.59 207.31,-377.58 256.87,-355.5 265.52,-351.65 273.99,-346.68 282.05,-341.16"/>
<polygon fill="black" stroke="black" points="284.03,-344.05 290.08,-335.35 279.93,-338.38 284.03,-344.05"/>
<text text-anchor="start" x="136.12" y="-391.7" font-family="Times,serif" font-size="14.00"> &#160;coins = 2&#39;b01</text>
<text text-anchor="start" x="136.12" y="-375.95" font-family="Times,serif" font-size="14.00"> &#160;[ice_cream_balls = 2&#39;b10]</text>
</g>
<!-- 2&#45;&gt;1 -->
<g id="edge9" class="edge">
<title>2&#45;&gt;1</title>
<path fill="none" stroke="black" d="M107.61,-110.73C74.4,-134.95 36.49,-169.69 18.12,-211.5 -7.62,-270.1 -3.84,-295.38 18.12,-355.5 29.46,-386.54 51.17,-415.44 72.81,-438.72"/>
<polygon fill="black" stroke="black" points="70.28,-441.14 79.72,-445.94 75.34,-436.3 70.28,-441.14"/>
<text text-anchor="start" x="18.12" y="-278.07" font-family="Times,serif" font-size="14.00"> &#160;coins = 2&#39;b01</text>
</g>
<!-- 2&#45;&gt;2 -->
<g id="edge10" class="edge">
<title>2&#45;&gt;2</title>
<path fill="none" stroke="black" d="M238.68,-90.51C250.61,-87.98 258.87,-81.81 258.87,-72 258.87,-65.56 255.31,-60.69 249.5,-57.39"/>
<polygon fill="black" stroke="black" points="250.7,-54.1 240.11,-54 248.33,-60.69 250.7,-54.1"/>
</g>
<!-- 2&#45;&gt;3 -->
<g id="edge11" class="edge">
<title>2&#45;&gt;3</title>
<path fill="none" stroke="black" d="M154.67,-142.83C154.71,-161.02 158.56,-179.44 170.12,-193.5 195.13,-223.91 221.37,-194.47 256.87,-211.5 265.4,-215.59 273.81,-220.71 281.83,-226.31"/>
<polygon fill="black" stroke="black" points="279.7,-229.09 289.84,-232.19 283.84,-223.45 279.7,-229.09"/>
<text text-anchor="start" x="170.12" y="-180.2" font-family="Times,serif" font-size="14.00"> &#160;coins = 2&#39;b10</text>
<text text-anchor="start" x="170.12" y="-164.45" font-family="Times,serif" font-size="14.00"> &#160;[ice_cream_balls = 2&#39;b10]</text>
</g>
<!-- 3&#45;&gt;0 -->
<g id="edge12" class="edge">
<title>3&#45;&gt;0</title>
<path fill="none" stroke="black" d="M406.93,-316.94C428.09,-331.19 449.2,-350.07 460.87,-373.5 484.96,-421.83 477.82,-565.23 460.87,-616.5 457.8,-625.79 453.4,-634.91 448.29,-643.59"/>
<polygon fill="black" stroke="black" points="445.42,-641.58 443.06,-651.91 451.35,-645.31 445.42,-641.58"/>
<text text-anchor="start" x="476.37" y="-497.45" font-family="Times,serif" font-size="14.00"> &#160;!coins</text>
<text text-anchor="start" x="476.37" y="-481.7" font-family="Times,serif" font-size="14.00"> &#160;[ice_cream_balls = 2&#39;b00]</text>
</g>
<!-- 3&#45;&gt;1 -->
<g id="edge13" class="edge">
<title>3&#45;&gt;1</title>
<path fill="none" stroke="black" d="M320.11,-352.04C311.66,-370.62 300.69,-389.81 286.87,-405 265.98,-427.97 237.75,-446.72 211.29,-460.98"/>
<polygon fill="black" stroke="black" points="209.84,-457.79 202.6,-465.53 213.08,-463.99 209.84,-457.79"/>
<text text-anchor="start" x="307.95" y="-391.7" font-family="Times,serif" font-size="14.00"> &#160;coins = 2&#39;b10</text>
<text text-anchor="start" x="307.95" y="-375.95" font-family="Times,serif" font-size="14.00"> &#160;[ice_cream_balls = 2&#39;b00]</text>
</g>
<!-- 3&#45;&gt;2 -->
<g id="edge14" class="edge">
<title>3&#45;&gt;2</title>
<path fill="none" stroke="black" d="M340.12,-211.28C336.8,-194 330.93,-176.37 320.87,-162 302.6,-135.9 274.01,-116.3 246.54,-102.23"/>
<polygon fill="black" stroke="black" points="248.37,-99.23 237.85,-97.97 245.29,-105.52 248.37,-99.23"/>
<text text-anchor="start" x="335.15" y="-180.2" font-family="Times,serif" font-size="14.00"> &#160;coins = 2&#39;b01</text>
<text text-anchor="start" x="335.15" y="-164.45" font-family="Times,serif" font-size="14.00"> &#160;[ice_cream_balls = 2&#39;b00]</text>
</g>
<!-- 3&#45;&gt;3 -->
<g id="edge15" class="edge">
<title>3&#45;&gt;3</title>
<path fill="none" stroke="black" d="M412.68,-302.01C424.61,-299.48 432.87,-293.31 432.87,-283.5 432.87,-277.06 429.31,-272.19 423.5,-268.89"/>
<polygon fill="black" stroke="black" points="424.7,-265.6 414.11,-265.5 422.33,-272.19 424.7,-265.6"/>
</g>
</g>
</svg>
