<svg xmlns="http://www.w3.org/2000/svg" xmlns:xlink="http://www.w3.org/1999/xlink" xmlns:s="https://github.com/nturley/netlistsvg" width="431" height="226.5"><style>  svg {
    stroke:#000;
    fill:none;
  }
  text {
    fill:#000;
    fill-opacity:1.0;
    stroke:none;
    font-size:10px;
    font-weight: bold;
    font-family: "Courier New", monospace;
  }
  line {
      stroke-linecap: round;
  }
  .nodelabel {
    text-anchor: middle;
  }
  .inputPortLabel {
    text-anchor: end;
  }
  .splitjoinBody {
    fill:#000;
  }
  .invert {
    fill:#ff9999;
    fill-opacity:1.0;
  }
  .combinational {
    fill:#afecef;
    fill-opacity:1.0;
  }
  .state {
    fill:#def1b2;
    fill-opacity:1.0;
  }
  .hierarchical {
    fill:#ffd8b2;
    fill-opacity:1.0;
  }
  .io {
    fill:#fcffb2;
    fill-opacity:1.0;
  }</style><g s:type="and" class="combinational" transform="translate(72.33333333333334,162)" s:width="30" s:height="25" id="cell_$and$ref.v:18$2"><s:alias val="$and"/><s:alias val="$logic_and"/><s:alias val="$_AND_"/><s:alias val="$reduce_and"/><path d="M0,0 L0,25 L15,25 A15 12.5 0 0 0 15,0 Z" class="cell_$and$ref.v:18$2"/><g s:x="0" s:y="5" s:pid="A"/><g s:x="0" s:y="20" s:pid="B"/><g s:x="30" s:y="12.5" s:pid="Y"/></g><g s:type="not" class="combinational" transform="translate(329,39.5)" s:width="30" s:height="20" id="cell_$not$ref.v:27$4"><s:alias val="$_NOT_"/><s:alias val="$not"/><s:alias val="$logic_not"/><path d="M0,0 L0,20 L20,10 Z" class="cell_$not$ref.v:27$4"/><circle cx="24" cy="10" r="3" class="invert"/><g s:x="-1" s:y="10" s:pid="A"/><g s:x="27" s:y="10" s:pid="Y"/></g><g s:type="dff" class="state" transform="translate(204,32)" s:width="30" s:height="40" id="cell_$procdff$11"><s:alias val="$dff"/><s:alias val="$_DFF_"/><s:alias val="$_DFF_P_"/><s:alias val="$adff"/><s:alias val="$_DFF_"/><s:alias val="$_DFF_P_"/><s:alias val="$sdff"/><s:alias val="$_DFF_"/><s:alias val="$_DFF_P_"/><rect width="30" height="40" x="0" y="0" class="cell_$procdff$11"/><path d="M0,35 L5,30 L0,25 Z" class="cell_$procdff$11" style="fill:#ffffff;"/><g s:x="31" s:y="10" s:pid="Q"/><g s:x="-1" s:y="30" s:pid="CLK"/><g s:x="-1" s:y="30" s:pid="C"/><g s:x="-1" s:y="10" s:pid="D"/><g s:x="15" s:y="40" s:pid="ARST"/><g s:x="15" s:y="40" s:pid="SRST"/></g><g s:type="dff" class="state" transform="translate(204,102)" s:width="30" s:height="40" id="cell_$procdff$12"><s:alias val="$dff"/><s:alias val="$_DFF_"/><s:alias val="$_DFF_P_"/><s:alias val="$adff"/><s:alias val="$_DFF_"/><s:alias val="$_DFF_P_"/><s:alias val="$sdff"/><s:alias val="$_DFF_"/><s:alias val="$_DFF_P_"/><rect width="30" height="40" x="0" y="0" class="cell_$procdff$12"/><path d="M0,35 L5,30 L0,25 Z" class="cell_$procdff$12" style="fill:#ffffff;"/><g s:x="31" s:y="10" s:pid="Q"/><g s:x="-1" s:y="30" s:pid="CLK"/><g s:x="-1" s:y="30" s:pid="C"/><g s:x="-1" s:y="10" s:pid="D"/><g s:x="15" s:y="40" s:pid="ARST"/><g s:x="15" s:y="40" s:pid="SRST"/></g><g s:type="mux" class="combinational" transform="translate(146.33333333333334,92)" s:width="20" s:height="40" id="cell_$procmux$6"><s:alias val="$pmux"/><s:alias val="$mux"/><s:alias val="$_MUX_"/><path d="M0,0 L20,10 L20,30 L0,40 Z" class="cell_$procmux$6"/><text x="5" y="32" class="nodelabel cell_$procmux$6" s:attribute="">1</text><text x="5" y="13" class="nodelabel cell_$procmux$6" s:attribute="">0</text><g s:x="0" s:y="10" s:pid="A"/><g s:x="0" s:y="30" s:pid="B"/><g s:x="10" s:y="35" s:pid="S"/><g s:x="20" s:y="20" s:pid="Y"/></g><g s:type="mux" class="combinational" transform="translate(146.33333333333334,22)" s:width="20" s:height="40" id="cell_$procmux$9"><s:alias val="$pmux"/><s:alias val="$mux"/><s:alias val="$_MUX_"/><path d="M0,0 L20,10 L20,30 L0,40 Z" class="cell_$procmux$9"/><text x="5" y="32" class="nodelabel cell_$procmux$9" s:attribute="">1</text><text x="5" y="13" class="nodelabel cell_$procmux$9" s:attribute="">0</text><g s:x="0" s:y="10" s:pid="A"/><g s:x="0" s:y="30" s:pid="B"/><g s:x="10" s:y="35" s:pid="S"/><g s:x="20" s:y="20" s:pid="Y"/></g><g s:type="reduce_xor" class="combinational" transform="translate(265,37)" s:width="33" s:height="25" id="cell_$xor$ref.v:27$3"><s:alias val="$xor"/><s:alias val="$reduce_xor"/><s:alias val="$_XOR_"/><path d="M3,0 A30 25 0 0 1 3,25 A30 25 0 0 0 33,12.5 A30 25 0 0 0 3,0" class="cell_$xor$ref.v:27$3"/><path d="M0,0 A30 25 0 0 1 0,25" class="cell_$xor$ref.v:27$3"/><g s:x="2" s:y="5" s:pid="A"/><g s:x="2" s:y="20" s:pid="B"/><g s:x="33" s:y="12.5" s:pid="Y"/></g><g s:type="inputExt" class="io" transform="translate(143,194.5)" s:width="30" s:height="20" id="cell_clk"><text x="15" y="-4" class="nodelabel cell_clk" s:attribute="ref">clk</text><s:alias val="$_inputExt_"/><path d="M0,0 L0,20 L15,20 L30,10 L15,0 Z" class="cell_clk"/><g s:x="30" s:y="10" s:pid="Y"/></g><g s:type="inputExt" class="io" transform="translate(12,22)" s:width="30" s:height="20" id="cell_a"><text x="15" y="-4" class="nodelabel cell_a" s:attribute="ref">a</text><s:alias val="$_inputExt_"/><path d="M0,0 L0,20 L15,20 L30,10 L15,0 Z" class="cell_a"/><g s:x="30" s:y="10" s:pid="Y"/></g><g s:type="inputExt" class="io" transform="translate(12,172)" s:width="30" s:height="20" id="cell_b"><text x="15" y="-4" class="nodelabel cell_b" s:attribute="ref">b</text><s:alias val="$_inputExt_"/><path d="M0,0 L0,20 L15,20 L30,10 L15,0 Z" class="cell_b"/><g s:x="30" s:y="10" s:pid="Y"/></g><g s:type="outputExt" class="io" transform="translate(389,39.5)" s:width="30" s:height="20" id="cell_y"><text x="15" y="-4" class="nodelabel cell_y" s:attribute="ref">y</text><s:alias val="$_outputExt_"/><path d="M30,0 L30,20 L15,20 L0,10 L15,0 Z" class="cell_y"/><g s:x="0" s:y="10" s:pid="A"/></g><g s:type="constant" class="io" transform="translate(72,112)" s:width="30" s:height="20" id="cell_0"><text x="15" y="-4" class="nodelabel cell_0" s:attribute="ref">0</text><s:alias val="$_constant_"/><rect width="30" height="20" class="cell_0"/><g s:x="31" s:y="10" s:pid="Y"/></g><line x1="42" x2="52" y1="32" y2="32" class="net_3 width_1" style="stroke-width: 1"/><line x1="52" x2="52" y1="32" y2="167" class="net_3 width_1" style="stroke-width: 1"/><circle cx="52" cy="32" r="2" style="fill:#000" class="net_3 width_1"/><line x1="52" x2="72.33333333333334" y1="167" y2="167" class="net_3 width_1" style="stroke-width: 1"/><line x1="42" x2="146.33333333333334" y1="32" y2="32" class="net_3 width_1" style="stroke-width: 1"/><line x1="42" x2="72.33333333333334" y1="182" y2="182" class="net_4 width_1" style="stroke-width: 1"/><line x1="42" x2="52" y1="182" y2="182" class="net_4 width_1" style="stroke-width: 1"/><line x1="52" x2="52" y1="182" y2="197" class="net_4 width_1" style="stroke-width: 1"/><line x1="52" x2="133" y1="197" y2="197" class="net_4 width_1" style="stroke-width: 1"/><line x1="133" x2="133" y1="197" y2="102" class="net_4 width_1" style="stroke-width: 1"/><circle cx="52" cy="182" r="2" style="fill:#000" class="net_4 width_1"/><line x1="133" x2="146.33333333333334" y1="102" y2="102" class="net_4 width_1" style="stroke-width: 1"/><line x1="298" x2="328" y1="49.5" y2="49.5" class="net_7 width_1" style="stroke-width: 1"/><line x1="173" x2="183" y1="204.5" y2="204.5" class="net_2 width_1" style="stroke-width: 1"/><line x1="183" x2="183" y1="204.5" y2="62" class="net_2 width_1" style="stroke-width: 1"/><line x1="183" x2="203" y1="62" y2="62" class="net_2 width_1" style="stroke-width: 1"/><line x1="173" x2="183" y1="204.5" y2="204.5" class="net_2 width_1" style="stroke-width: 1"/><line x1="183" x2="183" y1="204.5" y2="132" class="net_2 width_1" style="stroke-width: 1"/><circle cx="183" cy="132" r="2" style="fill:#000" class="net_2 width_1"/><line x1="183" x2="203" y1="132" y2="132" class="net_2 width_1" style="stroke-width: 1"/><line x1="166.33333333333334" x2="203" y1="42" y2="42" class="net_8 width_1" style="stroke-width: 1"/><line x1="166.33333333333334" x2="203" y1="112" y2="112" class="net_10 width_1" style="stroke-width: 1"/><line x1="103" x2="146.33333333333334" y1="122" y2="122" class="net_12 width_1" style="stroke-width: 1"/><line x1="103" x2="113" y1="122" y2="122" class="net_12 width_1" style="stroke-width: 1"/><line x1="113" x2="113" y1="122" y2="52" class="net_12 width_1" style="stroke-width: 1"/><circle cx="113" cy="122" r="2" style="fill:#000" class="net_12 width_1"/><line x1="113" x2="146.33333333333334" y1="52" y2="52" class="net_12 width_1" style="stroke-width: 1"/><line x1="102.33333333333334" x2="156.33333333333334" y1="174.5" y2="174.5" class="net_6 width_1" style="stroke-width: 1"/><line x1="156.33333333333334" x2="156.33333333333334" y1="174.5" y2="127" class="net_6 width_1" style="stroke-width: 1"/><line x1="102.33333333333334" x2="123" y1="174.5" y2="174.5" class="net_6 width_1" style="stroke-width: 1"/><line x1="123" x2="123" y1="174.5" y2="82" class="net_6 width_1" style="stroke-width: 1"/><line x1="123" x2="156.33333333333334" y1="82" y2="82" class="net_6 width_1" style="stroke-width: 1"/><circle cx="123" cy="174.5" r="2" style="fill:#000" class="net_6 width_1"/><line x1="156.33333333333334" x2="156.33333333333334" y1="82" y2="57" class="net_6 width_1" style="stroke-width: 1"/><line x1="235" x2="267" y1="42" y2="42" class="net_9 width_1" style="stroke-width: 1"/><line x1="235" x2="245" y1="112" y2="112" class="net_11 width_1" style="stroke-width: 1"/><line x1="245" x2="245" y1="112" y2="57" class="net_11 width_1" style="stroke-width: 1"/><line x1="245" x2="267" y1="57" y2="57" class="net_11 width_1" style="stroke-width: 1"/><line x1="356" x2="389" y1="49.5" y2="49.5" class="net_5 width_1" style="stroke-width: 1"/></svg>