<svg xmlns="http://www.w3.org/2000/svg" xmlns:xlink="http://www.w3.org/1999/xlink" xmlns:s="https://github.com/nturley/netlistsvg" width="236" height="114"><style>  svg {
    stroke:#000;
    fill:none;
  }
  text {
    fill:#000;
    fill-opacity:1.0;
    stroke:none;
    font-size:10px;
    font-weight: bold;
    font-family: "Courier New", monospace;
  }
  line {
      stroke-linecap: round;
  }
  .nodelabel {
    text-anchor: middle;
  }
  .inputPortLabel {
    text-anchor: end;
  }
  .splitjoinBody {
    fill:#000;
  }
  .invert {
    fill:#ff9999;
    fill-opacity:1.0;
  }
  .combinational {
    fill:#afecef;
    fill-opacity:1.0;
  }
  .state {
    fill:#def1b2;
    fill-opacity:1.0;
  }
  .hierarchical {
    fill:#ffd8b2;
    fill-opacity:1.0;
  }
  .io {
    fill:#fcffb2;
    fill-opacity:1.0;
  }</style><g s:type="inputExt" class="io" transform="translate(12,32)" s:width="30" s:height="20" id="cell_a"><text x="15" y="-4" class="nodelabel cell_a" s:attribute="ref">a</text><s:alias val="$_inputExt_"/><path d="M0,0 L0,20 L15,20 L30,10 L15,0 Z" class="cell_a"/><g s:x="30" s:y="10" s:pid="Y"/></g><g s:type="outputExt" class="io" transform="translate(194,22)" s:width="30" s:height="20" id="cell_y"><text x="15" y="-4" class="nodelabel cell_y" s:attribute="ref">y</text><s:alias val="$_outputExt_"/><path d="M30,0 L30,20 L15,20 L0,10 L15,0 Z" class="cell_y"/><g s:x="0" s:y="10" s:pid="A"/></g><g s:type="outputExt" class="io" transform="translate(194,82)" s:width="30" s:height="20" id="cell_z"><text x="15" y="-4" class="nodelabel cell_z" s:attribute="ref">z</text><s:alias val="$_outputExt_"/><path d="M30,0 L30,20 L15,20 L0,10 L15,0 Z" class="cell_z"/><g s:x="0" s:y="10" s:pid="A"/></g><g s:type="split" class="" transform="translate(106,21.5)" s:width="5" s:height="40" id="cell_$split$,2,3,4,5,"><rect width="5" height="40" class="splitjoinBody" s:generic="body"/><s:alias val="$_split_"/><g s:x="0" s:y="20" s:pid="in"/><g transform="translate(4,10)" s:x="4" s:y="10" s:pid="out0"><text x="5" y="-4">0:1</text></g><g transform="translate(4,30)" s:x="4" s:y="10" s:pid="out0"><text x="5" y="-4">2:3</text></g></g><line x1="111" x2="194" y1="32" y2="32" class="net_2,3 width_2" style="stroke-width: 2"/><line x1="111" x2="140" y1="52" y2="52" class="net_4,5 width_2" style="stroke-width: 2"/><line x1="140" x2="140" y1="52" y2="92" class="net_4,5 width_2" style="stroke-width: 2"/><line x1="140" x2="194" y1="92" y2="92" class="net_4,5 width_2" style="stroke-width: 2"/><line x1="42" x2="106" y1="42" y2="42" class="net_2,3,4,5 width_4" style="stroke-width: 2"/><rect x="161" y="27" width="16" height="9" class="net_2,3 width_2 busLabel_2" style="fill: white; stroke: none"/><text x="160" y="35" class="net_2,3 width_2 busLabel_2">/2/</text><rect x="161" y="87" width="16" height="9" class="net_4,5 width_2 busLabel_2" style="fill: white; stroke: none"/><text x="160" y="95" class="net_4,5 width_2 busLabel_2">/2/</text><rect x="73" y="37" width="16" height="9" class="net_2,3,4,5 width_4 busLabel_4" style="fill: white; stroke: none"/><text x="72" y="45" class="net_2,3,4,5 width_4 busLabel_4">/4/</text></svg>