<svg xmlns="http://www.w3.org/2000/svg" xmlns:xlink="http://www.w3.org/1999/xlink" xmlns:s="https://github.com/nturley/netlistsvg" width="285" height="194"><style>  svg {
    stroke:#000;
    fill:none;
  }
  text {
    fill:#000;
    fill-opacity:1.0;
    stroke:none;
    font-size:10px;
    font-weight: bold;
    font-family: "Courier New", monospace;
  }
  line {
      stroke-linecap: round;
  }
  .nodelabel {
    text-anchor: middle;
  }
  .inputPortLabel {
    text-anchor: end;
  }
  .splitjoinBody {
    fill:#000;
  }
  .invert {
    fill:#ff9999;
    fill-opacity:1.0;
  }
  .combinational {
    fill:#afecef;
    fill-opacity:1.0;
  }
  .state {
    fill:#def1b2;
    fill-opacity:1.0;
  }
  .hierarchical {
    fill:#ffd8b2;
    fill-opacity:1.0;
  }
  .io {
    fill:#fcffb2;
    fill-opacity:1.0;
  }</style><g s:type="not" class="combinational" transform="translate(73,92)" s:width="30" s:height="20" id="cell_$not$ref.v:16$1"><s:alias val="$_NOT_"/><s:alias val="$not"/><s:alias val="$logic_not"/><path d="M0,0 L0,20 L20,10 Z" class="cell_$not$ref.v:16$1"/><circle cx="24" cy="10" r="3" class="invert"/><g s:x="-1" s:y="10" s:pid="A"/><g s:x="27" s:y="10" s:pid="Y"/></g><g s:type="not" class="combinational" transform="translate(73,12)" s:width="30" s:height="20" id="cell_$not$ref.v:16$3"><s:alias val="$_NOT_"/><s:alias val="$not"/><s:alias val="$logic_not"/><path d="M0,0 L0,20 L20,10 Z" class="cell_$not$ref.v:16$3"/><circle cx="24" cy="10" r="3" class="invert"/><g s:x="-1" s:y="10" s:pid="A"/><g s:x="27" s:y="10" s:pid="Y"/></g><g s:type="mux" class="combinational" transform="translate(136.33333333333331,92)" s:width="20" s:height="40" id="cell_$ternary$ref.v:16$2"><s:alias val="$pmux"/><s:alias val="$mux"/><s:alias val="$_MUX_"/><path d="M0,0 L20,10 L20,30 L0,40 Z" class="cell_$ternary$ref.v:16$2"/><text x="5" y="32" class="nodelabel cell_$ternary$ref.v:16$2" s:attribute="">1</text><text x="5" y="13" class="nodelabel cell_$ternary$ref.v:16$2" s:attribute="">0</text><g s:x="0" s:y="10" s:pid="A"/><g s:x="0" s:y="30" s:pid="B"/><g s:x="10" s:y="35" s:pid="S"/><g s:x="20" s:y="20" s:pid="Y"/></g><g s:type="mux" class="combinational" transform="translate(136.33333333333331,12)" s:width="20" s:height="40" id="cell_$ternary$ref.v:16$4"><s:alias val="$pmux"/><s:alias val="$mux"/><s:alias val="$_MUX_"/><path d="M0,0 L20,10 L20,30 L0,40 Z" class="cell_$ternary$ref.v:16$4"/><text x="5" y="32" class="nodelabel cell_$ternary$ref.v:16$4" s:attribute="">1</text><text x="5" y="13" class="nodelabel cell_$ternary$ref.v:16$4" s:attribute="">0</text><g s:x="0" s:y="10" s:pid="A"/><g s:x="0" s:y="30" s:pid="B"/><g s:x="10" s:y="35" s:pid="S"/><g s:x="20" s:y="20" s:pid="Y"/></g><g s:type="mux" class="combinational" transform="translate(193,22)" s:width="20" s:height="40" id="cell_$ternary$ref.v:16$5"><s:alias val="$pmux"/><s:alias val="$mux"/><s:alias val="$_MUX_"/><path d="M0,0 L20,10 L20,30 L0,40 Z" class="cell_$ternary$ref.v:16$5"/><text x="5" y="32" class="nodelabel cell_$ternary$ref.v:16$5" s:attribute="">1</text><text x="5" y="13" class="nodelabel cell_$ternary$ref.v:16$5" s:attribute="">0</text><g s:x="0" s:y="10" s:pid="A"/><g s:x="0" s:y="30" s:pid="B"/><g s:x="10" s:y="35" s:pid="S"/><g s:x="20" s:y="20" s:pid="Y"/></g><g s:type="inputExt" class="io" transform="translate(133,162)" s:width="30" s:height="20" id="cell_s"><text x="15" y="-4" class="nodelabel cell_s" s:attribute="ref">s</text><s:alias val="$_inputExt_"/><path d="M0,0 L0,20 L15,20 L30,10 L15,0 Z" class="cell_s"/><g s:x="30" s:y="10" s:pid="Y"/></g><g s:type="inputExt" class="io" transform="translate(12,92)" s:width="30" s:height="20" id="cell_a"><text x="15" y="-4" class="nodelabel cell_a" s:attribute="ref">a</text><s:alias val="$_inputExt_"/><path d="M0,0 L0,20 L15,20 L30,10 L15,0 Z" class="cell_a"/><g s:x="30" s:y="10" s:pid="Y"/></g><g s:type="inputExt" class="io" transform="translate(12,32)" s:width="30" s:height="20" id="cell_b"><text x="15" y="-4" class="nodelabel cell_b" s:attribute="ref">b</text><s:alias val="$_inputExt_"/><path d="M0,0 L0,20 L15,20 L30,10 L15,0 Z" class="cell_b"/><g s:x="30" s:y="10" s:pid="Y"/></g><g s:type="outputExt" class="io" transform="translate(243,32)" s:width="30" s:height="20" id="cell_y"><text x="15" y="-4" class="nodelabel cell_y" s:attribute="ref">y</text><s:alias val="$_outputExt_"/><path d="M30,0 L30,20 L15,20 L0,10 L15,0 Z" class="cell_y"/><g s:x="0" s:y="10" s:pid="A"/></g><line x1="42" x2="72" y1="102" y2="102" class="net_3 width_1" style="stroke-width: 1"/><line x1="42" x2="62" y1="102" y2="102" class="net_3 width_1" style="stroke-width: 1"/><line x1="62" x2="62" y1="102" y2="122" class="net_3 width_1" style="stroke-width: 1"/><circle cx="62" cy="102" r="2" style="fill:#000" class="net_3 width_1"/><line x1="62" x2="136.33333333333331" y1="122" y2="122" class="net_3 width_1" style="stroke-width: 1"/><line x1="42" x2="62" y1="102" y2="102" class="net_3 width_1" style="stroke-width: 1"/><line x1="62" x2="62" y1="102" y2="81" class="net_3 width_1" style="stroke-width: 1"/><line x1="62" x2="146.33333333333331" y1="81" y2="81" class="net_3 width_1" style="stroke-width: 1"/><line x1="146.33333333333331" x2="146.33333333333331" y1="81" y2="47" class="net_3 width_1" style="stroke-width: 1"/><line x1="42" x2="52" y1="42" y2="42" class="net_4 width_1" style="stroke-width: 1"/><line x1="52" x2="52" y1="42" y2="22" class="net_4 width_1" style="stroke-width: 1"/><circle cx="52" cy="42" r="2" style="fill:#000" class="net_4 width_1"/><line x1="52" x2="72" y1="22" y2="22" class="net_4 width_1" style="stroke-width: 1"/><line x1="42" x2="52" y1="42" y2="42" class="net_4 width_1" style="stroke-width: 1"/><line x1="52" x2="52" y1="42" y2="142" class="net_4 width_1" style="stroke-width: 1"/><line x1="52" x2="146.33333333333331" y1="142" y2="142" class="net_4 width_1" style="stroke-width: 1"/><line x1="146.33333333333331" x2="146.33333333333331" y1="142" y2="127" class="net_4 width_1" style="stroke-width: 1"/><line x1="42" x2="136.33333333333331" y1="42" y2="42" class="net_4 width_1" style="stroke-width: 1"/><line x1="100" x2="136.33333333333331" y1="102" y2="102" class="net_6 width_1" style="stroke-width: 1"/><line x1="100" x2="136.33333333333331" y1="22" y2="22" class="net_7 width_1" style="stroke-width: 1"/><line x1="156.33333333333331" x2="193" y1="32" y2="32" class="net_9 width_1" style="stroke-width: 1"/><line x1="156.33333333333331" x2="173" y1="112" y2="112" class="net_8 width_1" style="stroke-width: 1"/><line x1="173" x2="173" y1="112" y2="52" class="net_8 width_1" style="stroke-width: 1"/><line x1="173" x2="193" y1="52" y2="52" class="net_8 width_1" style="stroke-width: 1"/><line x1="163" x2="203" y1="172" y2="172" class="net_2 width_1" style="stroke-width: 1"/><line x1="203" x2="203" y1="172" y2="57" class="net_2 width_1" style="stroke-width: 1"/><line x1="213" x2="243" y1="42" y2="42" class="net_5 width_1" style="stroke-width: 1"/></svg>