<?xml version="1.0" encoding="UTF-8" standalone="no"?>
<!DOCTYPE svg PUBLIC "-//W3C//DTD SVG 1.1//EN"
 "http://www.w3.org/Graphics/SVG/1.1/DTD/svg11.dtd">
<!-- Generated by graphviz version 12.2.1 (0)
 -->
<!-- Pages: 1 -->
<svg width="584pt" height="1014pt"
 viewBox="0.00 0.00 583.71 1013.56" xmlns="http://www.w3.org/2000/svg" xmlns:xlink="http://www.w3.org/1999/xlink">
<g id="graph0" class="graph" transform="scale(1 1) rotate(0) translate(4 1009.56)">
<polygon fill="white" stroke="none" points="-4,4 -4,-1009.56 579.71,-1009.56 579.71,4 -4,4"/>
<!-- _reset -->
<!-- 0 -->
<g id="node2" class="node">
<title>0</title>
<ellipse fill="#a2cd5a" stroke="black" cx="379.96" cy="-877.06" rx="36" ry="36"/>
<ellipse fill="none" stroke="black" cx="379.96" cy="-877.06" rx="40" ry="40"/>
<text text-anchor="middle" x="379.96" y="-872.01" font-family="Times,serif" font-size="14.00">IDLE</text>
</g>
<!-- _reset&#45;&gt;0 -->
<g id="edge1" class="edge">
<title>_reset&#45;&gt;0</title>
<path fill="none" stroke="black" d="M379.96,-969.13C379.96,-958.49 379.96,-944.27 379.96,-930.24"/>
<polygon fill="black" stroke="black" points="379.96,-930.41 375.96,-924.41 379.96,-918.41 383.96,-924.41 379.96,-930.41"/>
<text text-anchor="middle" x="396.46" y="-938.26" font-family="Times,serif" font-size="14.00"> &#160;reset</text>
</g>
<!-- 2 -->
<g id="node4" class="node">
<title>2</title>
<ellipse fill="#a2cd5a" stroke="black" cx="245.96" cy="-713.59" rx="36" ry="36"/>
<text text-anchor="middle" x="245.96" y="-708.54" font-family="Times,serif" font-size="14.00">PROCESS</text>
</g>
<!-- 0&#45;&gt;2 -->
<g id="edge2" class="edge">
<title>0&#45;&gt;2</title>
<path fill="none" stroke="black" d="M340.02,-870.67C308.97,-864.16 267.82,-849.93 247.21,-819.06 235.85,-802.04 234.26,-779.72 236.04,-760.09"/>
<polygon fill="black" stroke="black" points="239.48,-760.75 237.24,-750.4 232.53,-759.89 239.48,-760.75"/>
<text text-anchor="start" x="247.21" y="-805.76" font-family="Times,serif" font-size="14.00"> &#160;!level</text>
<text text-anchor="start" x="247.21" y="-789.26" font-family="Times,serif" font-size="14.00"> &#160;[heat = 1&#39;b1]</text>
<text text-anchor="start" x="247.21" y="-772.76" font-family="Times,serif" font-size="14.00"> &#160;[pump = 3&#39;b100]</text>
</g>
<!-- 6 -->
<g id="node8" class="node">
<title>6</title>
<ellipse fill="#a2cd5a" stroke="black" cx="475.96" cy="-713.59" rx="37.97" ry="37.97"/>
<text text-anchor="middle" x="475.96" y="-708.54" font-family="Times,serif" font-size="14.00">DISPOSAL</text>
</g>
<!-- 0&#45;&gt;6 -->
<g id="edge3" class="edge">
<title>0&#45;&gt;6</title>
<path fill="none" stroke="black" d="M400.09,-842.21C414.91,-817.28 435.15,-783.23 451,-756.57"/>
<polygon fill="black" stroke="black" points="453.97,-758.43 456.07,-748.05 447.95,-754.86 453.97,-758.43"/>
<text text-anchor="start" x="442.17" y="-797.51" font-family="Times,serif" font-size="14.00"> &#160;!(!level)</text>
<text text-anchor="start" x="442.17" y="-781.01" font-family="Times,serif" font-size="14.00"> &#160;[pump = 3&#39;b010]</text>
</g>
<!-- 1 -->
<g id="node3" class="node">
<title>1</title>
<ellipse fill="#a2cd5a" stroke="black" cx="129.96" cy="-200.61" rx="36" ry="36"/>
<text text-anchor="middle" x="129.96" y="-195.56" font-family="Times,serif" font-size="14.00">SPARGE</text>
</g>
<!-- 1&#45;&gt;1 -->
<g id="edge4" class="edge">
<title>1&#45;&gt;1</title>
<path fill="none" stroke="black" d="M163.18,-215.37C174.68,-215.53 183.96,-210.61 183.96,-200.61 183.96,-194.2 180.15,-189.88 174.39,-187.65"/>
<polygon fill="black" stroke="black" points="175.11,-184.22 164.68,-186.09 174,-191.13 175.11,-184.22"/>
</g>
<!-- 4 -->
<g id="node6" class="node">
<title>4</title>
<ellipse fill="#a2cd5a" stroke="black" cx="304.96" cy="-39.55" rx="36" ry="36"/>
<text text-anchor="middle" x="304.96" y="-34.5" font-family="Times,serif" font-size="14.00">DONE</text>
</g>
<!-- 1&#45;&gt;4 -->
<g id="edge5" class="edge">
<title>1&#45;&gt;4</title>
<path fill="none" stroke="black" d="M163.15,-186.42C182.82,-177.39 207.28,-163.92 224.96,-146.61 243.18,-128.77 238.9,-117.68 253.96,-97.11 259.57,-89.44 266.06,-81.62 272.48,-74.34"/>
<polygon fill="black" stroke="black" points="274.81,-76.97 278.91,-67.2 269.62,-72.28 274.81,-76.97"/>
<text text-anchor="start" x="253.96" y="-125.06" font-family="Times,serif" font-size="14.00"> &#160;pump = 3&#39;b011</text>
<text text-anchor="start" x="253.96" y="-108.56" font-family="Times,serif" font-size="14.00"> &#160;&amp;&amp; &#160;level &lt; 20</text>
</g>
<!-- 7 -->
<g id="node9" class="node">
<title>7</title>
<ellipse fill="#a2cd5a" stroke="black" cx="76.96" cy="-39.55" rx="39.55" ry="39.55"/>
<text text-anchor="middle" x="76.96" y="-34.5" font-family="Times,serif" font-size="14.00">SPARGE_B</text>
</g>
<!-- 1&#45;&gt;7 -->
<g id="edge6" class="edge">
<title>1&#45;&gt;7</title>
<path fill="none" stroke="black" d="M94.09,-194.69C65.45,-188.67 27.1,-175.43 8.21,-146.61 -3.85,-128.21 -1.18,-117 8.21,-97.11 13.83,-85.22 23.3,-74.99 33.45,-66.62"/>
<polygon fill="black" stroke="black" points="35.43,-69.52 41.26,-60.67 31.19,-63.95 35.43,-69.52"/>
<text text-anchor="start" x="8.21" y="-133.31" font-family="Times,serif" font-size="14.00"> &#160;!(pump = 3&#39;b011</text>
<text text-anchor="start" x="8.21" y="-116.81" font-family="Times,serif" font-size="14.00"> &#160;&amp;&amp; &#160;level &lt; 20)</text>
<text text-anchor="start" x="8.21" y="-100.31" font-family="Times,serif" font-size="14.00"> &#160;&amp;&amp; level &lt; 70</text>
</g>
<!-- 2&#45;&gt;2 -->
<g id="edge7" class="edge">
<title>2&#45;&gt;2</title>
<path fill="none" stroke="black" d="M278.92,-728.72C290.53,-728.96 299.96,-723.92 299.96,-713.59 299.96,-706.98 296.09,-702.53 290.26,-700.25"/>
<polygon fill="black" stroke="black" points="290.83,-696.8 280.41,-698.7 289.75,-703.72 290.83,-696.8"/>
</g>
<!-- 5 -->
<g id="node7" class="node">
<title>5</title>
<ellipse fill="#a2cd5a" stroke="black" cx="108.96" cy="-551.37" rx="36" ry="36"/>
<text text-anchor="middle" x="108.96" y="-546.32" font-family="Times,serif" font-size="14.00">HOT</text>
</g>
<!-- 2&#45;&gt;5 -->
<g id="edge8" class="edge">
<title>2&#45;&gt;5</title>
<path fill="none" stroke="black" d="M210.19,-707.41C180.45,-701.08 139.65,-687.27 118.21,-657.63 106.08,-640.85 102.85,-618.41 103.02,-598.56"/>
<polygon fill="black" stroke="black" points="106.51,-598.88 103.42,-588.75 99.52,-598.6 106.51,-598.88"/>
<text text-anchor="start" x="118.21" y="-636.08" font-family="Times,serif" font-size="14.00"> &#160;temp &gt;= 60</text>
<text text-anchor="start" x="118.21" y="-619.58" font-family="Times,serif" font-size="14.00"> &#160;&amp;&amp; !(level &gt;= 125)</text>
</g>
<!-- 8 -->
<g id="node10" class="node">
<title>8</title>
<ellipse fill="#a2cd5a" stroke="black" cx="236.96" cy="-551.37" rx="36" ry="36"/>
<text text-anchor="middle" x="236.96" y="-546.32" font-family="Times,serif" font-size="14.00">FULL</text>
</g>
<!-- 2&#45;&gt;8 -->
<g id="edge9" class="edge">
<title>2&#45;&gt;8</title>
<path fill="none" stroke="black" d="M243.99,-677.43C242.7,-654.45 240.99,-624.17 239.59,-599.16"/>
<polygon fill="black" stroke="black" points="243.09,-599.02 239.03,-589.24 236.1,-599.42 243.09,-599.02"/>
<text text-anchor="start" x="242.79" y="-636.08" font-family="Times,serif" font-size="14.00"> &#160;level &gt;= 125</text>
<text text-anchor="start" x="242.79" y="-619.58" font-family="Times,serif" font-size="14.00"> &#160;[pump = 3&#39;b000]</text>
</g>
<!-- 3 -->
<g id="node5" class="node">
<title>3</title>
<ellipse fill="#a2cd5a" stroke="black" cx="475.96" cy="-551.37" rx="38.76" ry="38.76"/>
<text text-anchor="middle" x="475.96" y="-546.32" font-family="Times,serif" font-size="14.00">STERILISE</text>
</g>
<!-- 3&#45;&gt;3 -->
<g id="edge10" class="edge">
<title>3&#45;&gt;3</title>
<path fill="none" stroke="black" d="M511.99,-566.65C523.55,-566.49 532.72,-561.4 532.72,-551.37 532.72,-544.94 528.96,-540.54 523.21,-538.17"/>
<polygon fill="black" stroke="black" points="523.95,-534.75 513.48,-536.37 522.67,-541.63 523.95,-534.75"/>
</g>
<!-- 9 -->
<g id="node11" class="node">
<title>9</title>
<ellipse fill="#a2cd5a" stroke="black" cx="438.96" cy="-374.61" rx="36" ry="36"/>
<text text-anchor="middle" x="438.96" y="-369.56" font-family="Times,serif" font-size="14.00">COOL</text>
</g>
<!-- 3&#45;&gt;9 -->
<g id="edge11" class="edge">
<title>3&#45;&gt;9</title>
<path fill="none" stroke="black" d="M468.11,-513.31C462.42,-486.42 454.69,-449.88 448.62,-421.2"/>
<polygon fill="black" stroke="black" points="452.1,-420.78 446.61,-411.72 445.25,-422.23 452.1,-420.78"/>
<text text-anchor="start" x="463.99" y="-464.81" font-family="Times,serif" font-size="14.00"> &#160;temp = 80</text>
<text text-anchor="start" x="463.99" y="-448.31" font-family="Times,serif" font-size="14.00"> &#160;[heat = 1&#39;b0]</text>
</g>
<!-- 4&#45;&gt;0 -->
<g id="edge12" class="edge">
<title>4&#45;&gt;0</title>
<path fill="none" stroke="black" d="M328.92,-67.04C335.8,-76.01 342.62,-86.46 346.96,-97.11 364.33,-139.68 360.96,-153.63 360.96,-199.61 360.96,-714.59 360.96,-714.59 360.96,-714.59 360.96,-752.18 366.1,-794.34 371.03,-826.16"/>
<polygon fill="black" stroke="black" points="367.56,-826.57 372.59,-835.89 374.47,-825.46 367.56,-826.57"/>
</g>
<!-- 5&#45;&gt;5 -->
<g id="edge13" class="edge">
<title>5&#45;&gt;5</title>
<path fill="none" stroke="black" d="M141.92,-566.64C153.53,-566.89 162.96,-561.8 162.96,-551.37 162.96,-544.69 159.09,-540.2 153.26,-537.9"/>
<polygon fill="black" stroke="black" points="153.84,-534.45 143.41,-536.33 152.74,-541.36 153.84,-534.45"/>
</g>
<!-- 10 -->
<g id="node12" class="node">
<title>10</title>
<ellipse fill="#a2cd5a" stroke="black" cx="129.96" cy="-374.61" rx="36" ry="36"/>
<text text-anchor="middle" x="129.96" y="-369.56" font-family="Times,serif" font-size="14.00">MASH</text>
</g>
<!-- 5&#45;&gt;10 -->
<g id="edge14" class="edge">
<title>5&#45;&gt;10</title>
<path fill="none" stroke="black" d="M108.2,-514.96C108.24,-490.54 109.39,-457.41 114.21,-428.61 114.68,-425.83 115.24,-423 115.88,-420.16"/>
<polygon fill="black" stroke="black" points="119.21,-421.27 118.25,-410.71 112.42,-419.56 119.21,-421.27"/>
<text text-anchor="start" x="114.21" y="-481.31" font-family="Times,serif" font-size="14.00"> &#160;level &gt;= 125</text>
<text text-anchor="start" x="114.21" y="-464.81" font-family="Times,serif" font-size="14.00"> &#160;[agitate = 1&#39;b1]</text>
<text text-anchor="start" x="114.21" y="-448.31" font-family="Times,serif" font-size="14.00"> &#160;[chute = 1&#39;b1]</text>
<text text-anchor="start" x="114.21" y="-431.81" font-family="Times,serif" font-size="14.00"> &#160;[pump = 3&#39;b000]</text>
</g>
<!-- 6&#45;&gt;3 -->
<g id="edge15" class="edge">
<title>6&#45;&gt;3</title>
<path fill="none" stroke="black" d="M475.96,-675.43C475.96,-653.51 475.96,-625.48 475.96,-601.72"/>
<polygon fill="black" stroke="black" points="479.46,-601.95 475.96,-591.95 472.46,-601.96 479.46,-601.95"/>
<text text-anchor="start" x="475.96" y="-644.33" font-family="Times,serif" font-size="14.00"> &#160;!level</text>
<text text-anchor="start" x="475.96" y="-627.83" font-family="Times,serif" font-size="14.00"> &#160;[heat = 1&#39;b1]</text>
<text text-anchor="start" x="475.96" y="-611.33" font-family="Times,serif" font-size="14.00"> &#160;[pump = 3&#39;b000]</text>
</g>
<!-- 6&#45;&gt;6 -->
<g id="edge16" class="edge">
<title>6&#45;&gt;6</title>
<path fill="none" stroke="black" d="M511.21,-728.73C522.74,-728.65 531.93,-723.61 531.93,-713.59 531.93,-707.18 528.16,-702.81 522.42,-700.47"/>
<polygon fill="black" stroke="black" points="523.16,-697.05 512.7,-698.73 521.93,-703.94 523.16,-697.05"/>
</g>
<!-- 7&#45;&gt;1 -->
<g id="edge17" class="edge">
<title>7&#45;&gt;1</title>
<path fill="none" stroke="black" d="M97.3,-73.89C101.26,-81.34 105.07,-89.34 107.96,-97.11 114.66,-115.1 119.58,-135.67 123.04,-153.64"/>
<polygon fill="black" stroke="black" points="119.55,-154.03 124.79,-163.24 126.44,-152.78 119.55,-154.03"/>
<text text-anchor="start" x="121.09" y="-125.06" font-family="Times,serif" font-size="14.00"> &#160;level &lt; 40</text>
<text text-anchor="start" x="121.09" y="-108.56" font-family="Times,serif" font-size="14.00"> &#160;[pump = 3&#39;b011]</text>
</g>
<!-- 7&#45;&gt;7 -->
<g id="edge18" class="edge">
<title>7&#45;&gt;7</title>
<path fill="none" stroke="black" d="M113.77,-54.98C125.37,-54.74 134.52,-49.6 134.52,-39.55 134.52,-33.12 130.76,-28.69 125.01,-26.29"/>
<polygon fill="black" stroke="black" points="125.74,-22.86 115.26,-24.42 124.42,-29.74 125.74,-22.86"/>
<text text-anchor="start" x="134.52" y="-34.5" font-family="Times,serif" font-size="14.00"> &#160;[pump = 3&#39;b111]</text>
</g>
<!-- 8&#45;&gt;8 -->
<g id="edge19" class="edge">
<title>8&#45;&gt;8</title>
<path fill="none" stroke="black" d="M269.92,-566.64C281.53,-566.89 290.96,-561.8 290.96,-551.37 290.96,-544.69 287.09,-540.2 281.26,-537.9"/>
<polygon fill="black" stroke="black" points="281.84,-534.45 271.41,-536.33 280.74,-541.36 281.84,-534.45"/>
</g>
<!-- 8&#45;&gt;10 -->
<g id="edge20" class="edge">
<title>8&#45;&gt;10</title>
<path fill="none" stroke="black" d="M237.59,-515.01C236.41,-489.06 231.26,-454.05 213.96,-428.61 204.03,-414.01 188.61,-402.61 173.68,-394.19"/>
<polygon fill="black" stroke="black" points="175.31,-391.09 164.83,-389.54 172.05,-397.29 175.31,-391.09"/>
<text text-anchor="start" x="235.85" y="-473.06" font-family="Times,serif" font-size="14.00"> &#160;temp &gt;= 60</text>
<text text-anchor="start" x="235.85" y="-456.56" font-family="Times,serif" font-size="14.00"> &#160;[agitate = 1&#39;b1]</text>
<text text-anchor="start" x="235.85" y="-440.06" font-family="Times,serif" font-size="14.00"> &#160;[chute = 1&#39;b1]</text>
</g>
<!-- 9&#45;&gt;0 -->
<g id="edge21" class="edge">
<title>9&#45;&gt;0</title>
<path fill="none" stroke="black" d="M433.86,-410.62C427.31,-456.09 415.81,-537.95 407.46,-608.13 398.45,-683.83 389.76,-771.78 384.64,-825.67"/>
<polygon fill="black" stroke="black" points="381.17,-825.18 383.72,-835.46 388.14,-825.84 381.17,-825.18"/>
<text text-anchor="start" x="407.46" y="-627.83" font-family="Times,serif" font-size="14.00"> &#160;temp = 30</text>
</g>
<!-- 9&#45;&gt;9 -->
<g id="edge22" class="edge">
<title>9&#45;&gt;9</title>
<path fill="none" stroke="black" d="M471.38,-390.9C483.24,-391.34 492.96,-385.91 492.96,-374.61 492.96,-367.19 488.78,-362.31 482.55,-359.95"/>
<polygon fill="black" stroke="black" points="483.28,-356.52 472.88,-358.54 482.27,-363.44 483.28,-356.52"/>
</g>
<!-- 10&#45;&gt;1 -->
<g id="edge23" class="edge">
<title>10&#45;&gt;1</title>
<path fill="none" stroke="black" d="M129.96,-338.39C129.96,-312.39 129.96,-276.74 129.96,-248.35"/>
<polygon fill="black" stroke="black" points="133.46,-248.59 129.96,-238.59 126.46,-248.59 133.46,-248.59"/>
<text text-anchor="start" x="129.96" y="-307.31" font-family="Times,serif" font-size="14.00"> &#160;temp &gt;= 65</text>
<text text-anchor="start" x="129.96" y="-290.81" font-family="Times,serif" font-size="14.00"> &#160;[chute = 1&#39;b0]</text>
<text text-anchor="start" x="129.96" y="-274.31" font-family="Times,serif" font-size="14.00"> &#160;[heat = 1&#39;b0]</text>
<text text-anchor="start" x="129.96" y="-257.81" font-family="Times,serif" font-size="14.00"> &#160;[pump = 3&#39;b011]</text>
</g>
<!-- 10&#45;&gt;10 -->
<g id="edge24" class="edge">
<title>10&#45;&gt;10</title>
<path fill="none" stroke="black" d="M162.38,-390.9C174.24,-391.34 183.96,-385.91 183.96,-374.61 183.96,-367.19 179.78,-362.31 173.55,-359.95"/>
<polygon fill="black" stroke="black" points="174.28,-356.52 163.88,-358.54 173.27,-363.44 174.28,-356.52"/>
<text text-anchor="start" x="183.96" y="-369.56" font-family="Times,serif" font-size="14.00"> &#160;[chute = 1&#39;b0]</text>
</g>
</g>
</svg>
