<svg xmlns="http://www.w3.org/2000/svg" xmlns:xlink="http://www.w3.org/1999/xlink" xmlns:s="https://github.com/nturley/netlistsvg" width="330" height="108.5"><style>  svg {
    stroke:#000;
    fill:none;
  }
  text {
    fill:#000;
    fill-opacity:1.0;
    stroke:none;
    font-size:10px;
    font-weight: bold;
    font-family: "Courier New", monospace;
  }
  line {
      stroke-linecap: round;
  }
  .nodelabel {
    text-anchor: middle;
  }
  .inputPortLabel {
    text-anchor: end;
  }
  .splitjoinBody {
    fill:#000;
  }
  .invert {
    fill:#ff9999;
    fill-opacity:1.0;
  }
  .combinational {
    fill:#afecef;
    fill-opacity:1.0;
  }
  .state {
    fill:#def1b2;
    fill-opacity:1.0;
  }
  .hierarchical {
    fill:#ffd8b2;
    fill-opacity:1.0;
  }
  .io {
    fill:#fcffb2;
    fill-opacity:1.0;
  }</style><g s:type="reduce_xor" class="combinational" transform="translate(148,12)" s:width="33" s:height="25" id="cell_$xor$ref.v:14$1"><s:alias val="$xor"/><s:alias val="$reduce_xor"/><s:alias val="$_XOR_"/><path d="M3,0 A30 25 0 0 1 3,25 A30 25 0 0 0 33,12.5 A30 25 0 0 0 3,0" class="cell_$xor$ref.v:14$1"/><path d="M0,0 A30 25 0 0 1 0,25" class="cell_$xor$ref.v:14$1"/><g s:x="2" s:y="5" s:pid="A"/><g s:x="2" s:y="20" s:pid="B"/><g s:x="33" s:y="12.5" s:pid="Y"/></g><g s:type="reduce_xor" class="combinational" transform="translate(148,67)" s:width="33" s:height="25" id="cell_$xor$ref.v:14$2"><s:alias val="$xor"/><s:alias val="$reduce_xor"/><s:alias val="$_XOR_"/><path d="M3,0 A30 25 0 0 1 3,25 A30 25 0 0 0 33,12.5 A30 25 0 0 0 3,0" class="cell_$xor$ref.v:14$2"/><path d="M0,0 A30 25 0 0 1 0,25" class="cell_$xor$ref.v:14$2"/><g s:x="2" s:y="5" s:pid="A"/><g s:x="2" s:y="20" s:pid="B"/><g s:x="33" s:y="12.5" s:pid="Y"/></g><g s:type="inputExt" class="io" transform="translate(12,27)" s:width="30" s:height="20" id="cell_a"><text x="15" y="-4" class="nodelabel cell_a" s:attribute="ref">a</text><s:alias val="$_inputExt_"/><path d="M0,0 L0,20 L15,20 L30,10 L15,0 Z" class="cell_a"/><g s:x="30" s:y="10" s:pid="Y"/></g><g s:type="outputExt" class="io" transform="translate(288,59.5)" s:width="30" s:height="20" id="cell_y"><text x="15" y="-4" class="nodelabel cell_y" s:attribute="ref">y</text><s:alias val="$_outputExt_"/><path d="M30,0 L30,20 L15,20 L0,10 L15,0 Z" class="cell_y"/><g s:x="0" s:y="10" s:pid="A"/></g><g s:type="join" class="" transform="translate(218,49)" s:width="4" s:height="40" id="cell_$join$,6,7,"><rect width="5" height="40" class="splitjoinBody" s:generic="body"/><s:alias val="$_join_"/><g s:x="5" s:y="20" s:pid="out"/><g transform="translate(0,10)" s:x="0" s:y="10" s:pid="in0"><text x="-3" y="-4" class="inputPortLabel">0</text></g><g transform="translate(0,30)" s:x="0" s:y="10" s:pid="in0"><text x="-3" y="-4" class="inputPortLabel">1</text></g></g><g s:type="split" class="" transform="translate(106,16.5)" s:width="5" s:height="40" id="cell_$split$,2,3,4,5,"><rect width="5" height="80" class="splitjoinBody" s:generic="body"/><s:alias val="$_split_"/><g s:x="0" s:y="20" s:pid="in"/><g transform="translate(4,10)" s:x="4" s:y="10" s:pid="out0"><text x="5" y="-4">1</text></g><g transform="translate(4,30)" s:x="4" s:y="10" s:pid="out0"><text x="5" y="-4">0</text></g><g transform="translate(4,50)" s:x="4" s:y="10" s:pid="out0"><text x="5" y="-4">3</text></g><g transform="translate(4,70)" s:x="4" s:y="10" s:pid="out0"><text x="5" y="-4">2</text></g></g><line x1="111" x2="128" y1="27" y2="27" class="net_3 width_1" style="stroke-width: 1"/><line x1="128" x2="128" y1="27" y2="17" class="net_3 width_1" style="stroke-width: 1"/><line x1="128" x2="150" y1="17" y2="17" class="net_3 width_1" style="stroke-width: 1"/><line x1="111" x2="128" y1="47" y2="47" class="net_2 width_1" style="stroke-width: 1"/><line x1="128" x2="128" y1="47" y2="32" class="net_2 width_1" style="stroke-width: 1"/><line x1="128" x2="150" y1="32" y2="32" class="net_2 width_1" style="stroke-width: 1"/><line x1="111" x2="128" y1="67" y2="67" class="net_5 width_1" style="stroke-width: 1"/><line x1="128" x2="128" y1="67" y2="72" class="net_5 width_1" style="stroke-width: 1"/><line x1="128" x2="150" y1="72" y2="72" class="net_5 width_1" style="stroke-width: 1"/><line x1="111" x2="150" y1="87" y2="87" class="net_4 width_1" style="stroke-width: 1"/><line x1="224" x2="288" y1="69.5" y2="69.5" class="net_6,7 width_2" style="stroke-width: 2"/><line x1="181" x2="191" y1="24.5" y2="24.5" class="net_6 width_1" style="stroke-width: 1"/><line x1="191" x2="191" y1="24.5" y2="59.5" class="net_6 width_1" style="stroke-width: 1"/><line x1="191" x2="218" y1="59.5" y2="59.5" class="net_6 width_1" style="stroke-width: 1"/><line x1="181" x2="218" y1="79.5" y2="79.5" class="net_7 width_1" style="stroke-width: 1"/><line x1="42" x2="106" y1="37" y2="37" class="net_2,3,4,5 width_4" style="stroke-width: 2"/><rect x="255" y="64.5" width="16" height="9" class="net_6,7 width_2 busLabel_2" style="fill: white; stroke: none"/><text x="254" y="72.5" class="net_6,7 width_2 busLabel_2">/2/</text><rect x="73" y="32" width="16" height="9" class="net_2,3,4,5 width_4 busLabel_4" style="fill: white; stroke: none"/><text x="72" y="40" class="net_2,3,4,5 width_4 busLabel_4">/4/</text></svg>