<svg xmlns="http://www.w3.org/2000/svg" xmlns:xlink="http://www.w3.org/1999/xlink" xmlns:s="https://github.com/nturley/netlistsvg" width="442.5" height="214"><style>  svg {
    stroke:#000;
    fill:none;
  }
  text {
    fill:#000;
    fill-opacity:1.0;
    stroke:none;
    font-size:10px;
    font-weight: bold;
    font-family: "Courier New", monospace;
  }
  line {
      stroke-linecap: round;
  }
  .nodelabel {
    text-anchor: middle;
  }
  .inputPortLabel {
    text-anchor: end;
  }
  .splitjoinBody {
    fill:#000;
  }
  .invert {
    fill:#ff9999;
    fill-opacity:1.0;
  }
  .combinational {
    fill:#afecef;
    fill-opacity:1.0;
  }
  .state {
    fill:#def1b2;
    fill-opacity:1.0;
  }
  .hierarchical {
    fill:#ffd8b2;
    fill-opacity:1.0;
  }
  .io {
    fill:#fcffb2;
    fill-opacity:1.0;
  }</style><g s:type="dff-bus" class="state" transform="translate(73,26)" s:width="34" s:height="44" id="cell_$procdff$5"><s:alias val="$dff-bus"/><s:alias val="$_DFF_-bus"/><s:alias val="$_DFF_P_-bus"/><s:alias val="adff-bus"/><s:alias val="$adff-bus"/><s:alias val="$_DFF_-bus"/><s:alias val="$_DFF_P_-bus"/><s:alias val="sdff-bus"/><s:alias val="$sdff-bus"/><s:alias val="$_DFF_-bus"/><s:alias val="$_DFF_P_-bus"/><rect width="30" height="40" x="0" y="0" stroke="none" transform="translate(4,4)" style="filter:brightness(0.7);" class="cell_$procdff$5"/><path d="M32,4 L34,4 L34,44 L4,44 L4,42" class="cell_$procdff$5"/><rect width="30" height="40" x="0" y="0" stroke="none" transform="translate(2,2)" style="filter:brightness(0.7)" class="cell_$procdff$5"/><path d="M30,2 L32,2 L32,42 L2,42 L2,40" class="cell_$procdff$5" style=""/><rect width="30" height="40" x="0" y="0" class="cell_$procdff$5"/><path d="M0,35 L5,30 L0,25 Z" class="cell_$procdff$5" style="fill:#ffffff;"/><g s:x="35" s:y="10" s:pid="Q"/><g s:x="-1" s:y="30" s:pid="CLK"/><g s:x="-1" s:y="30" s:pid="C"/><g s:x="-1" s:y="10" s:pid="D"/><g s:x="17" s:y="44" s:pid="ARST"/><g s:x="17" s:y="44" s:pid="SRST"/></g><g s:type="mux-bus" class="combinational" transform="translate(396,26)" s:width="24" s:height="40" id="cell_$procmux$3"><s:alias val="$pmux-bus"/><s:alias val="$mux-bus"/><s:alias val="$_MUX_-bus"/><path d="M8,2 L8,0 L24,8 L24,32 L8,40 L8,38" style="filter:brightness(0.7)" class="cell_$procmux$3"/><path d="M4,2 L4,0 L22,9 L22,31 L4,40 L4,38" style="filter:brightness(0.7)" class="cell_$procmux$3"/><path d="M0,0 L20,10 L20,30 L0,40 Z" class="cell_$procmux$3"/><text x="5" y="32" class="nodelabel cell_$procmux$178" s:attribute="">1</text><text x="5" y="13" class="nodelabel cell_$procmux$178" s:attribute="">0</text><g s:x="-1" s:y="10" s:pid="A"/><g s:x="-1" s:y="30" s:pid="B"/><g s:x="12" s:y="38" s:pid="S"/><g s:x="24.5" s:y="20" s:pid="Y"/></g><g s:type="inputExt" class="io" transform="translate(12,46)" s:width="30" s:height="20" id="cell_clk"><text x="15" y="-4" class="nodelabel cell_clk" s:attribute="ref">clk</text><s:alias val="$_inputExt_"/><path d="M0,0 L0,20 L15,20 L30,10 L15,0 Z" class="cell_clk"/><g s:x="30" s:y="10" s:pid="Y"/></g><g s:type="inputExt" class="io" transform="translate(329,148)" s:width="30" s:height="20" id="cell_enable"><text x="15" y="-4" class="nodelabel cell_enable" s:attribute="ref">enable</text><s:alias val="$_inputExt_"/><path d="M0,0 L0,20 L15,20 L30,10 L15,0 Z" class="cell_enable"/><g s:x="30" s:y="10" s:pid="Y"/></g><g s:type="inputExt" class="io" transform="translate(226,82)" s:width="30" s:height="20" id="cell_in"><text x="15" y="-4" class="nodelabel cell_in" s:attribute="ref">in</text><s:alias val="$_inputExt_"/><path d="M0,0 L0,20 L15,20 L30,10 L15,0 Z" class="cell_in"/><g s:x="30" s:y="10" s:pid="Y"/></g><g s:type="outputExt" class="io" transform="translate(226,182)" s:width="30" s:height="20" id="cell_out"><text x="15" y="-4" class="nodelabel cell_out" s:attribute="ref">out</text><s:alias val="$_outputExt_"/><path d="M30,0 L30,20 L15,20 L0,10 L15,0 Z" class="cell_out"/><g s:x="0" s:y="10" s:pid="A"/></g><g s:type="join" class="" transform="translate(293,81.5)" s:width="4" s:height="40" id="cell_$join$,4,14,15,16,17,18,19,20,"><rect width="5" height="40" class="splitjoinBody" s:generic="body"/><s:alias val="$_join_"/><g s:x="5" s:y="20" s:pid="out"/><g transform="translate(0,10)" s:x="0" s:y="10" s:pid="in0"><text x="-3" y="-4" class="inputPortLabel">0</text></g><g transform="translate(0,30)" s:x="0" s:y="10" s:pid="in0"><text x="-3" y="-4" class="inputPortLabel">1:7</text></g></g><g s:type="split" class="" transform="translate(172,125.5)" s:width="5" s:height="40" id="cell_$split$,14,15,16,17,18,19,20,5,"><rect width="5" height="40" class="splitjoinBody" s:generic="body"/><s:alias val="$_split_"/><g s:x="0" s:y="20" s:pid="in"/><g transform="translate(4,10)" s:x="4" s:y="10" s:pid="out0"><text x="5" y="-4">0:6</text></g><g transform="translate(4,30)" s:x="4" s:y="10" s:pid="out0"><text x="5" y="-4">7</text></g></g><line x1="42" x2="72" y1="56" y2="56" class="net_2 width_1" style="stroke-width: 1"/><line x1="420.5" x2="430.5" y1="46" y2="46" class="net_6,7,8,9,10,11,12,13 width_8" style="stroke-width: 2"/><line x1="430.5" x2="430.5" y1="46" y2="16" class="net_6,7,8,9,10,11,12,13 width_8" style="stroke-width: 2"/><line x1="430.5" x2="52" y1="16" y2="16" class="net_6,7,8,9,10,11,12,13 width_8" style="stroke-width: 2"/><line x1="52" x2="52" y1="16" y2="36" class="net_6,7,8,9,10,11,12,13 width_8" style="stroke-width: 2"/><line x1="52" x2="72" y1="36" y2="36" class="net_6,7,8,9,10,11,12,13 width_8" style="stroke-width: 2"/><line x1="108" x2="395" y1="36" y2="36" class="net_14,15,16,17,18,19,20,5 width_8" style="stroke-width: 2"/><line x1="108" x2="118" y1="36" y2="36" class="net_14,15,16,17,18,19,20,5 width_8" style="stroke-width: 2"/><line x1="118" x2="118" y1="36" y2="146" class="net_14,15,16,17,18,19,20,5 width_8" style="stroke-width: 2"/><circle cx="118" cy="36" r="3" style="fill:#000" class="net_14,15,16,17,18,19,20,5 width_8"/><line x1="118" x2="172" y1="146" y2="146" class="net_14,15,16,17,18,19,20,5 width_8" style="stroke-width: 2"/><line x1="299" x2="375" y1="102" y2="102" class="net_4,14,15,16,17,18,19,20 width_8" style="stroke-width: 2"/><line x1="375" x2="375" y1="102" y2="56" class="net_4,14,15,16,17,18,19,20 width_8" style="stroke-width: 2"/><line x1="375" x2="395" y1="56" y2="56" class="net_4,14,15,16,17,18,19,20 width_8" style="stroke-width: 2"/><line x1="359" x2="408" y1="158" y2="158" class="net_3 width_1" style="stroke-width: 1"/><line x1="408" x2="408" y1="158" y2="64" class="net_3 width_1" style="stroke-width: 1"/><line x1="177" x2="206" y1="156" y2="156" class="net_5 width_1" style="stroke-width: 1"/><line x1="206" x2="206" y1="156" y2="192" class="net_5 width_1" style="stroke-width: 1"/><line x1="206" x2="226" y1="192" y2="192" class="net_5 width_1" style="stroke-width: 1"/><line x1="256" x2="293" y1="92" y2="92" class="net_4 width_1" style="stroke-width: 1"/><line x1="177" x2="266" y1="136" y2="136" class="net_14,15,16,17,18,19,20 width_7" style="stroke-width: 2"/><line x1="266" x2="266" y1="136" y2="112" class="net_14,15,16,17,18,19,20 width_7" style="stroke-width: 2"/><line x1="266" x2="293" y1="112" y2="112" class="net_14,15,16,17,18,19,20 width_7" style="stroke-width: 2"/><rect x="240" y="11" width="16" height="9" class="net_6,7,8,9,10,11,12,13 width_8 busLabel_8" style="fill: white; stroke: none"/><text x="239" y="19" class="net_6,7,8,9,10,11,12,13 width_8 busLabel_8">/8/</text><rect x="139" y="141" width="16" height="9" class="net_14,15,16,17,18,19,20,5 width_8 busLabel_8" style="fill: white; stroke: none"/><text x="138" y="149" class="net_14,15,16,17,18,19,20,5 width_8 busLabel_8">/8/</text><rect x="139" y="141" width="16" height="9" class="net_14,15,16,17,18,19,20,5 width_8 busLabel_8" style="fill: white; stroke: none"/><text x="138" y="149" class="net_14,15,16,17,18,19,20,5 width_8 busLabel_8">/8/</text><rect x="346" y="97" width="16" height="9" class="net_4,14,15,16,17,18,19,20 width_8 busLabel_8" style="fill: white; stroke: none"/><text x="345" y="105" class="net_4,14,15,16,17,18,19,20 width_8 busLabel_8">/8/</text><rect x="240" y="131" width="16" height="9" class="net_14,15,16,17,18,19,20 width_7 busLabel_7" style="fill: white; stroke: none"/><text x="239" y="139" class="net_14,15,16,17,18,19,20 width_7 busLabel_7">/7/</text></svg>