<?xml version="1.0" encoding="UTF-8" standalone="no"?>
<!DOCTYPE svg PUBLIC "-//W3C//DTD SVG 1.1//EN"
 "http://www.w3.org/Graphics/SVG/1.1/DTD/svg11.dtd">
<!-- Generated by graphviz version 12.2.1 (0)
 -->
<!-- Pages: 1 -->
<svg width="1483pt" height="1517pt"
 viewBox="0.00 0.00 1483.00 1516.75" xmlns="http://www.w3.org/2000/svg" xmlns:xlink="http://www.w3.org/1999/xlink">
<g id="graph0" class="graph" transform="scale(1 1) rotate(0) translate(4 1512.75)">
<polygon fill="white" stroke="none" points="-4,4 -4,-1512.75 1479,-1512.75 1479,4 -4,4"/>
<!-- _reset -->
<!-- 0 -->
<g id="node2" class="node">
<title>0</title>
<ellipse fill="#a2cd5a" stroke="black" cx="76" cy="-1345" rx="72" ry="72"/>
<ellipse fill="none" stroke="black" cx="76" cy="-1345" rx="76" ry="76"/>
<text text-anchor="middle" x="76" y="-1339.58" font-family="Times,serif" font-size="14.00">C0B0</text>
</g>
<!-- _reset&#45;&gt;0 -->
<g id="edge1" class="edge">
<title>_reset&#45;&gt;0</title>
<path fill="none" stroke="black" d="M76,-1472.41C76,-1462.3 76,-1448.71 76,-1434.17"/>
<polygon fill="black" stroke="black" points="76,-1434.12 72,-1428.12 76,-1422.12 80,-1428.12 76,-1434.12"/>
<text text-anchor="middle" x="92.5" y="-1441.45" font-family="Times,serif" font-size="14.00"> &#160;reset</text>
</g>
<!-- 0&#45;&gt;0 -->
<g id="edge2" class="edge">
<title>0&#45;&gt;0</title>
<path fill="none" stroke="black" d="M150.47,-1362.51C162.08,-1359.89 170,-1354.05 170,-1345 170,-1339.06 166.59,-1334.5 160.96,-1331.33"/>
<polygon fill="black" stroke="black" points="162.48,-1328.16 151.89,-1328.01 160.08,-1334.74 162.48,-1328.16"/>
</g>
<!-- 3 -->
<g id="node5" class="node">
<title>3</title>
<ellipse fill="#a2cd5a" stroke="black" cx="595" cy="-1129.5" rx="72" ry="72"/>
<text text-anchor="middle" x="595" y="-1124.08" font-family="Times,serif" font-size="14.00">C2B0</text>
</g>
<!-- 0&#45;&gt;3 -->
<g id="edge3" class="edge">
<title>0&#45;&gt;3</title>
<path fill="none" stroke="black" d="M146.26,-1315.1C243.35,-1275.16 417.88,-1203.36 518.28,-1162.06"/>
<polygon fill="black" stroke="black" points="519.33,-1165.41 527.25,-1158.37 516.67,-1158.94 519.33,-1165.41"/>
<text text-anchor="start" x="366.57" y="-1237.7" font-family="Times,serif" font-size="14.00"> &#160;coins == 2&#39;10</text>
<text text-anchor="start" x="366.57" y="-1221.95" font-family="Times,serif" font-size="14.00"> &#160;[ice_cream_balls = 2&#39;00]</text>
</g>
<!-- 5 -->
<g id="node7" class="node">
<title>5</title>
<ellipse fill="#a2cd5a" stroke="black" cx="453" cy="-706.5" rx="72" ry="72"/>
<text text-anchor="middle" x="453" y="-701.08" font-family="Times,serif" font-size="14.00">C1B0</text>
</g>
<!-- 0&#45;&gt;5 -->
<g id="edge4" class="edge">
<title>0&#45;&gt;5</title>
<path fill="none" stroke="black" d="M53.37,-1271.94C35.37,-1200.89 19.41,-1091.17 61,-1008 137.03,-855.95 233.42,-883.64 367,-778.5 374.33,-772.73 381.94,-766.62 389.47,-760.5"/>
<polygon fill="black" stroke="black" points="391.55,-763.33 397.08,-754.29 387.12,-757.9 391.55,-763.33"/>
<text text-anchor="start" x="61" y="-1026.2" font-family="Times,serif" font-size="14.00"> &#160;coins == 2&#39;01</text>
<text text-anchor="start" x="61" y="-1010.45" font-family="Times,serif" font-size="14.00"> &#160;[ice_cream_balls = 2&#39;00]</text>
</g>
<!-- 1 -->
<g id="node3" class="node">
<title>1</title>
<ellipse fill="#a2cd5a" stroke="black" cx="680" cy="-283.5" rx="72" ry="72"/>
<text text-anchor="middle" x="680" y="-278.07" font-family="Times,serif" font-size="14.00">C2B2</text>
</g>
<!-- 1&#45;&gt;1 -->
<g id="edge5" class="edge">
<title>1&#45;&gt;1</title>
<path fill="none" stroke="black" d="M749.81,-302.01C761.74,-299.48 770,-293.31 770,-283.5 770,-277.06 766.44,-272.19 760.62,-268.89"/>
<polygon fill="black" stroke="black" points="761.83,-265.6 751.24,-265.5 759.46,-272.19 761.83,-265.6"/>
</g>
<!-- 6 -->
<g id="node8" class="node">
<title>6</title>
<ellipse fill="#a2cd5a" stroke="black" cx="1043" cy="-72" rx="72" ry="72"/>
<text text-anchor="middle" x="1043" y="-66.58" font-family="Times,serif" font-size="14.00">C1B1</text>
</g>
<!-- 1&#45;&gt;6 -->
<g id="edge6" class="edge">
<title>1&#45;&gt;6</title>
<path fill="none" stroke="black" d="M741.99,-246.72C805.49,-210.08 904.12,-153.15 971.02,-114.54"/>
<polygon fill="black" stroke="black" points="972.44,-117.77 979.35,-109.74 968.94,-111.7 972.44,-117.77"/>
<text text-anchor="start" x="883.23" y="-180.2" font-family="Times,serif" font-size="14.00"> &#160;coins == 2&#39;10</text>
<text text-anchor="start" x="883.23" y="-164.45" font-family="Times,serif" font-size="14.00"> &#160;[ice_cream_balls = 2&#39;01]</text>
</g>
<!-- 7 -->
<g id="node9" class="node">
<title>7</title>
<ellipse fill="#a2cd5a" stroke="black" cx="604" cy="-495" rx="72" ry="72"/>
<text text-anchor="middle" x="604" y="-489.57" font-family="Times,serif" font-size="14.00">C3B0</text>
</g>
<!-- 1&#45;&gt;7 -->
<g id="edge7" class="edge">
<title>1&#45;&gt;7</title>
<path fill="none" stroke="black" d="M628.4,-334.38C617.7,-342.55 606,-350.09 594,-355.5 547.23,-376.57 513.32,-334.5 480,-373.5 453.88,-404.07 489.04,-435.64 528.51,-458.8"/>
<polygon fill="black" stroke="black" points="526.59,-461.73 537.01,-463.6 530.03,-455.63 526.59,-461.73"/>
<text text-anchor="start" x="480" y="-391.7" font-family="Times,serif" font-size="14.00"> &#160;coins == 2&#39;01</text>
<text text-anchor="start" x="480" y="-375.95" font-family="Times,serif" font-size="14.00"> &#160;[ice_cream_balls = 2&#39;00]</text>
</g>
<!-- 2 -->
<g id="node4" class="node">
<title>2</title>
<ellipse fill="#a2cd5a" stroke="black" cx="436" cy="-918" rx="72" ry="72"/>
<text text-anchor="middle" x="436" y="-912.58" font-family="Times,serif" font-size="14.00">C0B1</text>
</g>
<!-- 2&#45;&gt;2 -->
<g id="edge8" class="edge">
<title>2&#45;&gt;2</title>
<path fill="none" stroke="black" d="M505.81,-936.51C517.74,-933.98 526,-927.81 526,-918 526,-911.56 522.44,-906.69 516.62,-903.39"/>
<polygon fill="black" stroke="black" points="517.83,-900.1 507.24,-900 515.46,-906.69 517.83,-900.1"/>
</g>
<!-- 2&#45;&gt;3 -->
<g id="edge9" class="edge">
<title>2&#45;&gt;3</title>
<path fill="none" stroke="black" d="M366.64,-938.79C307.1,-959.35 235.87,-994.77 270,-1039.5 299.29,-1077.89 425.96,-1103.78 512.23,-1117.32"/>
<polygon fill="black" stroke="black" points="511.68,-1120.78 522.1,-1118.84 512.75,-1113.86 511.68,-1120.78"/>
<text text-anchor="start" x="270" y="-1026.2" font-family="Times,serif" font-size="14.00"> &#160;coins == 2&#39;10</text>
<text text-anchor="start" x="270" y="-1010.45" font-family="Times,serif" font-size="14.00"> &#160;[ice_cream_balls = 2&#39;00]</text>
</g>
<!-- 2&#45;&gt;5 -->
<g id="edge10" class="edge">
<title>2&#45;&gt;5</title>
<path fill="none" stroke="black" d="M434.6,-845.53C434.83,-829.38 435.52,-812.33 437,-796.5 437.25,-793.86 437.53,-791.19 437.84,-788.49"/>
<polygon fill="black" stroke="black" points="441.28,-789.18 439.1,-778.81 434.34,-788.27 441.28,-789.18"/>
<text text-anchor="start" x="437" y="-814.7" font-family="Times,serif" font-size="14.00"> &#160;coins == 2&#39;01</text>
<text text-anchor="start" x="437" y="-798.95" font-family="Times,serif" font-size="14.00"> &#160;[ice_cream_balls = 2&#39;00]</text>
</g>
<!-- 3&#45;&gt;2 -->
<g id="edge11" class="edge">
<title>3&#45;&gt;2</title>
<path fill="none" stroke="black" d="M526.08,-1107.9C493.02,-1094.17 456.44,-1072.44 437,-1039.5 430.15,-1027.89 426.68,-1014.48 425.33,-1000.93"/>
<polygon fill="black" stroke="black" points="428.83,-1000.83 424.76,-991.05 421.85,-1001.24 428.83,-1000.83"/>
<text text-anchor="start" x="437" y="-1026.2" font-family="Times,serif" font-size="14.00"> &#160;!coins</text>
<text text-anchor="start" x="437" y="-1010.45" font-family="Times,serif" font-size="14.00"> &#160;[ice_cream_balls = 2&#39;01]</text>
</g>
<!-- 3&#45;&gt;3 -->
<g id="edge12" class="edge">
<title>3&#45;&gt;3</title>
<path fill="none" stroke="black" d="M664.81,-1148.01C676.74,-1145.48 685,-1139.31 685,-1129.5 685,-1123.06 681.44,-1118.19 675.62,-1114.89"/>
<polygon fill="black" stroke="black" points="676.83,-1111.6 666.24,-1111.5 674.46,-1118.19 676.83,-1111.6"/>
</g>
<!-- 3&#45;&gt;6 -->
<g id="edge13" class="edge">
<title>3&#45;&gt;6</title>
<path fill="none" stroke="black" d="M667.32,-1129.12C780.83,-1127.58 1005.64,-1114.27 1178,-1039.5 1257.41,-1005.05 1331,-1005.56 1331,-919 1331,-919 1331,-919 1331,-282.5 1331,-179.43 1208.89,-121.76 1123.69,-94.07"/>
<polygon fill="black" stroke="black" points="1124.75,-90.73 1114.16,-91.06 1122.64,-97.41 1124.75,-90.73"/>
<text text-anchor="start" x="1331" y="-603.2" font-family="Times,serif" font-size="14.00"> &#160;coins == 2&#39;10</text>
<text text-anchor="start" x="1331" y="-587.45" font-family="Times,serif" font-size="14.00"> &#160;[ice_cream_balls = 2&#39;01]</text>
</g>
<!-- 3&#45;&gt;7 -->
<g id="edge14" class="edge">
<title>3&#45;&gt;7</title>
<path fill="none" stroke="black" d="M656.76,-1091.62C690.86,-1067.48 730.05,-1032.53 749,-990 823.14,-823.61 771.84,-745.67 686,-585 680.03,-573.82 672.32,-562.97 664.02,-552.91"/>
<polygon fill="black" stroke="black" points="666.76,-550.73 657.59,-545.43 661.45,-555.3 666.76,-550.73"/>
<text text-anchor="start" x="784.05" y="-814.7" font-family="Times,serif" font-size="14.00"> &#160;coins == 2&#39;01</text>
<text text-anchor="start" x="784.05" y="-798.95" font-family="Times,serif" font-size="14.00"> &#160;[ice_cream_balls = 2&#39;00]</text>
</g>
<!-- 4 -->
<g id="node6" class="node">
<title>4</title>
<ellipse fill="#a2cd5a" stroke="black" cx="254" cy="-283.5" rx="72" ry="72"/>
<text text-anchor="middle" x="254" y="-278.07" font-family="Times,serif" font-size="14.00">C0B2</text>
</g>
<!-- 4&#45;&gt;3 -->
<g id="edge15" class="edge">
<title>4&#45;&gt;3</title>
<path fill="none" stroke="black" d="M236.5,-353.85C227.75,-394.42 219,-446.8 219,-494 219,-919 219,-919 219,-919 219,-975.16 216.35,-1000.76 257,-1039.5 293.4,-1074.19 424.34,-1101.27 512.14,-1116.05"/>
<polygon fill="black" stroke="black" points="511.5,-1119.49 521.94,-1117.67 512.65,-1112.58 511.5,-1119.49"/>
<text text-anchor="start" x="219" y="-708.95" font-family="Times,serif" font-size="14.00"> &#160;coins == 2&#39;10</text>
<text text-anchor="start" x="219" y="-693.2" font-family="Times,serif" font-size="14.00"> &#160;[ice_cream_balls = 2&#39;00]</text>
</g>
<!-- 4&#45;&gt;4 -->
<g id="edge16" class="edge">
<title>4&#45;&gt;4</title>
<path fill="none" stroke="black" d="M323.81,-302.01C335.74,-299.48 344,-293.31 344,-283.5 344,-277.06 340.44,-272.19 334.62,-268.89"/>
<polygon fill="black" stroke="black" points="335.83,-265.6 325.24,-265.5 333.46,-272.19 335.83,-265.6"/>
</g>
<!-- 4&#45;&gt;5 -->
<g id="edge17" class="edge">
<title>4&#45;&gt;5</title>
<path fill="none" stroke="black" d="M257.09,-355.75C259.22,-372.23 262.62,-389.48 268,-405 298.53,-493.05 358.09,-582.56 401.41,-640.7"/>
<polygon fill="black" stroke="black" points="398.5,-642.66 407.31,-648.55 404.1,-638.45 398.5,-642.66"/>
<text text-anchor="start" x="349.8" y="-497.45" font-family="Times,serif" font-size="14.00"> &#160;coins == 2&#39;01</text>
<text text-anchor="start" x="349.8" y="-481.7" font-family="Times,serif" font-size="14.00"> &#160;[ice_cream_balls = 2&#39;00]</text>
</g>
<!-- 5&#45;&gt;3 -->
<g id="edge18" class="edge">
<title>5&#45;&gt;3</title>
<path fill="none" stroke="black" d="M518.43,-737.06C542.4,-751.41 567.05,-771.12 581,-796.5 603.72,-837.82 603.13,-961.77 599.74,-1045.95"/>
<polygon fill="black" stroke="black" points="596.25,-1045.64 599.32,-1055.78 603.24,-1045.94 596.25,-1045.64"/>
<text text-anchor="start" x="601.48" y="-920.45" font-family="Times,serif" font-size="14.00"> &#160;coins == 2&#39;01</text>
<text text-anchor="start" x="601.48" y="-904.7" font-family="Times,serif" font-size="14.00"> &#160;[ice_cream_balls = 2&#39;00]</text>
</g>
<!-- 5&#45;&gt;5 -->
<g id="edge19" class="edge">
<title>5&#45;&gt;5</title>
<path fill="none" stroke="black" d="M522.81,-725.01C534.74,-722.48 543,-716.31 543,-706.5 543,-700.06 539.44,-695.19 533.62,-691.89"/>
<polygon fill="black" stroke="black" points="534.83,-688.6 524.24,-688.5 532.46,-695.19 534.83,-688.6"/>
</g>
<!-- 5&#45;&gt;7 -->
<g id="edge20" class="edge">
<title>5&#45;&gt;7</title>
<path fill="none" stroke="black" d="M494.86,-647.42C513.76,-621.2 536.19,-590.08 555.79,-562.89"/>
<polygon fill="black" stroke="black" points="558.43,-565.22 561.43,-555.06 552.75,-561.12 558.43,-565.22"/>
<text text-anchor="start" x="537.54" y="-603.2" font-family="Times,serif" font-size="14.00"> &#160;coins == 2&#39;10</text>
<text text-anchor="start" x="537.54" y="-587.45" font-family="Times,serif" font-size="14.00"> &#160;[ice_cream_balls = 2&#39;00]</text>
</g>
<!-- 6&#45;&gt;3 -->
<g id="edge21" class="edge">
<title>6&#45;&gt;3</title>
<path fill="none" stroke="black" d="M1092.91,-124.31C1126.24,-164.11 1164,-222.44 1164,-282.5 1164,-919 1164,-919 1164,-919 1164,-1021.42 835.28,-1089.18 677.54,-1115.79"/>
<polygon fill="black" stroke="black" points="677.27,-1112.29 667.98,-1117.39 678.42,-1119.2 677.27,-1112.29"/>
<text text-anchor="start" x="1164" y="-603.2" font-family="Times,serif" font-size="14.00"> &#160;coins == 2&#39;01</text>
<text text-anchor="start" x="1164" y="-587.45" font-family="Times,serif" font-size="14.00"> &#160;[ice_cream_balls = 2&#39;00]</text>
</g>
<!-- 6&#45;&gt;6 -->
<g id="edge22" class="edge">
<title>6&#45;&gt;6</title>
<path fill="none" stroke="black" d="M1112.81,-90.51C1124.74,-87.98 1133,-81.81 1133,-72 1133,-65.56 1129.44,-60.69 1123.62,-57.39"/>
<polygon fill="black" stroke="black" points="1124.83,-54.1 1114.24,-54 1122.46,-60.69 1124.83,-54.1"/>
</g>
<!-- 6&#45;&gt;7 -->
<g id="edge23" class="edge">
<title>6&#45;&gt;7</title>
<path fill="none" stroke="black" d="M970.94,-79.06C828.39,-92.69 518.68,-131.08 455,-211.5 443.43,-226.11 431.83,-357.89 467,-405 476.53,-417.77 484.49,-414.56 498,-423 510.2,-430.62 523.04,-438.94 535.39,-447.12"/>
<polygon fill="black" stroke="black" points="533.21,-449.87 543.47,-452.49 537.09,-444.04 533.21,-449.87"/>
<text text-anchor="start" x="455" y="-285.95" font-family="Times,serif" font-size="14.00"> &#160;coins == 2&#39;10</text>
<text text-anchor="start" x="455" y="-270.2" font-family="Times,serif" font-size="14.00"> &#160;[ice_cream_balls = 2&#39;00]</text>
</g>
<!-- 7&#45;&gt;1 -->
<g id="edge24" class="edge">
<title>7&#45;&gt;1</title>
<path fill="none" stroke="black" d="M627.85,-426.71C634.04,-409.36 640.74,-390.72 647,-373.5 648.34,-369.83 649.71,-366.07 651.1,-362.28"/>
<polygon fill="black" stroke="black" points="654.36,-363.55 654.52,-352.95 647.79,-361.13 654.36,-363.55"/>
<text text-anchor="start" x="647" y="-391.7" font-family="Times,serif" font-size="14.00"> &#160;coins == 2&#39;10</text>
<text text-anchor="start" x="647" y="-375.95" font-family="Times,serif" font-size="14.00"> &#160;[ice_cream_balls = 2&#39;10]</text>
</g>
<!-- 7&#45;&gt;4 -->
<g id="edge25" class="edge">
<title>7&#45;&gt;4</title>
<path fill="none" stroke="black" d="M537.93,-465.47C501.65,-450.83 455.51,-433.83 413,-423 385.8,-416.07 309.11,-423.49 288,-405 276.36,-394.8 268.56,-380.95 263.37,-366.27"/>
<polygon fill="black" stroke="black" points="266.78,-365.44 260.48,-356.92 260.09,-367.51 266.78,-365.44"/>
<text text-anchor="start" x="288" y="-391.7" font-family="Times,serif" font-size="14.00"> &#160;!coins</text>
<text text-anchor="start" x="288" y="-375.95" font-family="Times,serif" font-size="14.00"> &#160;[ice_cream_balls = 2&#39;10]</text>
</g>
<!-- 7&#45;&gt;7 -->
<g id="edge26" class="edge">
<title>7&#45;&gt;7</title>
<path fill="none" stroke="black" d="M673.81,-513.51C685.74,-510.98 694,-504.81 694,-495 694,-488.56 690.44,-483.69 684.62,-480.39"/>
<polygon fill="black" stroke="black" points="685.83,-477.1 675.24,-477 683.46,-483.69 685.83,-477.1"/>
</g>
<!-- 8 -->
<g id="node10" class="node">
<title>8</title>
<ellipse fill="#a2cd5a" stroke="black" cx="980" cy="-283.5" rx="72" ry="72"/>
<text text-anchor="middle" x="980" y="-278.07" font-family="Times,serif" font-size="14.00">C1B2</text>
</g>
<!-- 7&#45;&gt;8 -->
<g id="edge27" class="edge">
<title>7&#45;&gt;8</title>
<path fill="none" stroke="black" d="M675.72,-485.17C767.73,-472.36 919.99,-445.59 958,-405 967.9,-394.42 974.09,-380.94 977.85,-366.85"/>
<polygon fill="black" stroke="black" points="981.18,-367.99 979.93,-357.47 974.34,-366.47 981.18,-367.99"/>
<text text-anchor="start" x="975.67" y="-391.7" font-family="Times,serif" font-size="14.00"> &#160;coins == 2&#39;01</text>
<text text-anchor="start" x="975.67" y="-375.95" font-family="Times,serif" font-size="14.00"> &#160;[ice_cream_balls = 2&#39;10]</text>
</g>
<!-- 8&#45;&gt;3 -->
<g id="edge28" class="edge">
<title>8&#45;&gt;3</title>
<path fill="none" stroke="black" d="M1047.58,-308.71C1076.54,-322.84 1107.47,-343.85 1124,-373.5 1130.82,-385.73 1127.29,-391.39 1124,-405 1097.02,-516.47 1052.78,-529.78 1006,-634.5 968.45,-718.57 980.01,-749.44 932,-828 866.11,-935.82 839.32,-958.91 742,-1039.5 719.68,-1057.98 693.14,-1075.25 668.8,-1089.56"/>
<polygon fill="black" stroke="black" points="667.08,-1086.51 660.18,-1094.55 670.59,-1092.57 667.08,-1086.51"/>
<text text-anchor="start" x="1006" y="-708.95" font-family="Times,serif" font-size="14.00"> &#160;coins == 2&#39;01</text>
<text text-anchor="start" x="1006" y="-693.2" font-family="Times,serif" font-size="14.00"> &#160;[ice_cream_balls = 2&#39;00]</text>
</g>
<!-- 8&#45;&gt;7 -->
<g id="edge29" class="edge">
<title>8&#45;&gt;7</title>
<path fill="none" stroke="black" d="M912.52,-309.6C878.94,-324.48 839.35,-345.87 810,-373.5 798.09,-384.71 803.12,-394.02 791,-405 760.2,-432.9 719.09,-453.75 683.26,-468.23"/>
<polygon fill="black" stroke="black" points="682.25,-464.87 674.23,-471.78 684.81,-471.38 682.25,-464.87"/>
<text text-anchor="start" x="810" y="-391.7" font-family="Times,serif" font-size="14.00"> &#160;coins == 2&#39;10</text>
<text text-anchor="start" x="810" y="-375.95" font-family="Times,serif" font-size="14.00"> &#160;[ice_cream_balls = 2&#39;00]</text>
</g>
<!-- 8&#45;&gt;8 -->
<g id="edge30" class="edge">
<title>8&#45;&gt;8</title>
<path fill="none" stroke="black" d="M1049.81,-302.01C1061.74,-299.48 1070,-293.31 1070,-283.5 1070,-277.06 1066.44,-272.19 1060.62,-268.89"/>
<polygon fill="black" stroke="black" points="1061.83,-265.6 1051.24,-265.5 1059.46,-272.19 1061.83,-265.6"/>
</g>
</g>
</svg>
