<?xml version="1.0" encoding="UTF-8" standalone="no"?>
<!DOCTYPE svg PUBLIC "-//W3C//DTD SVG 1.1//EN"
 "http://www.w3.org/Graphics/SVG/1.1/DTD/svg11.dtd">
<!-- Generated by graphviz version 12.2.1 (0)
 -->
<!-- Pages: 1 -->
<svg width="959pt" height="1442pt"
 viewBox="0.00 0.00 959.18 1442.22" xmlns="http://www.w3.org/2000/svg" xmlns:xlink="http://www.w3.org/1999/xlink">
<g id="graph0" class="graph" transform="scale(1 1) rotate(0) translate(4 1438.22)">
<polygon fill="white" stroke="none" points="-4,4 -4,-1438.22 955.18,-1438.22 955.18,4 -4,4"/>
<!-- _reset -->
<!-- 0 -->
<g id="node2" class="node">
<title>0</title>
<ellipse fill="#a2cd5a" stroke="black" cx="77.43" cy="-1269.04" rx="73.43" ry="73.43"/>
<ellipse fill="none" stroke="black" cx="77.43" cy="-1269.04" rx="77.43" ry="77.43"/>
<text text-anchor="middle" x="77.43" y="-1271.49" font-family="Times,serif" font-size="14.00">C0B0</text>
<text text-anchor="middle" x="77.43" y="-1255.74" font-family="Times,serif" font-size="14.00">ice_cream_balls = 2&#39;b00</text>
</g>
<!-- _reset&#45;&gt;0 -->
<g id="edge1" class="edge">
<title>_reset&#45;&gt;0</title>
<path fill="none" stroke="black" d="M77.43,-1398C77.43,-1387.95 77.43,-1374.41 77.43,-1359.9"/>
<polygon fill="black" stroke="black" points="77.43,-1359.85 73.43,-1353.85 77.43,-1347.85 81.43,-1353.85 77.43,-1359.85"/>
<text text-anchor="middle" x="93.93" y="-1366.92" font-family="Times,serif" font-size="14.00"> &#160;reset</text>
</g>
<!-- 0&#45;&gt;0 -->
<g id="edge2" class="edge">
<title>0&#45;&gt;0</title>
<path fill="none" stroke="black" d="M153.02,-1286.79C164.81,-1284.14 172.85,-1278.22 172.85,-1269.04 172.85,-1263.02 169.39,-1258.4 163.68,-1255.19"/>
<polygon fill="black" stroke="black" points="165.04,-1251.96 154.44,-1251.81 162.64,-1258.53 165.04,-1251.96"/>
</g>
<!-- 3 -->
<g id="node5" class="node">
<title>3</title>
<ellipse fill="#a2cd5a" stroke="black" cx="414.43" cy="-1066.44" rx="73.43" ry="73.43"/>
<text text-anchor="middle" x="414.43" y="-1068.89" font-family="Times,serif" font-size="14.00">C2B0</text>
<text text-anchor="middle" x="414.43" y="-1053.14" font-family="Times,serif" font-size="14.00">ice_cream_balls = 2&#39;b00</text>
</g>
<!-- 0&#45;&gt;3 -->
<g id="edge3" class="edge">
<title>0&#45;&gt;3</title>
<path fill="none" stroke="black" d="M143.6,-1228.65C200.71,-1194.66 283.05,-1145.64 341.93,-1110.6"/>
<polygon fill="black" stroke="black" points="343.43,-1113.77 350.23,-1105.65 339.85,-1107.76 343.43,-1113.77"/>
<text text-anchor="start" x="256.03" y="-1160.32" font-family="Times,serif" font-size="14.00"> &#160;coins = 2&#39;b10</text>
</g>
<!-- 5 -->
<g id="node7" class="node">
<title>5</title>
<ellipse fill="#a2cd5a" stroke="black" cx="331.43" cy="-669.23" rx="73.43" ry="73.43"/>
<text text-anchor="middle" x="331.43" y="-671.68" font-family="Times,serif" font-size="14.00">C1B0</text>
<text text-anchor="middle" x="331.43" y="-655.93" font-family="Times,serif" font-size="14.00">ice_cream_balls = 2&#39;b00</text>
</g>
<!-- 0&#45;&gt;5 -->
<g id="edge4" class="edge">
<title>0&#45;&gt;5</title>
<path fill="none" stroke="black" d="M57.86,-1193.78C44.65,-1129.6 34.27,-1035.45 62.68,-959.26 83.13,-904.4 196.06,-793.96 268.87,-726.61"/>
<polygon fill="black" stroke="black" points="271.01,-729.4 275.99,-720.05 266.27,-724.26 271.01,-729.4"/>
<text text-anchor="start" x="62.68" y="-961.71" font-family="Times,serif" font-size="14.00"> &#160;coins = 2&#39;b01</text>
</g>
<!-- 1 -->
<g id="node3" class="node">
<title>1</title>
<ellipse fill="#a2cd5a" stroke="black" cx="462.43" cy="-272.03" rx="73.43" ry="73.43"/>
<text text-anchor="middle" x="462.43" y="-274.48" font-family="Times,serif" font-size="14.00">C2B2</text>
<text text-anchor="middle" x="462.43" y="-258.73" font-family="Times,serif" font-size="14.00">ice_cream_balls = 2&#39;b10</text>
</g>
<!-- 1&#45;&gt;1 -->
<g id="edge5" class="edge">
<title>1&#45;&gt;1</title>
<path fill="none" stroke="black" d="M534.1,-289.26C545.81,-286.79 553.85,-281.05 553.85,-272.03 553.85,-266.11 550.39,-261.6 544.7,-258.51"/>
<polygon fill="black" stroke="black" points="546.13,-255.3 535.53,-255.3 543.82,-261.91 546.13,-255.3"/>
</g>
<!-- 6 -->
<g id="node8" class="node">
<title>6</title>
<ellipse fill="#a2cd5a" stroke="black" cx="688.43" cy="-73.43" rx="73.43" ry="73.43"/>
<text text-anchor="middle" x="688.43" y="-75.88" font-family="Times,serif" font-size="14.00">C1B1</text>
<text text-anchor="middle" x="688.43" y="-60.13" font-family="Times,serif" font-size="14.00">ice_cream_balls = 2&#39;b01</text>
</g>
<!-- 1&#45;&gt;6 -->
<g id="edge6" class="edge">
<title>1&#45;&gt;6</title>
<path fill="none" stroke="black" d="M517.42,-223.19C549.82,-195 590.95,-159.22 624.76,-129.81"/>
<polygon fill="black" stroke="black" points="626.79,-132.68 632.04,-123.48 622.2,-127.4 626.79,-132.68"/>
<text text-anchor="start" x="582.2" y="-167.3" font-family="Times,serif" font-size="14.00"> &#160;coins = 2&#39;b10</text>
</g>
<!-- 7 -->
<g id="node9" class="node">
<title>7</title>
<ellipse fill="#a2cd5a" stroke="black" cx="402.43" cy="-470.63" rx="73.43" ry="73.43"/>
<text text-anchor="middle" x="402.43" y="-473.08" font-family="Times,serif" font-size="14.00">C3B0</text>
<text text-anchor="middle" x="402.43" y="-457.33" font-family="Times,serif" font-size="14.00">ice_cream_balls = 2&#39;b00</text>
</g>
<!-- 1&#45;&gt;7 -->
<g id="edge7" class="edge">
<title>1&#45;&gt;7</title>
<path fill="none" stroke="black" d="M408.93,-322.57C398.31,-330.93 386.89,-338.98 375.43,-345.46 354.23,-357.44 337.79,-343.61 323.68,-363.46 310.53,-381.95 319.28,-401.99 334.98,-419.63"/>
<polygon fill="black" stroke="black" points="332.11,-421.7 341.57,-426.46 337.15,-416.84 332.11,-421.7"/>
<text text-anchor="start" x="323.68" y="-365.91" font-family="Times,serif" font-size="14.00"> &#160;coins = 2&#39;b01</text>
</g>
<!-- 2 -->
<g id="node4" class="node">
<title>2</title>
<ellipse fill="#a2cd5a" stroke="black" cx="287.43" cy="-867.84" rx="73.43" ry="73.43"/>
<text text-anchor="middle" x="287.43" y="-870.29" font-family="Times,serif" font-size="14.00">C0B1</text>
<text text-anchor="middle" x="287.43" y="-854.54" font-family="Times,serif" font-size="14.00">ice_cream_balls = 2&#39;b01</text>
</g>
<!-- 2&#45;&gt;2 -->
<g id="edge8" class="edge">
<title>2&#45;&gt;2</title>
<path fill="none" stroke="black" d="M359.1,-885.06C370.81,-882.6 378.85,-876.86 378.85,-867.84 378.85,-861.92 375.39,-857.41 369.7,-854.31"/>
<polygon fill="black" stroke="black" points="371.13,-851.11 360.53,-851.11 368.82,-857.71 371.13,-851.11"/>
</g>
<!-- 2&#45;&gt;3 -->
<g id="edge9" class="edge">
<title>2&#45;&gt;3</title>
<path fill="none" stroke="black" d="M251.1,-932.04C247.18,-946.7 247,-961.85 254.68,-975.01 272.13,-1004.94 303.56,-1025.76 333.96,-1039.81"/>
<polygon fill="black" stroke="black" points="332.26,-1042.88 342.82,-1043.7 335.08,-1036.47 332.26,-1042.88"/>
<text text-anchor="start" x="254.68" y="-961.71" font-family="Times,serif" font-size="14.00"> &#160;coins = 2&#39;b10</text>
</g>
<!-- 2&#45;&gt;5 -->
<g id="edge10" class="edge">
<title>2&#45;&gt;5</title>
<path fill="none" stroke="black" d="M303.31,-795.86C306.49,-781.66 309.85,-766.64 313.1,-752.1"/>
<polygon fill="black" stroke="black" points="316.47,-753.11 315.23,-742.59 309.63,-751.58 316.47,-753.11"/>
<text text-anchor="start" x="310.75" y="-763.11" font-family="Times,serif" font-size="14.00"> &#160;coins = 2&#39;b01</text>
</g>
<!-- 3&#45;&gt;2 -->
<g id="edge11" class="edge">
<title>3&#45;&gt;2</title>
<path fill="none" stroke="black" d="M374.94,-1004.31C361.68,-983.78 346.78,-960.72 333.09,-939.52"/>
<polygon fill="black" stroke="black" points="336.08,-937.7 327.71,-931.2 330.2,-941.5 336.08,-937.7"/>
<text text-anchor="start" x="354.73" y="-961.71" font-family="Times,serif" font-size="14.00"> &#160;!coins</text>
</g>
<!-- 3&#45;&gt;3 -->
<g id="edge12" class="edge">
<title>3&#45;&gt;3</title>
<path fill="none" stroke="black" d="M486.1,-1083.67C497.81,-1081.2 505.85,-1075.46 505.85,-1066.44 505.85,-1060.52 502.39,-1056.01 496.7,-1052.92"/>
<polygon fill="black" stroke="black" points="498.13,-1049.71 487.53,-1049.71 495.82,-1056.32 498.13,-1049.71"/>
</g>
<!-- 3&#45;&gt;6 -->
<g id="edge13" class="edge">
<title>3&#45;&gt;6</title>
<path fill="none" stroke="black" d="M488.29,-1065.62C617.14,-1061.63 869.43,-1032.87 869.43,-868.84 869.43,-868.84 869.43,-868.84 869.43,-271.03 869.43,-204.34 812.37,-150.56 762.32,-116.22"/>
<polygon fill="black" stroke="black" points="764.27,-113.31 754.01,-110.66 760.38,-119.13 764.27,-113.31"/>
<text text-anchor="start" x="869.43" y="-564.51" font-family="Times,serif" font-size="14.00"> &#160;coins = 2&#39;b10</text>
</g>
<!-- 3&#45;&gt;7 -->
<g id="edge14" class="edge">
<title>3&#45;&gt;7</title>
<path fill="none" stroke="black" d="M465.77,-1013.38C482.78,-992.68 499.6,-967.54 508.43,-941.26 562.62,-779.88 516.8,-720.46 454.43,-562.06 451.94,-555.76 449.08,-549.36 445.99,-543.04"/>
<polygon fill="black" stroke="black" points="449.32,-541.87 441.67,-534.54 443.08,-545.04 449.32,-541.87"/>
<text text-anchor="start" x="529.82" y="-763.11" font-family="Times,serif" font-size="14.00"> &#160;coins = 2&#39;b01</text>
</g>
<!-- 4 -->
<g id="node6" class="node">
<title>4</title>
<ellipse fill="#a2cd5a" stroke="black" cx="162.43" cy="-272.03" rx="73.43" ry="73.43"/>
<text text-anchor="middle" x="162.43" y="-274.48" font-family="Times,serif" font-size="14.00">C0B2</text>
<text text-anchor="middle" x="162.43" y="-258.73" font-family="Times,serif" font-size="14.00">ice_cream_balls = 2&#39;b10</text>
</g>
<!-- 4&#45;&gt;3 -->
<g id="edge15" class="edge">
<title>4&#45;&gt;3</title>
<path fill="none" stroke="black" d="M160.24,-345.85C159.31,-382.91 158.43,-428.66 158.43,-469.63 158.43,-868.84 158.43,-868.84 158.43,-868.84 158.43,-958.49 258.4,-1012.86 333.39,-1041.05"/>
<polygon fill="black" stroke="black" points="331.78,-1044.18 342.37,-1044.33 334.18,-1037.61 331.78,-1044.18"/>
<text text-anchor="start" x="158.43" y="-663.81" font-family="Times,serif" font-size="14.00"> &#160;coins = 2&#39;b10</text>
</g>
<!-- 4&#45;&gt;4 -->
<g id="edge16" class="edge">
<title>4&#45;&gt;4</title>
<path fill="none" stroke="black" d="M234.1,-289.26C245.81,-286.79 253.85,-281.05 253.85,-272.03 253.85,-266.11 250.39,-261.6 244.7,-258.51"/>
<polygon fill="black" stroke="black" points="246.13,-255.3 235.53,-255.3 243.82,-261.91 246.13,-255.3"/>
</g>
<!-- 4&#45;&gt;5 -->
<g id="edge17" class="edge">
<title>4&#45;&gt;5</title>
<path fill="none" stroke="black" d="M175.09,-344.69C186.76,-400.89 207.13,-480.04 238.68,-544.06 248.95,-564.9 262.85,-585.82 276.76,-604.38"/>
<polygon fill="black" stroke="black" points="273.8,-606.27 282.65,-612.09 279.36,-602.02 273.8,-606.27"/>
<text text-anchor="start" x="238.68" y="-465.21" font-family="Times,serif" font-size="14.00"> &#160;coins = 2&#39;b01</text>
</g>
<!-- 5&#45;&gt;3 -->
<g id="edge18" class="edge">
<title>5&#45;&gt;3</title>
<path fill="none" stroke="black" d="M378.64,-725.86C385.77,-736.8 392.16,-748.64 396.43,-760.66 421.8,-832.14 424.43,-918.93 421.82,-981.59"/>
<polygon fill="black" stroke="black" points="418.33,-981.33 421.35,-991.49 425.32,-981.67 418.33,-981.33"/>
<text text-anchor="start" x="422.61" y="-862.41" font-family="Times,serif" font-size="14.00"> &#160;coins = 2&#39;b01</text>
</g>
<!-- 5&#45;&gt;5 -->
<g id="edge19" class="edge">
<title>5&#45;&gt;5</title>
<path fill="none" stroke="black" d="M403.1,-686.46C414.81,-684 422.85,-678.25 422.85,-669.23 422.85,-663.32 419.39,-658.81 413.7,-655.71"/>
<polygon fill="black" stroke="black" points="415.13,-652.5 404.53,-652.51 412.82,-659.11 415.13,-652.5"/>
</g>
<!-- 5&#45;&gt;7 -->
<g id="edge20" class="edge">
<title>5&#45;&gt;7</title>
<path fill="none" stroke="black" d="M356.16,-599.75C361.87,-583.93 367.99,-566.98 373.86,-550.75"/>
<polygon fill="black" stroke="black" points="377.04,-552.22 377.15,-541.63 370.46,-549.85 377.04,-552.22"/>
<text text-anchor="start" x="369.06" y="-564.51" font-family="Times,serif" font-size="14.00"> &#160;coins = 2&#39;b10</text>
</g>
<!-- 6&#45;&gt;3 -->
<g id="edge21" class="edge">
<title>6&#45;&gt;3</title>
<path fill="none" stroke="black" d="M725.98,-136.72C745.13,-174.27 764.43,-223.82 764.43,-271.03 764.43,-868.84 764.43,-868.84 764.43,-868.84 764.43,-990.38 602,-1037.56 498.45,-1055.3"/>
<polygon fill="black" stroke="black" points="498.16,-1051.79 488.87,-1056.87 499.3,-1058.7 498.16,-1051.79"/>
<text text-anchor="start" x="764.43" y="-564.51" font-family="Times,serif" font-size="14.00"> &#160;coins = 2&#39;b01</text>
</g>
<!-- 6&#45;&gt;6 -->
<g id="edge22" class="edge">
<title>6&#45;&gt;6</title>
<path fill="none" stroke="black" d="M760.1,-90.65C771.81,-88.19 779.85,-82.44 779.85,-73.43 779.85,-67.51 776.39,-63 770.7,-59.9"/>
<polygon fill="black" stroke="black" points="772.13,-56.7 761.53,-56.7 769.82,-63.3 772.13,-56.7"/>
</g>
<!-- 6&#45;&gt;7 -->
<g id="edge23" class="edge">
<title>6&#45;&gt;7</title>
<path fill="none" stroke="black" d="M616.17,-87.04C514.25,-106.46 336.44,-146.93 298.68,-198.6 251.15,-263.62 268.3,-312.5 313.43,-379.21 321.22,-390.72 330.58,-402.06 340.26,-412.6"/>
<polygon fill="black" stroke="black" points="337.62,-414.9 347.03,-419.77 342.71,-410.1 337.62,-414.9"/>
<text text-anchor="start" x="298.68" y="-266.6" font-family="Times,serif" font-size="14.00"> &#160;coins = 2&#39;b10</text>
</g>
<!-- 7&#45;&gt;1 -->
<g id="edge24" class="edge">
<title>7&#45;&gt;1</title>
<path fill="none" stroke="black" d="M418.74,-398.78C421.81,-386.92 425.17,-374.79 428.68,-363.46 429.89,-359.54 431.17,-355.55 432.51,-351.54"/>
<polygon fill="black" stroke="black" points="435.74,-352.91 435.66,-342.31 429.12,-350.64 435.74,-352.91"/>
<text text-anchor="start" x="428.68" y="-365.91" font-family="Times,serif" font-size="14.00"> &#160;coins = 2&#39;b10</text>
</g>
<!-- 7&#45;&gt;4 -->
<g id="edge25" class="edge">
<title>7&#45;&gt;4</title>
<path fill="none" stroke="black" d="M342.77,-426.98C326.31,-416.35 308.1,-405.61 290.43,-397.21 267.01,-386.07 255.68,-394.75 234.93,-379.21 223.04,-370.3 212.43,-358.86 203.24,-346.79"/>
<polygon fill="black" stroke="black" points="206.08,-344.74 197.38,-338.7 200.41,-348.85 206.08,-344.74"/>
<text text-anchor="start" x="234.93" y="-365.91" font-family="Times,serif" font-size="14.00"> &#160;!coins</text>
</g>
<!-- 7&#45;&gt;7 -->
<g id="edge26" class="edge">
<title>7&#45;&gt;7</title>
<path fill="none" stroke="black" d="M474.1,-487.86C485.81,-485.39 493.85,-479.65 493.85,-470.63 493.85,-464.71 490.39,-460.21 484.7,-457.11"/>
<polygon fill="black" stroke="black" points="486.13,-453.9 475.53,-453.9 483.82,-460.51 486.13,-453.9"/>
</g>
<!-- 8 -->
<g id="node10" class="node">
<title>8</title>
<ellipse fill="#a2cd5a" stroke="black" cx="645.43" cy="-272.03" rx="73.43" ry="73.43"/>
<text text-anchor="middle" x="645.43" y="-274.48" font-family="Times,serif" font-size="14.00">C1B2</text>
<text text-anchor="middle" x="645.43" y="-258.73" font-family="Times,serif" font-size="14.00">ice_cream_balls = 2&#39;b10</text>
</g>
<!-- 7&#45;&gt;8 -->
<g id="edge27" class="edge">
<title>7&#45;&gt;8</title>
<path fill="none" stroke="black" d="M474.63,-455.81C521.02,-443.32 579.17,-420.35 615.43,-379.21 621.55,-372.26 626.43,-364.15 630.32,-355.56"/>
<polygon fill="black" stroke="black" points="633.56,-356.89 634.02,-346.31 627.06,-354.29 633.56,-356.89"/>
<text text-anchor="start" x="625.66" y="-365.91" font-family="Times,serif" font-size="14.00"> &#160;coins = 2&#39;b01</text>
</g>
<!-- 8&#45;&gt;3 -->
<g id="edge28" class="edge">
<title>8&#45;&gt;3</title>
<path fill="none" stroke="black" d="M693.63,-327.87C700.94,-338.98 707.39,-351.08 711.43,-363.46 713.6,-370.11 712.25,-372.25 711.43,-379.21 700.68,-469.38 646.3,-691.01 615.43,-776.41 613.38,-782.06 561.82,-916.31 511.43,-975.01 501.29,-986.82 489.74,-998.7 478.24,-1009.78"/>
<polygon fill="black" stroke="black" points="475.84,-1007.24 470.99,-1016.66 480.65,-1012.32 475.84,-1007.24"/>
<text text-anchor="start" x="666.96" y="-663.81" font-family="Times,serif" font-size="14.00"> &#160;coins = 2&#39;b01</text>
</g>
<!-- 8&#45;&gt;7 -->
<g id="edge29" class="edge">
<title>8&#45;&gt;7</title>
<path fill="none" stroke="black" d="M591.87,-322.69C582.34,-330.66 572.3,-338.55 562.43,-345.46 548.81,-354.97 543.39,-354.09 529.68,-363.46 527.82,-364.72 497.55,-389.97 467,-415.53"/>
<polygon fill="black" stroke="black" points="464.98,-412.66 459.56,-421.76 469.47,-418.02 464.98,-412.66"/>
<text text-anchor="start" x="529.68" y="-365.91" font-family="Times,serif" font-size="14.00"> &#160;coins = 2&#39;b10</text>
</g>
<!-- 8&#45;&gt;8 -->
<g id="edge30" class="edge">
<title>8&#45;&gt;8</title>
<path fill="none" stroke="black" d="M717.1,-289.26C728.81,-286.79 736.85,-281.05 736.85,-272.03 736.85,-266.11 733.39,-261.6 727.7,-258.51"/>
<polygon fill="black" stroke="black" points="729.13,-255.3 718.53,-255.3 726.82,-261.91 729.13,-255.3"/>
</g>
</g>
</svg>
