<?xml version="1.0" encoding="UTF-8" standalone="no"?>
<!DOCTYPE svg PUBLIC "-//W3C//DTD SVG 1.1//EN"
 "http://www.w3.org/Graphics/SVG/1.1/DTD/svg11.dtd">
<!-- Generated by graphviz version 12.2.1 (0)
 -->
<!-- Pages: 1 -->
<svg width="955pt" height="1445pt"
 viewBox="0.00 0.00 955.26 1445.18" xmlns="http://www.w3.org/2000/svg" xmlns:xlink="http://www.w3.org/1999/xlink">
<g id="graph0" class="graph" transform="scale(1 1) rotate(0) translate(4 1441.18)">
<polygon fill="white" stroke="none" points="-4,4 -4,-1441.18 951.26,-1441.18 951.26,4 -4,4"/>
<!-- _reset -->
<!-- 0 -->
<g id="node2" class="node">
<title>0</title>
<ellipse fill="#a2cd5a" stroke="black" cx="77.26" cy="-1271.42" rx="73.26" ry="73.26"/>
<ellipse fill="none" stroke="black" cx="77.26" cy="-1271.42" rx="77.26" ry="77.26"/>
<text text-anchor="middle" x="77.26" y="-1274.62" font-family="Times,serif" font-size="14.00">C0B0</text>
<text text-anchor="middle" x="77.26" y="-1258.12" font-family="Times,serif" font-size="14.00">ice_cream_balls = 2&#39;b00</text>
</g>
<!-- _reset&#45;&gt;0 -->
<g id="edge1" class="edge">
<title>_reset&#45;&gt;0</title>
<path fill="none" stroke="black" d="M77.26,-1400.88C77.26,-1390.57 77.26,-1376.61 77.26,-1361.68"/>
<polygon fill="black" stroke="black" points="77.26,-1361.87 73.26,-1355.87 77.26,-1349.87 81.26,-1355.87 77.26,-1361.87"/>
<text text-anchor="middle" x="93.76" y="-1369.88" font-family="Times,serif" font-size="14.00"> &#160;reset</text>
</g>
<!-- 0&#45;&gt;0 -->
<g id="edge2" class="edge">
<title>0&#45;&gt;0</title>
<path fill="none" stroke="black" d="M152.73,-1289.2C164.5,-1286.54 172.53,-1280.61 172.53,-1271.42 172.53,-1265.38 169.07,-1260.75 163.37,-1257.53"/>
<polygon fill="black" stroke="black" points="164.74,-1254.31 154.15,-1254.15 162.33,-1260.88 164.74,-1254.31"/>
</g>
<!-- 3 -->
<g id="node5" class="node">
<title>3</title>
<ellipse fill="#a2cd5a" stroke="black" cx="412.26" cy="-1068.39" rx="73.26" ry="73.26"/>
<text text-anchor="middle" x="412.26" y="-1071.59" font-family="Times,serif" font-size="14.00">C2B0</text>
<text text-anchor="middle" x="412.26" y="-1055.09" font-family="Times,serif" font-size="14.00">ice_cream_balls = 2&#39;b00</text>
</g>
<!-- 0&#45;&gt;3 -->
<g id="edge3" class="edge">
<title>0&#45;&gt;3</title>
<path fill="none" stroke="black" d="M143.45,-1230.7C200.16,-1196.66 281.71,-1147.73 340.09,-1112.7"/>
<polygon fill="black" stroke="black" points="341.54,-1115.91 348.32,-1107.76 337.94,-1109.91 341.54,-1115.91"/>
<text text-anchor="start" x="254.81" y="-1162.85" font-family="Times,serif" font-size="14.00"> &#160;coins = 2&#39;b10</text>
</g>
<!-- 5 -->
<g id="node7" class="node">
<title>5</title>
<ellipse fill="#a2cd5a" stroke="black" cx="329.26" cy="-670.34" rx="73.26" ry="73.26"/>
<text text-anchor="middle" x="329.26" y="-673.54" font-family="Times,serif" font-size="14.00">C1B0</text>
<text text-anchor="middle" x="329.26" y="-657.04" font-family="Times,serif" font-size="14.00">ice_cream_balls = 2&#39;b00</text>
</g>
<!-- 0&#45;&gt;5 -->
<g id="edge4" class="edge">
<title>0&#45;&gt;5</title>
<path fill="none" stroke="black" d="M57.72,-1196.26C44.45,-1131.9 33.92,-1037.26 62.26,-960.63 82.52,-905.85 194.74,-795.27 267.1,-727.81"/>
<polygon fill="black" stroke="black" points="269.23,-730.61 274.17,-721.24 264.46,-725.49 269.23,-730.61"/>
<text text-anchor="start" x="62.26" y="-963.83" font-family="Times,serif" font-size="14.00"> &#160;coins = 2&#39;b01</text>
</g>
<!-- 1 -->
<g id="node3" class="node">
<title>1</title>
<ellipse fill="#a2cd5a" stroke="black" cx="460.26" cy="-272.29" rx="73.26" ry="73.26"/>
<text text-anchor="middle" x="460.26" y="-275.49" font-family="Times,serif" font-size="14.00">C2B2</text>
<text text-anchor="middle" x="460.26" y="-258.99" font-family="Times,serif" font-size="14.00">ice_cream_balls = 2&#39;b10</text>
</g>
<!-- 1&#45;&gt;1 -->
<g id="edge5" class="edge">
<title>1&#45;&gt;1</title>
<path fill="none" stroke="black" d="M531.81,-289.55C543.5,-287.08 551.53,-281.33 551.53,-272.29 551.53,-266.36 548.07,-261.84 542.39,-258.74"/>
<polygon fill="black" stroke="black" points="543.84,-255.54 533.24,-255.53 541.52,-262.14 543.84,-255.54"/>
</g>
<!-- 6 -->
<g id="node8" class="node">
<title>6</title>
<ellipse fill="#a2cd5a" stroke="black" cx="686.26" cy="-73.26" rx="73.26" ry="73.26"/>
<text text-anchor="middle" x="686.26" y="-76.46" font-family="Times,serif" font-size="14.00">C1B1</text>
<text text-anchor="middle" x="686.26" y="-59.96" font-family="Times,serif" font-size="14.00">ice_cream_balls = 2&#39;b01</text>
</g>
<!-- 1&#45;&gt;6 -->
<g id="edge6" class="edge">
<title>1&#45;&gt;6</title>
<path fill="none" stroke="black" d="M515.26,-223.34C547.78,-194.99 589.1,-158.97 622.97,-129.44"/>
<polygon fill="black" stroke="black" points="625.03,-132.29 630.27,-123.08 620.43,-127.01 625.03,-132.29"/>
<text text-anchor="start" x="580.04" y="-167.73" font-family="Times,serif" font-size="14.00"> &#160;coins = 2&#39;b10</text>
</g>
<!-- 7 -->
<g id="node9" class="node">
<title>7</title>
<ellipse fill="#a2cd5a" stroke="black" cx="400.26" cy="-471.31" rx="73.26" ry="73.26"/>
<text text-anchor="middle" x="400.26" y="-474.51" font-family="Times,serif" font-size="14.00">C3B0</text>
<text text-anchor="middle" x="400.26" y="-458.01" font-family="Times,serif" font-size="14.00">ice_cream_balls = 2&#39;b00</text>
</g>
<!-- 1&#45;&gt;7 -->
<g id="edge7" class="edge">
<title>1&#45;&gt;7</title>
<path fill="none" stroke="black" d="M406.73,-322.67C396.12,-331.01 384.7,-339.06 373.26,-345.55 352.36,-357.42 336.15,-343.93 322.26,-363.55 309.16,-382.08 317.8,-402.21 333.36,-419.96"/>
<polygon fill="black" stroke="black" points="330.47,-422 339.9,-426.83 335.54,-417.17 330.47,-422"/>
<text text-anchor="start" x="322.26" y="-366.75" font-family="Times,serif" font-size="14.00"> &#160;coins = 2&#39;b01</text>
</g>
<!-- 2 -->
<g id="node4" class="node">
<title>2</title>
<ellipse fill="#a2cd5a" stroke="black" cx="285.26" cy="-869.36" rx="73.26" ry="73.26"/>
<text text-anchor="middle" x="285.26" y="-872.56" font-family="Times,serif" font-size="14.00">C0B1</text>
<text text-anchor="middle" x="285.26" y="-856.06" font-family="Times,serif" font-size="14.00">ice_cream_balls = 2&#39;b01</text>
</g>
<!-- 2&#45;&gt;2 -->
<g id="edge8" class="edge">
<title>2&#45;&gt;2</title>
<path fill="none" stroke="black" d="M356.81,-886.63C368.5,-884.16 376.53,-878.4 376.53,-869.36 376.53,-863.43 373.07,-858.92 367.39,-855.81"/>
<polygon fill="black" stroke="black" points="368.84,-852.61 358.24,-852.6 366.52,-859.22 368.84,-852.61"/>
</g>
<!-- 2&#45;&gt;3 -->
<g id="edge9" class="edge">
<title>2&#45;&gt;3</title>
<path fill="none" stroke="black" d="M249.57,-933.68C245.68,-948.5 245.52,-963.83 253.26,-977.13 270.55,-1006.83 301.66,-1027.55 331.8,-1041.57"/>
<polygon fill="black" stroke="black" points="330.01,-1044.61 340.57,-1045.46 332.85,-1038.21 330.01,-1044.61"/>
<text text-anchor="start" x="253.26" y="-963.83" font-family="Times,serif" font-size="14.00"> &#160;coins = 2&#39;b10</text>
</g>
<!-- 2&#45;&gt;5 -->
<g id="edge10" class="edge">
<title>2&#45;&gt;5</title>
<path fill="none" stroke="black" d="M301.09,-797.51C304.29,-783.18 307.68,-768 310.95,-753.33"/>
<polygon fill="black" stroke="black" points="314.34,-754.22 313.1,-743.7 307.51,-752.7 314.34,-754.22"/>
<text text-anchor="start" x="308.58" y="-764.8" font-family="Times,serif" font-size="14.00"> &#160;coins = 2&#39;b01</text>
</g>
<!-- 3&#45;&gt;2 -->
<g id="edge11" class="edge">
<title>3&#45;&gt;2</title>
<path fill="none" stroke="black" d="M372.78,-1006.13C359.52,-985.56 344.62,-962.44 330.92,-941.2"/>
<polygon fill="black" stroke="black" points="333.91,-939.37 325.55,-932.86 328.02,-943.16 333.91,-939.37"/>
<text text-anchor="start" x="352.57" y="-963.83" font-family="Times,serif" font-size="14.00"> &#160;!coins</text>
</g>
<!-- 3&#45;&gt;3 -->
<g id="edge12" class="edge">
<title>3&#45;&gt;3</title>
<path fill="none" stroke="black" d="M483.81,-1085.65C495.5,-1083.18 503.53,-1077.43 503.53,-1068.39 503.53,-1062.46 500.07,-1057.94 494.39,-1054.84"/>
<polygon fill="black" stroke="black" points="495.84,-1051.64 485.24,-1051.63 493.52,-1058.24 495.84,-1051.64"/>
</g>
<!-- 3&#45;&gt;6 -->
<g id="edge13" class="edge">
<title>3&#45;&gt;6</title>
<path fill="none" stroke="black" d="M485.96,-1067.45C614.53,-1063.26 866.26,-1034.15 866.26,-870.36 866.26,-870.36 866.26,-870.36 866.26,-271.29 866.26,-204.69 809.52,-150.77 759.75,-116.28"/>
<polygon fill="black" stroke="black" points="761.73,-113.4 751.49,-110.7 757.82,-119.2 761.73,-113.4"/>
<text text-anchor="start" x="866.26" y="-565.78" font-family="Times,serif" font-size="14.00"> &#160;coins = 2&#39;b10</text>
</g>
<!-- 3&#45;&gt;7 -->
<g id="edge14" class="edge">
<title>3&#45;&gt;7</title>
<path fill="none" stroke="black" d="M463.07,-1014.96C479.9,-994.15 496.54,-968.91 505.26,-942.63 558.96,-780.75 514.4,-721.4 452.26,-562.58 449.8,-556.28 446.94,-549.89 443.87,-543.58"/>
<polygon fill="black" stroke="black" points="447.2,-542.42 439.55,-535.09 440.96,-545.59 447.2,-542.42"/>
<text text-anchor="start" x="526.76" y="-764.8" font-family="Times,serif" font-size="14.00"> &#160;coins = 2&#39;b01</text>
</g>
<!-- 4 -->
<g id="node6" class="node">
<title>4</title>
<ellipse fill="#a2cd5a" stroke="black" cx="161.26" cy="-272.29" rx="73.26" ry="73.26"/>
<text text-anchor="middle" x="161.26" y="-275.49" font-family="Times,serif" font-size="14.00">C0B2</text>
<text text-anchor="middle" x="161.26" y="-258.99" font-family="Times,serif" font-size="14.00">ice_cream_balls = 2&#39;b10</text>
</g>
<!-- 4&#45;&gt;3 -->
<g id="edge15" class="edge">
<title>4&#45;&gt;3</title>
<path fill="none" stroke="black" d="M159.09,-345.8C158.15,-383.02 157.26,-429.09 157.26,-470.31 157.26,-870.36 157.26,-870.36 157.26,-870.36 157.26,-959.86 256.84,-1014.45 331.54,-1042.8"/>
<polygon fill="black" stroke="black" points="329.89,-1045.92 340.49,-1046.1 332.32,-1039.36 329.89,-1045.92"/>
<text text-anchor="start" x="157.26" y="-665.29" font-family="Times,serif" font-size="14.00"> &#160;coins = 2&#39;b10</text>
</g>
<!-- 4&#45;&gt;4 -->
<g id="edge16" class="edge">
<title>4&#45;&gt;4</title>
<path fill="none" stroke="black" d="M232.81,-289.55C244.5,-287.08 252.53,-281.33 252.53,-272.29 252.53,-266.36 249.07,-261.84 243.39,-258.74"/>
<polygon fill="black" stroke="black" points="244.84,-255.54 234.24,-255.53 242.52,-262.14 244.84,-255.54"/>
</g>
<!-- 4&#45;&gt;5 -->
<g id="edge17" class="edge">
<title>4&#45;&gt;5</title>
<path fill="none" stroke="black" d="M173.88,-344.68C185.54,-400.92 205.87,-480.3 237.26,-544.58 247.46,-565.46 261.25,-586.46 275.05,-605.11"/>
<polygon fill="black" stroke="black" points="272.08,-606.98 280.89,-612.86 277.66,-602.77 272.08,-606.98"/>
<text text-anchor="start" x="237.26" y="-466.26" font-family="Times,serif" font-size="14.00"> &#160;coins = 2&#39;b01</text>
</g>
<!-- 5&#45;&gt;3 -->
<g id="edge18" class="edge">
<title>5&#45;&gt;3</title>
<path fill="none" stroke="black" d="M375.72,-726.94C382.74,-737.86 389.04,-749.65 393.26,-761.6 418.64,-833.49 421.56,-920.73 419.21,-983.61"/>
<polygon fill="black" stroke="black" points="415.72,-983.4 418.78,-993.54 422.71,-983.7 415.72,-983.4"/>
<text text-anchor="start" x="419.84" y="-864.31" font-family="Times,serif" font-size="14.00"> &#160;coins = 2&#39;b01</text>
</g>
<!-- 5&#45;&gt;5 -->
<g id="edge19" class="edge">
<title>5&#45;&gt;5</title>
<path fill="none" stroke="black" d="M400.81,-687.6C412.5,-685.13 420.53,-679.38 420.53,-670.34 420.53,-664.41 417.07,-659.89 411.39,-656.79"/>
<polygon fill="black" stroke="black" points="412.84,-653.59 402.24,-653.58 410.52,-660.19 412.84,-653.59"/>
</g>
<!-- 5&#45;&gt;7 -->
<g id="edge20" class="edge">
<title>5&#45;&gt;7</title>
<path fill="none" stroke="black" d="M353.9,-600.98C359.68,-584.94 365.89,-567.71 371.82,-551.24"/>
<polygon fill="black" stroke="black" points="375.06,-552.57 375.16,-541.97 368.48,-550.19 375.06,-552.57"/>
<text text-anchor="start" x="366.89" y="-565.78" font-family="Times,serif" font-size="14.00"> &#160;coins = 2&#39;b10</text>
</g>
<!-- 6&#45;&gt;3 -->
<g id="edge21" class="edge">
<title>6&#45;&gt;3</title>
<path fill="none" stroke="black" d="M723.82,-136.7C742.96,-174.33 762.26,-223.99 762.26,-271.29 762.26,-870.36 762.26,-870.36 762.26,-870.36 762.26,-991.97 599.84,-1039.33 496.28,-1057.16"/>
<polygon fill="black" stroke="black" points="496,-1053.66 486.7,-1058.75 497.14,-1060.57 496,-1053.66"/>
<text text-anchor="start" x="762.26" y="-565.78" font-family="Times,serif" font-size="14.00"> &#160;coins = 2&#39;b01</text>
</g>
<!-- 6&#45;&gt;6 -->
<g id="edge22" class="edge">
<title>6&#45;&gt;6</title>
<path fill="none" stroke="black" d="M757.81,-90.53C769.5,-88.06 777.53,-82.3 777.53,-73.26 777.53,-67.33 774.07,-62.81 768.39,-59.71"/>
<polygon fill="black" stroke="black" points="769.84,-56.51 759.24,-56.5 767.52,-63.12 769.84,-56.51"/>
</g>
<!-- 6&#45;&gt;7 -->
<g id="edge23" class="edge">
<title>6&#45;&gt;7</title>
<path fill="none" stroke="black" d="M614.14,-87C512.41,-106.61 334.93,-147.38 297.26,-199.03 249.69,-264.25 267.25,-313.03 312.26,-380.05 319.97,-391.52 329.22,-402.82 338.79,-413.34"/>
<polygon fill="black" stroke="black" points="336.09,-415.58 345.48,-420.49 341.21,-410.8 336.09,-415.58"/>
<text text-anchor="start" x="297.26" y="-267.24" font-family="Times,serif" font-size="14.00"> &#160;coins = 2&#39;b10</text>
</g>
<!-- 7&#45;&gt;1 -->
<g id="edge24" class="edge">
<title>7&#45;&gt;1</title>
<path fill="none" stroke="black" d="M416.27,-399.35C419.34,-387.33 422.72,-375.03 426.26,-363.55 427.47,-359.64 428.76,-355.66 430.1,-351.64"/>
<polygon fill="black" stroke="black" points="433.32,-353.02 433.26,-342.43 426.7,-350.75 433.32,-353.02"/>
<text text-anchor="start" x="426.26" y="-366.75" font-family="Times,serif" font-size="14.00"> &#160;coins = 2&#39;b10</text>
</g>
<!-- 7&#45;&gt;4 -->
<g id="edge25" class="edge">
<title>7&#45;&gt;4</title>
<path fill="none" stroke="black" d="M340.86,-428.02C324.32,-417.35 306.01,-406.54 288.26,-398.05 265.25,-387.05 254.12,-395.42 233.76,-380.05 221.68,-370.93 210.92,-359.18 201.63,-346.83"/>
<polygon fill="black" stroke="black" points="204.68,-345.07 196.01,-338.98 198.99,-349.15 204.68,-345.07"/>
<text text-anchor="start" x="233.76" y="-366.75" font-family="Times,serif" font-size="14.00"> &#160;!coins</text>
</g>
<!-- 7&#45;&gt;7 -->
<g id="edge26" class="edge">
<title>7&#45;&gt;7</title>
<path fill="none" stroke="black" d="M471.81,-488.58C483.5,-486.11 491.53,-480.35 491.53,-471.31 491.53,-465.38 488.07,-460.87 482.39,-457.76"/>
<polygon fill="black" stroke="black" points="483.84,-454.56 473.24,-454.55 481.52,-461.17 483.84,-454.56"/>
</g>
<!-- 8 -->
<g id="node10" class="node">
<title>8</title>
<ellipse fill="#a2cd5a" stroke="black" cx="643.26" cy="-272.29" rx="73.26" ry="73.26"/>
<text text-anchor="middle" x="643.26" y="-275.49" font-family="Times,serif" font-size="14.00">C1B2</text>
<text text-anchor="middle" x="643.26" y="-258.99" font-family="Times,serif" font-size="14.00">ice_cream_balls = 2&#39;b10</text>
</g>
<!-- 7&#45;&gt;8 -->
<g id="edge27" class="edge">
<title>7&#45;&gt;8</title>
<path fill="none" stroke="black" d="M472.35,-455.98C518.09,-443.33 575.24,-420.4 611.26,-380.05 617.65,-372.89 622.77,-364.5 626.87,-355.62"/>
<polygon fill="black" stroke="black" points="630.08,-357 630.64,-346.42 623.61,-354.34 630.08,-357"/>
<text text-anchor="start" x="621.73" y="-366.75" font-family="Times,serif" font-size="14.00"> &#160;coins = 2&#39;b01</text>
</g>
<!-- 8&#45;&gt;3 -->
<g id="edge28" class="edge">
<title>8&#45;&gt;3</title>
<path fill="none" stroke="black" d="M689.92,-329.26C696.64,-340.05 702.54,-351.7 706.26,-363.55 708.46,-370.55 707.12,-372.77 706.26,-380.05 695.63,-470.37 641.88,-692.47 611.26,-778.1 577.66,-872.08 572.27,-901.4 507.26,-977.13 497.37,-988.66 486.17,-1000.31 475.02,-1011.25"/>
<polygon fill="black" stroke="black" points="472.77,-1008.55 468.02,-1018.02 477.64,-1013.58 472.77,-1008.55"/>
<text text-anchor="start" x="662.29" y="-665.29" font-family="Times,serif" font-size="14.00"> &#160;coins = 2&#39;b01</text>
</g>
<!-- 8&#45;&gt;7 -->
<g id="edge29" class="edge">
<title>8&#45;&gt;7</title>
<path fill="none" stroke="black" d="M589.79,-322.96C580.25,-330.9 570.19,-338.74 560.26,-345.55 546.17,-355.23 540.36,-353.88 526.26,-363.55 517.04,-369.88 515.76,-372.78 507.26,-380.05 493.58,-391.76 478.85,-404.26 464.83,-416.11"/>
<polygon fill="black" stroke="black" points="462.74,-413.28 457.36,-422.41 467.26,-418.63 462.74,-413.28"/>
<text text-anchor="start" x="526.26" y="-366.75" font-family="Times,serif" font-size="14.00"> &#160;coins = 2&#39;b10</text>
</g>
<!-- 8&#45;&gt;8 -->
<g id="edge30" class="edge">
<title>8&#45;&gt;8</title>
<path fill="none" stroke="black" d="M714.81,-289.55C726.5,-287.08 734.53,-281.33 734.53,-272.29 734.53,-266.36 731.07,-261.84 725.39,-258.74"/>
<polygon fill="black" stroke="black" points="726.84,-255.54 716.24,-255.53 724.52,-262.14 726.84,-255.54"/>
</g>
</g>
</svg>
