<?xml version="1.0" encoding="UTF-8" standalone="no"?>
<!DOCTYPE svg PUBLIC "-//W3C//DTD SVG 1.1//EN"
 "http://www.w3.org/Graphics/SVG/1.1/DTD/svg11.dtd">
<!-- Generated by graphviz version 12.2.1 (0)
 -->
<!-- Pages: 1 -->
<svg width="920pt" height="1428pt"
 viewBox="0.00 0.00 920.25 1427.50" xmlns="http://www.w3.org/2000/svg" xmlns:xlink="http://www.w3.org/1999/xlink">
<g id="graph0" class="graph" transform="scale(1 1) rotate(0) translate(4 1423.5)">
<polygon fill="white" stroke="none" points="-4,4 -4,-1423.5 916.25,-1423.5 916.25,4 -4,4"/>
<!-- _reset -->
<!-- 0 -->
<g id="node2" class="node">
<title>0</title>
<ellipse fill="#a2cd5a" stroke="black" cx="76" cy="-1255" rx="72" ry="72"/>
<ellipse fill="none" stroke="black" cx="76" cy="-1255" rx="76" ry="76"/>
<text text-anchor="middle" x="76" y="-1258.2" font-family="Times,serif" font-size="14.00">C0B0</text>
<text text-anchor="middle" x="76" y="-1241.7" font-family="Times,serif" font-size="14.00">ice_cream_balls = 2&#39;00</text>
</g>
<!-- _reset&#45;&gt;0 -->
<g id="edge1" class="edge">
<title>_reset&#45;&gt;0</title>
<path fill="none" stroke="black" d="M76,-1383.07C76,-1372.75 76,-1358.81 76,-1343.93"/>
<polygon fill="black" stroke="black" points="76,-1344.18 72,-1338.18 76,-1332.18 80,-1338.18 76,-1344.18"/>
<text text-anchor="middle" x="92.5" y="-1352.2" font-family="Times,serif" font-size="14.00"> &#160;reset</text>
</g>
<!-- 0&#45;&gt;0 -->
<g id="edge2" class="edge">
<title>0&#45;&gt;0</title>
<path fill="none" stroke="black" d="M150.08,-1272.66C161.91,-1270.07 170,-1264.19 170,-1255 170,-1248.97 166.51,-1244.36 160.78,-1241.18"/>
<polygon fill="black" stroke="black" points="162.1,-1237.94 151.51,-1237.86 159.74,-1244.53 162.1,-1237.94"/>
</g>
<!-- 3 -->
<g id="node5" class="node">
<title>3</title>
<ellipse fill="#a2cd5a" stroke="black" cx="397" cy="-1054.5" rx="72" ry="72"/>
<text text-anchor="middle" x="397" y="-1057.7" font-family="Times,serif" font-size="14.00">C2B0</text>
<text text-anchor="middle" x="397" y="-1041.2" font-family="Times,serif" font-size="14.00">ice_cream_balls = 2&#39;00</text>
</g>
<!-- 0&#45;&gt;3 -->
<g id="edge3" class="edge">
<title>0&#45;&gt;3</title>
<path fill="none" stroke="black" d="M140.57,-1214.07C194.29,-1180.85 270.64,-1133.64 326.05,-1099.37"/>
<polygon fill="black" stroke="black" points="327.84,-1102.38 334.51,-1094.14 324.16,-1096.43 327.84,-1102.38"/>
<text text-anchor="start" x="246.12" y="-1147.7" font-family="Times,serif" font-size="14.00"> &#160;coins = 2&#39;10</text>
</g>
<!-- 5 -->
<g id="node7" class="node">
<title>5</title>
<ellipse fill="#a2cd5a" stroke="black" cx="313" cy="-661.5" rx="72" ry="72"/>
<text text-anchor="middle" x="313" y="-664.7" font-family="Times,serif" font-size="14.00">C1B0</text>
<text text-anchor="middle" x="313" y="-648.2" font-family="Times,serif" font-size="14.00">ice_cream_balls = 2&#39;00</text>
</g>
<!-- 0&#45;&gt;5 -->
<g id="edge4" class="edge">
<title>0&#45;&gt;5</title>
<path fill="none" stroke="black" d="M57.21,-1181C44.39,-1117.57 34.08,-1024.18 60.75,-948 79.31,-894.99 184.28,-786.65 252.83,-719.73"/>
<polygon fill="black" stroke="black" points="255.18,-722.32 259.91,-712.84 250.3,-717.3 255.18,-722.32"/>
<text text-anchor="start" x="60.75" y="-951.2" font-family="Times,serif" font-size="14.00"> &#160;coins = 2&#39;01</text>
</g>
<!-- 1 -->
<g id="node3" class="node">
<title>1</title>
<ellipse fill="#a2cd5a" stroke="black" cx="443" cy="-268.5" rx="72" ry="72"/>
<text text-anchor="middle" x="443" y="-271.7" font-family="Times,serif" font-size="14.00">C2B2</text>
<text text-anchor="middle" x="443" y="-255.2" font-family="Times,serif" font-size="14.00">ice_cream_balls = 2&#39;10</text>
</g>
<!-- 1&#45;&gt;1 -->
<g id="edge5" class="edge">
<title>1&#45;&gt;1</title>
<path fill="none" stroke="black" d="M513.19,-285.62C524.91,-283.23 533,-277.52 533,-268.5 533,-262.58 529.52,-258.09 523.81,-255.02"/>
<polygon fill="black" stroke="black" points="525.21,-251.8 514.62,-251.87 522.94,-258.43 525.21,-251.8"/>
</g>
<!-- 6 -->
<g id="node8" class="node">
<title>6</title>
<ellipse fill="#a2cd5a" stroke="black" cx="666" cy="-72" rx="72" ry="72"/>
<text text-anchor="middle" x="666" y="-75.2" font-family="Times,serif" font-size="14.00">C1B1</text>
<text text-anchor="middle" x="666" y="-58.7" font-family="Times,serif" font-size="14.00">ice_cream_balls = 2&#39;01</text>
</g>
<!-- 1&#45;&gt;6 -->
<g id="edge6" class="edge">
<title>1&#45;&gt;6</title>
<path fill="none" stroke="black" d="M496.98,-220.42C529.19,-192.33 570.2,-156.55 603.77,-127.28"/>
<polygon fill="black" stroke="black" points="605.75,-130.19 610.99,-120.98 601.15,-124.92 605.75,-130.19"/>
<text text-anchor="start" x="561.19" y="-165.2" font-family="Times,serif" font-size="14.00"> &#160;coins = 2&#39;10</text>
</g>
<!-- 7 -->
<g id="node9" class="node">
<title>7</title>
<ellipse fill="#a2cd5a" stroke="black" cx="384" cy="-465" rx="72" ry="72"/>
<text text-anchor="middle" x="384" y="-468.2" font-family="Times,serif" font-size="14.00">C3B0</text>
<text text-anchor="middle" x="384" y="-451.7" font-family="Times,serif" font-size="14.00">ice_cream_balls = 2&#39;00</text>
</g>
<!-- 1&#45;&gt;7 -->
<g id="edge7" class="edge">
<title>1&#45;&gt;7</title>
<path fill="none" stroke="black" d="M389.8,-317.58C379.34,-325.82 368.14,-333.85 357,-340.5 338.77,-351.38 324.6,-340.88 312.75,-358.5 301.19,-375.68 307.63,-394.41 320.45,-411.26"/>
<polygon fill="black" stroke="black" points="317.59,-413.3 326.7,-418.72 322.96,-408.81 317.59,-413.3"/>
<text text-anchor="start" x="312.75" y="-361.7" font-family="Times,serif" font-size="14.00"> &#160;coins = 2&#39;01</text>
</g>
<!-- 2 -->
<g id="node4" class="node">
<title>2</title>
<ellipse fill="#a2cd5a" stroke="black" cx="271" cy="-858" rx="72" ry="72"/>
<text text-anchor="middle" x="271" y="-861.2" font-family="Times,serif" font-size="14.00">C0B1</text>
<text text-anchor="middle" x="271" y="-844.7" font-family="Times,serif" font-size="14.00">ice_cream_balls = 2&#39;01</text>
</g>
<!-- 2&#45;&gt;2 -->
<g id="edge8" class="edge">
<title>2&#45;&gt;2</title>
<path fill="none" stroke="black" d="M341.19,-875.12C352.91,-872.73 361,-867.02 361,-858 361,-852.08 357.52,-847.59 351.81,-844.52"/>
<polygon fill="black" stroke="black" points="353.21,-841.3 342.62,-841.37 350.94,-847.93 353.21,-841.3"/>
</g>
<!-- 2&#45;&gt;3 -->
<g id="edge9" class="edge">
<title>2&#45;&gt;3</title>
<path fill="none" stroke="black" d="M239.78,-923.4C237.02,-937.52 237.56,-951.98 244.75,-964.5 260.9,-992.65 289.77,-1012.74 318.07,-1026.63"/>
<polygon fill="black" stroke="black" points="316.52,-1029.77 327.07,-1030.83 319.48,-1023.43 316.52,-1029.77"/>
<text text-anchor="start" x="244.75" y="-951.2" font-family="Times,serif" font-size="14.00"> &#160;coins = 2&#39;10</text>
</g>
<!-- 2&#45;&gt;5 -->
<g id="edge10" class="edge">
<title>2&#45;&gt;5</title>
<path fill="none" stroke="black" d="M286.04,-787.33C289.12,-773.09 292.38,-757.98 295.53,-743.38"/>
<polygon fill="black" stroke="black" points="298.91,-744.33 297.6,-733.82 292.07,-742.85 298.91,-744.33"/>
<text text-anchor="start" x="293.26" y="-754.7" font-family="Times,serif" font-size="14.00"> &#160;coins = 2&#39;01</text>
</g>
<!-- 3&#45;&gt;2 -->
<g id="edge11" class="edge">
<title>3&#45;&gt;2</title>
<path fill="none" stroke="black" d="M358.17,-993.56C344.87,-973.04 329.89,-949.9 316.14,-928.68"/>
<polygon fill="black" stroke="black" points="319.12,-926.84 310.74,-920.35 313.24,-930.65 319.12,-926.84"/>
<text text-anchor="start" x="337.78" y="-951.2" font-family="Times,serif" font-size="14.00"> &#160;!coins</text>
</g>
<!-- 3&#45;&gt;3 -->
<g id="edge12" class="edge">
<title>3&#45;&gt;3</title>
<path fill="none" stroke="black" d="M467.19,-1071.62C478.91,-1069.23 487,-1063.52 487,-1054.5 487,-1048.58 483.52,-1044.09 477.81,-1041.02"/>
<polygon fill="black" stroke="black" points="479.21,-1037.8 468.62,-1037.87 476.94,-1044.43 479.21,-1037.8"/>
</g>
<!-- 3&#45;&gt;6 -->
<g id="edge13" class="edge">
<title>3&#45;&gt;6</title>
<path fill="none" stroke="black" d="M469.33,-1053.1C594.44,-1048.2 838,-1018.2 838,-859 838,-859 838,-859 838,-267.5 838,-203.27 784.71,-150.28 737.45,-115.92"/>
<polygon fill="black" stroke="black" points="739.52,-113.09 729.33,-110.17 735.47,-118.8 739.52,-113.09"/>
<text text-anchor="start" x="838" y="-558.2" font-family="Times,serif" font-size="14.00"> &#160;coins = 2&#39;10</text>
</g>
<!-- 3&#45;&gt;7 -->
<g id="edge14" class="edge">
<title>3&#45;&gt;7</title>
<path fill="none" stroke="black" d="M443.17,-998.95C457.57,-978.63 471.6,-954.52 479,-930 527.57,-769.03 485.18,-713.48 429,-555 427.13,-549.73 425.02,-544.37 422.75,-539.03"/>
<polygon fill="black" stroke="black" points="426.09,-537.93 418.84,-530.2 419.69,-540.76 426.09,-537.93"/>
<text text-anchor="start" x="497.65" y="-754.7" font-family="Times,serif" font-size="14.00"> &#160;coins = 2&#39;01</text>
</g>
<!-- 4 -->
<g id="node6" class="node">
<title>4</title>
<ellipse fill="#a2cd5a" stroke="black" cx="153" cy="-268.5" rx="72" ry="72"/>
<text text-anchor="middle" x="153" y="-271.7" font-family="Times,serif" font-size="14.00">C0B2</text>
<text text-anchor="middle" x="153" y="-255.2" font-family="Times,serif" font-size="14.00">ice_cream_balls = 2&#39;10</text>
</g>
<!-- 4&#45;&gt;3 -->
<g id="edge15" class="edge">
<title>4&#45;&gt;3</title>
<path fill="none" stroke="black" d="M150.84,-340.63C149.89,-377.45 149,-423.13 149,-464 149,-859 149,-859 149,-859 149,-946.23 245.16,-1000.24 317.73,-1028.58"/>
<polygon fill="black" stroke="black" points="316.24,-1031.76 326.83,-1032.04 318.73,-1025.22 316.24,-1031.76"/>
<text text-anchor="start" x="149" y="-656.45" font-family="Times,serif" font-size="14.00"> &#160;coins = 2&#39;10</text>
</g>
<!-- 4&#45;&gt;4 -->
<g id="edge16" class="edge">
<title>4&#45;&gt;4</title>
<path fill="none" stroke="black" d="M223.19,-285.62C234.91,-283.23 243,-277.52 243,-268.5 243,-262.58 239.52,-258.09 233.81,-255.02"/>
<polygon fill="black" stroke="black" points="235.21,-251.8 224.62,-251.87 232.94,-258.43 235.21,-251.8"/>
</g>
<!-- 4&#45;&gt;5 -->
<g id="edge17" class="edge">
<title>4&#45;&gt;5</title>
<path fill="none" stroke="black" d="M166.35,-339.58C178.39,-394.87 198.85,-473.05 228.75,-537 237.97,-556.72 250.19,-576.78 262.46,-594.83"/>
<polygon fill="black" stroke="black" points="259.43,-596.61 268,-602.84 265.19,-592.62 259.43,-596.61"/>
<text text-anchor="start" x="228.75" y="-459.95" font-family="Times,serif" font-size="14.00"> &#160;coins = 2&#39;01</text>
</g>
<!-- 5&#45;&gt;3 -->
<g id="edge18" class="edge">
<title>5&#45;&gt;3</title>
<path fill="none" stroke="black" d="M356.51,-719.17C362.65,-729.47 368.17,-740.47 372,-751.5 396.72,-822.74 401.6,-908.87 401.1,-970.89"/>
<polygon fill="black" stroke="black" points="397.6,-970.62 400.97,-980.67 404.6,-970.72 397.6,-970.62"/>
<text text-anchor="start" x="400.59" y="-852.95" font-family="Times,serif" font-size="14.00"> &#160;coins = 2&#39;01</text>
</g>
<!-- 5&#45;&gt;5 -->
<g id="edge19" class="edge">
<title>5&#45;&gt;5</title>
<path fill="none" stroke="black" d="M383.19,-678.62C394.91,-676.23 403,-670.52 403,-661.5 403,-655.58 399.52,-651.09 393.81,-648.02"/>
<polygon fill="black" stroke="black" points="395.21,-644.8 384.62,-644.87 392.94,-651.43 395.21,-644.8"/>
</g>
<!-- 5&#45;&gt;7 -->
<g id="edge20" class="edge">
<title>5&#45;&gt;7</title>
<path fill="none" stroke="black" d="M337.53,-593.29C343.35,-577.35 349.61,-560.21 355.59,-543.84"/>
<polygon fill="black" stroke="black" points="358.81,-545.23 358.95,-534.63 352.23,-542.83 358.81,-545.23"/>
<text text-anchor="start" x="350.63" y="-558.2" font-family="Times,serif" font-size="14.00"> &#160;coins = 2&#39;10</text>
</g>
<!-- 6&#45;&gt;3 -->
<g id="edge21" class="edge">
<title>6&#45;&gt;3</title>
<path fill="none" stroke="black" d="M702.84,-134.21C721.81,-171.41 741,-220.63 741,-267.5 741,-859 741,-859 741,-859 741,-978.53 581.68,-1025.45 479.89,-1043.23"/>
<polygon fill="black" stroke="black" points="479.47,-1039.75 470.19,-1044.86 480.63,-1046.65 479.47,-1039.75"/>
<text text-anchor="start" x="741" y="-558.2" font-family="Times,serif" font-size="14.00"> &#160;coins = 2&#39;01</text>
</g>
<!-- 6&#45;&gt;6 -->
<g id="edge22" class="edge">
<title>6&#45;&gt;6</title>
<path fill="none" stroke="black" d="M736.19,-89.12C747.91,-86.73 756,-81.02 756,-72 756,-66.08 752.52,-61.59 746.81,-58.52"/>
<polygon fill="black" stroke="black" points="748.21,-55.3 737.62,-55.37 745.94,-61.93 748.21,-55.3"/>
</g>
<!-- 6&#45;&gt;7 -->
<g id="edge23" class="edge">
<title>6&#45;&gt;7</title>
<path fill="none" stroke="black" d="M593.86,-73.06C505.14,-77.5 357.72,-100.04 287.75,-196.5 241,-260.95 259.55,-308.28 303,-375 309.63,-385.19 317.44,-395.34 325.54,-404.95"/>
<polygon fill="black" stroke="black" points="322.85,-407.19 332.04,-412.46 328.14,-402.61 322.85,-407.19"/>
<text text-anchor="start" x="287.75" y="-263.45" font-family="Times,serif" font-size="14.00"> &#160;coins = 2&#39;10</text>
</g>
<!-- 7&#45;&gt;1 -->
<g id="edge24" class="edge">
<title>7&#45;&gt;1</title>
<path fill="none" stroke="black" d="M399.74,-394.45C402.82,-382.39 406.2,-370.03 409.75,-358.5 410.96,-354.56 412.25,-350.55 413.6,-346.51"/>
<polygon fill="black" stroke="black" points="416.85,-347.81 416.77,-337.22 410.22,-345.55 416.85,-347.81"/>
<text text-anchor="start" x="409.75" y="-361.7" font-family="Times,serif" font-size="14.00"> &#160;coins = 2&#39;10</text>
</g>
<!-- 7&#45;&gt;4 -->
<g id="edge25" class="edge">
<title>7&#45;&gt;4</title>
<path fill="none" stroke="black" d="M325.17,-423.08C308.7,-412.54 290.51,-401.72 273,-393 252.42,-382.75 242.59,-389.19 224.5,-375 212.66,-365.71 202.07,-353.92 192.9,-341.6"/>
<polygon fill="black" stroke="black" points="196,-339.92 187.35,-333.8 190.29,-343.98 196,-339.92"/>
<text text-anchor="start" x="224.5" y="-361.7" font-family="Times,serif" font-size="14.00"> &#160;!coins</text>
</g>
<!-- 7&#45;&gt;7 -->
<g id="edge26" class="edge">
<title>7&#45;&gt;7</title>
<path fill="none" stroke="black" d="M454.19,-482.12C465.91,-479.73 474,-474.02 474,-465 474,-459.08 470.52,-454.59 464.81,-451.52"/>
<polygon fill="black" stroke="black" points="466.21,-448.3 455.62,-448.37 463.94,-454.93 466.21,-448.3"/>
</g>
<!-- 8 -->
<g id="node10" class="node">
<title>8</title>
<ellipse fill="#a2cd5a" stroke="black" cx="623" cy="-268.5" rx="72" ry="72"/>
<text text-anchor="middle" x="623" y="-271.7" font-family="Times,serif" font-size="14.00">C1B2</text>
<text text-anchor="middle" x="623" y="-255.2" font-family="Times,serif" font-size="14.00">ice_cream_balls = 2&#39;10</text>
</g>
<!-- 7&#45;&gt;8 -->
<g id="edge27" class="edge">
<title>7&#45;&gt;8</title>
<path fill="none" stroke="black" d="M453.8,-446.8C495.47,-433.36 546.78,-410.82 581,-375 588.33,-367.33 594.43,-358.22 599.5,-348.62"/>
<polygon fill="black" stroke="black" points="602.55,-350.37 603.76,-339.84 596.25,-347.31 602.55,-350.37"/>
<text text-anchor="start" x="592.39" y="-361.7" font-family="Times,serif" font-size="14.00"> &#160;coins = 2&#39;01</text>
</g>
<!-- 8&#45;&gt;3 -->
<g id="edge28" class="edge">
<title>8&#45;&gt;3</title>
<path fill="none" stroke="black" d="M662.92,-328.7C669.08,-343.33 672.87,-359.31 671,-375 649.74,-553.44 633.84,-597.87 576,-768 544.84,-859.66 541.74,-888.32 482,-964.5 473.97,-974.75 464.94,-985.16 455.85,-995.07"/>
<polygon fill="black" stroke="black" points="453.5,-992.46 449.25,-1002.16 458.63,-997.23 453.5,-992.46"/>
<text text-anchor="start" x="633.18" y="-656.45" font-family="Times,serif" font-size="14.00"> &#160;coins = 2&#39;01</text>
</g>
<!-- 8&#45;&gt;7 -->
<g id="edge29" class="edge">
<title>8&#45;&gt;7</title>
<path fill="none" stroke="black" d="M571.16,-318.79C561.81,-326.54 551.89,-334.09 542,-340.5 525.89,-350.93 518.82,-348.01 502.75,-358.5 501.86,-359.08 474.27,-383.59 445.91,-408.83"/>
<polygon fill="black" stroke="black" points="443.78,-406.03 438.64,-415.3 448.44,-411.26 443.78,-406.03"/>
<text text-anchor="start" x="502.75" y="-361.7" font-family="Times,serif" font-size="14.00"> &#160;coins = 2&#39;10</text>
</g>
<!-- 8&#45;&gt;8 -->
<g id="edge30" class="edge">
<title>8&#45;&gt;8</title>
<path fill="none" stroke="black" d="M693.19,-285.62C704.91,-283.23 713,-277.52 713,-268.5 713,-262.58 709.52,-258.09 703.81,-255.02"/>
<polygon fill="black" stroke="black" points="705.21,-251.8 694.62,-251.87 702.94,-258.43 705.21,-251.8"/>
</g>
</g>
</svg>
