<svg xmlns="http://www.w3.org/2000/svg" xmlns:xlink="http://www.w3.org/1999/xlink" xmlns:s="https://github.com/nturley/netlistsvg" width="1114" height="381"><style>  svg {
    stroke:#000;
    fill:none;
  }
  text {
    fill:#000;
    fill-opacity:1.0;
    stroke:none;
    font-size:10px;
    font-weight: bold;
    font-family: "Courier New", monospace;
  }
  line {
      stroke-linecap: round;
  }
  .nodelabel {
    text-anchor: middle;
  }
  .inputPortLabel {
    text-anchor: end;
  }
  .splitjoinBody {
    fill:#000;
  }
  .invert {
    fill:#ff9999;
    fill-opacity:1.0;
  }
  .combinational {
    fill:#afecef;
    fill-opacity:1.0;
  }
  .state {
    fill:#def1b2;
    fill-opacity:1.0;
  }
  .hierarchical {
    fill:#ffd8b2;
    fill-opacity:1.0;
  }
  .io {
    fill:#fcffb2;
    fill-opacity:1.0;
  }</style><g s:type="eq" class="" transform="translate(791,322)" s:width="25" s:height="25" id="cell_$eq$REF.v:65$3"><s:alias val="$eq"/><s:alias val="$eqx"/><circle r="12.5" cx="12.5" cy="12.5" class="cell_$eq$REF.v:65$3"/><line x1="7.5" x2="17.5" y1="10" y2="10" class="cell_$eq$REF.v:65$3"/><line x1="7.5" x2="17.5" y1="15" y2="15" class="cell_$eq$REF.v:65$3"/><g s:x="2" s:y="5" s:pid="A"/><g s:x="2" s:y="20" s:pid="B"/><g s:x="25" s:y="12.5" s:pid="Y"/></g><g s:type="eq" class="" transform="translate(279.6666666666667,268.5)" s:width="25" s:height="25" id="cell_$eq$REF.v:66$4"><s:alias val="$eq"/><s:alias val="$eqx"/><circle r="12.5" cx="12.5" cy="12.5" class="cell_$eq$REF.v:66$4"/><line x1="7.5" x2="17.5" y1="10" y2="10" class="cell_$eq$REF.v:66$4"/><line x1="7.5" x2="17.5" y1="15" y2="15" class="cell_$eq$REF.v:66$4"/><g s:x="2" s:y="5" s:pid="A"/><g s:x="2" s:y="20" s:pid="B"/><g s:x="25" s:y="12.5" s:pid="Y"/></g><g s:type="or" class="combinational" transform="translate(1050,276)" s:width="30" s:height="25" id="cell_$logic_or$REF.v:52$1"><s:alias val="$or"/><s:alias val="$logic_or"/><s:alias val="$_OR_"/><s:alias val="$reduce_or"/><s:alias val="$reduce_bool"/><path d="M0,0 A30 25 0 0 1 0,25 A30 25 0 0 0 30,12.5 A30 25 0 0 0 0,0" class="cell_$logic_or$REF.v:52$1"/><g s:x="2" s:y="5" s:pid="A"/><g s:x="2" s:y="20" s:pid="B"/><g s:x="30" s:y="12.5" s:pid="Y"/></g><g s:type="mux-bus" class="combinational" transform="translate(951.5,221)" s:width="24" s:height="40" id="cell_$procmux$12"><s:alias val="$pmux-bus"/><s:alias val="$mux-bus"/><s:alias val="$_MUX_-bus"/><path d="M8,2 L8,0 L24,8 L24,32 L8,40 L8,38" style="filter:brightness(0.7)" class="cell_$procmux$12"/><path d="M4,2 L4,0 L22,9 L22,31 L4,40 L4,38" style="filter:brightness(0.7)" class="cell_$procmux$12"/><path d="M0,0 L20,10 L20,30 L0,40 Z" class="cell_$procmux$12"/><text x="5" y="32" class="nodelabel cell_$procmux$178" s:attribute="">1</text><text x="5" y="13" class="nodelabel cell_$procmux$178" s:attribute="">0</text><g s:x="-1" s:y="10" s:pid="A"/><g s:x="-1" s:y="30" s:pid="B"/><g s:x="12" s:y="38" s:pid="S"/><g s:x="24.5" s:y="20" s:pid="Y"/></g><g s:type="mux-bus" class="combinational" transform="translate(852,157.5)" s:width="24" s:height="40" id="cell_$procmux$15"><s:alias val="$pmux-bus"/><s:alias val="$mux-bus"/><s:alias val="$_MUX_-bus"/><path d="M8,2 L8,0 L24,8 L24,32 L8,40 L8,38" style="filter:brightness(0.7)" class="cell_$procmux$15"/><path d="M4,2 L4,0 L22,9 L22,31 L4,40 L4,38" style="filter:brightness(0.7)" class="cell_$procmux$15"/><path d="M0,0 L20,10 L20,30 L0,40 Z" class="cell_$procmux$15"/><text x="5" y="32" class="nodelabel cell_$procmux$178" s:attribute="">1</text><text x="5" y="13" class="nodelabel cell_$procmux$178" s:attribute="">0</text><g s:x="-1" s:y="10" s:pid="A"/><g s:x="-1" s:y="30" s:pid="B"/><g s:x="12" s:y="38" s:pid="S"/><g s:x="24.5" s:y="20" s:pid="Y"/></g><g s:type="generic" class="hierarchical" transform="translate(694,72)" s:width="30" s:height="40" id="cell_counter_0"><text x="15" y="-4" class="nodelabel cell_counter_0" s:attribute="ref">counter</text><rect width="30" height="60" s:generic="body" class="cell_counter_0"/><g transform="translate(0,10)" s:x="0" s:y="10" s:pid="in0" id="port_counter_0~clk"><text x="-3" y="-4" class="inputPortLabel cell_counter_0">clk</text></g><g transform="translate(0,30)" s:x="0" s:y="10" s:pid="in0" id="port_counter_0~enable"><text x="-3" y="-4" class="inputPortLabel cell_counter_0">enable</text></g><g transform="translate(0,50)" s:x="0" s:y="10" s:pid="in0" id="port_counter_0~reset"><text x="-3" y="-4" class="inputPortLabel cell_counter_0">reset</text></g><g transform="translate(30,10)" s:x="30" s:y="10" s:pid="out0" id="port_counter_0~count"><text x="5" y="-4" style="fill:#000; stroke:none" class="cell_counter_0">count</text></g></g><g s:type="generic" class="hierarchical" transform="translate(542,177)" s:width="30" s:height="40" id="cell_counter_1"><text x="15" y="-4" class="nodelabel cell_counter_1" s:attribute="ref">counter</text><rect width="30" height="60" s:generic="body" class="cell_counter_1"/><g transform="translate(0,10)" s:x="0" s:y="10" s:pid="in0" id="port_counter_1~clk"><text x="-3" y="-4" class="inputPortLabel cell_counter_1">clk</text></g><g transform="translate(0,30)" s:x="0" s:y="10" s:pid="in0" id="port_counter_1~enable"><text x="-3" y="-4" class="inputPortLabel cell_counter_1">enable</text></g><g transform="translate(0,50)" s:x="0" s:y="10" s:pid="in0" id="port_counter_1~reset"><text x="-3" y="-4" class="inputPortLabel cell_counter_1">reset</text></g><g transform="translate(30,10)" s:x="30" s:y="10" s:pid="out0" id="port_counter_1~count"><text x="5" y="-4" style="fill:#000; stroke:none" class="cell_counter_1">count</text></g><g transform="translate(30,30)" s:x="30" s:y="10" s:pid="out0" id="port_counter_1~rollover"><text x="5" y="-4" style="fill:#000; stroke:none" class="cell_counter_1">rollover</text></g></g><g s:type="generic" class="hierarchical" transform="translate(385,154.5)" s:width="30" s:height="40" id="cell_counter_2"><text x="15" y="-4" class="nodelabel cell_counter_2" s:attribute="ref">counter</text><rect width="30" height="60" s:generic="body" class="cell_counter_2"/><g transform="translate(0,10)" s:x="0" s:y="10" s:pid="in0" id="port_counter_2~clk"><text x="-3" y="-4" class="inputPortLabel cell_counter_2">clk</text></g><g transform="translate(0,30)" s:x="0" s:y="10" s:pid="in0" id="port_counter_2~enable"><text x="-3" y="-4" class="inputPortLabel cell_counter_2">enable</text></g><g transform="translate(0,50)" s:x="0" s:y="10" s:pid="in0" id="port_counter_2~reset"><text x="-3" y="-4" class="inputPortLabel cell_counter_2">reset</text></g><g transform="translate(30,10)" s:x="30" s:y="10" s:pid="out0" id="port_counter_2~count"><text x="5" y="-4" style="fill:#000; stroke:none" class="cell_counter_2">count</text></g><g transform="translate(30,30)" s:x="30" s:y="10" s:pid="out0" id="port_counter_2~rollover"><text x="5" y="-4" style="fill:#000; stroke:none" class="cell_counter_2">rollover</text></g></g><g s:type="generic" class="hierarchical" transform="translate(120,238)" s:width="30" s:height="40" id="cell_counter_active"><text x="15" y="-4" class="nodelabel cell_counter_active" s:attribute="ref">counter</text><rect width="30" height="60" s:generic="body" class="cell_counter_active"/><g transform="translate(0,10)" s:x="0" s:y="10" s:pid="in0" id="port_counter_active~clk"><text x="-3" y="-4" class="inputPortLabel cell_counter_active">clk</text></g><g transform="translate(0,30)" s:x="0" s:y="10" s:pid="in0" id="port_counter_active~enable"><text x="-3" y="-4" class="inputPortLabel cell_counter_active">enable</text></g><g transform="translate(0,50)" s:x="0" s:y="10" s:pid="in0" id="port_counter_active~reset"><text x="-3" y="-4" class="inputPortLabel cell_counter_active">reset</text></g><g transform="translate(30,10)" s:x="30" s:y="10" s:pid="out0" id="port_counter_active~count"><text x="5" y="-4" style="fill:#000; stroke:none" class="cell_counter_active">count</text></g></g><g s:type="inputExt" class="io" transform="translate(12,123.5)" s:width="30" s:height="20" id="cell_clk"><text x="15" y="-4" class="nodelabel cell_clk" s:attribute="ref">clk</text><s:alias val="$_inputExt_"/><path d="M0,0 L0,20 L15,20 L30,10 L15,0 Z" class="cell_clk"/><g s:x="30" s:y="10" s:pid="Y"/></g><g s:type="inputExt" class="io" transform="translate(12,258.5)" s:width="30" s:height="20" id="cell_enable"><text x="15" y="-4" class="nodelabel cell_enable" s:attribute="ref">enable</text><s:alias val="$_inputExt_"/><path d="M0,0 L0,20 L15,20 L30,10 L15,0 Z" class="cell_enable"/><g s:x="30" s:y="10" s:pid="Y"/></g><g s:type="inputExt" class="io" transform="translate(278,217.5)" s:width="30" s:height="20" id="cell_reset"><text x="15" y="-4" class="nodelabel cell_reset" s:attribute="ref">reset</text><s:alias val="$_inputExt_"/><path d="M0,0 L0,20 L15,20 L30,10 L15,0 Z" class="cell_reset"/><g s:x="30" s:y="10" s:pid="Y"/></g><g s:type="outputExt" class="io" transform="translate(1050,349)" s:width="30" s:height="20" id="cell_command"><text x="15" y="-4" class="nodelabel cell_command" s:attribute="ref">command</text><s:alias val="$_outputExt_"/><path d="M30,0 L30,20 L15,20 L0,10 L15,0 Z" class="cell_command"/><g s:x="0" s:y="10" s:pid="A"/></g><g s:type="outputExt" class="io" transform="translate(1050,231)" s:width="30" s:height="20" id="cell_digit"><text x="15" y="-4" class="nodelabel cell_digit" s:attribute="ref">digit</text><s:alias val="$_outputExt_"/><path d="M30,0 L30,20 L15,20 L0,10 L15,0 Z" class="cell_digit"/><g s:x="0" s:y="10" s:pid="A"/></g><g s:type="outputExt" class="io" transform="translate(78,22)" s:width="30" s:height="20" id="cell_digit_entered"><text x="15" y="-4" class="nodelabel cell_digit_entered" s:attribute="ref">digit_entered</text><s:alias val="$_outputExt_"/><path d="M30,0 L30,20 L15,20 L0,10 L15,0 Z" class="cell_digit_entered"/><g s:x="0" s:y="10" s:pid="A"/></g><g s:type="constant" class="io" transform="translate(542,349)" s:width="30" s:height="20" id="cell_10"><text x="15" y="-4" class="nodelabel cell_10" s:attribute="ref">10</text><s:alias val="$_constant_"/><rect width="30" height="20" class="cell_10"/><g s:x="31" s:y="10" s:pid="Y"/></g><g s:type="constant" class="io" transform="translate(120,193)" s:width="30" s:height="20" id="cell_11"><text x="15" y="-4" class="nodelabel cell_11" s:attribute="ref">11</text><s:alias val="$_constant_"/><rect width="30" height="20" class="cell_11"/><g s:x="31" s:y="10" s:pid="Y"/></g><g s:type="constant" class="io" transform="translate(12,22)" s:width="30" s:height="20" id="cell_1"><text x="15" y="-4" class="nodelabel cell_1" s:attribute="ref">1</text><s:alias val="$_constant_"/><rect width="30" height="20" class="cell_1"/><g s:x="31" s:y="10" s:pid="Y"/></g><line x1="151" x2="214" y1="248.5" y2="248.5" class="net_9,10,11,12 width_4" style="stroke-width: 2"/><line x1="214" x2="214" y1="248.5" y2="327" class="net_9,10,11,12 width_4" style="stroke-width: 2"/><circle cx="214" cy="248.5" r="3" style="fill:#000" class="net_9,10,11,12 width_4"/><line x1="214" x2="793" y1="327" y2="327" class="net_9,10,11,12 width_4" style="stroke-width: 2"/><line x1="151" x2="253" y1="248.5" y2="248.5" class="net_9,10,11,12 width_4" style="stroke-width: 2"/><line x1="253" x2="253" y1="248.5" y2="273.5" class="net_9,10,11,12 width_4" style="stroke-width: 2"/><line x1="253" x2="281.6666666666667" y1="273.5" y2="273.5" class="net_9,10,11,12 width_4" style="stroke-width: 2"/><line x1="573" x2="632" y1="359" y2="359" class="net_34,35 width_2" style="stroke-width: 2"/><line x1="632" x2="632" y1="359" y2="342" class="net_34,35 width_2" style="stroke-width: 2"/><circle cx="632" cy="359" r="3" style="fill:#000" class="net_34,35 width_2"/><line x1="632" x2="793" y1="342" y2="342" class="net_34,35 width_2" style="stroke-width: 2"/><line x1="573" x2="1050" y1="359" y2="359" class="net_34,35 width_2" style="stroke-width: 2"/><line x1="151" x2="224" y1="203" y2="203" class="net_36,37 width_2" style="stroke-width: 2"/><line x1="224" x2="224" y1="203" y2="288.5" class="net_36,37 width_2" style="stroke-width: 2"/><line x1="224" x2="281.6666666666667" y1="288.5" y2="288.5" class="net_36,37 width_2" style="stroke-width: 2"/><line x1="304.6666666666667" x2="1052" y1="281" y2="281" class="net_14 width_1" style="stroke-width: 1"/><line x1="304.6666666666667" x2="925.5" y1="281" y2="281" class="net_14 width_1" style="stroke-width: 1"/><line x1="925.5" x2="925.5" y1="281" y2="271" class="net_14 width_1" style="stroke-width: 1"/><line x1="925.5" x2="963.5" y1="271" y2="271" class="net_14 width_1" style="stroke-width: 1"/><circle cx="925.5" cy="281" r="2" style="fill:#000" class="net_14 width_1"/><line x1="963.5" x2="963.5" y1="271" y2="259" class="net_14 width_1" style="stroke-width: 1"/><line x1="304.6666666666667" x2="318" y1="281" y2="281" class="net_14 width_1" style="stroke-width: 1"/><line x1="318" x2="318" y1="281" y2="185" class="net_14 width_1" style="stroke-width: 1"/><circle cx="318" cy="281" r="2" style="fill:#000" class="net_14 width_1"/><line x1="318" x2="385" y1="185" y2="185" class="net_14 width_1" style="stroke-width: 1"/><line x1="308" x2="328" y1="227.5" y2="227.5" class="net_4 width_1" style="stroke-width: 1"/><line x1="328" x2="328" y1="227.5" y2="296" class="net_4 width_1" style="stroke-width: 1"/><circle cx="328" cy="227.5" r="2" style="fill:#000" class="net_4 width_1"/><line x1="328" x2="1052" y1="296" y2="296" class="net_4 width_1" style="stroke-width: 1"/><line x1="308" x2="328" y1="227.5" y2="227.5" class="net_4 width_1" style="stroke-width: 1"/><line x1="328" x2="328" y1="227.5" y2="122.5" class="net_4 width_1" style="stroke-width: 1"/><line x1="328" x2="694" y1="122.5" y2="122.5" class="net_4 width_1" style="stroke-width: 1"/><line x1="308" x2="542" y1="227.5" y2="227.5" class="net_4 width_1" style="stroke-width: 1"/><line x1="308" x2="328" y1="227.5" y2="227.5" class="net_4 width_1" style="stroke-width: 1"/><line x1="328" x2="328" y1="227.5" y2="205" class="net_4 width_1" style="stroke-width: 1"/><circle cx="328" cy="205" r="2" style="fill:#000" class="net_4 width_1"/><line x1="328" x2="385" y1="205" y2="205" class="net_4 width_1" style="stroke-width: 1"/><line x1="876.5" x2="925.5" y1="177.5" y2="177.5" class="net_16,17,18,19 width_4" style="stroke-width: 2"/><line x1="925.5" x2="925.5" y1="177.5" y2="231" class="net_16,17,18,19 width_4" style="stroke-width: 2"/><line x1="925.5" x2="950.5" y1="231" y2="231" class="net_16,17,18,19 width_4" style="stroke-width: 2"/><line x1="416" x2="475" y1="165" y2="165" class="net_20,21,22,23 width_4" style="stroke-width: 2"/><line x1="475" x2="475" y1="165" y2="251" class="net_20,21,22,23 width_4" style="stroke-width: 2"/><line x1="475" x2="950.5" y1="251" y2="251" class="net_20,21,22,23 width_4" style="stroke-width: 2"/><line x1="725" x2="826" y1="82.5" y2="82.5" class="net_24,25,26,27 width_4" style="stroke-width: 2"/><line x1="826" x2="826" y1="82.5" y2="167.5" class="net_24,25,26,27 width_4" style="stroke-width: 2"/><line x1="826" x2="851" y1="167.5" y2="167.5" class="net_24,25,26,27 width_4" style="stroke-width: 2"/><line x1="573" x2="851" y1="187.5" y2="187.5" class="net_28,29,30,31 width_4" style="stroke-width: 2"/><line x1="816" x2="864" y1="334.5" y2="334.5" class="net_13 width_1" style="stroke-width: 1"/><line x1="864" x2="864" y1="334.5" y2="195.5" class="net_13 width_1" style="stroke-width: 1"/><line x1="42" x2="338" y1="133.5" y2="133.5" class="net_2 width_1" style="stroke-width: 1"/><line x1="338" x2="338" y1="133.5" y2="82.5" class="net_2 width_1" style="stroke-width: 1"/><circle cx="338" cy="133.5" r="2" style="fill:#000" class="net_2 width_1"/><line x1="338" x2="694" y1="82.5" y2="82.5" class="net_2 width_1" style="stroke-width: 1"/><line x1="42" x2="495" y1="133.5" y2="133.5" class="net_2 width_1" style="stroke-width: 1"/><line x1="495" x2="495" y1="133.5" y2="187.5" class="net_2 width_1" style="stroke-width: 1"/><line x1="495" x2="542" y1="187.5" y2="187.5" class="net_2 width_1" style="stroke-width: 1"/><line x1="42" x2="338" y1="133.5" y2="133.5" class="net_2 width_1" style="stroke-width: 1"/><line x1="338" x2="338" y1="133.5" y2="165" class="net_2 width_1" style="stroke-width: 1"/><line x1="338" x2="385" y1="165" y2="165" class="net_2 width_1" style="stroke-width: 1"/><line x1="42" x2="58" y1="133.5" y2="133.5" class="net_2 width_1" style="stroke-width: 1"/><line x1="58" x2="58" y1="133.5" y2="248.5" class="net_2 width_1" style="stroke-width: 1"/><circle cx="58" cy="133.5" r="2" style="fill:#000" class="net_2 width_1"/><line x1="58" x2="120" y1="248.5" y2="248.5" class="net_2 width_1" style="stroke-width: 1"/><line x1="573" x2="632" y1="207.5" y2="207.5" class="net_32 width_1" style="stroke-width: 1"/><line x1="632" x2="632" y1="207.5" y2="102.5" class="net_32 width_1" style="stroke-width: 1"/><line x1="632" x2="694" y1="102.5" y2="102.5" class="net_32 width_1" style="stroke-width: 1"/><line x1="416" x2="485" y1="185" y2="185" class="net_33 width_1" style="stroke-width: 1"/><line x1="485" x2="485" y1="185" y2="207.5" class="net_33 width_1" style="stroke-width: 1"/><line x1="485" x2="542" y1="207.5" y2="207.5" class="net_33 width_1" style="stroke-width: 1"/><line x1="42" x2="120" y1="268.5" y2="268.5" class="net_3 width_1" style="stroke-width: 1"/><line x1="1080" x2="1102" y1="288.5" y2="288.5" class="net_15 width_1" style="stroke-width: 1"/><line x1="1102" x2="1102" y1="288.5" y2="311" class="net_15 width_1" style="stroke-width: 1"/><line x1="1102" x2="58" y1="311" y2="311" class="net_15 width_1" style="stroke-width: 1"/><line x1="58" x2="58" y1="311" y2="288.5" class="net_15 width_1" style="stroke-width: 1"/><line x1="58" x2="120" y1="288.5" y2="288.5" class="net_15 width_1" style="stroke-width: 1"/><line x1="976" x2="1050" y1="241" y2="241" class="net_5,6,7,8 width_4" style="stroke-width: 2"/><line x1="43" x2="78" y1="32" y2="32" class="net_40 width_1" style="stroke-width: 1"/><rect x="240" y="243.5" width="16" height="9" class="net_9,10,11,12 width_4 busLabel_4" style="fill: white; stroke: none"/><text x="239" y="251.5" class="net_9,10,11,12 width_4 busLabel_4">/4/</text><rect x="240" y="243.5" width="16" height="9" class="net_9,10,11,12 width_4 busLabel_4" style="fill: white; stroke: none"/><text x="239" y="251.5" class="net_9,10,11,12 width_4 busLabel_4">/4/</text><rect x="862.75" y="354" width="16" height="9" class="net_34,35 width_2 busLabel_2" style="fill: white; stroke: none"/><text x="861.75" y="362" class="net_34,35 width_2 busLabel_2">/2/</text><rect x="862.75" y="354" width="16" height="9" class="net_34,35 width_2 busLabel_2" style="fill: white; stroke: none"/><text x="861.75" y="362" class="net_34,35 width_2 busLabel_2">/2/</text><rect x="240" y="283.5" width="16" height="9" class="net_36,37 width_2 busLabel_2" style="fill: white; stroke: none"/><text x="239" y="291.5" class="net_36,37 width_2 busLabel_2">/2/</text><rect x="912.5" y="172.5" width="16" height="9" class="net_16,17,18,19 width_4 busLabel_4" style="fill: white; stroke: none"/><text x="911.5" y="180.5" class="net_16,17,18,19 width_4 busLabel_4">/4/</text><rect x="802.5" y="246" width="16" height="9" class="net_20,21,22,23 width_4 busLabel_4" style="fill: white; stroke: none"/><text x="801.5" y="254" class="net_20,21,22,23 width_4 busLabel_4">/4/</text><rect x="802.5" y="77.5" width="16" height="9" class="net_24,25,26,27 width_4 busLabel_4" style="fill: white; stroke: none"/><text x="801.5" y="85.5" class="net_24,25,26,27 width_4 busLabel_4">/4/</text><rect x="705.5" y="182.5" width="16" height="9" class="net_28,29,30,31 width_4 busLabel_4" style="fill: white; stroke: none"/><text x="704.5" y="190.5" class="net_28,29,30,31 width_4 busLabel_4">/4/</text><rect x="1012" y="236" width="16" height="9" class="net_5,6,7,8 width_4 busLabel_4" style="fill: white; stroke: none"/><text x="1011" y="244" class="net_5,6,7,8 width_4 busLabel_4">/4/</text></svg>