<svg xmlns="http://www.w3.org/2000/svg" xmlns:xlink="http://www.w3.org/1999/xlink" xmlns:s="https://github.com/nturley/netlistsvg" width="605" height="262.5"><style>  svg {
    stroke:#000;
    fill:none;
  }
  text {
    fill:#000;
    fill-opacity:1.0;
    stroke:none;
    font-size:10px;
    font-weight: bold;
    font-family: "Courier New", monospace;
  }
  line {
      stroke-linecap: round;
  }
  .nodelabel {
    text-anchor: middle;
  }
  .inputPortLabel {
    text-anchor: end;
  }
  .splitjoinBody {
    fill:#000;
  }
  .invert {
    fill:#ff9999;
    fill-opacity:1.0;
  }
  .combinational {
    fill:#afecef;
    fill-opacity:1.0;
  }
  .state {
    fill:#def1b2;
    fill-opacity:1.0;
  }
  .hierarchical {
    fill:#ffd8b2;
    fill-opacity:1.0;
  }
  .io {
    fill:#fcffb2;
    fill-opacity:1.0;
  }</style><g s:type="eq" class="hierarchical" transform="translate(201,203.5)" s:width="25" s:height="25" id="cell_$eq$ref.v:21$5"><s:alias val="$eq"/><s:alias val="$eqx"/><circle r="12.5" cx="12.5" cy="12.5" class="cell_$eq$ref.v:21$5"/><line x1="7.5" x2="17.5" y1="10" y2="10" class="cell_$eq$ref.v:21$5"/><line x1="7.5" x2="17.5" y1="15" y2="15" class="cell_$eq$ref.v:21$5"/><g s:x="2" s:y="5" s:pid="A"/><g s:x="2" s:y="20" s:pid="B"/><g s:x="25" s:y="12.5" s:pid="Y"/></g><g s:type="dff-bus" class="state" transform="translate(73,157.5)" s:width="34" s:height="44" id="cell_$procdff$8"><s:alias val="$dff-bus"/><s:alias val="$_DFF_-bus"/><s:alias val="$_DFF_P_-bus"/><s:alias val="adff-bus"/><s:alias val="$adff-bus"/><s:alias val="$_DFF_-bus"/><s:alias val="$_DFF_P_-bus"/><s:alias val="sdff-bus"/><s:alias val="$sdff-bus"/><s:alias val="$_DFF_-bus"/><s:alias val="$_DFF_P_-bus"/><rect width="30" height="40" x="0" y="0" stroke="none" transform="translate(4,4)" style="filter:brightness(0.7);" class="cell_$procdff$8"/><path d="M32,4 L34,4 L34,44 L4,44 L4,42" class="cell_$procdff$8"/><rect width="30" height="40" x="0" y="0" stroke="none" transform="translate(2,2)" style="filter:brightness(0.7)" class="cell_$procdff$8"/><path d="M30,2 L32,2 L32,42 L2,42 L2,40" class="cell_$procdff$8" style=""/><rect width="30" height="40" x="0" y="0" class="cell_$procdff$8"/><path d="M0,35 L5,30 L0,25 Z" class="cell_$procdff$8" style="fill:#ffffff;"/><g s:x="35" s:y="10" s:pid="Q"/><g s:x="-1" s:y="30" s:pid="CLK"/><g s:x="-1" s:y="30" s:pid="C"/><g s:x="-1" s:y="10" s:pid="D"/><g s:x="17" s:y="44" s:pid="ARST"/><g s:x="17" s:y="44" s:pid="SRST"/></g><g s:type="mux-bus" class="combinational" transform="translate(558.5,137.5)" s:width="24" s:height="40" id="cell_$ternary$ref.v:18$4"><s:alias val="$pmux-bus"/><s:alias val="$mux-bus"/><s:alias val="$_MUX_-bus"/><path d="M8,2 L8,0 L24,8 L24,32 L8,40 L8,38" style="filter:brightness(0.7)" class="cell_$ternary$ref.v:18$4"/><path d="M4,2 L4,0 L22,9 L22,31 L4,40 L4,38" style="filter:brightness(0.7)" class="cell_$ternary$ref.v:18$4"/><path d="M0,0 L20,10 L20,30 L0,40 Z" class="cell_$ternary$ref.v:18$4"/><text x="5" y="32" class="nodelabel cell_$procmux$178" s:attribute="">1</text><text x="5" y="13" class="nodelabel cell_$procmux$178" s:attribute="">0</text><g s:x="-1" s:y="10" s:pid="A"/><g s:x="-1" s:y="30" s:pid="B"/><g s:x="12" s:y="38" s:pid="S"/><g s:x="24.5" s:y="20" s:pid="Y"/></g><g s:type="mux-bus" class="combinational" transform="translate(321,101.5)" s:width="24" s:height="40" id="cell_$ternary$ref.v:21$7"><s:alias val="$pmux-bus"/><s:alias val="$mux-bus"/><s:alias val="$_MUX_-bus"/><path d="M8,2 L8,0 L24,8 L24,32 L8,40 L8,38" style="filter:brightness(0.7)" class="cell_$ternary$ref.v:21$7"/><path d="M4,2 L4,0 L22,9 L22,31 L4,40 L4,38" style="filter:brightness(0.7)" class="cell_$ternary$ref.v:21$7"/><path d="M0,0 L20,10 L20,30 L0,40 Z" class="cell_$ternary$ref.v:21$7"/><text x="5" y="32" class="nodelabel cell_$procmux$178" s:attribute="">1</text><text x="5" y="13" class="nodelabel cell_$procmux$178" s:attribute="">0</text><g s:x="-1" s:y="10" s:pid="A"/><g s:x="-1" s:y="30" s:pid="B"/><g s:x="12" s:y="38" s:pid="S"/><g s:x="24.5" s:y="20" s:pid="Y"/></g><g s:type="inputExt" class="io" transform="translate(12,177.5)" s:width="30" s:height="20" id="cell_clk"><text x="15" y="-4" class="nodelabel cell_clk" s:attribute="ref">clk</text><s:alias val="$_inputExt_"/><path d="M0,0 L0,20 L15,20 L30,10 L15,0 Z" class="cell_clk"/><g s:x="30" s:y="10" s:pid="Y"/></g><g s:type="inputExt" class="io" transform="translate(497.5,213.5)" s:width="30" s:height="20" id="cell_reset"><text x="15" y="-4" class="nodelabel cell_reset" s:attribute="ref">reset</text><s:alias val="$_inputExt_"/><path d="M0,0 L0,20 L15,20 L30,10 L15,0 Z" class="cell_reset"/><g s:x="30" s:y="10" s:pid="Y"/></g><g s:type="outputExt" class="io" transform="translate(260,62)" s:width="30" s:height="20" id="cell_y"><text x="15" y="-4" class="nodelabel cell_y" s:attribute="ref">y</text><s:alias val="$_outputExt_"/><path d="M30,0 L30,20 L15,20 L0,10 L15,0 Z" class="cell_y"/><g s:x="0" s:y="10" s:pid="A"/></g><g s:type="constant" class="io" transform="translate(138,213.5)" s:width="30" s:height="20" id="cell_1"><text x="15" y="-4" class="nodelabel cell_1" s:attribute="ref">1</text><s:alias val="$_constant_"/><rect width="30" height="20" class="cell_1"/><g s:x="31" s:y="10" s:pid="Y"/></g><g s:type="constant" class="io" transform="translate(436.5,95)" s:width="30" s:height="20" id="cell_010000"><text x="15" y="-4" class="nodelabel cell_010000" s:attribute="ref">0x10</text><s:alias val="$_constant_"/><rect width="30" height="20" class="cell_010000"/><g s:x="31" s:y="10" s:pid="Y"/></g><g s:type="constant" class="io" transform="translate(375.5,167.5)" s:width="30" s:height="20" id="cell_0"><text x="15" y="-4" class="nodelabel cell_0" s:attribute="ref">0</text><s:alias val="$_constant_"/><rect width="30" height="20" class="cell_0"/><g s:x="31" s:y="10" s:pid="Y"/></g><g s:type="constant" class="io" transform="translate(199,121.5)" s:width="30" s:height="20" id="cell_10000"><text x="15" y="-4" class="nodelabel cell_10000" s:attribute="ref">0x10</text><s:alias val="$_constant_"/><rect width="30" height="20" class="cell_10000"/><g s:x="31" s:y="10" s:pid="Y"/></g><g s:type="join" class="" transform="translate(455.5,147)" s:width="4" s:height="40" id="cell_$join$,17,18,19,20,21,29,"><rect width="5" height="40" class="splitjoinBody" s:generic="body"/><s:alias val="$_join_"/><g s:x="5" s:y="20" s:pid="out"/><g transform="translate(0,10)" s:x="0" s:y="10" s:pid="in0"><text x="-3" y="-4" class="inputPortLabel">0:4</text></g><g transform="translate(0,30)" s:x="0" s:y="10" s:pid="in0"><text x="-3" y="-4" class="inputPortLabel">5</text></g></g><g s:type="split" class="" transform="translate(206,41.5)" s:width="5" s:height="40" id="cell_$split$,5,6,4,7,8,9,"><rect width="5" height="40" class="splitjoinBody" s:generic="body"/><s:alias val="$_split_"/><g s:x="0" s:y="20" s:pid="in"/><g transform="translate(4,10)" s:x="4" s:y="10" s:pid="out0"><text x="5" y="-4">1:5</text></g><g transform="translate(4,30)" s:x="4" s:y="10" s:pid="out0"><text x="5" y="-4">2</text></g></g><line x1="108" x2="179" y1="167.5" y2="167.5" class="net_5,6,4,7,8,9 width_6" style="stroke-width: 2"/><line x1="179" x2="179" y1="167.5" y2="208.5" class="net_5,6,4,7,8,9 width_6" style="stroke-width: 2"/><line x1="179" x2="203" y1="208.5" y2="208.5" class="net_5,6,4,7,8,9 width_6" style="stroke-width: 2"/><line x1="108" x2="118" y1="167.5" y2="167.5" class="net_5,6,4,7,8,9 width_6" style="stroke-width: 2"/><line x1="118" x2="118" y1="167.5" y2="62" class="net_5,6,4,7,8,9 width_6" style="stroke-width: 2"/><circle cx="118" cy="167.5" r="3" style="fill:#000" class="net_5,6,4,7,8,9 width_6"/><line x1="118" x2="206" y1="62" y2="62" class="net_5,6,4,7,8,9 width_6" style="stroke-width: 2"/><line x1="169" x2="203" y1="223.5" y2="223.5" class="net_22 width_1" style="stroke-width: 1"/><line x1="42" x2="72" y1="187.5" y2="187.5" class="net_2 width_1" style="stroke-width: 1"/><line x1="583" x2="593" y1="157.5" y2="157.5" class="net_11,12,13,14,15,16 width_6" style="stroke-width: 2"/><line x1="593" x2="593" y1="157.5" y2="244.5" class="net_11,12,13,14,15,16 width_6" style="stroke-width: 2"/><line x1="593" x2="52" y1="244.5" y2="244.5" class="net_11,12,13,14,15,16 width_6" style="stroke-width: 2"/><line x1="52" x2="52" y1="244.5" y2="167.5" class="net_11,12,13,14,15,16 width_6" style="stroke-width: 2"/><line x1="52" x2="72" y1="167.5" y2="167.5" class="net_11,12,13,14,15,16 width_6" style="stroke-width: 2"/><line x1="467.5" x2="537.5" y1="105" y2="105" class="net_23,24,25,26,27,28 width_6" style="stroke-width: 2"/><line x1="537.5" x2="537.5" y1="105" y2="147.5" class="net_23,24,25,26,27,28 width_6" style="stroke-width: 2"/><line x1="537.5" x2="557.5" y1="147.5" y2="147.5" class="net_23,24,25,26,27,28 width_6" style="stroke-width: 2"/><line x1="461.5" x2="557.5" y1="167.5" y2="167.5" class="net_17,18,19,20,21,29 width_6" style="stroke-width: 2"/><line x1="527.5" x2="570.5" y1="223.5" y2="223.5" class="net_3 width_1" style="stroke-width: 1"/><line x1="570.5" x2="570.5" y1="223.5" y2="175.5" class="net_3 width_1" style="stroke-width: 1"/><line x1="211" x2="240" y1="52" y2="52" class="net_6,4,7,8,9 width_5" style="stroke-width: 2"/><line x1="240" x2="240" y1="52" y2="16" class="net_6,4,7,8,9 width_5" style="stroke-width: 2"/><line x1="240" x2="300" y1="16" y2="16" class="net_6,4,7,8,9 width_5" style="stroke-width: 2"/><line x1="300" x2="300" y1="16" y2="111.5" class="net_6,4,7,8,9 width_5" style="stroke-width: 2"/><line x1="300" x2="320" y1="111.5" y2="111.5" class="net_6,4,7,8,9 width_5" style="stroke-width: 2"/><line x1="230" x2="320" y1="131.5" y2="131.5" class="net_30,31,32,33,34 width_5" style="stroke-width: 2"/><line x1="226" x2="333" y1="216" y2="216" class="net_10 width_1" style="stroke-width: 1"/><line x1="333" x2="333" y1="216" y2="139.5" class="net_10 width_1" style="stroke-width: 1"/><line x1="211" x2="260" y1="72" y2="72" class="net_4 width_1" style="stroke-width: 1"/><line x1="345.5" x2="416.5" y1="121.5" y2="121.5" class="net_17,18,19,20,21 width_5" style="stroke-width: 2"/><line x1="416.5" x2="416.5" y1="121.5" y2="157.5" class="net_17,18,19,20,21 width_5" style="stroke-width: 2"/><line x1="416.5" x2="455.5" y1="157.5" y2="157.5" class="net_17,18,19,20,21 width_5" style="stroke-width: 2"/><line x1="406.5" x2="455.5" y1="177.5" y2="177.5" class="net_29 width_1" style="stroke-width: 1"/><rect x="152.5" y="57" width="16" height="9" class="net_5,6,4,7,8,9 width_6 busLabel_6" style="fill: white; stroke: none"/><text x="151.5" y="65" class="net_5,6,4,7,8,9 width_6 busLabel_6">/6/</text><rect x="152.5" y="57" width="16" height="9" class="net_5,6,4,7,8,9 width_6 busLabel_6" style="fill: white; stroke: none"/><text x="151.5" y="65" class="net_5,6,4,7,8,9 width_6 busLabel_6">/6/</text><rect x="331.75" y="239.5" width="16" height="9" class="net_11,12,13,14,15,16 width_6 busLabel_6" style="fill: white; stroke: none"/><text x="330.75" y="247.5" class="net_11,12,13,14,15,16 width_6 busLabel_6">/6/</text><rect x="511.5" y="100" width="16" height="9" class="net_23,24,25,26,27,28 width_6 busLabel_6" style="fill: white; stroke: none"/><text x="510.5" y="108" class="net_23,24,25,26,27,28 width_6 busLabel_6">/6/</text><rect x="511.5" y="162.5" width="16" height="9" class="net_17,18,19,20,21,29 width_6 busLabel_6" style="fill: white; stroke: none"/><text x="510.5" y="170.5" class="net_17,18,19,20,21,29 width_6 busLabel_6">/6/</text><rect x="274" y="11" width="16" height="9" class="net_6,4,7,8,9 width_5 busLabel_5" style="fill: white; stroke: none"/><text x="273" y="19" class="net_6,4,7,8,9 width_5 busLabel_5">/5/</text><rect x="274" y="126.5" width="16" height="9" class="net_30,31,32,33,34 width_5 busLabel_5" style="fill: white; stroke: none"/><text x="273" y="134.5" class="net_30,31,32,33,34 width_5 busLabel_5">/5/</text><rect x="390" y="116.5" width="16" height="9" class="net_17,18,19,20,21 width_5 busLabel_5" style="fill: white; stroke: none"/><text x="389" y="124.5" class="net_17,18,19,20,21 width_5 busLabel_5">/5/</text></svg>