<svg xmlns="http://www.w3.org/2000/svg" xmlns:xlink="http://www.w3.org/1999/xlink" xmlns:s="https://github.com/nturley/netlistsvg" width="643.5" height="179"><style>  svg {
    stroke:#000;
    fill:none;
  }
  text {
    fill:#000;
    fill-opacity:1.0;
    stroke:none;
    font-size:10px;
    font-weight: bold;
    font-family: "Courier New", monospace;
  }
  line {
      stroke-linecap: round;
  }
  .nodelabel {
    text-anchor: middle;
  }
  .inputPortLabel {
    text-anchor: end;
  }
  .splitjoinBody {
    fill:#000;
  }
  .invert {
    fill:#ff9999;
    fill-opacity:1.0;
  }
  .combinational {
    fill:#afecef;
    fill-opacity:1.0;
  }
  .state {
    fill:#def1b2;
    fill-opacity:1.0;
  }
  .hierarchical {
    fill:#ffd8b2;
    fill-opacity:1.0;
  }
  .io {
    fill:#fcffb2;
    fill-opacity:1.0;
  }</style><g s:type="add" class="hierarchical" transform="translate(76.66666666666667,26)" s:width="25" s:height="25" id="cell_$add$ref.v:20$2"><s:alias val="$add"/><circle r="12.5" cx="12.5" cy="12.5" class="cell_$add$ref.v:20$2"/><line x1="7.5" x2="17.5" y1="12.5" y2="12.5" class="cell_$add$ref.v:20$2"/><line x1="12.5" x2="12.5" y1="7.5" y2="17.5" class="cell_$add$ref.v:20$2"/><g s:x="2" s:y="5" s:pid="A"/><g s:x="2" s:y="20" s:pid="B"/><g s:x="26" s:y="12.5" s:pid="Y"/></g><g s:type="dff-bus" class="state" transform="translate(310.5,117)" s:width="34" s:height="44" id="cell_$procdff$8"><s:alias val="$dff-bus"/><s:alias val="$_DFF_-bus"/><s:alias val="$_DFF_P_-bus"/><s:alias val="adff-bus"/><s:alias val="$adff-bus"/><s:alias val="$_DFF_-bus"/><s:alias val="$_DFF_P_-bus"/><s:alias val="sdff-bus"/><s:alias val="$sdff-bus"/><s:alias val="$_DFF_-bus"/><s:alias val="$_DFF_P_-bus"/><rect width="30" height="40" x="0" y="0" stroke="none" transform="translate(4,4)" style="filter:brightness(0.7);" class="cell_$procdff$8"/><path d="M32,4 L34,4 L34,44 L4,44 L4,42" class="cell_$procdff$8"/><rect width="30" height="40" x="0" y="0" stroke="none" transform="translate(2,2)" style="filter:brightness(0.7)" class="cell_$procdff$8"/><path d="M30,2 L32,2 L32,42 L2,42 L2,40" class="cell_$procdff$8" style=""/><rect width="30" height="40" x="0" y="0" class="cell_$procdff$8"/><path d="M0,35 L5,30 L0,25 Z" class="cell_$procdff$8" style="fill:#ffffff;"/><g s:x="35" s:y="10" s:pid="Q"/><g s:x="-1" s:y="30" s:pid="CLK"/><g s:x="-1" s:y="30" s:pid="C"/><g s:x="-1" s:y="10" s:pid="D"/><g s:x="17" s:y="44" s:pid="ARST"/><g s:x="17" s:y="44" s:pid="SRST"/></g><g s:type="mux-bus" class="combinational" transform="translate(195,71)" s:width="24" s:height="40" id="cell_$procmux$6"><s:alias val="$pmux-bus"/><s:alias val="$mux-bus"/><s:alias val="$_MUX_-bus"/><path d="M8,2 L8,0 L24,8 L24,32 L8,40 L8,38" style="filter:brightness(0.7)" class="cell_$procmux$6"/><path d="M4,2 L4,0 L22,9 L22,31 L4,40 L4,38" style="filter:brightness(0.7)" class="cell_$procmux$6"/><path d="M0,0 L20,10 L20,30 L0,40 Z" class="cell_$procmux$6"/><text x="5" y="32" class="nodelabel cell_$procmux$178" s:attribute="">1</text><text x="5" y="13" class="nodelabel cell_$procmux$178" s:attribute="">0</text><g s:x="-1" s:y="10" s:pid="A"/><g s:x="-1" s:y="30" s:pid="B"/><g s:x="12" s:y="38" s:pid="S"/><g s:x="24.5" s:y="20" s:pid="Y"/></g><g s:type="reduce_xor" class="combinational" transform="translate(461.5,42)" s:width="33" s:height="25" id="cell_$xor$ref.v:23$3"><s:alias val="$xor"/><s:alias val="$reduce_xor"/><s:alias val="$_XOR_"/><path d="M3,0 A30 25 0 0 1 3,25 A30 25 0 0 0 33,12.5 A30 25 0 0 0 3,0" class="cell_$xor$ref.v:23$3"/><path d="M0,0 A30 25 0 0 1 0,25" class="cell_$xor$ref.v:23$3"/><g s:x="2" s:y="5" s:pid="A"/><g s:x="2" s:y="20" s:pid="B"/><g s:x="33" s:y="12.5" s:pid="Y"/></g><g s:type="reduce_xor" class="combinational" transform="translate(461.5,97)" s:width="33" s:height="25" id="cell_$xor$ref.v:23$4"><s:alias val="$xor"/><s:alias val="$reduce_xor"/><s:alias val="$_XOR_"/><path d="M3,0 A30 25 0 0 1 3,25 A30 25 0 0 0 33,12.5 A30 25 0 0 0 3,0" class="cell_$xor$ref.v:23$4"/><path d="M0,0 A30 25 0 0 1 0,25" class="cell_$xor$ref.v:23$4"/><g s:x="2" s:y="5" s:pid="A"/><g s:x="2" s:y="20" s:pid="B"/><g s:x="33" s:y="12.5" s:pid="Y"/></g><g s:type="inputExt" class="io" transform="translate(249.5,137)" s:width="30" s:height="20" id="cell_clk"><text x="15" y="-4" class="nodelabel cell_clk" s:attribute="ref">clk</text><s:alias val="$_inputExt_"/><path d="M0,0 L0,20 L15,20 L30,10 L15,0 Z" class="cell_clk"/><g s:x="30" s:y="10" s:pid="Y"/></g><g s:type="inputExt" class="io" transform="translate(134,147)" s:width="30" s:height="20" id="cell_reset"><text x="15" y="-4" class="nodelabel cell_reset" s:attribute="ref">reset</text><s:alias val="$_inputExt_"/><path d="M0,0 L0,20 L15,20 L30,10 L15,0 Z" class="cell_reset"/><g s:x="30" s:y="10" s:pid="Y"/></g><g s:type="outputExt" class="io" transform="translate(601.5,89.5)" s:width="30" s:height="20" id="cell_y"><text x="15" y="-4" class="nodelabel cell_y" s:attribute="ref">y</text><s:alias val="$_outputExt_"/><path d="M30,0 L30,20 L15,20 L0,10 L15,0 Z" class="cell_y"/><g s:x="0" s:y="10" s:pid="A"/></g><g s:type="constant" class="io" transform="translate(12,36)" s:width="30" s:height="20" id="cell_1"><text x="15" y="-4" class="nodelabel cell_1" s:attribute="ref">1</text><s:alias val="$_constant_"/><rect width="30" height="20" class="cell_1"/><g s:x="31" s:y="10" s:pid="Y"/></g><g s:type="constant" class="io" transform="translate(73,91)" s:width="30" s:height="20" id="cell_000"><text x="15" y="-4" class="nodelabel cell_000" s:attribute="ref">000</text><s:alias val="$_constant_"/><rect width="30" height="20" class="cell_000"/><g s:x="31" s:y="10" s:pid="Y"/></g><g s:type="join" class="" transform="translate(531.5,79)" s:width="4" s:height="40" id="cell_$join$,4,5,6,"><rect width="5" height="60" class="splitjoinBody" s:generic="body"/><s:alias val="$_join_"/><g s:x="5" s:y="20" s:pid="out"/><g transform="translate(0,10)" s:x="0" s:y="10" s:pid="in0"><text x="-3" y="-4" class="inputPortLabel">0</text></g><g transform="translate(0,30)" s:x="0" s:y="10" s:pid="in0"><text x="-3" y="-4" class="inputPortLabel">1</text></g><g transform="translate(0,50)" s:x="0" s:y="10" s:pid="in0"><text x="-3" y="-4" class="inputPortLabel">2</text></g></g><g s:type="split" class="" transform="translate(409.5,106.5)" s:width="5" s:height="40" id="cell_$split$,7,8,6,"><rect width="5" height="60" class="splitjoinBody" s:generic="body"/><s:alias val="$_split_"/><g s:x="0" s:y="20" s:pid="in"/><g transform="translate(4,10)" s:x="4" s:y="10" s:pid="out0"><text x="5" y="-4">1</text></g><g transform="translate(4,30)" s:x="4" s:y="10" s:pid="out0"><text x="5" y="-4">0</text></g><g transform="translate(4,50)" s:x="4" s:y="10" s:pid="out0"><text x="5" y="-4">2</text></g></g><line x1="345.5" x2="355.5" y1="127" y2="127" class="net_7,8,6 width_3" style="stroke-width: 2"/><line x1="355.5" x2="355.5" y1="127" y2="16" class="net_7,8,6 width_3" style="stroke-width: 2"/><line x1="355.5" x2="53" y1="16" y2="16" class="net_7,8,6 width_3" style="stroke-width: 2"/><line x1="53" x2="53" y1="16" y2="31" class="net_7,8,6 width_3" style="stroke-width: 2"/><circle cx="355.5" cy="127" r="3" style="fill:#000" class="net_7,8,6 width_3"/><line x1="53" x2="78.66666666666667" y1="31" y2="31" class="net_7,8,6 width_3" style="stroke-width: 2"/><line x1="345.5" x2="409.5" y1="127" y2="127" class="net_7,8,6 width_3" style="stroke-width: 2"/><line x1="43" x2="78.66666666666667" y1="46" y2="46" class="net_15 width_1" style="stroke-width: 1"/><line x1="279.5" x2="309.5" y1="147" y2="147" class="net_2 width_1" style="stroke-width: 1"/><line x1="219.5" x2="289.5" y1="91" y2="91" class="net_12,13,14 width_3" style="stroke-width: 2"/><line x1="289.5" x2="289.5" y1="91" y2="127" class="net_12,13,14 width_3" style="stroke-width: 2"/><line x1="289.5" x2="309.5" y1="127" y2="127" class="net_12,13,14 width_3" style="stroke-width: 2"/><line x1="102.66666666666667" x2="174" y1="38.5" y2="38.5" class="net_9,10,11 width_3" style="stroke-width: 2"/><line x1="174" x2="174" y1="38.5" y2="81" class="net_9,10,11 width_3" style="stroke-width: 2"/><line x1="174" x2="194" y1="81" y2="81" class="net_9,10,11 width_3" style="stroke-width: 2"/><line x1="104" x2="194" y1="101" y2="101" class="net_16,17,18 width_3" style="stroke-width: 2"/><line x1="164" x2="207" y1="157" y2="157" class="net_3 width_1" style="stroke-width: 1"/><line x1="207" x2="207" y1="157" y2="109" class="net_3 width_1" style="stroke-width: 1"/><line x1="414.5" x2="431.5" y1="117" y2="117" class="net_8 width_1" style="stroke-width: 1"/><line x1="431.5" x2="431.5" y1="117" y2="47" class="net_8 width_1" style="stroke-width: 1"/><circle cx="431.5" cy="117" r="2" style="fill:#000" class="net_8 width_1"/><line x1="431.5" x2="463.5" y1="47" y2="47" class="net_8 width_1" style="stroke-width: 1"/><line x1="414.5" x2="463.5" y1="117" y2="117" class="net_8 width_1" style="stroke-width: 1"/><line x1="414.5" x2="441.5" y1="137" y2="137" class="net_7 width_1" style="stroke-width: 1"/><line x1="441.5" x2="441.5" y1="137" y2="62" class="net_7 width_1" style="stroke-width: 1"/><line x1="441.5" x2="463.5" y1="62" y2="62" class="net_7 width_1" style="stroke-width: 1"/><line x1="414.5" x2="451.5" y1="157" y2="157" class="net_6 width_1" style="stroke-width: 1"/><line x1="451.5" x2="451.5" y1="157" y2="102" class="net_6 width_1" style="stroke-width: 1"/><circle cx="451.5" cy="157" r="2" style="fill:#000" class="net_6 width_1"/><line x1="451.5" x2="463.5" y1="102" y2="102" class="net_6 width_1" style="stroke-width: 1"/><line x1="414.5" x2="504.5" y1="157" y2="157" class="net_6 width_1" style="stroke-width: 1"/><line x1="504.5" x2="504.5" y1="157" y2="129.5" class="net_6 width_1" style="stroke-width: 1"/><line x1="504.5" x2="531.5" y1="129.5" y2="129.5" class="net_6 width_1" style="stroke-width: 1"/><line x1="537.5" x2="601.5" y1="99.5" y2="99.5" class="net_4,5,6 width_3" style="stroke-width: 2"/><line x1="494.5" x2="504.5" y1="54.5" y2="54.5" class="net_4 width_1" style="stroke-width: 1"/><line x1="504.5" x2="504.5" y1="54.5" y2="89.5" class="net_4 width_1" style="stroke-width: 1"/><line x1="504.5" x2="531.5" y1="89.5" y2="89.5" class="net_4 width_1" style="stroke-width: 1"/><line x1="494.5" x2="531.5" y1="109.5" y2="109.5" class="net_5 width_1" style="stroke-width: 1"/><rect x="376.5" y="122" width="16" height="9" class="net_7,8,6 width_3 busLabel_3" style="fill: white; stroke: none"/><text x="375.5" y="130" class="net_7,8,6 width_3 busLabel_3">/3/</text><rect x="376.5" y="122" width="16" height="9" class="net_7,8,6 width_3 busLabel_3" style="fill: white; stroke: none"/><text x="375.5" y="130" class="net_7,8,6 width_3 busLabel_3">/3/</text><rect x="263.5" y="86" width="16" height="9" class="net_12,13,14 width_3 busLabel_3" style="fill: white; stroke: none"/><text x="262.5" y="94" class="net_12,13,14 width_3 busLabel_3">/3/</text><rect x="148" y="33.5" width="16" height="9" class="net_9,10,11 width_3 busLabel_3" style="fill: white; stroke: none"/><text x="147" y="41.5" class="net_9,10,11 width_3 busLabel_3">/3/</text><rect x="148" y="96" width="16" height="9" class="net_16,17,18 width_3 busLabel_3" style="fill: white; stroke: none"/><text x="147" y="104" class="net_16,17,18 width_3 busLabel_3">/3/</text><rect x="568.5" y="94.5" width="16" height="9" class="net_4,5,6 width_3 busLabel_3" style="fill: white; stroke: none"/><text x="567.5" y="102.5" class="net_4,5,6 width_3 busLabel_3">/3/</text></svg>