<svg xmlns="http://www.w3.org/2000/svg" xmlns:xlink="http://www.w3.org/1999/xlink" xmlns:s="https://github.com/nturley/netlistsvg" width="580" height="195"><style>  svg {
    stroke:#000;
    fill:none;
  }
  text {
    fill:#000;
    fill-opacity:1.0;
    stroke:none;
    font-size:10px;
    font-weight: bold;
    font-family: "Courier New", monospace;
  }
  line {
      stroke-linecap: round;
  }
  .nodelabel {
    text-anchor: middle;
  }
  .inputPortLabel {
    text-anchor: end;
  }
  .splitjoinBody {
    fill:#000;
  }
  .invert {
    fill:#ff9999;
    fill-opacity:1.0;
  }
  .combinational {
    fill:#afecef;
    fill-opacity:1.0;
  }
  .state {
    fill:#def1b2;
    fill-opacity:1.0;
  }
  .hierarchical {
    fill:#ffd8b2;
    fill-opacity:1.0;
  }
  .io {
    fill:#fcffb2;
    fill-opacity:1.0;
  }</style><g s:type="dff-bus" class="state" transform="translate(439,132)" s:width="34" s:height="44" id="cell_$procdff$8"><s:alias val="$dff-bus"/><s:alias val="$_DFF_-bus"/><s:alias val="$_DFF_P_-bus"/><s:alias val="adff-bus"/><s:alias val="$adff-bus"/><s:alias val="$_DFF_-bus"/><s:alias val="$_DFF_P_-bus"/><s:alias val="sdff-bus"/><s:alias val="$sdff-bus"/><s:alias val="$_DFF_-bus"/><s:alias val="$_DFF_P_-bus"/><rect width="30" height="40" x="0" y="0" stroke="none" transform="translate(4,4)" style="filter:brightness(0.7);" class="cell_$procdff$8"/><path d="M32,4 L34,4 L34,44 L4,44 L4,42" class="cell_$procdff$8"/><rect width="30" height="40" x="0" y="0" stroke="none" transform="translate(2,2)" style="filter:brightness(0.7)" class="cell_$procdff$8"/><path d="M30,2 L32,2 L32,42 L2,42 L2,40" class="cell_$procdff$8" style=""/><rect width="30" height="40" x="0" y="0" class="cell_$procdff$8"/><path d="M0,35 L5,30 L0,25 Z" class="cell_$procdff$8" style="fill:#ffffff;"/><g s:x="35" s:y="10" s:pid="Q"/><g s:x="-1" s:y="30" s:pid="CLK"/><g s:x="-1" s:y="30" s:pid="C"/><g s:x="-1" s:y="10" s:pid="D"/><g s:x="17" s:y="44" s:pid="ARST"/><g s:x="17" s:y="44" s:pid="SRST"/></g><g s:type="dff-bus" class="state" transform="translate(249.5,68)" s:width="34" s:height="44" id="cell_$procdff$9"><s:alias val="$dff-bus"/><s:alias val="$_DFF_-bus"/><s:alias val="$_DFF_P_-bus"/><s:alias val="adff-bus"/><s:alias val="$adff-bus"/><s:alias val="$_DFF_-bus"/><s:alias val="$_DFF_P_-bus"/><s:alias val="sdff-bus"/><s:alias val="$sdff-bus"/><s:alias val="$_DFF_-bus"/><s:alias val="$_DFF_P_-bus"/><rect width="30" height="40" x="0" y="0" stroke="none" transform="translate(4,4)" style="filter:brightness(0.7);" class="cell_$procdff$9"/><path d="M32,4 L34,4 L34,44 L4,44 L4,42" class="cell_$procdff$9"/><rect width="30" height="40" x="0" y="0" stroke="none" transform="translate(2,2)" style="filter:brightness(0.7)" class="cell_$procdff$9"/><path d="M30,2 L32,2 L32,42 L2,42 L2,40" class="cell_$procdff$9" style=""/><rect width="30" height="40" x="0" y="0" class="cell_$procdff$9"/><path d="M0,35 L5,30 L0,25 Z" class="cell_$procdff$9" style="fill:#ffffff;"/><g s:x="35" s:y="10" s:pid="Q"/><g s:x="-1" s:y="30" s:pid="CLK"/><g s:x="-1" s:y="30" s:pid="C"/><g s:x="-1" s:y="10" s:pid="D"/><g s:x="17" s:y="44" s:pid="ARST"/><g s:x="17" s:y="44" s:pid="SRST"/></g><g s:type="mux-bus" class="combinational" transform="translate(349.5,112)" s:width="24" s:height="40" id="cell_$procmux$3"><s:alias val="$pmux-bus"/><s:alias val="$mux-bus"/><s:alias val="$_MUX_-bus"/><path d="M8,2 L8,0 L24,8 L24,32 L8,40 L8,38" style="filter:brightness(0.7)" class="cell_$procmux$3"/><path d="M4,2 L4,0 L22,9 L22,31 L4,40 L4,38" style="filter:brightness(0.7)" class="cell_$procmux$3"/><path d="M0,0 L20,10 L20,30 L0,40 Z" class="cell_$procmux$3"/><text x="5" y="32" class="nodelabel cell_$procmux$178" s:attribute="">1</text><text x="5" y="13" class="nodelabel cell_$procmux$178" s:attribute="">0</text><g s:x="-1" s:y="10" s:pid="A"/><g s:x="-1" s:y="30" s:pid="B"/><g s:x="12" s:y="38" s:pid="S"/><g s:x="24.5" s:y="20" s:pid="Y"/></g><g s:type="mux-bus" class="combinational" transform="translate(134,22)" s:width="24" s:height="40" id="cell_$procmux$6"><s:alias val="$pmux-bus"/><s:alias val="$mux-bus"/><s:alias val="$_MUX_-bus"/><path d="M8,2 L8,0 L24,8 L24,32 L8,40 L8,38" style="filter:brightness(0.7)" class="cell_$procmux$6"/><path d="M4,2 L4,0 L22,9 L22,31 L4,40 L4,38" style="filter:brightness(0.7)" class="cell_$procmux$6"/><path d="M0,0 L20,10 L20,30 L0,40 Z" class="cell_$procmux$6"/><text x="5" y="32" class="nodelabel cell_$procmux$178" s:attribute="">1</text><text x="5" y="13" class="nodelabel cell_$procmux$178" s:attribute="">0</text><g s:x="-1" s:y="10" s:pid="A"/><g s:x="-1" s:y="30" s:pid="B"/><g s:x="12" s:y="38" s:pid="S"/><g s:x="24.5" s:y="20" s:pid="Y"/></g><g s:type="inputExt" class="io" transform="translate(188.5,88)" s:width="30" s:height="20" id="cell_clk"><text x="15" y="-4" class="nodelabel cell_clk" s:attribute="ref">clk</text><s:alias val="$_inputExt_"/><path d="M0,0 L0,20 L15,20 L30,10 L15,0 Z" class="cell_clk"/><g s:x="30" s:y="10" s:pid="Y"/></g><g s:type="inputExt" class="io" transform="translate(73,163)" s:width="30" s:height="20" id="cell_reset"><text x="15" y="-4" class="nodelabel cell_reset" s:attribute="ref">reset</text><s:alias val="$_inputExt_"/><path d="M0,0 L0,20 L15,20 L30,10 L15,0 Z" class="cell_reset"/><g s:x="30" s:y="10" s:pid="Y"/></g><g s:type="inputExt" class="io" transform="translate(12,22)" s:width="30" s:height="20" id="cell_a"><text x="15" y="-4" class="nodelabel cell_a" s:attribute="ref">a</text><s:alias val="$_inputExt_"/><path d="M0,0 L0,20 L15,20 L30,10 L15,0 Z" class="cell_a"/><g s:x="30" s:y="10" s:pid="Y"/></g><g s:type="outputExt" class="io" transform="translate(538,132)" s:width="30" s:height="20" id="cell_y"><text x="15" y="-4" class="nodelabel cell_y" s:attribute="ref">y</text><s:alias val="$_outputExt_"/><path d="M30,0 L30,20 L15,20 L0,10 L15,0 Z" class="cell_y"/><g s:x="0" s:y="10" s:pid="A"/></g><g s:type="constant" class="io" transform="translate(12,132)" s:width="30" s:height="20" id="cell_00000000"><text x="15" y="-4" class="nodelabel cell_00000000" s:attribute="ref">0x0</text><s:alias val="$_constant_"/><rect width="30" height="20" class="cell_00000000"/><g s:x="31" s:y="10" s:pid="Y"/></g><line x1="218.5" x2="228.5" y1="98" y2="98" class="net_2 width_1" style="stroke-width: 1"/><line x1="228.5" x2="228.5" y1="98" y2="162" class="net_2 width_1" style="stroke-width: 1"/><circle cx="228.5" cy="98" r="2" style="fill:#000" class="net_2 width_1"/><line x1="228.5" x2="438" y1="162" y2="162" class="net_2 width_1" style="stroke-width: 1"/><line x1="218.5" x2="248.5" y1="98" y2="98" class="net_2 width_1" style="stroke-width: 1"/><line x1="374" x2="418" y1="132" y2="132" class="net_20,21,22,23,24,25,26,27 width_8" style="stroke-width: 2"/><line x1="418" x2="418" y1="132" y2="142" class="net_20,21,22,23,24,25,26,27 width_8" style="stroke-width: 2"/><line x1="418" x2="438" y1="142" y2="142" class="net_20,21,22,23,24,25,26,27 width_8" style="stroke-width: 2"/><line x1="158.5" x2="228.5" y1="42" y2="42" class="net_28,29,30,31,32,33,34,35 width_8" style="stroke-width: 2"/><line x1="228.5" x2="228.5" y1="42" y2="78" class="net_28,29,30,31,32,33,34,35 width_8" style="stroke-width: 2"/><line x1="228.5" x2="248.5" y1="78" y2="78" class="net_28,29,30,31,32,33,34,35 width_8" style="stroke-width: 2"/><line x1="284.5" x2="328.5" y1="78" y2="78" class="net_36,37,38,39,40,41,42,43 width_8" style="stroke-width: 2"/><line x1="328.5" x2="328.5" y1="78" y2="122" class="net_36,37,38,39,40,41,42,43 width_8" style="stroke-width: 2"/><line x1="328.5" x2="348.5" y1="122" y2="122" class="net_36,37,38,39,40,41,42,43 width_8" style="stroke-width: 2"/><line x1="43" x2="348.5" y1="142" y2="142" class="net_44,45,46,47,48,49,50,51 width_8" style="stroke-width: 2"/><line x1="43" x2="53" y1="142" y2="142" class="net_44,45,46,47,48,49,50,51 width_8" style="stroke-width: 2"/><line x1="53" x2="53" y1="142" y2="52" class="net_44,45,46,47,48,49,50,51 width_8" style="stroke-width: 2"/><circle cx="53" cy="142" r="3" style="fill:#000" class="net_44,45,46,47,48,49,50,51 width_8"/><line x1="53" x2="133" y1="52" y2="52" class="net_44,45,46,47,48,49,50,51 width_8" style="stroke-width: 2"/><line x1="103" x2="361.5" y1="173" y2="173" class="net_3 width_1" style="stroke-width: 1"/><line x1="361.5" x2="361.5" y1="173" y2="150" class="net_3 width_1" style="stroke-width: 1"/><line x1="103" x2="113" y1="173" y2="173" class="net_3 width_1" style="stroke-width: 1"/><line x1="113" x2="113" y1="173" y2="163" class="net_3 width_1" style="stroke-width: 1"/><line x1="113" x2="146" y1="163" y2="163" class="net_3 width_1" style="stroke-width: 1"/><circle cx="113" cy="173" r="2" style="fill:#000" class="net_3 width_1"/><line x1="146" x2="146" y1="163" y2="60" class="net_3 width_1" style="stroke-width: 1"/><line x1="42" x2="133" y1="32" y2="32" class="net_4,5,6,7,8,9,10,11 width_8" style="stroke-width: 2"/><line x1="474" x2="538" y1="142" y2="142" class="net_12,13,14,15,16,17,18,19 width_8" style="stroke-width: 2"/><rect x="405" y="127" width="16" height="9" class="net_20,21,22,23,24,25,26,27 width_8 busLabel_8" style="fill: white; stroke: none"/><text x="404" y="135" class="net_20,21,22,23,24,25,26,27 width_8 busLabel_8">/8/</text><rect x="202.5" y="37" width="16" height="9" class="net_28,29,30,31,32,33,34,35 width_8 busLabel_8" style="fill: white; stroke: none"/><text x="201.5" y="45" class="net_28,29,30,31,32,33,34,35 width_8 busLabel_8">/8/</text><rect x="315.5" y="73" width="16" height="9" class="net_36,37,38,39,40,41,42,43 width_8 busLabel_8" style="fill: white; stroke: none"/><text x="314.5" y="81" class="net_36,37,38,39,40,41,42,43 width_8 busLabel_8">/8/</text><rect x="87" y="47" width="16" height="9" class="net_44,45,46,47,48,49,50,51 width_8 busLabel_8" style="fill: white; stroke: none"/><text x="86" y="55" class="net_44,45,46,47,48,49,50,51 width_8 busLabel_8">/8/</text><rect x="87" y="47" width="16" height="9" class="net_44,45,46,47,48,49,50,51 width_8 busLabel_8" style="fill: white; stroke: none"/><text x="86" y="55" class="net_44,45,46,47,48,49,50,51 width_8 busLabel_8">/8/</text><rect x="87" y="27" width="16" height="9" class="net_4,5,6,7,8,9,10,11 width_8 busLabel_8" style="fill: white; stroke: none"/><text x="86" y="35" class="net_4,5,6,7,8,9,10,11 width_8 busLabel_8">/8/</text><rect x="505" y="137" width="16" height="9" class="net_12,13,14,15,16,17,18,19 width_8 busLabel_8" style="fill: white; stroke: none"/><text x="504" y="145" class="net_12,13,14,15,16,17,18,19 width_8 busLabel_8">/8/</text></svg>