<svg xmlns="http://www.w3.org/2000/svg" xmlns:xlink="http://www.w3.org/1999/xlink" xmlns:s="https://github.com/nturley/netlistsvg" width="462.5" height="308"><style>  svg {
    stroke:#000;
    fill:none;
  }
  text {
    fill:#000;
    fill-opacity:1.0;
    stroke:none;
    font-size:10px;
    font-weight: bold;
    font-family: "Courier New", monospace;
  }
  line {
      stroke-linecap: round;
  }
  .nodelabel {
    text-anchor: middle;
  }
  .inputPortLabel {
    text-anchor: end;
  }
  .splitjoinBody {
    fill:#000;
  }
  .invert {
    fill:#ff9999;
    fill-opacity:1.0;
  }
  .combinational {
    fill:#afecef;
    fill-opacity:1.0;
  }
  .state {
    fill:#def1b2;
    fill-opacity:1.0;
  }
  .hierarchical {
    fill:#ffd8b2;
    fill-opacity:1.0;
  }
  .io {
    fill:#fcffb2;
    fill-opacity:1.0;
  }</style><g s:type="not" class="combinational" transform="translate(234,173)" s:width="30" s:height="20" id="cell_$eq$ref.v:19$2"><s:alias val="$_NOT_"/><s:alias val="$not"/><s:alias val="$logic_not"/><path d="M0,0 L0,20 L20,10 Z" class="cell_$eq$ref.v:19$2"/><circle cx="24" cy="10" r="3" class="invert"/><g s:x="-1" s:y="10" s:pid="A"/><g s:x="27" s:y="10" s:pid="Y"/></g><g s:type="mul" class="hierarchical" transform="translate(174,27)" s:width="25" s:height="25" id="cell_$mul$ref.v:22$3"><s:alias val="$mul"/><circle r="12.5" cx="12.5" cy="12.5" class="cell_$mul$ref.v:22$3"/><line x1="7.5" x2="17.5" y1="7.5" y2="17.5" class="cell_$mul$ref.v:22$3"/><line x1="17.5" x2="7.5" y1="7.5" y2="17.5" class="cell_$mul$ref.v:22$3"/><g s:x="2" s:y="5" s:pid="A"/><g s:x="2" s:y="20" s:pid="B"/><g s:x="26" s:y="12.5" s:pid="Y"/></g><g s:type="dff-bus" class="state" transform="translate(73,72)" s:width="34" s:height="44" id="cell_$procdff$10"><s:alias val="$dff-bus"/><s:alias val="$_DFF_-bus"/><s:alias val="$_DFF_P_-bus"/><s:alias val="adff-bus"/><s:alias val="$adff-bus"/><s:alias val="$_DFF_-bus"/><s:alias val="$_DFF_P_-bus"/><s:alias val="sdff-bus"/><s:alias val="$sdff-bus"/><s:alias val="$_DFF_-bus"/><s:alias val="$_DFF_P_-bus"/><rect width="30" height="40" x="0" y="0" stroke="none" transform="translate(4,4)" style="filter:brightness(0.7);" class="cell_$procdff$10"/><path d="M32,4 L34,4 L34,44 L4,44 L4,42" class="cell_$procdff$10"/><rect width="30" height="40" x="0" y="0" stroke="none" transform="translate(2,2)" style="filter:brightness(0.7)" class="cell_$procdff$10"/><path d="M30,2 L32,2 L32,42 L2,42 L2,40" class="cell_$procdff$10" style=""/><rect width="30" height="40" x="0" y="0" class="cell_$procdff$10"/><path d="M0,35 L5,30 L0,25 Z" class="cell_$procdff$10" style="fill:#ffffff;"/><g s:x="35" s:y="10" s:pid="Q"/><g s:x="-1" s:y="30" s:pid="CLK"/><g s:x="-1" s:y="30" s:pid="C"/><g s:x="-1" s:y="10" s:pid="D"/><g s:x="17" s:y="44" s:pid="ARST"/><g s:x="17" s:y="44" s:pid="SRST"/></g><g s:type="mux-bus" class="combinational" transform="translate(296.6666666666667,29.5)" s:width="24" s:height="40" id="cell_$procmux$5"><s:alias val="$pmux-bus"/><s:alias val="$mux-bus"/><s:alias val="$_MUX_-bus"/><path d="M8,2 L8,0 L24,8 L24,32 L8,40 L8,38" style="filter:brightness(0.7)" class="cell_$procmux$5"/><path d="M4,2 L4,0 L22,9 L22,31 L4,40 L4,38" style="filter:brightness(0.7)" class="cell_$procmux$5"/><path d="M0,0 L20,10 L20,30 L0,40 Z" class="cell_$procmux$5"/><text x="5" y="32" class="nodelabel cell_$procmux$178" s:attribute="">1</text><text x="5" y="13" class="nodelabel cell_$procmux$178" s:attribute="">0</text><g s:x="-1" s:y="10" s:pid="A"/><g s:x="-1" s:y="30" s:pid="B"/><g s:x="12" s:y="38" s:pid="S"/><g s:x="24.5" s:y="20" s:pid="Y"/></g><g s:type="mux-bus" class="combinational" transform="translate(416,39.5)" s:width="24" s:height="40" id="cell_$procmux$8"><s:alias val="$pmux-bus"/><s:alias val="$mux-bus"/><s:alias val="$_MUX_-bus"/><path d="M8,2 L8,0 L24,8 L24,32 L8,40 L8,38" style="filter:brightness(0.7)" class="cell_$procmux$8"/><path d="M4,2 L4,0 L22,9 L22,31 L4,40 L4,38" style="filter:brightness(0.7)" class="cell_$procmux$8"/><path d="M0,0 L20,10 L20,30 L0,40 Z" class="cell_$procmux$8"/><text x="5" y="32" class="nodelabel cell_$procmux$178" s:attribute="">1</text><text x="5" y="13" class="nodelabel cell_$procmux$178" s:attribute="">0</text><g s:x="-1" s:y="10" s:pid="A"/><g s:x="-1" s:y="30" s:pid="B"/><g s:x="12" s:y="38" s:pid="S"/><g s:x="24.5" s:y="20" s:pid="Y"/></g><g s:type="inputExt" class="io" transform="translate(12,92)" s:width="30" s:height="20" id="cell_clk"><text x="15" y="-4" class="nodelabel cell_clk" s:attribute="ref">clk</text><s:alias val="$_inputExt_"/><path d="M0,0 L0,20 L15,20 L30,10 L15,0 Z" class="cell_clk"/><g s:x="30" s:y="10" s:pid="Y"/></g><g s:type="inputExt" class="io" transform="translate(355,259)" s:width="30" s:height="20" id="cell_reset"><text x="15" y="-4" class="nodelabel cell_reset" s:attribute="ref">reset</text><s:alias val="$_inputExt_"/><path d="M0,0 L0,20 L15,20 L30,10 L15,0 Z" class="cell_reset"/><g s:x="30" s:y="10" s:pid="Y"/></g><g s:type="outputExt" class="io" transform="translate(172,152)" s:width="30" s:height="20" id="cell_y"><text x="15" y="-4" class="nodelabel cell_y" s:attribute="ref">y</text><s:alias val="$_outputExt_"/><path d="M30,0 L30,20 L15,20 L0,10 L15,0 Z" class="cell_y"/><g s:x="0" s:y="10" s:pid="A"/></g><g s:type="constant" class="io" transform="translate(77,22)" s:width="30" s:height="20" id="cell_10"><text x="15" y="-4" class="nodelabel cell_10" s:attribute="ref">10</text><s:alias val="$_constant_"/><rect width="30" height="20" class="cell_10"/><g s:x="31" s:y="10" s:pid="Y"/></g><g s:type="constant" class="io" transform="translate(172,92)" s:width="30" s:height="20" id="cell_001"><text x="15" y="-4" class="nodelabel cell_001" s:attribute="ref">001</text><s:alias val="$_constant_"/><rect width="30" height="20" class="cell_001"/><g s:x="31" s:y="10" s:pid="Y"/></g><g s:type="constant" class="io" transform="translate(294,203)" s:width="30" s:height="20" id="cell_000"><text x="15" y="-4" class="nodelabel cell_000" s:attribute="ref">000</text><s:alias val="$_constant_"/><rect width="30" height="20" class="cell_000"/><g s:x="31" s:y="10" s:pid="Y"/></g><line x1="108" x2="118" y1="82" y2="82" class="net_4,5,6 width_3" style="stroke-width: 2"/><line x1="118" x2="118" y1="82" y2="183" class="net_4,5,6 width_3" style="stroke-width: 2"/><circle cx="118" cy="82" r="3" style="fill:#000" class="net_4,5,6 width_3"/><line x1="118" x2="233" y1="183" y2="183" class="net_4,5,6 width_3" style="stroke-width: 2"/><line x1="108" x2="152" y1="82" y2="82" class="net_4,5,6 width_3" style="stroke-width: 2"/><line x1="152" x2="152" y1="82" y2="47" class="net_4,5,6 width_3" style="stroke-width: 2"/><line x1="152" x2="176" y1="47" y2="47" class="net_4,5,6 width_3" style="stroke-width: 2"/><line x1="108" x2="118" y1="82" y2="82" class="net_4,5,6 width_3" style="stroke-width: 2"/><line x1="118" x2="118" y1="82" y2="162" class="net_4,5,6 width_3" style="stroke-width: 2"/><circle cx="118" cy="162" r="3" style="fill:#000" class="net_4,5,6 width_3"/><line x1="118" x2="172" y1="162" y2="162" class="net_4,5,6 width_3" style="stroke-width: 2"/><line x1="108" x2="176" y1="32" y2="32" class="net_17,18 width_2" style="stroke-width: 2"/><line x1="42" x2="72" y1="102" y2="102" class="net_2 width_1" style="stroke-width: 1"/><line x1="440.5" x2="450.5" y1="59.5" y2="59.5" class="net_11,12,13 width_3" style="stroke-width: 2"/><line x1="450.5" x2="450.5" y1="59.5" y2="290" class="net_11,12,13 width_3" style="stroke-width: 2"/><line x1="450.5" x2="52" y1="290" y2="290" class="net_11,12,13 width_3" style="stroke-width: 2"/><line x1="52" x2="52" y1="290" y2="82" class="net_11,12,13 width_3" style="stroke-width: 2"/><line x1="52" x2="72" y1="82" y2="82" class="net_11,12,13 width_3" style="stroke-width: 2"/><line x1="200" x2="295.6666666666667" y1="39.5" y2="39.5" class="net_8,9,10 width_3" style="stroke-width: 2"/><line x1="203" x2="274" y1="102" y2="102" class="net_19,20,21 width_3" style="stroke-width: 2"/><line x1="274" x2="274" y1="102" y2="59.5" class="net_19,20,21 width_3" style="stroke-width: 2"/><line x1="274" x2="295.6666666666667" y1="59.5" y2="59.5" class="net_19,20,21 width_3" style="stroke-width: 2"/><line x1="261" x2="308.6666666666667" y1="183" y2="183" class="net_7 width_1" style="stroke-width: 1"/><line x1="308.6666666666667" x2="308.6666666666667" y1="183" y2="67.5" class="net_7 width_1" style="stroke-width: 1"/><line x1="321.1666666666667" x2="415" y1="49.5" y2="49.5" class="net_14,15,16 width_3" style="stroke-width: 2"/><line x1="325" x2="395" y1="213" y2="213" class="net_22,23,24 width_3" style="stroke-width: 2"/><line x1="395" x2="395" y1="213" y2="69.5" class="net_22,23,24 width_3" style="stroke-width: 2"/><line x1="395" x2="415" y1="69.5" y2="69.5" class="net_22,23,24 width_3" style="stroke-width: 2"/><line x1="385" x2="428" y1="269" y2="269" class="net_3 width_1" style="stroke-width: 1"/><line x1="428" x2="428" y1="269" y2="77.5" class="net_3 width_1" style="stroke-width: 1"/><rect x="139" y="157" width="16" height="9" class="net_4,5,6 width_3 busLabel_3" style="fill: white; stroke: none"/><text x="138" y="165" class="net_4,5,6 width_3 busLabel_3">/3/</text><rect x="139" y="157" width="16" height="9" class="net_4,5,6 width_3 busLabel_3" style="fill: white; stroke: none"/><text x="138" y="165" class="net_4,5,6 width_3 busLabel_3">/3/</text><rect x="139" y="157" width="16" height="9" class="net_4,5,6 width_3 busLabel_3" style="fill: white; stroke: none"/><text x="138" y="165" class="net_4,5,6 width_3 busLabel_3">/3/</text><rect x="139" y="27" width="16" height="9" class="net_17,18 width_2 busLabel_2" style="fill: white; stroke: none"/><text x="138" y="35" class="net_17,18 width_2 busLabel_2">/2/</text><rect x="247.5" y="285" width="16" height="9" class="net_11,12,13 width_3 busLabel_3" style="fill: white; stroke: none"/><text x="246.5" y="293" class="net_11,12,13 width_3 busLabel_3">/3/</text><rect x="247.5" y="34.5" width="16" height="9" class="net_8,9,10 width_3 busLabel_3" style="fill: white; stroke: none"/><text x="246.5" y="42.5" class="net_8,9,10 width_3 busLabel_3">/3/</text><rect x="247.5" y="97" width="16" height="9" class="net_19,20,21 width_3 busLabel_3" style="fill: white; stroke: none"/><text x="246.5" y="105" class="net_19,20,21 width_3 busLabel_3">/3/</text><rect x="369" y="44.5" width="16" height="9" class="net_14,15,16 width_3 busLabel_3" style="fill: white; stroke: none"/><text x="368" y="52.5" class="net_14,15,16 width_3 busLabel_3">/3/</text><rect x="369" y="208" width="16" height="9" class="net_22,23,24 width_3 busLabel_3" style="fill: white; stroke: none"/><text x="368" y="216" class="net_22,23,24 width_3 busLabel_3">/3/</text></svg>