<svg xmlns="http://www.w3.org/2000/svg" xmlns:xlink="http://www.w3.org/1999/xlink" xmlns:s="https://github.com/nturley/netlistsvg" width="615" height="239"><style>  svg {
    stroke:#000;
    fill:none;
  }
  text {
    fill:#000;
    fill-opacity:1.0;
    stroke:none;
    font-size:10px;
    font-weight: bold;
    font-family: "Courier New", monospace;
  }
  line {
      stroke-linecap: round;
  }
  .nodelabel {
    text-anchor: middle;
  }
  .inputPortLabel {
    text-anchor: end;
  }
  .splitjoinBody {
    fill:#000;
  }
  .invert {
    fill:#ff9999;
    fill-opacity:1.0;
  }
  .combinational {
    fill:#afecef;
    fill-opacity:1.0;
  }
  .state {
    fill:#def1b2;
    fill-opacity:1.0;
  }
  .hierarchical {
    fill:#ffd8b2;
    fill-opacity:1.0;
  }
  .io {
    fill:#fcffb2;
    fill-opacity:1.0;
  }</style><g s:type="eq" class="hierarchical" transform="translate(500,97)" s:width="25" s:height="25" id="cell_$eq$ref.v:56$1"><s:alias val="$eq"/><s:alias val="$eqx"/><circle r="12.5" cx="12.5" cy="12.5" class="cell_$eq$ref.v:56$1"/><line x1="7.5" x2="17.5" y1="10" y2="10" class="cell_$eq$ref.v:56$1"/><line x1="7.5" x2="17.5" y1="15" y2="15" class="cell_$eq$ref.v:56$1"/><g s:x="2" s:y="5" s:pid="A"/><g s:x="2" s:y="20" s:pid="B"/><g s:x="25" s:y="12.5" s:pid="Y"/></g><g s:type="generic" class="hierarchical" transform="translate(103,61.5)" s:width="30" s:height="40" id="cell_S1"><text x="15" y="-4" class="nodelabel cell_S1" s:attribute="ref">register</text><rect width="30" height="60" s:generic="body" class="cell_S1"/><g transform="translate(0,10)" s:x="0" s:y="10" s:pid="in0" id="port_S1~clk"><text x="-3" y="-4" class="inputPortLabel cell_S1">clk</text></g><g transform="translate(0,30)" s:x="0" s:y="10" s:pid="in0" id="port_S1~in"><text x="-3" y="-4" class="inputPortLabel cell_S1">in</text></g><g transform="translate(0,50)" s:x="0" s:y="10" s:pid="in0" id="port_S1~reset"><text x="-3" y="-4" class="inputPortLabel cell_S1">reset</text></g><g transform="translate(30,10)" s:x="30" s:y="10" s:pid="out0" id="port_S1~out"><text x="5" y="-4" style="fill:#000; stroke:none" class="cell_S1">out</text></g></g><g s:type="generic" class="hierarchical" transform="translate(214,101.5)" s:width="30" s:height="40" id="cell_S2"><text x="15" y="-4" class="nodelabel cell_S2" s:attribute="ref">register</text><rect width="30" height="60" s:generic="body" class="cell_S2"/><g transform="translate(0,10)" s:x="0" s:y="10" s:pid="in0" id="port_S2~clk"><text x="-3" y="-4" class="inputPortLabel cell_S2">clk</text></g><g transform="translate(0,30)" s:x="0" s:y="10" s:pid="in0" id="port_S2~in"><text x="-3" y="-4" class="inputPortLabel cell_S2">in</text></g><g transform="translate(0,50)" s:x="0" s:y="10" s:pid="in0" id="port_S2~reset"><text x="-3" y="-4" class="inputPortLabel cell_S2">reset</text></g><g transform="translate(30,10)" s:x="30" s:y="10" s:pid="out0" id="port_S2~out"><text x="5" y="-4" style="fill:#000; stroke:none" class="cell_S2">out</text></g></g><g s:type="generic" class="hierarchical" transform="translate(325,164)" s:width="30" s:height="40" id="cell_S3"><text x="15" y="-4" class="nodelabel cell_S3" s:attribute="ref">register</text><rect width="30" height="60" s:generic="body" class="cell_S3"/><g transform="translate(0,10)" s:x="0" s:y="10" s:pid="in0" id="port_S3~clk"><text x="-3" y="-4" class="inputPortLabel cell_S3">clk</text></g><g transform="translate(0,30)" s:x="0" s:y="10" s:pid="in0" id="port_S3~in"><text x="-3" y="-4" class="inputPortLabel cell_S3">in</text></g><g transform="translate(0,50)" s:x="0" s:y="10" s:pid="in0" id="port_S3~reset"><text x="-3" y="-4" class="inputPortLabel cell_S3">reset</text></g><g transform="translate(30,10)" s:x="30" s:y="10" s:pid="out0" id="port_S3~out"><text x="5" y="-4" style="fill:#000; stroke:none" class="cell_S3">out</text></g></g><g s:type="inputExt" class="io" transform="translate(12,22)" s:width="30" s:height="20" id="cell_clk"><text x="15" y="-4" class="nodelabel cell_clk" s:attribute="ref">clk</text><s:alias val="$_inputExt_"/><path d="M0,0 L0,20 L15,20 L30,10 L15,0 Z" class="cell_clk"/><g s:x="30" s:y="10" s:pid="Y"/></g><g s:type="inputExt" class="io" transform="translate(12,142)" s:width="30" s:height="20" id="cell_reset"><text x="15" y="-4" class="nodelabel cell_reset" s:attribute="ref">reset</text><s:alias val="$_inputExt_"/><path d="M0,0 L0,20 L15,20 L30,10 L15,0 Z" class="cell_reset"/><g s:x="30" s:y="10" s:pid="Y"/></g><g s:type="inputExt" class="io" transform="translate(12,82)" s:width="30" s:height="20" id="cell_in"><text x="15" y="-4" class="nodelabel cell_in" s:attribute="ref">in</text><s:alias val="$_inputExt_"/><path d="M0,0 L0,20 L15,20 L30,10 L15,0 Z" class="cell_in"/><g s:x="30" s:y="10" s:pid="Y"/></g><g s:type="outputExt" class="io" transform="translate(555,99.5)" s:width="30" s:height="20" id="cell_detected"><text x="15" y="-4" class="nodelabel cell_detected" s:attribute="ref">detected</text><s:alias val="$_outputExt_"/><path d="M30,0 L30,20 L15,20 L0,10 L15,0 Z" class="cell_detected"/><g s:x="0" s:y="10" s:pid="A"/></g><g s:type="constant" class="io" transform="translate(405,181.5)" s:width="30" s:height="20" id="cell_101"><text x="15" y="-4" class="nodelabel cell_101" s:attribute="ref">101</text><s:alias val="$_constant_"/><rect width="30" height="20" class="cell_101"/><g s:x="31" s:y="10" s:pid="Y"/></g><g s:type="join" class="" transform="translate(415.25,81.5)" s:width="4" s:height="40" id="cell_$join$,6,7,8,"><rect width="5" height="60" class="splitjoinBody" s:generic="body"/><s:alias val="$_join_"/><g s:x="5" s:y="20" s:pid="out"/><g transform="translate(0,10)" s:x="0" s:y="10" s:pid="in0"><text x="-3" y="-4" class="inputPortLabel">0</text></g><g transform="translate(0,30)" s:x="0" s:y="10" s:pid="in0"><text x="-3" y="-4" class="inputPortLabel">1</text></g><g transform="translate(0,50)" s:x="0" s:y="10" s:pid="in0"><text x="-3" y="-4" class="inputPortLabel">2</text></g></g><line x1="421.25" x2="502" y1="102" y2="102" class="net_6,7,8 width_3" style="stroke-width: 2"/><line x1="436" x2="480" y1="191.5" y2="191.5" class="net_9,10,11 width_3" style="stroke-width: 2"/><line x1="480" x2="480" y1="191.5" y2="117" class="net_9,10,11 width_3" style="stroke-width: 2"/><line x1="480" x2="502" y1="117" y2="117" class="net_9,10,11 width_3" style="stroke-width: 2"/><line x1="42" x2="62" y1="32" y2="32" class="net_2 width_1" style="stroke-width: 1"/><line x1="62" x2="62" y1="32" y2="72" class="net_2 width_1" style="stroke-width: 1"/><circle cx="62" cy="32" r="2" style="fill:#000" class="net_2 width_1"/><circle cx="62" cy="72" r="2" style="fill:#000" class="net_2 width_1"/><line x1="62" x2="103" y1="72" y2="72" class="net_2 width_1" style="stroke-width: 1"/><line x1="42" x2="173" y1="32" y2="32" class="net_2 width_1" style="stroke-width: 1"/><line x1="173" x2="173" y1="32" y2="112" class="net_2 width_1" style="stroke-width: 1"/><line x1="173" x2="214" y1="112" y2="112" class="net_2 width_1" style="stroke-width: 1"/><line x1="42" x2="62" y1="32" y2="32" class="net_2 width_1" style="stroke-width: 1"/><line x1="62" x2="62" y1="32" y2="174.5" class="net_2 width_1" style="stroke-width: 1"/><line x1="62" x2="325" y1="174.5" y2="174.5" class="net_2 width_1" style="stroke-width: 1"/><line x1="42" x2="103" y1="92" y2="92" class="net_4 width_1" style="stroke-width: 1"/><line x1="42" x2="52" y1="152" y2="152" class="net_3 width_1" style="stroke-width: 1"/><line x1="52" x2="52" y1="152" y2="112" class="net_3 width_1" style="stroke-width: 1"/><circle cx="52" cy="152" r="2" style="fill:#000" class="net_3 width_1"/><line x1="52" x2="103" y1="112" y2="112" class="net_3 width_1" style="stroke-width: 1"/><line x1="42" x2="214" y1="152" y2="152" class="net_3 width_1" style="stroke-width: 1"/><line x1="42" x2="52" y1="152" y2="152" class="net_3 width_1" style="stroke-width: 1"/><line x1="52" x2="52" y1="152" y2="185.5" class="net_3 width_1" style="stroke-width: 1"/><line x1="52" x2="274" y1="185.5" y2="185.5" class="net_3 width_1" style="stroke-width: 1"/><line x1="274" x2="274" y1="185.5" y2="214.5" class="net_3 width_1" style="stroke-width: 1"/><line x1="274" x2="325" y1="214.5" y2="214.5" class="net_3 width_1" style="stroke-width: 1"/><line x1="134" x2="163" y1="72" y2="72" class="net_6 width_1" style="stroke-width: 1"/><line x1="163" x2="163" y1="72" y2="132" class="net_6 width_1" style="stroke-width: 1"/><circle cx="163" cy="72" r="2" style="fill:#000" class="net_6 width_1"/><line x1="163" x2="214" y1="132" y2="132" class="net_6 width_1" style="stroke-width: 1"/><line x1="134" x2="385" y1="72" y2="72" class="net_6 width_1" style="stroke-width: 1"/><line x1="385" x2="385" y1="72" y2="92" class="net_6 width_1" style="stroke-width: 1"/><line x1="385" x2="415.25" y1="92" y2="92" class="net_6 width_1" style="stroke-width: 1"/><line x1="245" x2="284" y1="112" y2="112" class="net_7 width_1" style="stroke-width: 1"/><line x1="284" x2="284" y1="112" y2="194.5" class="net_7 width_1" style="stroke-width: 1"/><circle cx="284" cy="112" r="2" style="fill:#000" class="net_7 width_1"/><line x1="284" x2="325" y1="194.5" y2="194.5" class="net_7 width_1" style="stroke-width: 1"/><line x1="245" x2="415.25" y1="112" y2="112" class="net_7 width_1" style="stroke-width: 1"/><line x1="525" x2="555" y1="109.5" y2="109.5" class="net_5 width_1" style="stroke-width: 1"/><line x1="356" x2="385" y1="174.5" y2="174.5" class="net_8 width_1" style="stroke-width: 1"/><line x1="385" x2="385" y1="174.5" y2="132" class="net_8 width_1" style="stroke-width: 1"/><line x1="385" x2="415.25" y1="132" y2="132" class="net_8 width_1" style="stroke-width: 1"/><rect x="467" y="97" width="16" height="9" class="net_6,7,8 width_3 busLabel_3" style="fill: white; stroke: none"/><text x="466" y="105" class="net_6,7,8 width_3 busLabel_3">/3/</text><rect x="467" y="186.5" width="16" height="9" class="net_9,10,11 width_3 busLabel_3" style="fill: white; stroke: none"/><text x="466" y="194.5" class="net_9,10,11 width_3 busLabel_3">/3/</text></svg>